<svg width="215" height="82" viewBox="0 0 215 82" fill="none" xmlns="http://www.w3.org/2000/svg">
<line x1="3.1407e-05" y1="78.5019" x2="215" y2="78.5062" stroke="white" stroke-width="3"/>
<path d="M28.4768 78.609C40.8924 -26.1772 177.268 -20.8609 187.235 78.609" stroke="white" stroke-width="3" stroke-linecap="round"/>
<path d="M53.9302 39.1339C53.6567 39.1725 53.4663 39.4254 53.5049 39.6989L54.1335 44.1547C54.1721 44.4282 54.425 44.6186 54.6984 44.58C54.9719 44.5414 55.1623 44.2885 55.1237 44.0151L54.5649 40.0543L58.5257 39.4955C58.7992 39.457 58.9896 39.204 58.951 38.9306C58.9124 38.6572 58.6595 38.4668 58.386 38.5053L53.9302 39.1339ZM106.18 78.281L54.3007 39.2295L53.6993 40.0285L105.578 79.08L106.18 78.281Z" fill="white"/>
</svg>
