<svg width="215" height="81" viewBox="0 0 215 81" fill="none" xmlns="http://www.w3.org/2000/svg">
<line x1="3.1407e-05" y1="78.5019" x2="215" y2="78.5062" stroke="white" stroke-width="3"/>
<path d="M28.4768 78.609C40.8924 -26.1772 177.268 -20.8609 187.235 78.609" stroke="white" stroke-width="3" stroke-linecap="round"/>
<path d="M167.67 44.1196C167.736 43.8514 167.572 43.5805 167.304 43.5145L162.935 42.4384C162.666 42.3724 162.396 42.5362 162.33 42.8043C162.264 43.0725 162.427 43.3434 162.695 43.4094L166.579 44.3659L165.623 48.2499C165.557 48.518 165.721 48.7889 165.989 48.8549C166.257 48.921 166.528 48.7571 166.594 48.489L167.67 44.1196ZM108.529 80.0579L167.443 44.4278L166.926 43.5722L108.011 79.2022L108.529 80.0579Z" fill="white"/>
</svg>
