<svg width="215" height="82" viewBox="0 0 215 82" fill="none" xmlns="http://www.w3.org/2000/svg">
<line x1="3.1407e-05" y1="78.5019" x2="215" y2="78.5062" stroke="white" stroke-width="3"/>
<path d="M28.4768 78.609C40.8924 -26.1772 177.268 -20.8609 187.235 78.609" stroke="white" stroke-width="3" stroke-linecap="round"/>
<path d="M69.0986 20.7275C68.8278 20.673 68.5642 20.8484 68.5098 21.1191L67.6228 25.5308C67.5684 25.8016 67.7438 26.0652 68.0145 26.1196C68.2852 26.174 68.5488 25.9987 68.6032 25.7279L69.3916 21.8064L73.3132 22.5948C73.5839 22.6493 73.8475 22.4739 73.9019 22.2032C73.9563 21.9325 73.781 21.6689 73.5103 21.6145L69.0986 20.7275ZM108.193 79.2326L69.4163 20.9407L68.5837 21.4946L107.36 79.7865L108.193 79.2326Z" fill="white"/>
</svg>
