<svg width="215" height="82" viewBox="0 0 215 82" fill="none" xmlns="http://www.w3.org/2000/svg">
<line x1="3.1407e-05" y1="78.5019" x2="215" y2="78.5062" stroke="white" stroke-width="3"/>
<path d="M28.4768 78.609C40.8924 -26.1772 177.268 -20.8609 187.235 78.609" stroke="white" stroke-width="3" stroke-linecap="round"/>
<path d="M80.1822 15.0513C79.925 14.9507 79.635 15.0776 79.5344 15.3348L77.8948 19.5255C77.7942 19.7826 77.9211 20.0727 78.1782 20.1733C78.4354 20.2739 78.7254 20.147 78.826 19.8898L80.2835 16.1648L84.0085 17.6222C84.2657 17.7228 84.5557 17.5959 84.6563 17.3387C84.7569 17.0816 84.63 16.7915 84.3728 16.6909L80.1822 15.0513ZM108.523 79.4563L80.4581 15.3165L79.5419 15.7174L107.607 79.8572L108.523 79.4563Z" fill="white"/>
</svg>
