<svg width="215" height="81" viewBox="0 0 215 81" fill="none" xmlns="http://www.w3.org/2000/svg">
<line x1="3.1407e-05" y1="78.5019" x2="215" y2="78.5062" stroke="white" stroke-width="3"/>
<path d="M28.4768 78.609C40.8924 -26.1772 177.268 -20.8609 187.235 78.609" stroke="white" stroke-width="3" stroke-linecap="round"/>
<path d="M91.2603 11.3433C91.0245 11.1995 90.7168 11.2741 90.5731 11.5099L88.2307 15.3522C88.087 15.588 88.1616 15.8957 88.3974 16.0394C88.6331 16.1831 88.9408 16.1085 89.0845 15.8727L91.1667 12.4574L94.582 14.5395C94.8178 14.6832 95.1255 14.6086 95.2692 14.3728C95.413 14.137 95.3383 13.8294 95.1026 13.6856L91.2603 11.3433ZM107.987 79.6911L91.4859 11.6523L90.5141 11.888L107.015 79.9268L107.987 79.6911Z" fill="white"/>
</svg>
