<svg width="215" height="81" viewBox="0 0 215 81" fill="none" xmlns="http://www.w3.org/2000/svg">
<line x1="3.1407e-05" y1="78.5019" x2="215" y2="78.5062" stroke="white" stroke-width="3"/>
<path d="M28.4768 78.609C40.8924 -26.1772 177.268 -20.8609 187.235 78.609" stroke="white" stroke-width="3" stroke-linecap="round"/>
<path d="M105.182 9.55694C104.983 9.36542 104.667 9.37141 104.475 9.57034L101.354 12.812C101.162 13.011 101.168 13.3275 101.367 13.519C101.566 13.7105 101.883 13.7045 102.074 13.5056L104.849 10.6241L107.73 13.3984C107.929 13.59 108.246 13.584 108.437 13.385C108.629 13.1861 108.623 12.8696 108.424 12.6781L105.182 9.55694ZM106.665 80.0734L105.335 9.90766L104.335 9.92661L105.665 80.0924L106.665 80.0734Z" fill="white"/>
</svg>
