<svg width="215" height="81" viewBox="0 0 215 81" fill="none" xmlns="http://www.w3.org/2000/svg">
<line x1="3.1407e-05" y1="78.5019" x2="215" y2="78.5062" stroke="white" stroke-width="3"/>
<path d="M28.4768 78.609C40.8924 -26.1772 177.268 -20.8609 187.235 78.609" stroke="white" stroke-width="3" stroke-linecap="round"/>
<path d="M130.28 12.0048C130.158 11.7569 129.858 11.6547 129.611 11.7765L125.572 13.7608C125.324 13.8825 125.222 14.1821 125.343 14.43C125.465 14.6778 125.765 14.7801 126.013 14.6583L129.603 12.8945L131.367 16.4846C131.488 16.7325 131.788 16.8347 132.036 16.7129C132.284 16.5911 132.386 16.2915 132.264 16.0437L130.28 12.0048ZM108.076 77.5504L130.304 12.3867L129.358 12.0638L107.129 77.2276L108.076 77.5504Z" fill="white"/>
</svg>
