<svg width="215" height="81" viewBox="0 0 215 81" fill="none" xmlns="http://www.w3.org/2000/svg">
<line x1="3.1407e-05" y1="78.5019" x2="215" y2="78.5062" stroke="white" stroke-width="3"/>
<path d="M28.4768 78.609C40.8924 -26.1772 177.268 -20.8609 187.235 78.609" stroke="white" stroke-width="3" stroke-linecap="round"/>
<path d="M141.88 18.8608C141.803 18.5956 141.526 18.4429 141.261 18.5198L136.938 19.7726C136.673 19.8494 136.521 20.1268 136.597 20.392C136.674 20.6572 136.952 20.8099 137.217 20.733L141.059 19.6194L142.172 23.4613C142.249 23.7265 142.527 23.8792 142.792 23.8023C143.057 23.7255 143.21 23.4481 143.133 23.1829L141.88 18.8608ZM108.631 79.555L141.838 19.2411L140.962 18.7589L107.755 79.0727L108.631 79.555Z" fill="white"/>
</svg>
