<svg width="215" height="81" viewBox="0 0 215 81" fill="none" xmlns="http://www.w3.org/2000/svg">
<line x1="3.1407e-05" y1="78.5019" x2="215" y2="78.5062" stroke="white" stroke-width="3"/>
<path d="M28.4768 78.609C40.8924 -26.1772 177.268 -20.8609 187.235 78.609" stroke="white" stroke-width="3" stroke-linecap="round"/>
<path d="M151.329 24.9463C151.3 24.6718 151.053 24.4732 150.778 24.5029L146.304 24.9861C146.03 25.0158 145.831 25.2624 145.861 25.5369C145.891 25.8115 146.137 26.01 146.412 25.9803L150.389 25.5508L150.818 29.5277C150.848 29.8022 151.094 30.0007 151.369 29.9711C151.644 29.9414 151.842 29.6948 151.812 29.4203L151.329 24.9463ZM108.046 78.9448L151.222 25.3135L150.443 24.6865L107.267 78.3177L108.046 78.9448Z" fill="white"/>
</svg>
