<svg width="215" height="81" viewBox="0 0 215 81" fill="none" xmlns="http://www.w3.org/2000/svg">
<line x1="3.1407e-05" y1="78.5019" x2="215" y2="78.5062" stroke="white" stroke-width="3"/>
<path d="M28.4768 78.609C40.8924 -26.1772 177.268 -20.8609 187.235 78.609" stroke="white" stroke-width="3" stroke-linecap="round"/>
<path d="M160.34 34.0334C160.359 33.7579 160.15 33.5196 159.875 33.5011L155.385 33.2001C155.109 33.1816 154.871 33.39 154.853 33.6655C154.834 33.9411 155.043 34.1794 155.318 34.1979L159.309 34.4654L159.042 38.4565C159.023 38.732 159.231 38.9703 159.507 38.9888C159.783 39.0073 160.021 38.7989 160.039 38.5234L160.34 34.0334ZM108.338 79.6956L160.171 34.3764L159.512 33.6236L107.68 78.9428L108.338 79.6956Z" fill="white"/>
</svg>
