<svg width="120" height="120" viewBox="0 0 120 120" fill="none" xmlns="http://www.w3.org/2000/svg">
<path d="M119.502 114.982C119.502 114.982 119.502 114.983 119.502 114.984L119.502 114.982ZM119.373 114.875C119.448 114.937 119.48 114.978 119.493 115C119.48 115.022 119.448 115.063 119.373 115.125C119.224 115.247 118.972 115.39 118.592 115.545C117.838 115.852 116.697 116.158 115.188 116.456C112.179 117.048 107.808 117.585 102.385 118.037C91.5447 118.941 76.5592 119.5 60 119.5C43.4408 119.5 28.4553 118.941 17.6151 118.037C12.1924 117.585 7.82067 117.048 4.81175 116.456C3.30333 116.158 2.16191 115.852 1.40757 115.545C1.02797 115.39 0.775824 115.247 0.626945 115.125C0.552336 115.063 0.520118 115.022 0.506779 115C0.520118 114.978 0.552336 114.937 0.626945 114.875C0.775824 114.753 1.02797 114.61 1.40757 114.455C2.16191 114.148 3.30333 113.842 4.81175 113.544C7.82067 112.952 12.1924 112.415 17.6151 111.963C28.4553 111.059 43.4408 110.5 60 110.5C76.5592 110.5 91.5447 111.059 102.385 111.963C107.808 112.415 112.179 112.952 115.188 113.544C116.697 113.842 117.838 114.148 118.592 114.455C118.972 114.61 119.224 114.753 119.373 114.875ZM0.497983 114.982C0.498017 114.982 0.498218 114.983 0.498481 114.984L0.497983 114.982ZM0.497983 115.018C0.497948 115.018 0.498079 115.017 0.49848 115.016L0.497983 115.018ZM119.502 115.016C119.502 115.017 119.502 115.018 119.502 115.018L119.502 115.016Z" stroke="white" stroke-opacity="0.2"/>
<path d="M119.5 102.5C119.5 104.667 117.991 106.838 115.001 108.9C112.027 110.951 107.69 112.818 102.286 114.394C91.4856 117.545 76.5349 119.5 60 119.5C43.4651 119.5 28.5144 117.545 17.7136 114.394C12.3099 112.818 7.97326 110.951 4.99894 108.9C2.00915 106.838 0.5 104.667 0.5 102.5C0.5 100.333 2.00915 98.1615 4.99894 96.0998C7.97326 94.0488 12.3099 92.1817 17.7136 90.6056C28.5144 87.4554 43.4651 85.5 60 85.5C76.5349 85.5 91.4856 87.4554 102.286 90.6056C107.69 92.1817 112.027 94.0488 115.001 96.0998C117.991 98.1615 119.5 100.333 119.5 102.5Z" stroke="white" stroke-opacity="0.2"/>
<path d="M119.5 90C119.5 97.9929 113.008 105.364 102.203 110.766C91.428 116.153 76.5078 119.5 60 119.5C43.4922 119.5 28.572 116.153 17.7972 110.766C6.99249 105.364 0.5 97.9929 0.5 90C0.5 82.0071 6.99249 74.6364 17.7972 69.234C28.572 63.8466 43.4922 60.5 60 60.5C76.5078 60.5 91.428 63.8466 102.203 69.234C113.008 74.6364 119.5 82.0071 119.5 90Z" stroke="white" stroke-opacity="0.2"/>
<path d="M119.5 77.5C119.5 89.0308 112.903 99.5187 102.137 107.144C91.3735 114.768 76.4773 119.5 60 119.5C43.5227 119.5 28.6265 114.768 17.8626 107.144C7.0975 99.5187 0.5 89.0308 0.5 77.5C0.5 65.9692 7.0975 55.4813 17.8626 47.856C28.6265 40.2315 43.5227 35.5 60 35.5C76.4773 35.5 91.3735 40.2315 102.137 47.856C112.903 55.4813 119.5 65.9692 119.5 77.5Z" stroke="white" stroke-opacity="0.2"/>
<path d="M119.5 70C119.5 97.2566 92.9502 119.5 60 119.5C27.0498 119.5 0.5 97.2566 0.5 70C0.5 42.7434 27.0498 20.5 60 20.5C92.9502 20.5 119.5 42.7434 119.5 70Z" stroke="white" stroke-opacity="0.2"/>
<circle cx="60" cy="60" r="59.5" stroke="white"/>
</svg>
