<svg width="155" height="165" viewBox="0 0 155 165" fill="none" xmlns="http://www.w3.org/2000/svg">
<circle cx="77.5" cy="87.5" r="76.75" stroke="white" stroke-width="1.5"/>
<circle cx="77.5" cy="87.5" r="51.75" fill="white" stroke="white" stroke-width="1.5"/>
<path d="M80.9773 18.2727V27H79.9545L75.1989 20.1477H75.1136V27H74.0568V18.2727H75.0795L79.8523 25.142H79.9375V18.2727H80.9773Z" fill="white"/>
<path d="M77.5 0L83.9952 11.25H71.0048L77.5 0Z" fill="white"/>
<path d="M78.7289 47.985C78.4412 47.6871 77.9664 47.6788 77.6684 47.9665L72.8128 52.6555C72.5149 52.9432 72.5066 53.418 72.7943 53.716C73.0821 54.0139 73.5569 54.0222 73.8548 53.7345L78.1709 49.5665L82.3388 53.8826C82.6266 54.1805 83.1014 54.1888 83.3993 53.9011C83.6973 53.6134 83.7056 53.1385 83.4178 52.8406L78.7289 47.985ZM77.5605 127.507L78.9393 48.5191L77.4395 48.4929L76.0608 127.481L77.5605 127.507Z" fill="black"/>
</svg>
