<svg width="155" height="165" viewBox="0 0 155 165" fill="none" xmlns="http://www.w3.org/2000/svg">
<circle cx="77.5" cy="87.5" r="76.75" stroke="white" stroke-width="1.5"/>
<circle cx="77.5" cy="87.5" r="51.75" fill="white" stroke="white" stroke-width="1.5"/>
<path d="M80.9773 18.2727V27H79.9545L75.1989 20.1477H75.1136V27H74.0568V18.2727H75.0795L79.8523 25.142H79.9375V18.2727H80.9773Z" fill="white"/>
<path d="M77.5 0L83.9952 11.25H71.0048L77.5 0Z" fill="white"/>
<path d="M84.9735 48.6699C84.7359 48.3306 84.2682 48.2482 83.9289 48.4858L78.3997 52.3574C78.0604 52.595 77.9779 53.0626 78.2155 53.4019C78.4531 53.7412 78.9207 53.8237 79.26 53.5861L84.1749 50.1447L87.6164 55.0596C87.854 55.3989 88.3216 55.4813 88.6609 55.2438C89.0002 55.0062 89.0827 54.5385 88.8451 54.1992L84.9735 48.6699ZM71.3795 127.03L85.0977 49.2304L83.6205 48.9699L69.9023 126.77L71.3795 127.03Z" fill="black"/>
</svg>
