<svg width="155" height="165" viewBox="0 0 155 165" fill="none" xmlns="http://www.w3.org/2000/svg">
<circle cx="77.5" cy="87.5" r="76.75" stroke="white" stroke-width="1.5"/>
<circle cx="77.5" cy="87.5" r="51.75" fill="white" stroke="white" stroke-width="1.5"/>
<path d="M80.9773 18.2727V27H79.9545L75.1989 20.1477H75.1136V27H74.0568V18.2727H75.0795L79.8523 25.142H79.9375V18.2727H80.9773Z" fill="white"/>
<path d="M77.5 0L83.9952 11.25H71.0048L77.5 0Z" fill="white"/>
<path d="M116.83 95.4735C117.169 95.2359 117.252 94.7682 117.014 94.4289L113.143 88.8996C112.905 88.5603 112.437 88.4779 112.098 88.7155C111.759 88.953 111.676 89.4207 111.914 89.76L115.355 94.6749L110.44 98.1164C110.101 98.354 110.019 98.8216 110.256 99.1609C110.494 99.5002 110.962 99.5827 111.301 99.3451L116.83 95.4735ZM38.4699 81.8795L116.27 95.5977L116.53 94.1205L38.7303 80.4023L38.4699 81.8795Z" fill="black"/>
</svg>
