<svg width="155" height="165" viewBox="0 0 155 165" fill="none" xmlns="http://www.w3.org/2000/svg">
<circle cx="77.5" cy="87.5" r="76.75" stroke="white" stroke-width="1.5"/>
<circle cx="77.5" cy="87.5" r="51.75" fill="white" stroke="white" stroke-width="1.5"/>
<path d="M80.9773 18.2727V27H79.9545L75.1989 20.1477H75.1136V27H74.0568V18.2727H75.0795L79.8523 25.142H79.9375V18.2727H80.9773Z" fill="white"/>
<path d="M77.5 0L83.9952 11.25H71.0048L77.5 0Z" fill="white"/>
<path d="M116.694 96.1587C117.037 95.9271 117.128 95.4609 116.896 95.1176L113.121 89.5215C112.89 89.1781 112.424 89.0875 112.08 89.3192C111.737 89.5508 111.646 90.0169 111.878 90.3603L115.233 95.3346L110.259 98.6897C109.915 98.9213 109.825 99.3875 110.056 99.7309C110.288 100.074 110.754 100.165 111.098 99.9333L116.694 96.1587ZM38.5826 81.1993L116.131 96.2732L116.417 94.8007L38.8688 79.7268L38.5826 81.1993Z" fill="black"/>
</svg>
