<svg width="155" height="165" viewBox="0 0 155 165" fill="none" xmlns="http://www.w3.org/2000/svg">
<circle cx="77.5" cy="87.5" r="76.75" stroke="white" stroke-width="1.5"/>
<circle cx="77.5" cy="87.5" r="51.75" fill="white" stroke="white" stroke-width="1.5"/>
<path d="M80.9773 18.2727V27H79.9545L75.1989 20.1477H75.1136V27H74.0568V18.2727H75.0795L79.8523 25.142H79.9375V18.2727H80.9773Z" fill="white"/>
<path d="M77.5 0L83.9952 11.25H71.0048L77.5 0Z" fill="white"/>
<path d="M116.545 96.8415C116.893 96.6159 116.991 96.1514 116.766 95.804L113.09 90.143C112.864 89.7956 112.399 89.6969 112.052 89.9225C111.705 90.1481 111.606 90.6126 111.832 90.96L115.099 95.992L110.067 99.2598C109.72 99.4854 109.621 99.9499 109.847 100.297C110.072 100.645 110.537 100.743 110.884 100.518L116.545 96.8415ZM38.7072 80.5211L115.981 96.9461L116.293 95.4789L39.0191 79.0539L38.7072 80.5211Z" fill="black"/>
</svg>
