<svg width="155" height="165" viewBox="0 0 155 165" fill="none" xmlns="http://www.w3.org/2000/svg">
<circle cx="77.5" cy="87.5" r="76.75" stroke="white" stroke-width="1.5"/>
<circle cx="77.5" cy="87.5" r="51.75" fill="white" stroke="white" stroke-width="1.5"/>
<path d="M80.9773 18.2727V27H79.9545L75.1989 20.1477H75.1136V27H74.0568V18.2727H75.0795L79.8523 25.142H79.9375V18.2727H80.9773Z" fill="white"/>
<path d="M77.5 0L83.9952 11.25H71.0048L77.5 0Z" fill="white"/>
<path d="M116.385 97.5216C116.736 97.3021 116.843 96.8394 116.624 96.4881L113.047 90.7638C112.827 90.4125 112.364 90.3057 112.013 90.5252C111.662 90.7447 111.555 91.2074 111.775 91.5587L114.954 96.647L109.866 99.8265C109.515 100.046 109.408 100.509 109.627 100.86C109.847 101.211 110.309 101.318 110.661 101.099L116.385 97.5216ZM38.8437 79.8452L115.819 97.6163L116.156 96.1548L39.1811 78.3836L38.8437 79.8452Z" fill="black"/>
</svg>
