<svg width="155" height="165" viewBox="0 0 155 165" fill="none" xmlns="http://www.w3.org/2000/svg">
<circle cx="77.5" cy="87.5" r="76.75" stroke="white" stroke-width="1.5"/>
<circle cx="77.5" cy="87.5" r="51.75" fill="white" stroke="white" stroke-width="1.5"/>
<path d="M80.9773 18.2727V27H79.9545L75.1989 20.1477H75.1136V27H74.0568V18.2727H75.0795L79.8523 25.142H79.9375V18.2727H80.9773Z" fill="white"/>
<path d="M77.5 0L83.9952 11.25H71.0048L77.5 0Z" fill="white"/>
<path d="M116.213 98.1988C116.568 97.9854 116.683 97.5247 116.47 97.1696L112.993 91.3837C112.78 91.0287 112.319 90.9138 111.964 91.1271C111.609 91.3405 111.494 91.8012 111.707 92.1563L114.798 97.2993L109.655 100.39C109.299 100.603 109.185 101.064 109.398 101.419C109.611 101.774 110.072 101.889 110.427 101.675L116.213 98.1988ZM38.9919 79.1718L115.645 98.2836L116.008 96.8282L39.3548 77.7163L38.9919 79.1718Z" fill="black"/>
</svg>
