<svg width="155" height="165" viewBox="0 0 155 165" fill="none" xmlns="http://www.w3.org/2000/svg">
<circle cx="77.5" cy="87.5" r="76.75" stroke="white" stroke-width="1.5"/>
<circle cx="77.5" cy="87.5" r="51.75" fill="white" stroke="white" stroke-width="1.5"/>
<path d="M80.9773 18.2727V27H79.9545L75.1989 20.1477H75.1136V27H74.0568V18.2727H75.0795L79.8523 25.142H79.9375V18.2727H80.9773Z" fill="white"/>
<path d="M77.5 0L83.9952 11.25H71.0048L77.5 0Z" fill="white"/>
<path d="M116.029 98.8729C116.388 98.6657 116.511 98.2071 116.304 97.8483L112.929 92.0027C112.721 91.6439 112.263 91.521 111.904 91.7281C111.545 91.9353 111.422 92.3939 111.63 92.7527L114.63 97.9488L109.433 100.949C109.075 101.156 108.952 101.615 109.159 101.973C109.366 102.332 109.825 102.455 110.183 102.248L116.029 98.8729ZM39.1518 78.5011L115.46 98.9478L115.848 97.4989L39.54 77.0522L39.1518 78.5011Z" fill="black"/>
</svg>
