<svg width="155" height="165" viewBox="0 0 155 165" fill="none" xmlns="http://www.w3.org/2000/svg">
<circle cx="77.5" cy="87.5" r="76.75" stroke="white" stroke-width="1.5"/>
<circle cx="77.5" cy="87.5" r="51.75" fill="white" stroke="white" stroke-width="1.5"/>
<path d="M80.9773 18.2727V27H79.9545L75.1989 20.1477H75.1136V27H74.0568V18.2727H75.0795L79.8523 25.142H79.9375V18.2727H80.9773Z" fill="white"/>
<path d="M77.5 0L83.9952 11.25H71.0048L77.5 0Z" fill="white"/>
<path d="M115.833 99.5436C116.196 99.3428 116.327 98.8863 116.126 98.5241L112.853 92.6204C112.653 92.2581 112.196 92.1272 111.834 92.328C111.471 92.5288 111.341 92.9853 111.541 93.3476L114.45 98.5953L109.203 101.504C108.84 101.705 108.709 102.161 108.91 102.524C109.111 102.886 109.567 103.017 109.93 102.816L115.833 99.5436ZM39.3234 77.8333L115.263 99.6086L115.677 98.1667L39.7369 76.3914L39.3234 77.8333Z" fill="black"/>
</svg>
