<svg width="155" height="165" viewBox="0 0 155 165" fill="none" xmlns="http://www.w3.org/2000/svg">
<circle cx="77.5" cy="87.5" r="76.75" stroke="white" stroke-width="1.5"/>
<circle cx="77.5" cy="87.5" r="51.75" fill="white" stroke="white" stroke-width="1.5"/>
<path d="M80.9773 18.2727V27H79.9545L75.1989 20.1477H75.1136V27H74.0568V18.2727H75.0795L79.8523 25.142H79.9375V18.2727H80.9773Z" fill="white"/>
<path d="M77.5 0L83.9952 11.25H71.0048L77.5 0Z" fill="white"/>
<path d="M115.626 100.211C115.992 100.016 116.131 99.5623 115.936 99.1966L112.767 93.2367C112.573 92.8709 112.119 92.7321 111.753 92.9266C111.387 93.121 111.248 93.5751 111.443 93.9409L114.26 99.2386L108.962 102.055C108.596 102.25 108.457 102.704 108.652 103.07C108.846 103.435 109.301 103.574 109.666 103.38L115.626 100.211ZM39.5067 77.1685L115.055 100.266L115.493 98.8314L39.9452 75.7341L39.5067 77.1685Z" fill="black"/>
</svg>
