<svg width="155" height="165" viewBox="0 0 155 165" fill="none" xmlns="http://www.w3.org/2000/svg">
<circle cx="77.5" cy="87.5" r="76.75" stroke="white" stroke-width="1.5"/>
<circle cx="77.5" cy="87.5" r="51.75" fill="white" stroke="white" stroke-width="1.5"/>
<path d="M80.9773 18.2727V27H79.9545L75.1989 20.1477H75.1136V27H74.0568V18.2727H75.0795L79.8523 25.142H79.9375V18.2727H80.9773Z" fill="white"/>
<path d="M77.5 0L83.9952 11.25H71.0048L77.5 0Z" fill="white"/>
<path d="M115.407 100.874C115.776 100.686 115.923 100.235 115.735 99.8657L112.671 93.8514C112.482 93.4823 112.031 93.3356 111.662 93.5236C111.293 93.7117 111.146 94.1633 111.334 94.5324L114.058 99.8784L108.712 102.602C108.343 102.79 108.196 103.242 108.384 103.611C108.572 103.98 109.024 104.127 109.393 103.939L115.407 100.874ZM39.7015 76.5071L114.835 100.919L115.298 99.4929L40.165 75.0805L39.7015 76.5071Z" fill="black"/>
</svg>
