<svg width="155" height="165" viewBox="0 0 155 165" fill="none" xmlns="http://www.w3.org/2000/svg">
<circle cx="77.5" cy="87.5" r="76.75" stroke="white" stroke-width="1.5"/>
<circle cx="77.5" cy="87.5" r="51.75" fill="white" stroke="white" stroke-width="1.5"/>
<path d="M80.9773 18.2727V27H79.9545L75.1989 20.1477H75.1136V27H74.0568V18.2727H75.0795L79.8523 25.142H79.9375V18.2727H80.9773Z" fill="white"/>
<path d="M77.5 0L83.9952 11.25H71.0048L77.5 0Z" fill="white"/>
<path d="M115.177 101.534C115.549 101.352 115.704 100.903 115.522 100.531L112.563 94.4643C112.381 94.092 111.932 93.9374 111.56 94.119C111.188 94.3006 111.033 94.7496 111.215 95.1218L113.845 100.515L108.452 103.145C108.08 103.326 107.925 103.775 108.107 104.148C108.289 104.52 108.738 104.675 109.11 104.493L115.177 101.534ZM39.9078 75.8492L114.604 101.569L115.092 100.151L40.3962 74.4309L39.9078 75.8492Z" fill="black"/>
</svg>
