<svg width="155" height="165" viewBox="0 0 155 165" fill="none" xmlns="http://www.w3.org/2000/svg">
<circle cx="77.5" cy="87.5" r="76.75" stroke="white" stroke-width="1.5"/>
<circle cx="77.5" cy="87.5" r="51.75" fill="white" stroke="white" stroke-width="1.5"/>
<path d="M80.9773 18.2727V27H79.9545L75.1989 20.1477H75.1136V27H74.0568V18.2727H75.0795L79.8523 25.142H79.9375V18.2727H80.9773Z" fill="white"/>
<path d="M77.5 0L83.9952 11.25H71.0048L77.5 0Z" fill="white"/>
<path d="M85.6587 48.8064C85.4271 48.463 84.961 48.3724 84.6176 48.604L79.0216 52.3785C78.6782 52.6102 78.5876 53.0763 78.8192 53.4197C79.0508 53.7631 79.517 53.8537 79.8604 53.6221L84.8346 50.2669L88.1897 55.2412C88.4214 55.5846 88.8875 55.6752 89.2309 55.4435C89.5743 55.2119 89.6649 54.7458 89.4333 54.4024L85.6587 48.8064ZM70.6993 126.917L85.7732 49.3689L84.3007 49.0826L69.2268 126.631L70.6993 126.917Z" fill="black"/>
</svg>
