<svg width="155" height="165" viewBox="0 0 155 165" fill="none" xmlns="http://www.w3.org/2000/svg">
<circle cx="77.5" cy="87.5" r="76.75" stroke="white" stroke-width="1.5"/>
<circle cx="77.5" cy="87.5" r="51.75" fill="white" stroke="white" stroke-width="1.5"/>
<path d="M80.9773 18.2727V27H79.9545L75.1989 20.1477H75.1136V27H74.0568V18.2727H75.0795L79.8523 25.142H79.9375V18.2727H80.9773Z" fill="white"/>
<path d="M77.5 0L83.9952 11.25H71.0048L77.5 0Z" fill="white"/>
<path d="M114.935 102.19C115.31 102.014 115.473 101.568 115.298 101.193L112.445 95.0752C112.27 94.6998 111.824 94.5374 111.448 94.7125C111.073 94.8875 110.91 95.3338 111.085 95.7092L113.621 101.147L108.183 103.683C107.808 103.858 107.645 104.304 107.821 104.679C107.996 105.055 108.442 105.217 108.817 105.042L114.935 102.19ZM40.1256 75.195L114.361 102.215L114.874 100.805L40.6387 73.7854L40.1256 75.195Z" fill="black"/>
</svg>
