<svg width="155" height="165" viewBox="0 0 155 165" fill="none" xmlns="http://www.w3.org/2000/svg">
<circle cx="77.5" cy="87.5" r="76.75" stroke="white" stroke-width="1.5"/>
<circle cx="77.5" cy="87.5" r="51.75" fill="white" stroke="white" stroke-width="1.5"/>
<path d="M80.9773 18.2727V27H79.9545L75.1989 20.1477H75.1136V27H74.0568V18.2727H75.0795L79.8523 25.142H79.9375V18.2727H80.9773Z" fill="white"/>
<path d="M77.5 0L83.9952 11.25H71.0048L77.5 0Z" fill="white"/>
<path d="M114.681 102.841C115.06 102.672 115.23 102.229 115.062 101.85L112.316 95.684C112.148 95.3056 111.704 95.1355 111.326 95.3039C110.948 95.4724 110.777 95.9157 110.946 96.2941L113.386 101.775L107.905 104.216C107.527 104.384 107.356 104.828 107.525 105.206C107.693 105.584 108.137 105.755 108.515 105.586L114.681 102.841ZM40.3548 74.5446L114.108 102.856L114.645 101.455L40.8924 73.1443L40.3548 74.5446Z" fill="black"/>
</svg>
