<svg width="155" height="165" viewBox="0 0 155 165" fill="none" xmlns="http://www.w3.org/2000/svg">
<circle cx="77.5" cy="87.5" r="76.75" stroke="white" stroke-width="1.5"/>
<circle cx="77.5" cy="87.5" r="51.75" fill="white" stroke="white" stroke-width="1.5"/>
<path d="M80.9773 18.2727V27H79.9545L75.1989 20.1477H75.1136V27H74.0568V18.2727H75.0795L79.8523 25.142H79.9375V18.2727H80.9773Z" fill="white"/>
<path d="M77.5 0L83.9952 11.25H71.0048L77.5 0Z" fill="white"/>
<path d="M114.417 103.487C114.798 103.325 114.976 102.885 114.814 102.504L112.177 96.2905C112.015 95.9092 111.575 95.7313 111.193 95.8932C110.812 96.055 110.634 96.4953 110.796 96.8766L113.14 102.4L107.617 104.744C107.236 104.906 107.058 105.346 107.22 105.727C107.382 106.109 107.822 106.287 108.203 106.125L114.417 103.487ZM40.5953 73.8984L113.843 103.492L114.405 102.102L41.1572 72.5076L40.5953 73.8984Z" fill="black"/>
</svg>
