<svg width="155" height="165" viewBox="0 0 155 165" fill="none" xmlns="http://www.w3.org/2000/svg">
<circle cx="77.5" cy="87.5" r="76.75" stroke="white" stroke-width="1.5"/>
<circle cx="77.5" cy="87.5" r="51.75" fill="white" stroke="white" stroke-width="1.5"/>
<path d="M80.9773 18.2727V27H79.9545L75.1989 20.1477H75.1136V27H74.0568V18.2727H75.0795L79.8523 25.142H79.9375V18.2727H80.9773Z" fill="white"/>
<path d="M77.5 0L83.9952 11.25H71.0048L77.5 0Z" fill="white"/>
<path d="M114.141 104.129C114.525 103.974 114.71 103.537 114.555 103.153L112.027 96.8944C111.872 96.5104 111.434 96.3248 111.05 96.48C110.666 96.6352 110.481 97.0723 110.636 97.4563L112.884 103.019L107.32 105.267C106.936 105.422 106.751 105.859 106.906 106.243C107.061 106.627 107.498 106.813 107.882 106.658L114.141 104.129ZM40.847 73.2565L113.567 104.124L114.153 102.743L41.4331 71.8757L40.847 73.2565Z" fill="black"/>
</svg>
