<svg width="155" height="165" viewBox="0 0 155 165" fill="none" xmlns="http://www.w3.org/2000/svg">
<circle cx="77.5" cy="87.5" r="76.75" stroke="white" stroke-width="1.5"/>
<circle cx="77.5" cy="87.5" r="51.75" fill="white" stroke="white" stroke-width="1.5"/>
<path d="M80.9773 18.2727V27H79.9545L75.1989 20.1477H75.1136V27H74.0568V18.2727H75.0795L79.8523 25.142H79.9375V18.2727H80.9773Z" fill="white"/>
<path d="M77.5 0L83.9952 11.25H71.0048L77.5 0Z" fill="white"/>
<path d="M113.854 104.766C114.241 104.618 114.434 104.184 114.285 103.797L111.866 97.4956C111.718 97.1089 111.284 96.9158 110.897 97.0642C110.511 97.2127 110.317 97.6465 110.466 98.0332L112.616 103.635L107.015 105.785C106.628 105.933 106.435 106.367 106.583 106.754C106.732 107.141 107.165 107.334 107.552 107.185L113.854 104.766ZM41.1099 72.6191L113.28 104.751L113.89 103.381L41.72 71.2487L41.1099 72.6191Z" fill="black"/>
</svg>
