<svg width="155" height="165" viewBox="0 0 155 165" fill="none" xmlns="http://www.w3.org/2000/svg">
<circle cx="77.5" cy="87.5" r="76.75" stroke="white" stroke-width="1.5"/>
<circle cx="77.5" cy="87.5" r="51.75" fill="white" stroke="white" stroke-width="1.5"/>
<path d="M80.9773 18.2727V27H79.9545L75.1989 20.1477H75.1136V27H74.0568V18.2727H75.0795L79.8523 25.142H79.9375V18.2727H80.9773Z" fill="white"/>
<path d="M77.5 0L83.9952 11.25H71.0048L77.5 0Z" fill="white"/>
<path d="M113.556 105.398C113.945 105.257 114.146 104.826 114.004 104.437L111.695 98.094C111.554 97.7047 111.123 97.504 110.734 97.6457C110.345 97.7874 110.144 98.2178 110.286 98.607L112.338 104.245L106.7 106.297C106.31 106.439 106.11 106.869 106.251 107.259C106.393 107.648 106.824 107.848 107.213 107.707L113.556 105.398ZM41.3839 71.9863L112.982 105.373L113.616 104.014L42.0178 70.6268L41.3839 71.9863Z" fill="black"/>
</svg>
