<svg width="155" height="165" viewBox="0 0 155 165" fill="none" xmlns="http://www.w3.org/2000/svg">
<circle cx="77.5" cy="87.5" r="76.75" stroke="white" stroke-width="1.5"/>
<circle cx="77.5" cy="87.5" r="51.75" fill="white" stroke="white" stroke-width="1.5"/>
<path d="M80.9773 18.2727V27H79.9545L75.1989 20.1477H75.1136V27H74.0568V18.2727H75.0795L79.8523 25.142H79.9375V18.2727H80.9773Z" fill="white"/>
<path d="M77.5 0L83.9952 11.25H71.0048L77.5 0Z" fill="white"/>
<path d="M113.247 106.025C113.638 105.89 113.846 105.463 113.712 105.071L111.514 98.6892C111.379 98.2976 110.952 98.0894 110.561 98.2243C110.169 98.3591 109.961 98.7859 110.096 99.1776L112.049 104.851L106.376 106.804C105.984 106.939 105.776 107.366 105.911 107.757C106.046 108.149 106.473 108.357 106.864 108.222L113.247 106.025ZM41.6689 71.3584L112.674 105.99L113.331 104.642L42.3264 70.0102L41.6689 71.3584Z" fill="black"/>
</svg>
