<svg width="155" height="165" viewBox="0 0 155 165" fill="none" xmlns="http://www.w3.org/2000/svg">
<circle cx="77.5" cy="87.5" r="76.75" stroke="white" stroke-width="1.5"/>
<circle cx="77.5" cy="87.5" r="51.75" fill="white" stroke="white" stroke-width="1.5"/>
<path d="M80.9773 18.2727V27H79.9545L75.1989 20.1477H75.1136V27H74.0568V18.2727H75.0795L79.8523 25.142H79.9375V18.2727H80.9773Z" fill="white"/>
<path d="M77.5 0L83.9952 11.25H71.0048L77.5 0Z" fill="white"/>
<path d="M112.927 106.646C113.32 106.518 113.536 106.095 113.408 105.701L111.322 99.2812C111.194 98.8873 110.771 98.6717 110.377 98.7997C109.983 98.9277 109.768 99.3508 109.896 99.7447L111.75 105.451L106.043 107.305C105.649 107.433 105.434 107.856 105.562 108.25C105.69 108.644 106.113 108.86 106.507 108.732L112.927 106.646ZM41.9648 70.7356L112.354 106.601L113.035 105.264L42.6457 69.3991L41.9648 70.7356Z" fill="black"/>
</svg>
