<svg width="155" height="165" viewBox="0 0 155 165" fill="none" xmlns="http://www.w3.org/2000/svg">
<circle cx="77.5" cy="87.5" r="76.75" stroke="white" stroke-width="1.5"/>
<circle cx="77.5" cy="87.5" r="51.75" fill="white" stroke="white" stroke-width="1.5"/>
<path d="M80.9773 18.2727V27H79.9545L75.1989 20.1477H75.1136V27H74.0568V18.2727H75.0795L79.8523 25.142H79.9375V18.2727H80.9773Z" fill="white"/>
<path d="M77.5 0L83.9952 11.25H71.0048L77.5 0Z" fill="white"/>
<path d="M112.596 107.261C112.992 107.14 113.215 106.721 113.094 106.325L111.12 99.8698C110.999 99.4737 110.58 99.2507 110.184 99.3718C109.788 99.4929 109.565 99.9122 109.686 100.308L111.44 106.046L105.702 107.8C105.306 107.921 105.083 108.341 105.204 108.737C105.325 109.133 105.745 109.356 106.141 109.235L112.596 107.261ZM42.2715 70.1181L112.024 107.206L112.729 105.882L42.9757 68.7936L42.2715 70.1181Z" fill="black"/>
</svg>
