<svg width="155" height="165" viewBox="0 0 155 165" fill="none" xmlns="http://www.w3.org/2000/svg">
<circle cx="77.5" cy="87.5" r="76.75" stroke="white" stroke-width="1.5"/>
<circle cx="77.5" cy="87.5" r="51.75" fill="white" stroke="white" stroke-width="1.5"/>
<path d="M80.9773 18.2727V27H79.9545L75.1989 20.1477H75.1136V27H74.0568V18.2727H75.0795L79.8523 25.142H79.9375V18.2727H80.9773Z" fill="white"/>
<path d="M77.5 0L83.9952 11.25H71.0048L77.5 0Z" fill="white"/>
<path d="M112.254 107.871C112.652 107.757 112.883 107.341 112.768 106.943L110.908 100.455C110.794 100.057 110.378 99.8263 109.98 99.9405C109.582 100.055 109.352 100.47 109.466 100.868L111.12 106.636L105.352 108.29C104.954 108.404 104.724 108.819 104.838 109.217C104.952 109.615 105.368 109.846 105.766 109.731L112.254 107.871ZM42.5889 69.506L111.684 107.806L112.411 106.494L43.3161 68.194L42.5889 69.506Z" fill="black"/>
</svg>
