<svg width="155" height="165" viewBox="0 0 155 165" fill="none" xmlns="http://www.w3.org/2000/svg">
<circle cx="77.5" cy="87.5" r="76.75" stroke="white" stroke-width="1.5"/>
<circle cx="77.5" cy="87.5" r="51.75" fill="white" stroke="white" stroke-width="1.5"/>
<path d="M80.9773 18.2727V27H79.9545L75.1989 20.1477H75.1136V27H74.0568V18.2727H75.0795L79.8523 25.142H79.9375V18.2727H80.9773Z" fill="white"/>
<path d="M77.5 0L83.9952 11.25H71.0048L77.5 0Z" fill="white"/>
<path d="M86.3415 48.9547C86.1159 48.6073 85.6514 48.5086 85.304 48.7342L79.643 52.4105C79.2956 52.6361 79.1969 53.1006 79.4225 53.448C79.6481 53.7954 80.1126 53.8941 80.46 53.6685L85.492 50.4007L88.7598 55.4327C88.9854 55.7801 89.4499 55.8788 89.7973 55.6532C90.1447 55.4276 90.2434 54.9631 90.0178 54.6157L86.3415 48.9547ZM70.0211 126.793L86.4461 49.5191L84.9789 49.2073L68.5539 126.481L70.0211 126.793Z" fill="black"/>
</svg>
