<svg width="155" height="165" viewBox="0 0 155 165" fill="none" xmlns="http://www.w3.org/2000/svg">
<circle cx="77.5" cy="87.5" r="76.75" stroke="white" stroke-width="1.5"/>
<circle cx="77.5" cy="87.5" r="51.75" fill="white" stroke="white" stroke-width="1.5"/>
<path d="M80.9773 18.2727V27H79.9545L75.1989 20.1477H75.1136V27H74.0568V18.2727H75.0795L79.8523 25.142H79.9375V18.2727H80.9773Z" fill="white"/>
<path d="M77.5 0L83.9952 11.25H71.0048L77.5 0Z" fill="white"/>
<path d="M111.902 108.474C112.302 108.367 112.54 107.956 112.432 107.556L110.685 101.036C110.578 100.636 110.167 100.398 109.767 100.506C109.367 100.613 109.129 101.024 109.237 101.424L110.789 107.22L104.994 108.773C104.594 108.88 104.356 109.291 104.464 109.691C104.571 110.091 104.982 110.329 105.382 110.221L111.902 108.474ZM42.917 68.8995L111.333 108.4L112.083 107.1L43.667 67.6005L42.917 68.8995Z" fill="black"/>
</svg>
