<svg width="155" height="165" viewBox="0 0 155 165" fill="none" xmlns="http://www.w3.org/2000/svg">
<circle cx="77.5" cy="87.5" r="76.75" stroke="white" stroke-width="1.5"/>
<circle cx="77.5" cy="87.5" r="51.75" fill="white" stroke="white" stroke-width="1.5"/>
<path d="M80.9773 18.2727V27H79.9545L75.1989 20.1477H75.1136V27H74.0568V18.2727H75.0795L79.8523 25.142H79.9375V18.2727H80.9773Z" fill="white"/>
<path d="M77.5 0L83.9952 11.25H71.0048L77.5 0Z" fill="white"/>
<path d="M111.54 109.072C111.941 108.972 112.186 108.564 112.086 108.163L110.453 101.613C110.353 101.211 109.946 100.967 109.544 101.067C109.142 101.167 108.897 101.574 108.997 101.976L110.449 107.798L104.627 109.249C104.225 109.349 103.981 109.756 104.081 110.158C104.181 110.56 104.588 110.805 104.99 110.705L111.54 109.072ZM43.2556 68.2989L110.972 108.987L111.744 107.701L44.0282 67.0131L43.2556 68.2989Z" fill="black"/>
</svg>
