<svg width="155" height="165" viewBox="0 0 155 165" fill="none" xmlns="http://www.w3.org/2000/svg">
<circle cx="77.5" cy="87.5" r="76.75" stroke="white" stroke-width="1.5"/>
<circle cx="77.5" cy="87.5" r="51.75" fill="white" stroke="white" stroke-width="1.5"/>
<path d="M80.9773 18.2727V27H79.9545L75.1989 20.1477H75.1136V27H74.0568V18.2727H75.0795L79.8523 25.142H79.9375V18.2727H80.9773Z" fill="white"/>
<path d="M77.5 0L83.9952 11.25H71.0048L77.5 0Z" fill="white"/>
<path d="M111.167 109.663C111.57 109.569 111.822 109.167 111.729 108.763L110.21 102.186C110.117 101.782 109.714 101.531 109.311 101.624C108.907 101.717 108.656 102.12 108.749 102.524L110.098 108.37L104.252 109.719C103.849 109.813 103.597 110.215 103.69 110.619C103.783 111.023 104.186 111.274 104.59 111.181L111.167 109.663ZM43.6047 67.7042L110.6 109.568L111.395 108.296L44.3995 66.4321L43.6047 67.7042Z" fill="black"/>
</svg>
