<svg width="155" height="165" viewBox="0 0 155 165" fill="none" xmlns="http://www.w3.org/2000/svg">
<circle cx="77.5" cy="87.5" r="76.75" stroke="white" stroke-width="1.5"/>
<circle cx="77.5" cy="87.5" r="51.75" fill="white" stroke="white" stroke-width="1.5"/>
<path d="M80.9773 18.2727V27H79.9545L75.1989 20.1477H75.1136V27H74.0568V18.2727H75.0795L79.8523 25.142H79.9375V18.2727H80.9773Z" fill="white"/>
<path d="M77.5 0L83.9952 11.25H71.0048L77.5 0Z" fill="white"/>
<path d="M110.783 110.247C111.189 110.161 111.447 109.762 111.361 109.357L109.958 102.755C109.872 102.35 109.473 102.091 109.068 102.177C108.663 102.263 108.404 102.662 108.49 103.067L109.738 108.936L103.869 110.183C103.464 110.269 103.205 110.667 103.291 111.073C103.377 111.478 103.776 111.736 104.181 111.65L110.783 110.247ZM43.964 67.1158L110.219 110.142L111.036 108.884L44.781 65.8577L43.964 67.1158Z" fill="black"/>
</svg>
