<svg width="155" height="165" viewBox="0 0 155 165" fill="none" xmlns="http://www.w3.org/2000/svg">
<circle cx="77.5" cy="87.5" r="76.75" stroke="white" stroke-width="1.5"/>
<circle cx="77.5" cy="87.5" r="51.75" fill="white" stroke="white" stroke-width="1.5"/>
<path d="M80.9773 18.2727V27H79.9545L75.1989 20.1477H75.1136V27H74.0568V18.2727H75.0795L79.8523 25.142H79.9375V18.2727H80.9773Z" fill="white"/>
<path d="M77.5 0L83.9952 11.25H71.0048L77.5 0Z" fill="white"/>
<path d="M110.39 110.824C110.797 110.745 111.062 110.352 110.983 109.945L109.695 103.319C109.616 102.912 109.223 102.647 108.816 102.726C108.409 102.805 108.144 103.199 108.223 103.605L109.368 109.495L103.478 110.64C103.071 110.719 102.806 111.113 102.885 111.519C102.964 111.926 103.357 112.191 103.764 112.112L110.39 110.824ZM44.3336 66.5337L109.828 110.71L110.666 109.466L45.1724 65.2901L44.3336 66.5337Z" fill="black"/>
</svg>
