<svg width="155" height="165" viewBox="0 0 155 165" fill="none" xmlns="http://www.w3.org/2000/svg">
<circle cx="77.5" cy="87.5" r="76.75" stroke="white" stroke-width="1.5"/>
<circle cx="77.5" cy="87.5" r="51.75" fill="white" stroke="white" stroke-width="1.5"/>
<path d="M80.9773 18.2727V27H79.9545L75.1989 20.1477H75.1136V27H74.0568V18.2727H75.0795L79.8523 25.142H79.9375V18.2727H80.9773Z" fill="white"/>
<path d="M77.5 0L83.9952 11.25H71.0048L77.5 0Z" fill="white"/>
<path d="M109.987 111.395C110.395 111.323 110.667 110.934 110.595 110.526L109.423 103.879C109.351 103.471 108.962 103.198 108.554 103.27C108.146 103.342 107.874 103.731 107.946 104.139L108.988 110.048L103.079 111.09C102.671 111.162 102.399 111.551 102.47 111.959C102.542 112.367 102.931 112.639 103.339 112.567L109.987 111.395ZM44.7133 65.9581L109.426 111.271L110.287 110.042L45.5737 64.7294L44.7133 65.9581Z" fill="black"/>
</svg>
