<svg width="155" height="165" viewBox="0 0 155 165" fill="none" xmlns="http://www.w3.org/2000/svg">
<circle cx="77.5" cy="87.5" r="76.75" stroke="white" stroke-width="1.5"/>
<circle cx="77.5" cy="87.5" r="51.75" fill="white" stroke="white" stroke-width="1.5"/>
<path d="M80.9773 18.2727V27H79.9545L75.1989 20.1477H75.1136V27H74.0568V18.2727H75.0795L79.8523 25.142H79.9375V18.2727H80.9773Z" fill="white"/>
<path d="M77.5 0L83.9952 11.25H71.0048L77.5 0Z" fill="white"/>
<path d="M109.573 111.958C109.983 111.893 110.262 111.509 110.197 111.1L109.141 104.433C109.076 104.024 108.692 103.745 108.283 103.81C107.874 103.875 107.595 104.259 107.659 104.668L108.598 110.594L102.672 111.533C102.263 111.597 101.984 111.982 102.049 112.391C102.113 112.8 102.497 113.079 102.907 113.014L109.573 111.958ZM45.103 65.3892L109.015 111.824L109.897 110.611L45.9847 64.1757L45.103 65.3892Z" fill="black"/>
</svg>
