<svg width="155" height="165" viewBox="0 0 155 165" fill="none" xmlns="http://www.w3.org/2000/svg">
<circle cx="77.5" cy="87.5" r="76.75" stroke="white" stroke-width="1.5"/>
<circle cx="77.5" cy="87.5" r="51.75" fill="white" stroke="white" stroke-width="1.5"/>
<path d="M80.9773 18.2727V27H79.9545L75.1989 20.1477H75.1136V27H74.0568V18.2727H75.0795L79.8523 25.142H79.9375V18.2727H80.9773Z" fill="white"/>
<path d="M77.5 0L83.9952 11.25H71.0048L77.5 0Z" fill="white"/>
<path d="M109.15 112.514C109.561 112.457 109.846 112.077 109.789 111.667L108.849 104.983C108.792 104.573 108.412 104.287 108.002 104.345C107.592 104.402 107.306 104.782 107.364 105.192L108.199 111.133L102.257 111.968C101.847 112.026 101.561 112.405 101.619 112.815C101.677 113.226 102.056 113.511 102.466 113.454L109.15 112.514ZM45.5025 64.8273L108.595 112.371L109.497 111.173L46.4053 63.6293L45.5025 64.8273Z" fill="black"/>
</svg>
