<svg width="155" height="165" viewBox="0 0 155 165" fill="none" xmlns="http://www.w3.org/2000/svg">
<circle cx="77.5" cy="87.5" r="76.75" stroke="white" stroke-width="1.5"/>
<circle cx="77.5" cy="87.5" r="51.75" fill="white" stroke="white" stroke-width="1.5"/>
<path d="M80.9773 18.2727V27H79.9545L75.1989 20.1477H75.1136V27H74.0568V18.2727H75.0795L79.8523 25.142H79.9375V18.2727H80.9773Z" fill="white"/>
<path d="M77.5 0L83.9952 11.25H71.0048L77.5 0Z" fill="white"/>
<path d="M108.718 113.063C109.129 113.013 109.421 112.638 109.371 112.227L108.548 105.528C108.498 105.116 108.124 104.824 107.712 104.875C107.301 104.925 107.009 105.299 107.059 105.71L107.791 111.666L101.835 112.397C101.424 112.447 101.132 112.822 101.182 113.233C101.233 113.644 101.607 113.936 102.018 113.886L108.718 113.063ZM45.9118 64.2724L108.165 112.91L109.088 111.728L46.8353 63.0904L45.9118 64.2724Z" fill="black"/>
</svg>
