<svg width="155" height="165" viewBox="0 0 155 165" fill="none" xmlns="http://www.w3.org/2000/svg">
<circle cx="77.5" cy="87.5" r="76.75" stroke="white" stroke-width="1.5"/>
<circle cx="77.5" cy="87.5" r="51.75" fill="white" stroke="white" stroke-width="1.5"/>
<path d="M80.9773 18.2727V27H79.9545L75.1989 20.1477H75.1136V27H74.0568V18.2727H75.0795L79.8523 25.142H79.9375V18.2727H80.9773Z" fill="white"/>
<path d="M77.5 0L83.9952 11.25H71.0048L77.5 0Z" fill="white"/>
<path d="M108.276 113.604C108.688 113.561 108.986 113.192 108.943 112.78L108.238 106.067C108.194 105.655 107.825 105.356 107.413 105.399C107.001 105.443 106.703 105.812 106.746 106.224L107.373 112.191L101.406 112.818C100.994 112.861 100.695 113.23 100.738 113.642C100.782 114.054 101.151 114.353 101.563 114.31L108.276 113.604ZM46.3307 63.7247L107.725 113.441L108.669 112.275L47.2747 62.559L46.3307 63.7247Z" fill="black"/>
</svg>
