<svg width="155" height="165" viewBox="0 0 155 165" fill="none" xmlns="http://www.w3.org/2000/svg">
<circle cx="77.5" cy="87.5" r="76.75" stroke="white" stroke-width="1.5"/>
<circle cx="77.5" cy="87.5" r="51.75" fill="white" stroke="white" stroke-width="1.5"/>
<path d="M80.9773 18.2727V27H79.9545L75.1989 20.1477H75.1136V27H74.0568V18.2727H75.0795L79.8523 25.142H79.9375V18.2727H80.9773Z" fill="white"/>
<path d="M77.5 0L83.9952 11.25H71.0048L77.5 0Z" fill="white"/>
<path d="M87.0216 49.115C86.8021 48.7637 86.3394 48.6569 85.9881 48.8764L80.2638 52.4533C79.9125 52.6728 79.8057 53.1355 80.0252 53.4868C80.2447 53.8381 80.7074 53.9449 81.0587 53.7254L86.147 50.5459L89.3265 55.6342C89.546 55.9854 90.0087 56.0923 90.36 55.8728C90.7112 55.6533 90.8181 55.1906 90.5986 54.8393L87.0216 49.115ZM69.3452 126.656L87.1164 49.6811L85.6548 49.3437L67.8837 126.319L69.3452 126.656Z" fill="black"/>
</svg>
