<svg width="155" height="165" viewBox="0 0 155 165" fill="none" xmlns="http://www.w3.org/2000/svg">
<circle cx="77.5" cy="87.5" r="76.75" stroke="white" stroke-width="1.5"/>
<circle cx="77.5" cy="87.5" r="51.75" fill="white" stroke="white" stroke-width="1.5"/>
<path d="M80.9773 18.2727V27H79.9545L75.1989 20.1477H75.1136V27H74.0568V18.2727H75.0795L79.8523 25.142H79.9375V18.2727H80.9773Z" fill="white"/>
<path d="M77.5 0L83.9952 11.25H71.0048L77.5 0Z" fill="white"/>
<path d="M107.824 114.137C108.237 114.101 108.542 113.737 108.506 113.325L107.918 106.6C107.881 106.188 107.518 105.883 107.105 105.919C106.692 105.955 106.387 106.319 106.423 106.731L106.946 112.708L100.969 113.231C100.556 113.267 100.251 113.631 100.287 114.044C100.323 114.456 100.687 114.762 101.1 114.726L107.824 114.137ZM46.7592 63.1844L107.277 113.965L108.241 112.816L47.7233 62.0353L46.7592 63.1844Z" fill="black"/>
</svg>
