<svg width="155" height="165" viewBox="0 0 155 165" fill="none" xmlns="http://www.w3.org/2000/svg">
<circle cx="77.5" cy="87.5" r="76.75" stroke="white" stroke-width="1.5"/>
<circle cx="77.5" cy="87.5" r="51.75" fill="white" stroke="white" stroke-width="1.5"/>
<path d="M80.9773 18.2727V27H79.9545L75.1989 20.1477H75.1136V27H74.0568V18.2727H75.0795L79.8523 25.142H79.9375V18.2727H80.9773Z" fill="white"/>
<path d="M77.5 0L83.9952 11.25H71.0048L77.5 0Z" fill="white"/>
<path d="M107.363 114.662C107.777 114.634 108.088 114.275 108.059 113.862L107.588 107.128C107.559 106.715 107.201 106.404 106.788 106.433C106.375 106.461 106.063 106.82 106.092 107.233L106.511 113.218L100.525 113.637C100.112 113.666 99.8004 114.024 99.8293 114.437C99.8582 114.851 100.217 115.162 100.63 115.133L107.363 114.662ZM47.1969 62.6517L106.819 114.48L107.803 113.348L48.181 61.5196L47.1969 62.6517Z" fill="black"/>
</svg>
