<svg width="155" height="165" viewBox="0 0 155 165" fill="none" xmlns="http://www.w3.org/2000/svg">
<circle cx="77.5" cy="87.5" r="76.75" stroke="white" stroke-width="1.5"/>
<circle cx="77.5" cy="87.5" r="51.75" fill="white" stroke="white" stroke-width="1.5"/>
<path d="M80.9773 18.2727V27H79.9545L75.1989 20.1477H75.1136V27H74.0568V18.2727H75.0795L79.8523 25.142H79.9375V18.2727H80.9773Z" fill="white"/>
<path d="M77.5 0L83.9952 11.25H71.0048L77.5 0Z" fill="white"/>
<path d="M106.893 115.18C107.307 115.158 107.625 114.805 107.603 114.391L107.25 107.651C107.228 107.237 106.875 106.919 106.462 106.941C106.048 106.963 105.73 107.315 105.752 107.729L106.066 113.721L100.074 114.035C99.6606 114.057 99.3428 114.41 99.3645 114.823C99.3862 115.237 99.7391 115.555 100.153 115.533L106.893 115.18ZM47.6439 62.1267L106.352 114.988L107.356 113.873L48.6476 61.012L47.6439 62.1267Z" fill="black"/>
</svg>
