<svg width="155" height="165" viewBox="0 0 155 165" fill="none" xmlns="http://www.w3.org/2000/svg">
<circle cx="77.5" cy="87.5" r="76.75" stroke="white" stroke-width="1.5"/>
<circle cx="77.5" cy="87.5" r="51.75" fill="white" stroke="white" stroke-width="1.5"/>
<path d="M80.9773 18.2727V27H79.9545L75.1989 20.1477H75.1136V27H74.0568V18.2727H75.0795L79.8523 25.142H79.9375V18.2727H80.9773Z" fill="white"/>
<path d="M77.5 0L83.9952 11.25H71.0048L77.5 0Z" fill="white"/>
<path d="M106.415 115.688C106.829 115.674 107.152 115.327 107.138 114.913L106.902 108.167C106.888 107.753 106.541 107.429 106.127 107.443C105.713 107.458 105.389 107.805 105.403 108.219L105.613 114.216L99.6164 114.425C99.2024 114.439 98.8786 114.787 98.893 115.201C98.9075 115.615 99.2548 115.938 99.6688 115.924L106.415 115.688ZM48.1 61.6096L105.877 115.487L106.9 114.39L49.123 60.5125L48.1 61.6096Z" fill="black"/>
</svg>
