<svg width="155" height="165" viewBox="0 0 155 165" fill="none" xmlns="http://www.w3.org/2000/svg">
<circle cx="77.5" cy="87.5" r="76.75" stroke="white" stroke-width="1.5"/>
<circle cx="77.5" cy="87.5" r="51.75" fill="white" stroke="white" stroke-width="1.5"/>
<path d="M80.9773 18.2727V27H79.9545L75.1989 20.1477H75.1136V27H74.0568V18.2727H75.0795L79.8523 25.142H79.9375V18.2727H80.9773Z" fill="white"/>
<path d="M77.5 0L83.9952 11.25H71.0048L77.5 0Z" fill="white"/>
<path d="M105.927 116.189C106.341 116.182 106.671 115.84 106.664 115.426L106.546 108.677C106.539 108.263 106.197 107.933 105.783 107.94C105.369 107.947 105.039 108.289 105.046 108.703L105.151 114.702L99.1519 114.807C98.7377 114.814 98.4078 115.156 98.4151 115.57C98.4223 115.984 98.7639 116.314 99.178 116.307L105.927 116.189ZM48.5651 61.1005L105.393 115.978L106.435 114.899L49.6071 60.0215L48.5651 61.1005Z" fill="black"/>
</svg>
