<svg width="155" height="165" viewBox="0 0 155 165" fill="none" xmlns="http://www.w3.org/2000/svg">
<circle cx="77.5" cy="87.5" r="76.75" stroke="white" stroke-width="1.5"/>
<circle cx="77.5" cy="87.5" r="51.75" fill="white" stroke="white" stroke-width="1.5"/>
<path d="M80.9773 18.2727V27H79.9545L75.1989 20.1477H75.1136V27H74.0568V18.2727H75.0795L79.8523 25.142H79.9375V18.2727H80.9773Z" fill="white"/>
<path d="M77.5 0L83.9952 11.25H71.0048L77.5 0Z" fill="white"/>
<path d="M105.431 116.681C105.845 116.681 106.181 116.345 106.181 115.931L106.181 109.181C106.181 108.766 105.845 108.431 105.431 108.431C105.016 108.431 104.681 108.766 104.681 109.181V115.181H98.6807C98.2665 115.181 97.9307 115.516 97.9307 115.931C97.9307 116.345 98.2665 116.681 98.6807 116.681L105.431 116.681ZM49.039 60.5996L104.9 116.461L105.961 115.4L50.0996 59.5389L49.039 60.5996Z" fill="black"/>
</svg>
