<svg width="155" height="165" viewBox="0 0 155 165" fill="none" xmlns="http://www.w3.org/2000/svg">
<circle cx="77.5" cy="87.5" r="76.75" stroke="white" stroke-width="1.5"/>
<circle cx="77.5" cy="87.5" r="51.75" fill="white" stroke="white" stroke-width="1.5"/>
<path d="M80.9773 18.2727V27H79.9545L75.1989 20.1477H75.1136V27H74.0568V18.2727H75.0795L79.8523 25.142H79.9375V18.2727H80.9773Z" fill="white"/>
<path d="M77.5 0L83.9952 11.25H71.0048L77.5 0Z" fill="white"/>
<path d="M104.926 117.164C105.34 117.171 105.682 116.841 105.689 116.427L105.807 109.678C105.814 109.264 105.484 108.922 105.07 108.915C104.656 108.908 104.314 109.238 104.307 109.652L104.202 115.651L98.2031 115.546C97.789 115.539 97.4474 115.869 97.4401 116.283C97.4329 116.697 97.7628 117.039 98.1769 117.046L104.926 117.164ZM49.5215 60.1071L104.399 116.935L105.479 115.893L50.6005 59.0651L49.5215 60.1071Z" fill="black"/>
</svg>
