<svg width="155" height="165" viewBox="0 0 155 165" fill="none" xmlns="http://www.w3.org/2000/svg">
<circle cx="77.5" cy="87.5" r="76.75" stroke="white" stroke-width="1.5"/>
<circle cx="77.5" cy="87.5" r="51.75" fill="white" stroke="white" stroke-width="1.5"/>
<path d="M80.9773 18.2727V27H79.9545L75.1989 20.1477H75.1136V27H74.0568V18.2727H75.0795L79.8523 25.142H79.9375V18.2727H80.9773Z" fill="white"/>
<path d="M77.5 0L83.9952 11.25H71.0048L77.5 0Z" fill="white"/>
<path d="M104.413 117.638C104.827 117.652 105.174 117.329 105.188 116.915L105.424 110.169C105.439 109.755 105.115 109.407 104.701 109.393C104.287 109.379 103.939 109.702 103.925 110.116L103.716 116.113L97.7192 115.903C97.3053 115.889 96.958 116.213 96.9435 116.627C96.929 117.041 97.2529 117.388 97.6669 117.402L104.413 117.638ZM50.0126 59.623L103.89 117.4L104.987 116.377L51.1096 58.6L50.0126 59.623Z" fill="black"/>
</svg>
