<svg width="155" height="165" viewBox="0 0 155 165" fill="none" xmlns="http://www.w3.org/2000/svg">
<circle cx="77.5" cy="87.5" r="76.75" stroke="white" stroke-width="1.5"/>
<circle cx="77.5" cy="87.5" r="51.75" fill="white" stroke="white" stroke-width="1.5"/>
<path d="M80.9773 18.2727V27H79.9545L75.1989 20.1477H75.1136V27H74.0568V18.2727H75.0795L79.8523 25.142H79.9375V18.2727H80.9773Z" fill="white"/>
<path d="M77.5 0L83.9952 11.25H71.0048L77.5 0Z" fill="white"/>
<path d="M103.891 118.103C104.305 118.125 104.658 117.807 104.68 117.393L105.033 110.653C105.055 110.239 104.737 109.886 104.323 109.864C103.91 109.843 103.557 110.161 103.535 110.574L103.221 116.566L97.2292 116.252C96.8155 116.23 96.4626 116.548 96.4409 116.962C96.4193 117.375 96.737 117.728 97.1507 117.75L103.891 118.103ZM50.512 59.1476L103.373 117.856L104.488 116.852L51.6267 58.1439L50.512 59.1476Z" fill="black"/>
</svg>
