<svg width="155" height="165" viewBox="0 0 155 165" fill="none" xmlns="http://www.w3.org/2000/svg">
<circle cx="77.5" cy="87.5" r="76.75" stroke="white" stroke-width="1.5"/>
<circle cx="77.5" cy="87.5" r="51.75" fill="white" stroke="white" stroke-width="1.5"/>
<path d="M80.9773 18.2727V27H79.9545L75.1989 20.1477H75.1136V27H74.0568V18.2727H75.0795L79.8523 25.142H79.9375V18.2727H80.9773Z" fill="white"/>
<path d="M77.5 0L83.9952 11.25H71.0048L77.5 0Z" fill="white"/>
<path d="M103.362 118.559C103.775 118.588 104.134 118.277 104.163 117.863L104.633 111.13C104.662 110.717 104.351 110.358 103.938 110.329C103.524 110.3 103.166 110.612 103.137 111.025L102.718 117.011L96.7331 116.592C96.3199 116.563 95.9615 116.875 95.9326 117.288C95.9037 117.701 96.2153 118.059 96.6285 118.088L103.362 118.559ZM51.0196 58.681L102.848 118.303L103.98 117.319L52.1517 57.6969L51.0196 58.681Z" fill="black"/>
</svg>
