<svg width="155" height="165" viewBox="0 0 155 165" fill="none" xmlns="http://www.w3.org/2000/svg">
<circle cx="77.5" cy="87.5" r="76.75" stroke="white" stroke-width="1.5"/>
<circle cx="77.5" cy="87.5" r="51.75" fill="white" stroke="white" stroke-width="1.5"/>
<path d="M80.9773 18.2727V27H79.9545L75.1989 20.1477H75.1136V27H74.0568V18.2727H75.0795L79.8523 25.142H79.9375V18.2727H80.9773Z" fill="white"/>
<path d="M77.5 0L83.9952 11.25H71.0048L77.5 0Z" fill="white"/>
<path d="M87.6988 49.2871C87.4855 48.932 87.0247 48.8171 86.6696 49.0305L80.8838 52.507C80.5287 52.7203 80.4138 53.1811 80.6272 53.5361C80.8405 53.8912 81.3013 54.0061 81.6563 53.7927L86.7993 50.7025L89.8896 55.8455C90.1029 56.2006 90.5637 56.3154 90.9187 56.1021C91.2738 55.8888 91.3886 55.428 91.1753 55.0729L87.6988 49.2871ZM68.6718 126.508L87.7836 49.8548L86.3282 49.4919L67.2164 126.145L68.6718 126.508Z" fill="black"/>
</svg>
