<svg width="155" height="165" viewBox="0 0 155 165" fill="none" xmlns="http://www.w3.org/2000/svg">
<circle cx="77.5" cy="87.5" r="76.75" stroke="white" stroke-width="1.5"/>
<circle cx="77.5" cy="87.5" r="51.75" fill="white" stroke="white" stroke-width="1.5"/>
<path d="M80.9773 18.2727V27H79.9545L75.1989 20.1477H75.1136V27H74.0568V18.2727H75.0795L79.8523 25.142H79.9375V18.2727H80.9773Z" fill="white"/>
<path d="M77.5 0L83.9952 11.25H71.0048L77.5 0Z" fill="white"/>
<path d="M102.825 119.006C103.237 119.042 103.601 118.737 103.637 118.324L104.226 111.6C104.262 111.187 103.956 110.823 103.544 110.787C103.131 110.751 102.767 111.056 102.731 111.469L102.208 117.446L96.2312 116.923C95.8185 116.887 95.4548 117.192 95.4187 117.605C95.3826 118.018 95.6878 118.381 96.1004 118.418L102.825 119.006ZM51.5354 58.2233L102.316 118.741L103.465 117.777L52.6844 57.2591L51.5354 58.2233Z" fill="black"/>
</svg>
