<svg width="155" height="165" viewBox="0 0 155 165" fill="none" xmlns="http://www.w3.org/2000/svg">
<circle cx="77.5" cy="87.5" r="76.75" stroke="white" stroke-width="1.5"/>
<circle cx="77.5" cy="87.5" r="51.75" fill="white" stroke="white" stroke-width="1.5"/>
<path d="M80.9773 18.2727V27H79.9545L75.1989 20.1477H75.1136V27H74.0568V18.2727H75.0795L79.8523 25.142H79.9375V18.2727H80.9773Z" fill="white"/>
<path d="M77.5 0L83.9952 11.25H71.0048L77.5 0Z" fill="white"/>
<path d="M102.28 119.443C102.692 119.486 103.061 119.188 103.104 118.776L103.81 112.063C103.853 111.651 103.554 111.282 103.142 111.238C102.73 111.195 102.361 111.494 102.318 111.906L101.691 117.873L95.7235 117.246C95.3116 117.202 94.9425 117.501 94.8992 117.913C94.8559 118.325 95.1548 118.694 95.5667 118.738L102.28 119.443ZM52.059 57.7747L101.775 119.169L102.941 118.225L53.2247 56.8307L52.059 57.7747Z" fill="black"/>
</svg>
