<svg width="155" height="165" viewBox="0 0 155 165" fill="none" xmlns="http://www.w3.org/2000/svg">
<circle cx="77.5" cy="87.5" r="76.75" stroke="white" stroke-width="1.5"/>
<circle cx="77.5" cy="87.5" r="51.75" fill="white" stroke="white" stroke-width="1.5"/>
<path d="M80.9773 18.2727V27H79.9545L75.1989 20.1477H75.1136V27H74.0568V18.2727H75.0795L79.8523 25.142H79.9375V18.2727H80.9773Z" fill="white"/>
<path d="M77.5 0L83.9952 11.25H71.0048L77.5 0Z" fill="white"/>
<path d="M101.727 119.871C102.138 119.921 102.513 119.629 102.563 119.218L103.386 112.518C103.436 112.107 103.144 111.733 102.733 111.682C102.322 111.632 101.947 111.924 101.897 112.335L101.166 118.291L95.2103 117.559C94.7992 117.509 94.425 117.801 94.3745 118.212C94.3241 118.624 94.6164 118.998 95.0275 119.048L101.727 119.871ZM52.5904 57.3353L101.228 119.588L102.41 118.665L53.7724 56.4118L52.5904 57.3353Z" fill="black"/>
</svg>
