<svg width="155" height="165" viewBox="0 0 155 165" fill="none" xmlns="http://www.w3.org/2000/svg">
<circle cx="77.5" cy="87.5" r="76.75" stroke="white" stroke-width="1.5"/>
<circle cx="77.5" cy="87.5" r="51.75" fill="white" stroke="white" stroke-width="1.5"/>
<path d="M80.9773 18.2727V27H79.9545L75.1989 20.1477H75.1136V27H74.0568V18.2727H75.0795L79.8523 25.142H79.9375V18.2727H80.9773Z" fill="white"/>
<path d="M77.5 0L83.9952 11.25H71.0048L77.5 0Z" fill="white"/>
<path d="M101.167 120.289C101.577 120.346 101.957 120.061 102.014 119.65L102.954 112.966C103.011 112.556 102.726 112.177 102.315 112.119C101.905 112.061 101.526 112.347 101.468 112.757L100.633 118.699L94.6918 117.864C94.2816 117.806 93.9023 118.092 93.8447 118.502C93.787 118.912 94.0728 119.292 94.483 119.349L101.167 120.289ZM53.1293 56.9052L100.673 119.997L101.871 119.095L54.3273 56.0025L53.1293 56.9052Z" fill="black"/>
</svg>
