<svg width="155" height="165" viewBox="0 0 155 165" fill="none" xmlns="http://www.w3.org/2000/svg">
<circle cx="77.5" cy="87.5" r="76.75" stroke="white" stroke-width="1.5"/>
<circle cx="77.5" cy="87.5" r="51.75" fill="white" stroke="white" stroke-width="1.5"/>
<path d="M80.9773 18.2727V27H79.9545L75.1989 20.1477H75.1136V27H74.0568V18.2727H75.0795L79.8523 25.142H79.9375V18.2727H80.9773Z" fill="white"/>
<path d="M77.5 0L83.9952 11.25H71.0048L77.5 0Z" fill="white"/>
<path d="M100.6 120.697C101.009 120.762 101.393 120.483 101.458 120.073L102.514 113.407C102.579 112.997 102.3 112.613 101.891 112.548C101.482 112.484 101.097 112.763 101.033 113.172L100.094 119.098L94.168 118.159C93.7588 118.095 93.3747 118.374 93.3099 118.783C93.2451 119.192 93.5242 119.576 93.9333 119.641L100.6 120.697ZM53.6757 56.4847L100.111 120.397L101.324 119.515L54.8893 55.603L53.6757 56.4847Z" fill="black"/>
</svg>
