<svg width="155" height="165" viewBox="0 0 155 165" fill="none" xmlns="http://www.w3.org/2000/svg">
<circle cx="77.5" cy="87.5" r="76.75" stroke="white" stroke-width="1.5"/>
<circle cx="77.5" cy="87.5" r="51.75" fill="white" stroke="white" stroke-width="1.5"/>
<path d="M80.9773 18.2727V27H79.9545L75.1989 20.1477H75.1136V27H74.0568V18.2727H75.0795L79.8523 25.142H79.9375V18.2727H80.9773Z" fill="white"/>
<path d="M77.5 0L83.9952 11.25H71.0048L77.5 0Z" fill="white"/>
<path d="M100.026 121.095C100.434 121.167 100.823 120.895 100.895 120.487L102.067 113.839C102.139 113.431 101.867 113.042 101.459 112.97C101.051 112.899 100.662 113.171 100.59 113.579L99.5479 119.488L93.6391 118.446C93.2311 118.374 92.8421 118.646 92.7702 119.054C92.6983 119.462 92.9707 119.851 93.3786 119.923L100.026 121.095ZM54.2294 56.0737L99.5419 120.787L100.771 119.926L55.4581 55.2133L54.2294 56.0737Z" fill="black"/>
</svg>
