<svg width="155" height="165" viewBox="0 0 155 165" fill="none" xmlns="http://www.w3.org/2000/svg">
<circle cx="77.5" cy="87.5" r="76.75" stroke="white" stroke-width="1.5"/>
<circle cx="77.5" cy="87.5" r="51.75" fill="white" stroke="white" stroke-width="1.5"/>
<path d="M80.9773 18.2727V27H79.9545L75.1989 20.1477H75.1136V27H74.0568V18.2727H75.0795L79.8523 25.142H79.9375V18.2727H80.9773Z" fill="white"/>
<path d="M77.5 0L83.9952 11.25H71.0048L77.5 0Z" fill="white"/>
<path d="M99.445 121.483C99.8516 121.562 100.245 121.297 100.324 120.89L101.612 114.264C101.691 113.857 101.426 113.464 101.019 113.385C100.613 113.306 100.219 113.571 100.14 113.978L98.995 119.868L93.1052 118.723C92.6986 118.644 92.305 118.909 92.2259 119.316C92.1469 119.722 92.4124 120.116 92.819 120.195L99.445 121.483ZM54.7901 55.6724L98.9663 121.166L100.21 120.328L56.0337 54.8336L54.7901 55.6724Z" fill="black"/>
</svg>
