<svg width="155" height="165" viewBox="0 0 155 165" fill="none" xmlns="http://www.w3.org/2000/svg">
<circle cx="77.5" cy="87.5" r="76.75" stroke="white" stroke-width="1.5"/>
<circle cx="77.5" cy="87.5" r="51.75" fill="white" stroke="white" stroke-width="1.5"/>
<path d="M80.9773 18.2727V27H79.9545L75.1989 20.1477H75.1136V27H74.0568V18.2727H75.0795L79.8523 25.142H79.9375V18.2727H80.9773Z" fill="white"/>
<path d="M77.5 0L83.9952 11.25H71.0048L77.5 0Z" fill="white"/>
<path d="M98.8573 121.861C99.2625 121.947 99.6607 121.689 99.7469 121.283L101.15 114.681C101.236 114.276 100.978 113.877 100.573 113.791C100.167 113.705 99.7692 113.964 99.683 114.369L98.4356 120.238L92.5667 118.99C92.1615 118.904 91.7633 119.163 91.6771 119.568C91.591 119.973 91.8497 120.372 92.2548 120.458L98.8573 121.861ZM55.3578 55.281L98.3842 121.536L99.6423 120.719L56.6158 54.464L55.3578 55.281Z" fill="black"/>
</svg>
