<svg width="155" height="165" viewBox="0 0 155 165" fill="none" xmlns="http://www.w3.org/2000/svg">
<circle cx="77.5" cy="87.5" r="76.75" stroke="white" stroke-width="1.5"/>
<circle cx="77.5" cy="87.5" r="51.75" fill="white" stroke="white" stroke-width="1.5"/>
<path d="M80.9773 18.2727V27H79.9545L75.1989 20.1477H75.1136V27H74.0568V18.2727H75.0795L79.8523 25.142H79.9375V18.2727H80.9773Z" fill="white"/>
<path d="M77.5 0L83.9952 11.25H71.0048L77.5 0Z" fill="white"/>
<path d="M98.2631 122.229C98.6667 122.322 99.0694 122.07 99.1626 121.667L100.681 115.09C100.774 114.686 100.523 114.283 100.119 114.19C99.7154 114.097 99.3126 114.349 99.2195 114.752L97.8698 120.598L92.0235 119.249C91.6199 119.156 91.2172 119.407 91.124 119.811C91.0309 120.214 91.2825 120.617 91.6861 120.71L98.2631 122.229ZM55.9322 54.8995L97.7958 121.895L99.0679 121.1L57.2042 54.1046L55.9322 54.8995Z" fill="black"/>
</svg>
