<svg width="155" height="165" viewBox="0 0 155 165" fill="none" xmlns="http://www.w3.org/2000/svg">
<circle cx="77.5" cy="87.5" r="76.75" stroke="white" stroke-width="1.5"/>
<circle cx="77.5" cy="87.5" r="51.75" fill="white" stroke="white" stroke-width="1.5"/>
<path d="M80.9773 18.2727V27H79.9545L75.1989 20.1477H75.1136V27H74.0568V18.2727H75.0795L79.8523 25.142H79.9375V18.2727H80.9773Z" fill="white"/>
<path d="M77.5 0L83.9952 11.25H71.0048L77.5 0Z" fill="white"/>
<path d="M97.6626 122.586C98.0645 122.686 98.4715 122.441 98.5717 122.04L100.205 115.49C100.305 115.088 100.06 114.681 99.6584 114.581C99.2565 114.481 98.8495 114.725 98.7493 115.127L97.2977 120.949L91.476 119.497C91.074 119.397 90.667 119.642 90.5668 120.044C90.4666 120.446 90.7112 120.853 91.1131 120.953L97.6626 122.586ZM56.5131 54.5282L97.2011 122.244L98.4869 121.472L57.7989 53.7556L56.5131 54.5282Z" fill="black"/>
</svg>
