<svg width="155" height="165" viewBox="0 0 155 165" fill="none" xmlns="http://www.w3.org/2000/svg">
<circle cx="77.5" cy="87.5" r="76.75" stroke="white" stroke-width="1.5"/>
<circle cx="77.5" cy="87.5" r="51.75" fill="white" stroke="white" stroke-width="1.5"/>
<path d="M80.9773 18.2727V27H79.9545L75.1989 20.1477H75.1136V27H74.0568V18.2727H75.0795L79.8523 25.142H79.9375V18.2727H80.9773Z" fill="white"/>
<path d="M77.5 0L83.9952 11.25H71.0048L77.5 0Z" fill="white"/>
<path d="M88.3729 49.471C88.1658 49.1122 87.7071 48.9893 87.3484 49.1964L81.5027 52.5714C81.144 52.7786 81.0211 53.2372 81.2282 53.596C81.4353 53.9547 81.894 54.0776 82.2527 53.8705L87.4488 50.8705L90.4488 56.0666C90.6559 56.4254 91.1146 56.5483 91.4734 56.3412C91.8321 56.134 91.955 55.6754 91.7479 55.3166L88.3729 49.471ZM68.0011 126.348L88.4478 50.0401L86.9989 49.6518L66.5522 125.96L68.0011 126.348Z" fill="black"/>
</svg>
