<svg width="155" height="165" viewBox="0 0 155 165" fill="none" xmlns="http://www.w3.org/2000/svg">
<circle cx="77.5" cy="87.5" r="76.75" stroke="white" stroke-width="1.5"/>
<circle cx="77.5" cy="87.5" r="51.75" fill="white" stroke="white" stroke-width="1.5"/>
<path d="M80.9773 18.2727V27H79.9545L75.1989 20.1477H75.1136V27H74.0568V18.2727H75.0795L79.8523 25.142H79.9375V18.2727H80.9773Z" fill="white"/>
<path d="M77.5 0L83.9952 11.25H71.0048L77.5 0Z" fill="white"/>
<path d="M97.0559 122.932C97.456 123.04 97.8672 122.802 97.9745 122.402L99.7215 115.882C99.8287 115.482 99.5913 115.071 99.1912 114.964C98.7911 114.856 98.3798 115.094 98.2726 115.494L96.7197 121.289L90.9241 119.737C90.524 119.629 90.1128 119.867 90.0056 120.267C89.8984 120.667 90.1358 121.078 90.5359 121.185L97.0559 122.932ZM57.1005 54.167L96.6005 122.583L97.8995 121.833L58.3995 53.417L57.1005 54.167Z" fill="black"/>
</svg>
