<svg width="155" height="165" viewBox="0 0 155 165" fill="none" xmlns="http://www.w3.org/2000/svg">
<circle cx="77.5" cy="87.5" r="76.75" stroke="white" stroke-width="1.5"/>
<circle cx="77.5" cy="87.5" r="51.75" fill="white" stroke="white" stroke-width="1.5"/>
<path d="M80.9773 18.2727V27H79.9545L75.1989 20.1477H75.1136V27H74.0568V18.2727H75.0795L79.8523 25.142H79.9375V18.2727H80.9773Z" fill="white"/>
<path d="M77.5 0L83.9952 11.25H71.0048L77.5 0Z" fill="white"/>
<path d="M96.4433 123.268C96.8414 123.383 97.2568 123.152 97.3709 122.754L99.2315 116.266C99.3457 115.868 99.1154 115.452 98.7173 115.338C98.3191 115.224 97.9038 115.454 97.7896 115.852L96.1358 121.62L90.3682 119.966C89.97 119.852 89.5547 120.082 89.4405 120.48C89.3264 120.878 89.5566 121.294 89.9547 121.408L96.4433 123.268ZM57.6941 53.8161L95.994 122.911L97.306 122.184L59.006 53.0889L57.6941 53.8161Z" fill="black"/>
</svg>
