<svg width="155" height="165" viewBox="0 0 155 165" fill="none" xmlns="http://www.w3.org/2000/svg">
<circle cx="77.5" cy="87.5" r="76.75" stroke="white" stroke-width="1.5"/>
<circle cx="77.5" cy="87.5" r="51.75" fill="white" stroke="white" stroke-width="1.5"/>
<path d="M80.9773 18.2727V27H79.9545L75.1989 20.1477H75.1136V27H74.0568V18.2727H75.0795L79.8523 25.142H79.9375V18.2727H80.9773Z" fill="white"/>
<path d="M77.5 0L83.9952 11.25H71.0048L77.5 0Z" fill="white"/>
<path d="M95.8249 123.594C96.221 123.715 96.6403 123.492 96.7614 123.096L98.7349 116.641C98.856 116.245 98.633 115.825 98.2369 115.704C97.8408 115.583 97.4215 115.806 97.3004 116.202L95.5462 121.94L89.8084 120.186C89.4122 120.065 88.993 120.288 88.8719 120.684C88.7508 121.08 88.9737 121.499 89.3698 121.62L95.8249 123.594ZM58.2937 53.4757L95.3819 123.229L96.7064 122.524L59.6181 52.7715L58.2937 53.4757Z" fill="black"/>
</svg>
