<svg width="155" height="165" viewBox="0 0 155 165" fill="none" xmlns="http://www.w3.org/2000/svg">
<circle cx="77.5" cy="87.5" r="76.75" stroke="white" stroke-width="1.5"/>
<circle cx="77.5" cy="87.5" r="51.75" fill="white" stroke="white" stroke-width="1.5"/>
<path d="M80.9773 18.2727V27H79.9545L75.1989 20.1477H75.1136V27H74.0568V18.2727H75.0795L79.8523 25.142H79.9375V18.2727H80.9773Z" fill="white"/>
<path d="M77.5 0L83.9952 11.25H71.0048L77.5 0Z" fill="white"/>
<path d="M95.2009 123.908C95.5948 124.036 96.0179 123.82 96.1459 123.426L98.2318 117.007C98.3598 116.613 98.1442 116.19 97.7503 116.062C97.3563 115.934 96.9332 116.149 96.8052 116.543L94.9511 122.25L89.2448 120.396C88.8508 120.268 88.4277 120.483 88.2997 120.877C88.1717 121.271 88.3873 121.694 88.7812 121.822L95.2009 123.908ZM58.8991 53.1457L94.7644 123.535L96.1009 122.854L60.2356 52.4647L58.8991 53.1457Z" fill="black"/>
</svg>
