<svg width="155" height="165" viewBox="0 0 155 165" fill="none" xmlns="http://www.w3.org/2000/svg">
<circle cx="77.5" cy="87.5" r="76.75" stroke="white" stroke-width="1.5"/>
<circle cx="77.5" cy="87.5" r="51.75" fill="white" stroke="white" stroke-width="1.5"/>
<path d="M80.9773 18.2727V27H79.9545L75.1989 20.1477H75.1136V27H74.0568V18.2727H75.0795L79.8523 25.142H79.9375V18.2727H80.9773Z" fill="white"/>
<path d="M77.5 0L83.9952 11.25H71.0048L77.5 0Z" fill="white"/>
<path d="M94.5715 124.211C94.9631 124.346 95.39 124.138 95.5248 123.747L97.7224 117.364C97.8573 116.973 97.6491 116.546 97.2574 116.411C96.8658 116.276 96.439 116.484 96.3041 116.876L94.3507 122.549L88.6776 120.596C88.286 120.461 87.8591 120.669 87.7243 121.061C87.5894 121.452 87.7976 121.879 88.1893 122.014L94.5715 124.211ZM59.5103 52.8264L94.1416 123.831L95.4898 123.174L60.8585 52.1688L59.5103 52.8264Z" fill="black"/>
</svg>
