<svg width="155" height="165" viewBox="0 0 155 165" fill="none" xmlns="http://www.w3.org/2000/svg">
<circle cx="77.5" cy="87.5" r="76.75" stroke="white" stroke-width="1.5"/>
<circle cx="77.5" cy="87.5" r="51.75" fill="white" stroke="white" stroke-width="1.5"/>
<path d="M80.9773 18.2727V27H79.9545L75.1989 20.1477H75.1136V27H74.0568V18.2727H75.0795L79.8523 25.142H79.9375V18.2727H80.9773Z" fill="white"/>
<path d="M77.5 0L83.9952 11.25H71.0048L77.5 0Z" fill="white"/>
<path d="M93.9369 124.504C94.3262 124.646 94.7565 124.445 94.8982 124.056L97.2068 117.713C97.3485 117.323 97.1478 116.893 96.7586 116.751C96.3694 116.61 95.939 116.81 95.7973 117.2L93.7452 122.838L88.107 120.786C87.7178 120.644 87.2874 120.845 87.1457 121.234C87.0041 121.623 87.2048 122.054 87.594 122.195L93.9369 124.504ZM60.1269 52.5178L93.5137 124.116L94.8732 123.482L61.4863 51.8839L60.1269 52.5178Z" fill="black"/>
</svg>
