<svg width="155" height="165" viewBox="0 0 155 165" fill="none" xmlns="http://www.w3.org/2000/svg">
<circle cx="77.5" cy="87.5" r="76.75" stroke="white" stroke-width="1.5"/>
<circle cx="77.5" cy="87.5" r="51.75" fill="white" stroke="white" stroke-width="1.5"/>
<path d="M80.9773 18.2727V27H79.9545L75.1989 20.1477H75.1136V27H74.0568V18.2727H75.0795L79.8523 25.142H79.9375V18.2727H80.9773Z" fill="white"/>
<path d="M77.5 0L83.9952 11.25H71.0048L77.5 0Z" fill="white"/>
<path d="M93.2973 124.785C93.684 124.934 94.1179 124.741 94.2663 124.354L96.6853 118.052C96.8337 117.665 96.6406 117.232 96.2539 117.083C95.8672 116.935 95.4334 117.128 95.2849 117.515L93.1347 123.116L87.5332 120.966C87.1465 120.817 86.7127 121.011 86.5643 121.397C86.4158 121.784 86.609 122.218 86.9957 122.366L93.2973 124.785ZM60.7488 52.22L92.881 124.39L94.2513 123.78L62.1191 51.6099L60.7488 52.22Z" fill="black"/>
</svg>
