<svg width="155" height="165" viewBox="0 0 155 165" fill="none" xmlns="http://www.w3.org/2000/svg">
<circle cx="77.5" cy="87.5" r="76.75" stroke="white" stroke-width="1.5"/>
<circle cx="77.5" cy="87.5" r="51.75" fill="white" stroke="white" stroke-width="1.5"/>
<path d="M80.9773 18.2727V27H79.9545L75.1989 20.1477H75.1136V27H74.0568V18.2727H75.0795L79.8523 25.142H79.9375V18.2727H80.9773Z" fill="white"/>
<path d="M77.5 0L83.9952 11.25H71.0048L77.5 0Z" fill="white"/>
<path d="M92.6529 125.055C93.037 125.21 93.4741 125.025 93.6293 124.641L96.1579 118.382C96.313 117.998 96.1275 117.561 95.7434 117.406C95.3594 117.251 94.9223 117.436 94.7671 117.82L92.5195 123.384L86.9564 121.136C86.5723 120.981 86.1352 121.166 85.98 121.55C85.8249 121.934 86.0104 122.372 86.3945 122.527L92.6529 125.055ZM61.3758 51.9331L92.2435 124.653L93.6243 124.067L62.7565 51.347L61.3758 51.9331Z" fill="black"/>
</svg>
