<svg width="155" height="165" viewBox="0 0 155 165" fill="none" xmlns="http://www.w3.org/2000/svg">
<circle cx="77.5" cy="87.5" r="76.75" stroke="white" stroke-width="1.5"/>
<circle cx="77.5" cy="87.5" r="51.75" fill="white" stroke="white" stroke-width="1.5"/>
<path d="M80.9773 18.2727V27H79.9545L75.1989 20.1477H75.1136V27H74.0568V18.2727H75.0795L79.8523 25.142H79.9375V18.2727H80.9773Z" fill="white"/>
<path d="M77.5 0L83.9952 11.25H71.0048L77.5 0Z" fill="white"/>
<path d="M92.0039 125.314C92.3852 125.476 92.8255 125.298 92.9874 124.917L95.6248 118.703C95.7866 118.322 95.6087 117.882 95.2275 117.72C94.8462 117.558 94.4059 117.736 94.244 118.117L91.8996 123.64L86.3766 121.296C85.9953 121.134 85.555 121.312 85.3932 121.693C85.2313 122.075 85.4092 122.515 85.7905 122.677L92.0039 125.314ZM62.0077 51.6572L91.6016 124.905L92.9924 124.343L63.3984 51.0953L62.0077 51.6572Z" fill="black"/>
</svg>
