<svg width="155" height="165" viewBox="0 0 155 165" fill="none" xmlns="http://www.w3.org/2000/svg">
<circle cx="77.5" cy="87.5" r="76.75" stroke="white" stroke-width="1.5"/>
<circle cx="77.5" cy="87.5" r="51.75" fill="white" stroke="white" stroke-width="1.5"/>
<path d="M80.9773 18.2727V27H79.9545L75.1989 20.1477H75.1136V27H74.0568V18.2727H75.0795L79.8523 25.142H79.9375V18.2727H80.9773Z" fill="white"/>
<path d="M77.5 0L83.9952 11.25H71.0048L77.5 0Z" fill="white"/>
<path d="M91.3505 125.562C91.7289 125.73 92.1722 125.56 92.3407 125.181L95.0862 119.015C95.2547 118.637 95.0845 118.193 94.7061 118.025C94.3277 117.856 93.8843 118.027 93.7159 118.405L91.2754 123.886L85.7942 121.446C85.4158 121.277 84.9724 121.447 84.804 121.826C84.6355 122.204 84.8057 122.648 85.1841 122.816L91.3505 125.562ZM62.6443 51.3923L90.9554 125.145L92.3557 124.608L64.0447 50.8548L62.6443 51.3923Z" fill="black"/>
</svg>
