<svg width="155" height="165" viewBox="0 0 155 165" fill="none" xmlns="http://www.w3.org/2000/svg">
<circle cx="77.5" cy="87.5" r="76.75" stroke="white" stroke-width="1.5"/>
<circle cx="77.5" cy="87.5" r="51.75" fill="white" stroke="white" stroke-width="1.5"/>
<path d="M80.9773 18.2727V27H79.9545L75.1989 20.1477H75.1136V27H74.0568V18.2727H75.0795L79.8523 25.142H79.9375V18.2727H80.9773Z" fill="white"/>
<path d="M77.5 0L83.9952 11.25H71.0048L77.5 0Z" fill="white"/>
<path d="M89.0436 49.6666C88.8428 49.3043 88.3864 49.1734 88.0241 49.3742L82.1204 52.6467C81.7581 52.8475 81.6272 53.304 81.828 53.6663C82.0289 54.0285 82.4853 54.1594 82.8476 53.9586L88.0953 51.0498L91.0042 56.2975C91.205 56.6598 91.6615 56.7907 92.0238 56.5898C92.386 56.389 92.5169 55.9325 92.3161 55.5703L89.0436 49.6666ZM67.3333 126.177L89.1086 50.2369L87.6667 49.8235L65.8914 125.763L67.3333 126.177Z" fill="black"/>
</svg>
