<svg width="155" height="165" viewBox="0 0 155 165" fill="none" xmlns="http://www.w3.org/2000/svg">
<circle cx="77.5" cy="87.5" r="76.75" stroke="white" stroke-width="1.5"/>
<circle cx="77.5" cy="87.5" r="51.75" fill="white" stroke="white" stroke-width="1.5"/>
<path d="M80.9773 18.2727V27H79.9545L75.1989 20.1477H75.1136V27H74.0568V18.2727H75.0795L79.8523 25.142H79.9375V18.2727H80.9773Z" fill="white"/>
<path d="M77.5 0L83.9952 11.25H71.0048L77.5 0Z" fill="white"/>
<path d="M90.6928 125.798C91.0683 125.973 91.5145 125.81 91.6895 125.435L94.5422 119.317C94.7173 118.942 94.5549 118.496 94.1794 118.321C93.804 118.145 93.3578 118.308 93.1828 118.683L90.647 124.121L85.2092 121.585C84.8338 121.41 84.3876 121.573 84.2125 121.948C84.0375 122.324 84.1999 122.77 84.5753 122.945L90.6928 125.798ZM63.2855 51.1386L90.305 125.374L91.7146 124.861L64.695 50.6256L63.2855 51.1386Z" fill="black"/>
</svg>
