<svg width="155" height="165" viewBox="0 0 155 165" fill="none" xmlns="http://www.w3.org/2000/svg">
<circle cx="77.5" cy="87.5" r="76.75" stroke="white" stroke-width="1.5"/>
<circle cx="77.5" cy="87.5" r="51.75" fill="white" stroke="white" stroke-width="1.5"/>
<path d="M80.9773 18.2727V27H79.9545L75.1989 20.1477H75.1136V27H74.0568V18.2727H75.0795L79.8523 25.142H79.9375V18.2727H80.9773Z" fill="white"/>
<path d="M77.5 0L83.9952 11.25H71.0048L77.5 0Z" fill="white"/>
<path d="M90.0312 126.022C90.4035 126.204 90.8525 126.049 91.0341 125.677L93.9931 119.61C94.1746 119.238 94.02 118.789 93.6477 118.607C93.2754 118.425 92.8264 118.58 92.6449 118.952L90.0146 124.345L84.6219 121.715C84.2496 121.533 83.8006 121.688 83.619 122.06C83.4374 122.432 83.592 122.881 83.9643 123.063L90.0312 126.022ZM63.9309 50.8962L89.6508 125.592L91.0691 125.104L65.3492 50.4078L63.9309 50.8962Z" fill="black"/>
</svg>
