<svg width="155" height="165" viewBox="0 0 155 165" fill="none" xmlns="http://www.w3.org/2000/svg">
<circle cx="77.5" cy="87.5" r="76.75" stroke="white" stroke-width="1.5"/>
<circle cx="77.5" cy="87.5" r="51.75" fill="white" stroke="white" stroke-width="1.5"/>
<path d="M80.9773 18.2727V27H79.9545L75.1989 20.1477H75.1136V27H74.0568V18.2727H75.0795L79.8523 25.142H79.9375V18.2727H80.9773Z" fill="white"/>
<path d="M77.5 0L83.9952 11.25H71.0048L77.5 0Z" fill="white"/>
<path d="M89.3657 126.235C89.7348 126.423 90.1864 126.276 90.3744 125.907L93.4389 119.893C93.6269 119.524 93.4802 119.072 93.1111 118.884C92.742 118.696 92.2904 118.843 92.1024 119.212L89.3784 124.558L84.0324 121.834C83.6633 121.646 83.2117 121.793 83.0236 122.162C82.8356 122.531 82.9823 122.982 83.3514 123.171L89.3657 126.235ZM64.5806 50.665L88.9929 125.798L90.4195 125.335L66.0071 50.2015L64.5806 50.665Z" fill="black"/>
</svg>
