<svg width="155" height="165" viewBox="0 0 155 165" fill="none" xmlns="http://www.w3.org/2000/svg">
<circle cx="77.5" cy="87.5" r="76.75" stroke="white" stroke-width="1.5"/>
<circle cx="77.5" cy="87.5" r="51.75" fill="white" stroke="white" stroke-width="1.5"/>
<path d="M80.9773 18.2727V27H79.9545L75.1989 20.1477H75.1136V27H74.0568V18.2727H75.0795L79.8523 25.142H79.9375V18.2727H80.9773Z" fill="white"/>
<path d="M77.5 0L83.9952 11.25H71.0048L77.5 0Z" fill="white"/>
<path d="M88.6966 126.436C89.0623 126.631 89.5164 126.492 89.7109 126.126L92.8798 120.166C93.0743 119.8 92.9355 119.346 92.5697 119.152C92.204 118.957 91.7499 119.096 91.5554 119.462L88.7386 124.76L83.4409 121.943C83.0752 121.748 82.6211 121.887 82.4266 122.253C82.2321 122.619 82.371 123.073 82.7367 123.267L88.6966 126.436ZM65.2341 50.4452L88.3315 125.993L89.7659 125.555L66.6686 50.0067L65.2341 50.4452Z" fill="black"/>
</svg>
