<svg width="155" height="165" viewBox="0 0 155 165" fill="none" xmlns="http://www.w3.org/2000/svg">
<circle cx="77.5" cy="87.5" r="76.75" stroke="white" stroke-width="1.5"/>
<circle cx="77.5" cy="87.5" r="51.75" fill="white" stroke="white" stroke-width="1.5"/>
<path d="M80.9773 18.2727V27H79.9545L75.1989 20.1477H75.1136V27H74.0568V18.2727H75.0795L79.8523 25.142H79.9375V18.2727H80.9773Z" fill="white"/>
<path d="M77.5 0L83.9952 11.25H71.0048L77.5 0Z" fill="white"/>
<path d="M88.0241 126.626C88.3864 126.827 88.8428 126.696 89.0437 126.333L92.3161 120.43C92.5169 120.067 92.386 119.611 92.0238 119.41C91.6615 119.209 91.205 119.34 91.0042 119.703L88.0953 124.95L82.8476 122.041C82.4853 121.841 82.0289 121.971 81.828 122.334C81.6272 122.696 81.7581 123.153 82.1204 123.353L88.0241 126.626ZM65.8914 50.2369L87.6667 126.177L89.1086 125.763L67.3333 49.8234L65.8914 50.2369Z" fill="black"/>
</svg>
