<svg width="155" height="165" viewBox="0 0 155 165" fill="none" xmlns="http://www.w3.org/2000/svg">
<circle cx="77.5" cy="87.5" r="76.75" stroke="white" stroke-width="1.5"/>
<circle cx="77.5" cy="87.5" r="51.75" fill="white" stroke="white" stroke-width="1.5"/>
<path d="M80.9773 18.2727V27H79.9545L75.1989 20.1477H75.1136V27H74.0568V18.2727H75.0795L79.8523 25.142H79.9375V18.2727H80.9773Z" fill="white"/>
<path d="M77.5 0L83.9952 11.25H71.0048L77.5 0Z" fill="white"/>
<path d="M87.3484 126.804C87.7071 127.011 88.1658 126.888 88.3729 126.529L91.7479 120.683C91.955 120.325 91.8321 119.866 91.4734 119.659C91.1146 119.452 90.656 119.575 90.4488 119.933L87.4489 125.13L82.2527 122.13C81.894 121.922 81.4353 122.045 81.2282 122.404C81.0211 122.763 81.144 123.221 81.5027 123.429L87.3484 126.804ZM66.5522 50.04L86.9989 126.348L88.4478 125.96L68.0011 49.6518L66.5522 50.04Z" fill="black"/>
</svg>
