<svg width="155" height="165" viewBox="0 0 155 165" fill="none" xmlns="http://www.w3.org/2000/svg">
<circle cx="77.5" cy="87.5" r="76.75" stroke="white" stroke-width="1.5"/>
<circle cx="77.5" cy="87.5" r="51.75" fill="white" stroke="white" stroke-width="1.5"/>
<path d="M80.9773 18.2727V27H79.9545L75.1989 20.1477H75.1136V27H74.0568V18.2727H75.0795L79.8523 25.142H79.9375V18.2727H80.9773Z" fill="white"/>
<path d="M77.5 0L83.9952 11.25H71.0048L77.5 0Z" fill="white"/>
<path d="M86.6696 126.97C87.0247 127.183 87.4855 127.068 87.6988 126.713L91.1753 120.927C91.3886 120.572 91.2738 120.111 90.9187 119.898C90.5637 119.685 90.1029 119.799 89.8896 120.155L86.7993 125.298L81.6563 122.207C81.3013 121.994 80.8405 122.109 80.6272 122.464C80.4138 122.819 80.5287 123.28 80.8838 123.493L86.6696 126.97ZM67.2164 49.8547L86.3282 126.508L87.7837 126.145L68.6718 49.4919L67.2164 49.8547Z" fill="black"/>
</svg>
