<svg width="155" height="165" viewBox="0 0 155 165" fill="none" xmlns="http://www.w3.org/2000/svg">
<circle cx="77.5" cy="87.5" r="76.75" stroke="white" stroke-width="1.5"/>
<circle cx="77.5" cy="87.5" r="51.75" fill="white" stroke="white" stroke-width="1.5"/>
<path d="M80.9773 18.2727V27H79.9545L75.1989 20.1477H75.1136V27H74.0568V18.2727H75.0795L79.8523 25.142H79.9375V18.2727H80.9773Z" fill="white"/>
<path d="M77.5 0L83.9952 11.25H71.0048L77.5 0Z" fill="white"/>
<path d="M85.9881 127.124C86.3394 127.343 86.8021 127.236 87.0216 126.885L90.5986 121.161C90.8181 120.809 90.7112 120.347 90.36 120.127C90.0087 119.908 89.546 120.015 89.3265 120.366L86.147 125.454L81.0587 122.275C80.7074 122.055 80.2447 122.162 80.0252 122.513C79.8057 122.864 79.9125 123.327 80.2638 123.547L85.9881 127.124ZM67.8837 49.6811L85.6548 126.656L87.1164 126.319L69.3452 49.3437L67.8837 49.6811Z" fill="black"/>
</svg>
