<svg width="155" height="165" viewBox="0 0 155 165" fill="none" xmlns="http://www.w3.org/2000/svg">
<circle cx="77.5" cy="87.5" r="76.75" stroke="white" stroke-width="1.5"/>
<circle cx="77.5" cy="87.5" r="51.75" fill="white" stroke="white" stroke-width="1.5"/>
<path d="M80.9773 18.2727V27H79.9545L75.1989 20.1477H75.1136V27H74.0568V18.2727H75.0795L79.8523 25.142H79.9375V18.2727H80.9773Z" fill="white"/>
<path d="M77.5 0L83.9952 11.25H71.0048L77.5 0Z" fill="white"/>
<path d="M85.304 127.266C85.6514 127.491 86.1159 127.393 86.3415 127.045L90.0178 121.384C90.2434 121.037 90.1447 120.572 89.7973 120.347C89.4499 120.121 88.9854 120.22 88.7598 120.567L85.492 125.599L80.46 122.331C80.1126 122.106 79.6481 122.205 79.4225 122.552C79.1969 122.899 79.2956 123.364 79.643 123.59L85.304 127.266ZM68.5539 49.5191L84.9789 126.793L86.4461 126.481L70.0211 49.2072L68.5539 49.5191Z" fill="black"/>
</svg>
