<svg width="155" height="165" viewBox="0 0 155 165" fill="none" xmlns="http://www.w3.org/2000/svg">
<circle cx="77.5" cy="87.5" r="76.75" stroke="white" stroke-width="1.5"/>
<circle cx="77.5" cy="87.5" r="51.75" fill="white" stroke="white" stroke-width="1.5"/>
<path d="M80.9773 18.2727V27H79.9545L75.1989 20.1477H75.1136V27H74.0568V18.2727H75.0795L79.8523 25.142H79.9375V18.2727H80.9773Z" fill="white"/>
<path d="M77.5 0L83.9952 11.25H71.0048L77.5 0Z" fill="white"/>
<path d="M84.6176 127.396C84.961 127.628 85.4271 127.537 85.6588 127.194L89.4333 121.598C89.6649 121.254 89.5743 120.788 89.2309 120.556C88.8875 120.325 88.4214 120.415 88.1898 120.759L84.8346 125.733L79.8604 122.378C79.517 122.146 79.0508 122.237 78.8192 122.58C78.5876 122.924 78.6782 123.39 79.0216 123.621L84.6176 127.396ZM69.2268 49.3688L84.3008 126.917L85.7732 126.631L70.6993 49.0826L69.2268 49.3688Z" fill="black"/>
</svg>
