<svg width="155" height="165" viewBox="0 0 155 165" fill="none" xmlns="http://www.w3.org/2000/svg">
<circle cx="77.5" cy="87.5" r="76.75" stroke="white" stroke-width="1.5"/>
<circle cx="77.5" cy="87.5" r="51.75" fill="white" stroke="white" stroke-width="1.5"/>
<path d="M80.9773 18.2727V27H79.9545L75.1989 20.1477H75.1136V27H74.0568V18.2727H75.0795L79.8523 25.142H79.9375V18.2727H80.9773Z" fill="white"/>
<path d="M77.5 0L83.9952 11.25H71.0048L77.5 0Z" fill="white"/>
<path d="M89.7109 49.8739C89.5164 49.5082 89.0623 49.3693 88.6966 49.5638L82.7367 52.7327C82.371 52.9272 82.2321 53.3813 82.4266 53.747C82.621 54.1128 83.0752 54.2516 83.4409 54.0571L88.7386 51.2403L91.5554 56.538C91.7499 56.9037 92.204 57.0426 92.5697 56.8481C92.9355 56.6536 93.0743 56.1995 92.8798 55.8338L89.7109 49.8739ZM66.6686 125.993L89.7659 50.4453L88.3315 50.0067L65.2341 125.555L66.6686 125.993Z" fill="black"/>
</svg>
