<svg width="155" height="165" viewBox="0 0 155 165" fill="none" xmlns="http://www.w3.org/2000/svg">
<circle cx="77.5" cy="87.5" r="76.75" stroke="white" stroke-width="1.5"/>
<circle cx="77.5" cy="87.5" r="51.75" fill="white" stroke="white" stroke-width="1.5"/>
<path d="M80.9773 18.2727V27H79.9545L75.1989 20.1477H75.1136V27H74.0568V18.2727H75.0795L79.8523 25.142H79.9375V18.2727H80.9773Z" fill="white"/>
<path d="M77.5 0L83.9952 11.25H71.0048L77.5 0Z" fill="white"/>
<path d="M83.9289 127.514C84.2682 127.752 84.7359 127.669 84.9735 127.33L88.8451 121.801C89.0827 121.461 89.0003 120.994 88.661 120.756C88.3216 120.519 87.854 120.601 87.6164 120.94L84.1749 125.855L79.26 122.414C78.9207 122.176 78.4531 122.259 78.2155 122.598C77.9779 122.937 78.0604 123.405 78.3997 123.643L83.9289 127.514ZM69.9023 49.2303L83.6205 127.03L85.0977 126.77L71.3795 48.9698L69.9023 49.2303Z" fill="black"/>
</svg>
