<svg width="155" height="165" viewBox="0 0 155 165" fill="none" xmlns="http://www.w3.org/2000/svg">
<circle cx="77.5" cy="87.5" r="76.75" stroke="white" stroke-width="1.5"/>
<circle cx="77.5" cy="87.5" r="51.75" fill="white" stroke="white" stroke-width="1.5"/>
<path d="M80.9773 18.2727V27H79.9545L75.1989 20.1477H75.1136V27H74.0568V18.2727H75.0795L79.8523 25.142H79.9375V18.2727H80.9773Z" fill="white"/>
<path d="M77.5 0L83.9952 11.25H71.0048L77.5 0Z" fill="white"/>
<path d="M83.2383 127.62C83.5735 127.864 84.0425 127.79 84.2859 127.455L88.2535 121.994C88.497 121.659 88.4227 121.19 88.0876 120.946C87.7525 120.703 87.2834 120.777 87.04 121.112L83.5133 125.966L78.6592 122.439C78.3241 122.196 77.855 122.27 77.6116 122.605C77.3681 122.94 77.4424 123.409 77.7775 123.653L83.2383 127.62ZM70.5801 49.1036L82.9384 127.131L84.42 126.896L72.0616 48.869L70.5801 49.1036Z" fill="black"/>
</svg>
