<svg width="155" height="165" viewBox="0 0 155 165" fill="none" xmlns="http://www.w3.org/2000/svg">
<circle cx="77.5" cy="87.5" r="76.75" stroke="white" stroke-width="1.5"/>
<circle cx="77.5" cy="87.5" r="51.75" fill="white" stroke="white" stroke-width="1.5"/>
<path d="M80.9773 18.2727V27H79.9545L75.1989 20.1477H75.1136V27H74.0568V18.2727H75.0795L79.8523 25.142H79.9375V18.2727H80.9773Z" fill="white"/>
<path d="M77.5 0L83.9952 11.25H71.0048L77.5 0Z" fill="white"/>
<path d="M82.546 127.715C82.8768 127.964 83.3471 127.898 83.5963 127.567L87.6586 122.176C87.9079 121.845 87.8418 121.375 87.511 121.126C87.1802 120.877 86.7099 120.943 86.4606 121.273L82.8497 126.065L78.0579 122.454C77.7271 122.205 77.2569 122.271 77.0076 122.602C76.7583 122.933 76.8244 123.403 77.1552 123.652L82.546 127.715ZM71.26 48.9888L82.2547 127.22L83.7401 127.011L72.7454 48.78L71.26 48.9888Z" fill="black"/>
</svg>
