<svg width="155" height="165" viewBox="0 0 155 165" fill="none" xmlns="http://www.w3.org/2000/svg">
<circle cx="77.5" cy="87.5" r="76.75" stroke="white" stroke-width="1.5"/>
<circle cx="77.5" cy="87.5" r="51.75" fill="white" stroke="white" stroke-width="1.5"/>
<path d="M80.9773 18.2727V27H79.9545L75.1989 20.1477H75.1136V27H74.0568V18.2727H75.0795L79.8523 25.142H79.9375V18.2727H80.9773Z" fill="white"/>
<path d="M77.5 0L83.9952 11.25H71.0048L77.5 0Z" fill="white"/>
<path d="M81.8521 127.797C82.1785 128.052 82.6499 127.994 82.9049 127.667L87.0606 122.348C87.3156 122.022 87.2577 121.55 86.9313 121.295C86.6049 121.04 86.1336 121.098 85.8786 121.425L82.1846 126.153L77.4565 122.459C77.1301 122.204 76.6588 122.262 76.4038 122.588C76.1488 122.914 76.2066 123.386 76.533 123.641L81.8521 127.797ZM71.9418 48.8858L81.5695 127.297L83.0583 127.114L73.4306 48.703L71.9418 48.8858Z" fill="black"/>
</svg>
