<svg width="155" height="165" viewBox="0 0 155 165" fill="none" xmlns="http://www.w3.org/2000/svg">
<circle cx="77.5" cy="87.5" r="76.75" stroke="white" stroke-width="1.5"/>
<circle cx="77.5" cy="87.5" r="51.75" fill="white" stroke="white" stroke-width="1.5"/>
<path d="M80.9773 18.2727V27H79.9545L75.1989 20.1477H75.1136V27H74.0568V18.2727H75.0795L79.8523 25.142H79.9375V18.2727H80.9773Z" fill="white"/>
<path d="M77.5 0L83.9952 11.25H71.0048L77.5 0Z" fill="white"/>
<path d="M81.1569 127.866C81.4788 128.127 81.9511 128.077 82.2118 127.756L86.4597 122.51C86.7203 122.188 86.6707 121.716 86.3488 121.455C86.0269 121.194 85.5546 121.244 85.294 121.566L81.518 126.229L76.8552 122.453C76.5333 122.192 76.061 122.242 75.8003 122.564C75.5396 122.886 75.5893 123.358 75.9112 123.619L81.1569 127.866ZM72.6253 48.7948L80.883 127.362L82.3748 127.205L74.117 48.638L72.6253 48.7948Z" fill="black"/>
</svg>
