<svg width="155" height="165" viewBox="0 0 155 165" fill="none" xmlns="http://www.w3.org/2000/svg">
<circle cx="77.5" cy="87.5" r="76.75" stroke="white" stroke-width="1.5"/>
<circle cx="77.5" cy="87.5" r="51.75" fill="white" stroke="white" stroke-width="1.5"/>
<path d="M80.9773 18.2727V27H79.9545L75.1989 20.1477H75.1136V27H74.0568V18.2727H75.0795L79.8523 25.142H79.9375V18.2727H80.9773Z" fill="white"/>
<path d="M77.5 0L83.9952 11.25H71.0048L77.5 0Z" fill="white"/>
<path d="M80.4606 127.924C80.7779 128.19 81.251 128.149 81.5172 127.832L85.856 122.661C86.1223 122.344 86.0809 121.871 85.7636 121.604C85.4463 121.338 84.9732 121.379 84.707 121.697L80.8502 126.293L76.254 122.436C75.9367 122.17 75.4636 122.211 75.1974 122.529C74.9311 122.846 74.9725 123.319 75.2898 123.585L80.4606 127.924ZM73.3102 48.7157L80.1955 127.415L81.6898 127.284L74.8045 48.5849L73.3102 48.7157Z" fill="black"/>
</svg>
