<svg width="155" height="165" viewBox="0 0 155 165" fill="none" xmlns="http://www.w3.org/2000/svg">
<circle cx="77.5" cy="87.5" r="76.75" stroke="white" stroke-width="1.5"/>
<circle cx="77.5" cy="87.5" r="51.75" fill="white" stroke="white" stroke-width="1.5"/>
<path d="M80.9773 18.2727V27H79.9545L75.1989 20.1477H75.1136V27H74.0568V18.2727H75.0795L79.8523 25.142H79.9375V18.2727H80.9773Z" fill="white"/>
<path d="M77.5 0L83.9952 11.25H71.0048L77.5 0Z" fill="white"/>
<path d="M79.7634 127.97C80.076 128.242 80.5497 128.208 80.8214 127.896L85.2498 122.802C85.5216 122.489 85.4885 122.015 85.1759 121.743C84.8632 121.472 84.3895 121.505 84.1178 121.817L80.1814 126.346L75.6532 122.409C75.3406 122.138 74.8668 122.171 74.5951 122.483C74.3233 122.796 74.3565 123.27 74.6691 123.541L79.7634 127.97ZM73.9965 48.6485L79.5072 127.456L81.0036 127.351L75.4928 48.5439L73.9965 48.6485Z" fill="black"/>
</svg>
