<svg width="155" height="165" viewBox="0 0 155 165" fill="none" xmlns="http://www.w3.org/2000/svg">
<circle cx="77.5" cy="87.5" r="76.75" stroke="white" stroke-width="1.5"/>
<circle cx="77.5" cy="87.5" r="51.75" fill="white" stroke="white" stroke-width="1.5"/>
<path d="M80.9773 18.2727V27H79.9545L75.1989 20.1477H75.1136V27H74.0568V18.2727H75.0795L79.8523 25.142H79.9375V18.2727H80.9773Z" fill="white"/>
<path d="M77.5 0L83.9952 11.25H71.0048L77.5 0Z" fill="white"/>
<path d="M79.0655 128.003C79.3733 128.28 79.8475 128.256 80.1247 127.948L84.6413 122.931C84.9185 122.624 84.8936 122.149 84.5858 121.872C84.278 121.595 83.8037 121.62 83.5266 121.928L79.5118 126.387L75.0529 122.372C74.7451 122.095 74.2709 122.12 73.9937 122.427C73.7166 122.735 73.7414 123.209 74.0492 123.487L79.0655 128.003ZM74.6838 48.5934L78.8183 127.485L80.3163 127.407L76.1817 48.5149L74.6838 48.5934Z" fill="black"/>
</svg>
