<svg width="155" height="165" viewBox="0 0 155 165" fill="none" xmlns="http://www.w3.org/2000/svg">
<circle cx="77.5" cy="87.5" r="76.75" stroke="white" stroke-width="1.5"/>
<circle cx="77.5" cy="87.5" r="51.75" fill="white" stroke="white" stroke-width="1.5"/>
<path d="M80.9773 18.2727V27H79.9545L75.1989 20.1477H75.1136V27H74.0568V18.2727H75.0795L79.8523 25.142H79.9375V18.2727H80.9773Z" fill="white"/>
<path d="M77.5 0L83.9952 11.25H71.0048L77.5 0Z" fill="white"/>
<path d="M78.3671 128.024C78.67 128.307 79.1446 128.29 79.4271 127.987L84.0306 123.051C84.3131 122.748 84.2965 122.273 83.9936 121.991C83.6906 121.708 83.216 121.725 82.9335 122.028L78.8415 126.416L74.4534 122.324C74.1505 122.041 73.6759 122.058 73.3934 122.361C73.1109 122.664 73.1275 123.138 73.4304 123.421L78.3671 128.024ZM75.372 48.5502L78.129 127.502L79.6281 127.45L76.871 48.4979L75.372 48.5502Z" fill="black"/>
</svg>
