<svg width="155" height="165" viewBox="0 0 155 165" fill="none" xmlns="http://www.w3.org/2000/svg">
<circle cx="77.5" cy="87.5" r="76.75" stroke="white" stroke-width="1.5"/>
<circle cx="77.5" cy="87.5" r="51.75" fill="white" stroke="white" stroke-width="1.5"/>
<path d="M80.9773 18.2727V27H79.9545L75.1989 20.1477H75.1136V27H74.0568V18.2727H75.0795L79.8523 25.142H79.9375V18.2727H80.9773Z" fill="white"/>
<path d="M77.5 0L83.9952 11.25H71.0048L77.5 0Z" fill="white"/>
<path d="M77.6684 128.033C77.9664 128.321 78.4412 128.313 78.7289 128.015L83.4179 123.159C83.7056 122.861 83.6973 122.387 83.3993 122.099C83.1014 121.811 82.6266 121.819 82.3388 122.117L78.1709 126.433L73.8549 122.266C73.5569 121.978 73.0821 121.986 72.7944 122.284C72.5066 122.582 72.5149 123.057 72.8129 123.345L77.6684 128.033ZM76.0608 48.5191L77.4395 127.507L78.9393 127.481L77.5606 48.4929L76.0608 48.5191Z" fill="black"/>
</svg>
