<svg width="155" height="165" viewBox="0 0 155 165" fill="none" xmlns="http://www.w3.org/2000/svg">
<circle cx="77.5" cy="87.5" r="76.75" stroke="white" stroke-width="1.5"/>
<circle cx="77.5" cy="87.5" r="51.75" fill="white" stroke="white" stroke-width="1.5"/>
<path d="M80.9773 18.2727V27H79.9545L75.1989 20.1477H75.1136V27H74.0568V18.2727H75.0795L79.8523 25.142H79.9375V18.2727H80.9773Z" fill="white"/>
<path d="M77.5 0L83.9952 11.25H71.0048L77.5 0Z" fill="white"/>
<path d="M90.3744 50.0928C90.1864 49.7237 89.7348 49.577 89.3657 49.765L83.3514 52.8295C82.9823 53.0175 82.8356 53.4692 83.0236 53.8382C83.2117 54.2073 83.6633 54.354 84.0324 54.166L89.3784 51.442L92.1024 56.7881C92.2904 57.1572 92.742 57.3039 93.1111 57.1158C93.4802 56.9278 93.6269 56.4762 93.4389 56.1071L90.3744 50.0928ZM66.0071 125.799L90.4195 50.6651L88.9929 50.2015L64.5805 125.335L66.0071 125.799Z" fill="black"/>
</svg>
