<svg width="155" height="165" viewBox="0 0 155 165" fill="none" xmlns="http://www.w3.org/2000/svg">
<circle cx="77.5" cy="87.5" r="76.75" stroke="white" stroke-width="1.5"/>
<circle cx="77.5" cy="87.5" r="51.75" fill="white" stroke="white" stroke-width="1.5"/>
<path d="M80.9773 18.2727V27H79.9545L75.1989 20.1477H75.1136V27H74.0568V18.2727H75.0795L79.8523 25.142H79.9375V18.2727H80.9773Z" fill="white"/>
<path d="M77.5 0L83.9952 11.25H71.0048L77.5 0Z" fill="white"/>
<path d="M76.9697 128.03C77.2626 128.323 77.7375 128.323 78.0304 128.03L82.8033 123.257C83.0962 122.964 83.0962 122.49 82.8033 122.197C82.5104 121.904 82.0356 121.904 81.7427 122.197L77.5 126.439L73.2574 122.197C72.9645 121.904 72.4896 121.904 72.1967 122.197C71.9038 122.49 71.9038 122.964 72.1967 123.257L76.9697 128.03ZM76.75 48.5L76.75 127.5H78.25L78.25 48.5H76.75Z" fill="black"/>
</svg>
