<svg width="155" height="165" viewBox="0 0 155 165" fill="none" xmlns="http://www.w3.org/2000/svg">
<circle cx="77.5" cy="87.5" r="76.75" stroke="white" stroke-width="1.5"/>
<circle cx="77.5" cy="87.5" r="51.75" fill="white" stroke="white" stroke-width="1.5"/>
<path d="M80.9773 18.2727V27H79.9545L75.1989 20.1477H75.1136V27H74.0568V18.2727H75.0795L79.8523 25.142H79.9375V18.2727H80.9773Z" fill="white"/>
<path d="M77.5 0L83.9952 11.25H71.0048L77.5 0Z" fill="white"/>
<path d="M76.2712 128.015C76.5589 128.313 77.0337 128.321 77.3317 128.033L82.1872 123.345C82.4852 123.057 82.4935 122.582 82.2057 122.284C81.918 121.986 81.4432 121.978 81.1452 122.266L76.8292 126.433L72.6612 122.117C72.3735 121.819 71.8987 121.811 71.6007 122.099C71.3028 122.387 71.2945 122.861 71.5822 123.159L76.2712 128.015ZM77.4395 48.4929L76.0608 127.481L77.5606 127.507L78.9393 48.5191L77.4395 48.4929Z" fill="black"/>
</svg>
