<svg width="155" height="165" viewBox="0 0 155 165" fill="none" xmlns="http://www.w3.org/2000/svg">
<circle cx="77.5" cy="87.5" r="76.75" stroke="white" stroke-width="1.5"/>
<circle cx="77.5" cy="87.5" r="51.75" fill="white" stroke="white" stroke-width="1.5"/>
<path d="M80.9773 18.2727V27H79.9545L75.1989 20.1477H75.1136V27H74.0568V18.2727H75.0795L79.8523 25.142H79.9375V18.2727H80.9773Z" fill="white"/>
<path d="M77.5 0L83.9952 11.25H71.0048L77.5 0Z" fill="white"/>
<path d="M75.573 127.987C75.8555 128.29 76.3301 128.307 76.633 128.024L81.5696 123.421C81.8726 123.138 81.8892 122.664 81.6067 122.361C81.3242 122.058 80.8496 122.041 80.5466 122.324L76.1585 126.416L72.0665 122.028C71.784 121.725 71.3095 121.708 71.0065 121.991C70.7036 122.273 70.687 122.748 70.9695 123.051L75.573 127.987ZM78.129 48.4979L75.372 127.45L76.8711 127.502L79.6281 48.5502L78.129 48.4979Z" fill="black"/>
</svg>
