<svg width="155" height="165" viewBox="0 0 155 165" fill="none" xmlns="http://www.w3.org/2000/svg">
<circle cx="77.5" cy="87.5" r="76.75" stroke="white" stroke-width="1.5"/>
<circle cx="77.5" cy="87.5" r="51.75" fill="white" stroke="white" stroke-width="1.5"/>
<path d="M80.9773 18.2727V27H79.9545L75.1989 20.1477H75.1136V27H74.0568V18.2727H75.0795L79.8523 25.142H79.9375V18.2727H80.9773Z" fill="white"/>
<path d="M77.5 0L83.9952 11.25H71.0048L77.5 0Z" fill="white"/>
<path d="M74.8754 127.948C75.1526 128.256 75.6268 128.28 75.9346 128.003L80.9508 123.487C81.2587 123.209 81.2835 122.735 81.0064 122.427C80.7292 122.12 80.255 122.095 79.9472 122.372L75.4883 126.387L71.4735 121.928C71.1963 121.62 70.7221 121.595 70.4143 121.872C70.1065 122.149 70.0816 122.624 70.3588 122.931L74.8754 127.948ZM78.8183 48.5149L74.6838 127.407L76.1817 127.485L80.3163 48.5934L78.8183 48.5149Z" fill="black"/>
</svg>
