<svg width="155" height="165" viewBox="0 0 155 165" fill="none" xmlns="http://www.w3.org/2000/svg">
<circle cx="77.5" cy="87.5" r="76.75" stroke="white" stroke-width="1.5"/>
<circle cx="77.5" cy="87.5" r="51.75" fill="white" stroke="white" stroke-width="1.5"/>
<path d="M80.9773 18.2727V27H79.9545L75.1989 20.1477H75.1136V27H74.0568V18.2727H75.0795L79.8523 25.142H79.9375V18.2727H80.9773Z" fill="white"/>
<path d="M77.5 0L83.9952 11.25H71.0048L77.5 0Z" fill="white"/>
<path d="M74.1786 127.896C74.4504 128.208 74.9241 128.242 75.2367 127.97L80.331 123.541C80.6436 123.27 80.6767 122.796 80.405 122.483C80.1332 122.171 79.6595 122.138 79.3469 122.409L74.8187 126.346L70.8823 121.817C70.6105 121.505 70.1368 121.472 69.8242 121.743C69.5116 122.015 69.4785 122.489 69.7502 122.802L74.1786 127.896ZM79.5073 48.5439L73.9965 127.351L75.4928 127.456L81.0036 48.6485L79.5073 48.5439Z" fill="black"/>
</svg>
