<svg width="155" height="165" viewBox="0 0 155 165" fill="none" xmlns="http://www.w3.org/2000/svg">
<circle cx="77.5" cy="87.5" r="76.75" stroke="white" stroke-width="1.5"/>
<circle cx="77.5" cy="87.5" r="51.75" fill="white" stroke="white" stroke-width="1.5"/>
<path d="M80.9773 18.2727V27H79.9545L75.1989 20.1477H75.1136V27H74.0568V18.2727H75.0795L79.8523 25.142H79.9375V18.2727H80.9773Z" fill="white"/>
<path d="M77.5 0L83.9952 11.25H71.0048L77.5 0Z" fill="white"/>
<path d="M73.4829 127.832C73.7491 128.149 74.2222 128.19 74.5395 127.924L79.7103 123.585C80.0276 123.319 80.069 122.846 79.8027 122.529C79.5365 122.211 79.0634 122.17 78.7461 122.436L74.1498 126.293L70.2931 121.697C70.0269 121.379 69.5538 121.338 69.2365 121.604C68.9192 121.871 68.8778 122.344 69.144 122.661L73.4829 127.832ZM80.1955 48.5849L73.3102 127.284L74.8045 127.415L81.6898 48.7157L80.1955 48.5849Z" fill="black"/>
</svg>
