<svg width="155" height="165" viewBox="0 0 155 165" fill="none" xmlns="http://www.w3.org/2000/svg">
<circle cx="77.5" cy="87.5" r="76.75" stroke="white" stroke-width="1.5"/>
<circle cx="77.5" cy="87.5" r="51.75" fill="white" stroke="white" stroke-width="1.5"/>
<path d="M80.9773 18.2727V27H79.9545L75.1989 20.1477H75.1136V27H74.0568V18.2727H75.0795L79.8523 25.142H79.9375V18.2727H80.9773Z" fill="white"/>
<path d="M77.5 0L83.9952 11.25H71.0048L77.5 0Z" fill="white"/>
<path d="M72.7883 127.756C73.049 128.077 73.5213 128.127 73.8432 127.866L79.0889 123.619C79.4108 123.358 79.4604 122.886 79.1998 122.564C78.9391 122.242 78.4668 122.192 78.1449 122.453L73.482 126.229L69.7061 121.566C69.4454 121.244 68.9732 121.194 68.6513 121.455C68.3294 121.716 68.2797 122.188 68.5404 122.51L72.7883 127.756ZM80.883 48.638L72.6253 127.205L74.1171 127.362L82.3748 48.7948L80.883 48.638Z" fill="black"/>
</svg>
