<svg width="155" height="165" viewBox="0 0 155 165" fill="none" xmlns="http://www.w3.org/2000/svg">
<circle cx="77.5" cy="87.5" r="76.75" stroke="white" stroke-width="1.5"/>
<circle cx="77.5" cy="87.5" r="51.75" fill="white" stroke="white" stroke-width="1.5"/>
<path d="M80.9773 18.2727V27H79.9545L75.1989 20.1477H75.1136V27H74.0568V18.2727H75.0795L79.8523 25.142H79.9375V18.2727H80.9773Z" fill="white"/>
<path d="M77.5 0L83.9952 11.25H71.0048L77.5 0Z" fill="white"/>
<path d="M72.0952 127.667C72.3502 127.994 72.8216 128.052 73.148 127.797L78.467 123.641C78.7934 123.386 78.8513 122.914 78.5963 122.588C78.3413 122.262 77.8699 122.204 77.5435 122.459L72.8155 126.153L69.1215 121.425C68.8665 121.098 68.3952 121.04 68.0687 121.295C67.7423 121.55 67.6845 122.022 67.9395 122.348L72.0952 127.667ZM81.5695 48.703L71.9418 127.114L73.4306 127.297L83.0583 48.8858L81.5695 48.703Z" fill="black"/>
</svg>
