<svg width="155" height="165" viewBox="0 0 155 165" fill="none" xmlns="http://www.w3.org/2000/svg">
<circle cx="77.5" cy="87.5" r="76.75" stroke="white" stroke-width="1.5"/>
<circle cx="77.5" cy="87.5" r="51.75" fill="white" stroke="white" stroke-width="1.5"/>
<path d="M80.9773 18.2727V27H79.9545L75.1989 20.1477H75.1136V27H74.0568V18.2727H75.0795L79.8523 25.142H79.9375V18.2727H80.9773Z" fill="white"/>
<path d="M77.5 0L83.9952 11.25H71.0048L77.5 0Z" fill="white"/>
<path d="M71.4037 127.567C71.653 127.898 72.1233 127.964 72.4541 127.715L77.8449 123.652C78.1757 123.403 78.2418 122.933 77.9925 122.602C77.7432 122.271 77.2729 122.205 76.9421 122.454L72.1503 126.065L68.5394 121.273C68.2902 120.943 67.8199 120.877 67.4891 121.126C67.1583 121.375 67.0922 121.845 67.3415 122.176L71.4037 127.567ZM82.2547 48.78L71.26 127.011L72.7454 127.22L83.7401 48.9888L82.2547 48.78Z" fill="black"/>
</svg>
