<svg width="155" height="165" viewBox="0 0 155 165" fill="none" xmlns="http://www.w3.org/2000/svg">
<circle cx="77.5" cy="87.5" r="76.75" stroke="white" stroke-width="1.5"/>
<circle cx="77.5" cy="87.5" r="51.75" fill="white" stroke="white" stroke-width="1.5"/>
<path d="M80.9773 18.2727V27H79.9545L75.1989 20.1477H75.1136V27H74.0568V18.2727H75.0795L79.8523 25.142H79.9375V18.2727H80.9773Z" fill="white"/>
<path d="M77.5 0L83.9952 11.25H71.0048L77.5 0Z" fill="white"/>
<path d="M70.7141 127.455C70.9576 127.79 71.4266 127.864 71.7617 127.62L77.2226 123.653C77.5577 123.409 77.632 122.94 77.3885 122.605C77.145 122.27 76.676 122.196 76.3409 122.439L71.4868 125.966L67.9601 121.112C67.7166 120.777 67.2476 120.703 66.9125 120.946C66.5774 121.19 66.5031 121.659 66.7466 121.994L70.7141 127.455ZM82.9384 48.869L70.5801 126.896L72.0617 127.131L84.42 49.1036L82.9384 48.869Z" fill="black"/>
</svg>
