<svg width="155" height="165" viewBox="0 0 155 165" fill="none" xmlns="http://www.w3.org/2000/svg">
<circle cx="77.5" cy="87.5" r="76.75" stroke="white" stroke-width="1.5"/>
<circle cx="77.5" cy="87.5" r="51.75" fill="white" stroke="white" stroke-width="1.5"/>
<path d="M80.9773 18.2727V27H79.9545L75.1989 20.1477H75.1136V27H74.0568V18.2727H75.0795L79.8523 25.142H79.9375V18.2727H80.9773Z" fill="white"/>
<path d="M77.5 0L83.9952 11.25H71.0048L77.5 0Z" fill="white"/>
<path d="M91.034 50.3233C90.8525 49.951 90.4035 49.7964 90.0312 49.978L83.9643 52.937C83.592 53.1185 83.4374 53.5675 83.619 53.9398C83.8006 54.3121 84.2496 54.4667 84.6219 54.2851L90.0146 51.6549L92.6449 57.0477C92.8264 57.42 93.2754 57.5746 93.6477 57.393C94.02 57.2114 94.1746 56.7624 93.9931 56.3901L91.034 50.3233ZM65.3492 125.592L91.0691 50.8962L89.6508 50.4079L63.9309 125.104L65.3492 125.592Z" fill="black"/>
</svg>
