<svg width="155" height="165" viewBox="0 0 155 165" fill="none" xmlns="http://www.w3.org/2000/svg">
<circle cx="77.5" cy="87.5" r="76.75" stroke="white" stroke-width="1.5"/>
<circle cx="77.5" cy="87.5" r="51.75" fill="white" stroke="white" stroke-width="1.5"/>
<path d="M80.9773 18.2727V27H79.9545L75.1989 20.1477H75.1136V27H74.0568V18.2727H75.0795L79.8523 25.142H79.9375V18.2727H80.9773Z" fill="white"/>
<path d="M77.5 0L83.9952 11.25H71.0048L77.5 0Z" fill="white"/>
<path d="M70.0266 127.33C70.2642 127.669 70.7318 127.752 71.0711 127.514L76.6004 123.643C76.9397 123.405 77.0222 122.937 76.7846 122.598C76.547 122.259 76.0793 122.176 75.74 122.414L70.8251 125.855L67.3837 120.94C67.1461 120.601 66.6784 120.519 66.3391 120.756C65.9998 120.994 65.9174 121.461 66.1549 121.801L70.0266 127.33ZM83.6205 48.9698L69.9023 126.77L71.3795 127.03L85.0978 49.2303L83.6205 48.9698Z" fill="black"/>
</svg>
