<svg width="155" height="165" viewBox="0 0 155 165" fill="none" xmlns="http://www.w3.org/2000/svg">
<circle cx="77.5" cy="87.5" r="76.75" stroke="white" stroke-width="1.5"/>
<circle cx="77.5" cy="87.5" r="51.75" fill="white" stroke="white" stroke-width="1.5"/>
<path d="M80.9773 18.2727V27H79.9545L75.1989 20.1477H75.1136V27H74.0568V18.2727H75.0795L79.8523 25.142H79.9375V18.2727H80.9773Z" fill="white"/>
<path d="M77.5 0L83.9952 11.25H71.0048L77.5 0Z" fill="white"/>
<path d="M69.3413 127.194C69.5729 127.537 70.0391 127.628 70.3825 127.396L75.9785 123.621C76.3219 123.39 76.4125 122.924 76.1809 122.58C75.9492 122.237 75.4831 122.146 75.1397 122.378L70.1655 125.733L66.8103 120.759C66.5787 120.415 66.1125 120.325 65.7691 120.556C65.4257 120.788 65.3351 121.254 65.5668 121.598L69.3413 127.194ZM84.3008 49.0826L69.2269 126.631L70.6993 126.917L85.7732 49.3688L84.3008 49.0826Z" fill="black"/>
</svg>
