<svg width="155" height="165" viewBox="0 0 155 165" fill="none" xmlns="http://www.w3.org/2000/svg">
<circle cx="77.5" cy="87.5" r="76.75" stroke="white" stroke-width="1.5"/>
<circle cx="77.5" cy="87.5" r="51.75" fill="white" stroke="white" stroke-width="1.5"/>
<path d="M80.9773 18.2727V27H79.9545L75.1989 20.1477H75.1136V27H74.0568V18.2727H75.0795L79.8523 25.142H79.9375V18.2727H80.9773Z" fill="white"/>
<path d="M77.5 0L83.9952 11.25H71.0048L77.5 0Z" fill="white"/>
<path d="M68.6585 127.045C68.8841 127.393 69.3486 127.491 69.696 127.266L75.357 123.59C75.7044 123.364 75.8032 122.899 75.5776 122.552C75.352 122.205 74.8875 122.106 74.5401 122.331L69.5081 125.599L66.2402 120.567C66.0146 120.22 65.5501 120.121 65.2027 120.347C64.8554 120.572 64.7566 121.037 64.9822 121.384L68.6585 127.045ZM84.9789 49.2072L68.5539 126.481L70.0211 126.793L86.4462 49.5191L84.9789 49.2072Z" fill="black"/>
</svg>
