<svg width="155" height="165" viewBox="0 0 155 165" fill="none" xmlns="http://www.w3.org/2000/svg">
<circle cx="77.5" cy="87.5" r="76.75" stroke="white" stroke-width="1.5"/>
<circle cx="77.5" cy="87.5" r="51.75" fill="white" stroke="white" stroke-width="1.5"/>
<path d="M80.9773 18.2727V27H79.9545L75.1989 20.1477H75.1136V27H74.0568V18.2727H75.0795L79.8523 25.142H79.9375V18.2727H80.9773Z" fill="white"/>
<path d="M77.5 0L83.9952 11.25H71.0048L77.5 0Z" fill="white"/>
<path d="M67.9784 126.885C68.1979 127.236 68.6606 127.343 69.0119 127.124L74.7362 123.547C75.0875 123.327 75.1943 122.864 74.9748 122.513C74.7553 122.162 74.2926 122.055 73.9414 122.275L68.8531 125.454L65.6736 120.366C65.4541 120.015 64.9914 119.908 64.6401 120.127C64.2888 120.347 64.182 120.809 64.4015 121.161L67.9784 126.885ZM85.6548 49.3437L67.8837 126.319L69.3453 126.656L87.1164 49.6811L85.6548 49.3437Z" fill="black"/>
</svg>
