<svg width="155" height="165" viewBox="0 0 155 165" fill="none" xmlns="http://www.w3.org/2000/svg">
<circle cx="77.5" cy="87.5" r="76.75" stroke="white" stroke-width="1.5"/>
<circle cx="77.5" cy="87.5" r="51.75" fill="white" stroke="white" stroke-width="1.5"/>
<path d="M80.9773 18.2727V27H79.9545L75.1989 20.1477H75.1136V27H74.0568V18.2727H75.0795L79.8523 25.142H79.9375V18.2727H80.9773Z" fill="white"/>
<path d="M77.5 0L83.9952 11.25H71.0048L77.5 0Z" fill="white"/>
<path d="M67.3013 126.713C67.5146 127.068 67.9754 127.183 68.3304 126.97L74.1163 123.493C74.4713 123.28 74.5862 122.819 74.3729 122.464C74.1596 122.109 73.6988 121.994 73.3437 122.207L68.2007 125.298L65.1105 120.155C64.8972 119.799 64.4364 119.685 64.0813 119.898C63.7263 120.111 63.6114 120.572 63.8248 120.927L67.3013 126.713ZM86.3282 49.4919L67.2164 126.145L68.6719 126.508L87.7837 49.8547L86.3282 49.4919Z" fill="black"/>
</svg>
