<svg width="155" height="165" viewBox="0 0 155 165" fill="none" xmlns="http://www.w3.org/2000/svg">
<circle cx="77.5" cy="87.5" r="76.75" stroke="white" stroke-width="1.5"/>
<circle cx="77.5" cy="87.5" r="51.75" fill="white" stroke="white" stroke-width="1.5"/>
<path d="M80.9773 18.2727V27H79.9545L75.1989 20.1477H75.1136V27H74.0568V18.2727H75.0795L79.8523 25.142H79.9375V18.2727H80.9773Z" fill="white"/>
<path d="M77.5 0L83.9952 11.25H71.0048L77.5 0Z" fill="white"/>
<path d="M66.6272 126.529C66.8343 126.888 67.293 127.011 67.6517 126.804L73.4974 123.429C73.8561 123.221 73.979 122.763 73.7719 122.404C73.5648 122.045 73.1061 121.922 72.7474 122.13L67.5512 125.13L64.5512 119.933C64.3441 119.575 63.8854 119.452 63.5267 119.659C63.168 119.866 63.0451 120.325 63.2522 120.683L66.6272 126.529ZM86.999 49.6518L66.5522 125.96L68.0011 126.348L88.4478 50.04L86.999 49.6518Z" fill="black"/>
</svg>
