<svg width="155" height="165" viewBox="0 0 155 165" fill="none" xmlns="http://www.w3.org/2000/svg">
<circle cx="77.5" cy="87.5" r="76.75" stroke="white" stroke-width="1.5"/>
<circle cx="77.5" cy="87.5" r="51.75" fill="white" stroke="white" stroke-width="1.5"/>
<path d="M80.9773 18.2727V27H79.9545L75.1989 20.1477H75.1136V27H74.0568V18.2727H75.0795L79.8523 25.142H79.9375V18.2727H80.9773Z" fill="white"/>
<path d="M77.5 0L83.9952 11.25H71.0048L77.5 0Z" fill="white"/>
<path d="M65.9564 126.333C66.1572 126.696 66.6137 126.827 66.976 126.626L72.8797 123.353C73.2419 123.153 73.3728 122.696 73.172 122.334C72.9712 121.971 72.5147 121.841 72.1524 122.041L66.9047 124.95L63.9959 119.703C63.7951 119.34 63.3386 119.209 62.9763 119.41C62.614 119.611 62.4831 120.067 62.6839 120.43L65.9564 126.333ZM87.6668 49.8234L65.8914 125.763L67.3333 126.177L89.1087 50.2369L87.6668 49.8234Z" fill="black"/>
</svg>
