<svg width="155" height="165" viewBox="0 0 155 165" fill="none" xmlns="http://www.w3.org/2000/svg">
<circle cx="77.5" cy="87.5" r="76.75" stroke="white" stroke-width="1.5"/>
<circle cx="77.5" cy="87.5" r="51.75" fill="white" stroke="white" stroke-width="1.5"/>
<path d="M80.9773 18.2727V27H79.9545L75.1989 20.1477H75.1136V27H74.0568V18.2727H75.0795L79.8523 25.142H79.9375V18.2727H80.9773Z" fill="white"/>
<path d="M77.5 0L83.9952 11.25H71.0048L77.5 0Z" fill="white"/>
<path d="M65.2892 126.126C65.4836 126.492 65.9377 126.631 66.3035 126.436L72.2634 123.267C72.6291 123.073 72.7679 122.619 72.5735 122.253C72.379 121.887 71.9249 121.748 71.5592 121.943L66.2615 124.76L63.4446 119.462C63.2502 119.096 62.7961 118.957 62.4303 119.152C62.0646 119.346 61.9258 119.8 62.1202 120.166L65.2892 126.126ZM88.3315 50.0067L65.2341 125.555L66.6686 125.993L89.766 50.4452L88.3315 50.0067Z" fill="black"/>
</svg>
