<svg width="155" height="165" viewBox="0 0 155 165" fill="none" xmlns="http://www.w3.org/2000/svg">
<circle cx="77.5" cy="87.5" r="76.75" stroke="white" stroke-width="1.5"/>
<circle cx="77.5" cy="87.5" r="51.75" fill="white" stroke="white" stroke-width="1.5"/>
<path d="M80.9773 18.2727V27H79.9545L75.1989 20.1477H75.1136V27H74.0568V18.2727H75.0795L79.8523 25.142H79.9375V18.2727H80.9773Z" fill="white"/>
<path d="M77.5 0L83.9952 11.25H71.0048L77.5 0Z" fill="white"/>
<path d="M64.6256 125.907C64.8137 126.276 65.2653 126.423 65.6344 126.235L71.6487 123.171C72.0177 122.982 72.1645 122.531 71.9764 122.162C71.7884 121.793 71.3367 121.646 70.9677 121.834L65.6216 124.558L62.8977 119.212C62.7096 118.843 62.258 118.696 61.8889 118.884C61.5199 119.072 61.3731 119.524 61.5612 119.893L64.6256 125.907ZM88.9929 50.2015L64.5806 125.335L66.0072 125.798L90.4195 50.665L88.9929 50.2015Z" fill="black"/>
</svg>
