<svg width="155" height="165" viewBox="0 0 155 165" fill="none" xmlns="http://www.w3.org/2000/svg">
<circle cx="77.5" cy="87.5" r="76.75" stroke="white" stroke-width="1.5"/>
<circle cx="77.5" cy="87.5" r="51.75" fill="white" stroke="white" stroke-width="1.5"/>
<path d="M80.9773 18.2727V27H79.9545L75.1989 20.1477H75.1136V27H74.0568V18.2727H75.0795L79.8523 25.142H79.9375V18.2727H80.9773Z" fill="white"/>
<path d="M77.5 0L83.9952 11.25H71.0048L77.5 0Z" fill="white"/>
<path d="M63.966 125.677C64.1476 126.049 64.5966 126.204 64.9689 126.022L71.0357 123.063C71.408 122.881 71.5626 122.432 71.3811 122.06C71.1995 121.688 70.7505 121.533 70.3782 121.715L64.9854 124.345L62.3552 118.952C62.1736 118.58 61.7246 118.425 61.3523 118.607C60.98 118.789 60.8254 119.238 61.007 119.61L63.966 125.677ZM89.6508 50.4078L63.931 125.104L65.3492 125.592L91.0691 50.8962L89.6508 50.4078Z" fill="black"/>
</svg>
