<svg width="155" height="165" viewBox="0 0 155 165" fill="none" xmlns="http://www.w3.org/2000/svg">
<circle cx="77.5" cy="87.5" r="76.75" stroke="white" stroke-width="1.5"/>
<circle cx="77.5" cy="87.5" r="51.75" fill="white" stroke="white" stroke-width="1.5"/>
<path d="M80.9773 18.2727V27H79.9545L75.1989 20.1477H75.1136V27H74.0568V18.2727H75.0795L79.8523 25.142H79.9375V18.2727H80.9773Z" fill="white"/>
<path d="M77.5 0L83.9952 11.25H71.0048L77.5 0Z" fill="white"/>
<path d="M79.4271 48.0126C79.1446 47.7097 78.67 47.6931 78.367 47.9756L73.4304 52.5791C73.1275 52.8616 73.1109 53.3361 73.3934 53.6391C73.6759 53.942 74.1505 53.9586 74.4534 53.6761L78.8415 49.5841L82.9335 53.9722C83.216 54.2752 83.6906 54.2917 83.9935 54.0092C84.2965 53.7267 84.313 53.2522 84.0305 52.9492L79.4271 48.0126ZM76.871 127.502L79.6281 48.5503L78.129 48.4979L75.3719 127.45L76.871 127.502Z" fill="black"/>
</svg>
