<svg width="155" height="165" viewBox="0 0 155 165" fill="none" xmlns="http://www.w3.org/2000/svg">
<circle cx="77.5" cy="87.5" r="76.75" stroke="white" stroke-width="1.5"/>
<circle cx="77.5" cy="87.5" r="51.75" fill="white" stroke="white" stroke-width="1.5"/>
<path d="M80.9773 18.2727V27H79.9545L75.1989 20.1477H75.1136V27H74.0568V18.2727H75.0795L79.8523 25.142H79.9375V18.2727H80.9773Z" fill="white"/>
<path d="M77.5 0L83.9952 11.25H71.0048L77.5 0Z" fill="white"/>
<path d="M91.6895 50.5652C91.5145 50.1898 91.0682 50.0274 90.6928 50.2024L84.5753 53.0551C84.1999 53.2302 84.0374 53.6764 84.2125 54.0518C84.3875 54.4272 84.8338 54.5896 85.2092 54.4146L90.647 51.8789L93.1827 57.3167C93.3578 57.6921 93.804 57.8545 94.1794 57.6795C94.5548 57.5044 94.7173 57.0582 94.5422 56.6828L91.6895 50.5652ZM64.695 125.374L91.7146 51.1387L90.305 50.6257L63.2854 124.861L64.695 125.374Z" fill="black"/>
</svg>
