<svg width="155" height="165" viewBox="0 0 155 165" fill="none" xmlns="http://www.w3.org/2000/svg">
<circle cx="77.5" cy="87.5" r="76.75" stroke="white" stroke-width="1.5"/>
<circle cx="77.5" cy="87.5" r="51.75" fill="white" stroke="white" stroke-width="1.5"/>
<path d="M80.9773 18.2727V27H79.9545L75.1989 20.1477H75.1136V27H74.0568V18.2727H75.0795L79.8523 25.142H79.9375V18.2727H80.9773Z" fill="white"/>
<path d="M77.5 0L83.9952 11.25H71.0048L77.5 0Z" fill="white"/>
<path d="M63.3105 125.435C63.4856 125.81 63.9318 125.973 64.3072 125.798L70.4248 122.945C70.8002 122.77 70.9626 122.324 70.7876 121.948C70.6125 121.573 70.1663 121.41 69.7909 121.585L64.353 124.121L61.8173 118.683C61.6423 118.308 61.196 118.145 60.8206 118.321C60.4452 118.496 60.2828 118.942 60.4578 119.317L63.3105 125.435ZM90.3051 50.6256L63.2855 124.861L64.695 125.374L91.7146 51.1386L90.3051 50.6256Z" fill="black"/>
</svg>
