<svg width="155" height="165" viewBox="0 0 155 165" fill="none" xmlns="http://www.w3.org/2000/svg">
<circle cx="77.5" cy="87.5" r="76.75" stroke="white" stroke-width="1.5"/>
<circle cx="77.5" cy="87.5" r="51.75" fill="white" stroke="white" stroke-width="1.5"/>
<path d="M80.9773 18.2727V27H79.9545L75.1989 20.1477H75.1136V27H74.0568V18.2727H75.0795L79.8523 25.142H79.9375V18.2727H80.9773Z" fill="white"/>
<path d="M77.5 0L83.9952 11.25H71.0048L77.5 0Z" fill="white"/>
<path d="M62.6594 125.181C62.8278 125.56 63.2712 125.73 63.6496 125.562L69.816 122.816C70.1944 122.648 70.3646 122.204 70.1961 121.826C70.0276 121.447 69.5843 121.277 69.2059 121.446L63.7246 123.886L61.2842 118.405C61.1157 118.027 60.6724 117.856 60.294 118.025C59.9156 118.193 59.7454 118.637 59.9139 119.015L62.6594 125.181ZM90.9554 50.8548L62.6443 124.608L64.0447 125.145L92.3558 51.3923L90.9554 50.8548Z" fill="black"/>
</svg>
