<svg width="155" height="165" viewBox="0 0 155 165" fill="none" xmlns="http://www.w3.org/2000/svg">
<circle cx="77.5" cy="87.5" r="76.75" stroke="white" stroke-width="1.5"/>
<circle cx="77.5" cy="87.5" r="51.75" fill="white" stroke="white" stroke-width="1.5"/>
<path d="M80.9773 18.2727V27H79.9545L75.1989 20.1477H75.1136V27H74.0568V18.2727H75.0795L79.8523 25.142H79.9375V18.2727H80.9773Z" fill="white"/>
<path d="M77.5 0L83.9952 11.25H71.0048L77.5 0Z" fill="white"/>
<path d="M62.0127 124.917C62.1746 125.298 62.6148 125.476 62.9961 125.314L69.2095 122.677C69.5908 122.515 69.7687 122.075 69.6069 121.693C69.445 121.312 69.0047 121.134 68.6234 121.296L63.1004 123.64L60.756 118.117C60.5942 117.736 60.1539 117.558 59.7726 117.72C59.3913 117.882 59.2134 118.322 59.3753 118.703L62.0127 124.917ZM91.6016 51.0953L62.0077 124.343L63.3985 124.905L92.9924 51.6572L91.6016 51.0953Z" fill="black"/>
</svg>
