<svg width="155" height="165" viewBox="0 0 155 165" fill="none" xmlns="http://www.w3.org/2000/svg">
<circle cx="77.5" cy="87.5" r="76.75" stroke="white" stroke-width="1.5"/>
<circle cx="77.5" cy="87.5" r="51.75" fill="white" stroke="white" stroke-width="1.5"/>
<path d="M80.9773 18.2727V27H79.9545L75.1989 20.1477H75.1136V27H74.0568V18.2727H75.0795L79.8523 25.142H79.9375V18.2727H80.9773Z" fill="white"/>
<path d="M77.5 0L83.9952 11.25H71.0048L77.5 0Z" fill="white"/>
<path d="M61.3708 124.641C61.5259 125.025 61.9631 125.21 62.3471 125.055L68.6056 122.527C68.9897 122.372 69.1752 121.934 69.02 121.55C68.8649 121.166 68.4278 120.981 68.0437 121.136L62.4806 123.384L60.233 117.82C60.0778 117.436 59.6407 117.251 59.2566 117.406C58.8726 117.561 58.687 117.998 58.8422 118.382L61.3708 124.641ZM92.2435 51.347L61.3758 124.067L62.7565 124.653L93.6243 51.9331L92.2435 51.347Z" fill="black"/>
</svg>
