<svg width="155" height="165" viewBox="0 0 155 165" fill="none" xmlns="http://www.w3.org/2000/svg">
<circle cx="77.5" cy="87.5" r="76.75" stroke="white" stroke-width="1.5"/>
<circle cx="77.5" cy="87.5" r="51.75" fill="white" stroke="white" stroke-width="1.5"/>
<path d="M80.9773 18.2727V27H79.9545L75.1989 20.1477H75.1136V27H74.0568V18.2727H75.0795L79.8523 25.142H79.9375V18.2727H80.9773Z" fill="white"/>
<path d="M77.5 0L83.9952 11.25H71.0048L77.5 0Z" fill="white"/>
<path d="M60.7338 124.354C60.8822 124.741 61.316 124.934 61.7027 124.785L68.0044 122.366C68.3911 122.218 68.5842 121.784 68.4358 121.397C68.2874 121.011 67.8535 120.817 67.4668 120.966L61.8654 123.116L59.7151 117.515C59.5667 117.128 59.1329 116.935 58.7462 117.083C58.3595 117.232 58.1663 117.665 58.3148 118.052L60.7338 124.354ZM92.881 51.6099L60.7488 123.78L62.1191 124.39L94.2513 52.22L92.881 51.6099Z" fill="black"/>
</svg>
