<svg width="155" height="165" viewBox="0 0 155 165" fill="none" xmlns="http://www.w3.org/2000/svg">
<circle cx="77.5" cy="87.5" r="76.75" stroke="white" stroke-width="1.5"/>
<circle cx="77.5" cy="87.5" r="51.75" fill="white" stroke="white" stroke-width="1.5"/>
<path d="M80.9773 18.2727V27H79.9545L75.1989 20.1477H75.1136V27H74.0568V18.2727H75.0795L79.8523 25.142H79.9375V18.2727H80.9773Z" fill="white"/>
<path d="M77.5 0L83.9952 11.25H71.0048L77.5 0Z" fill="white"/>
<path d="M60.1019 124.056C60.2435 124.445 60.6739 124.646 61.0631 124.504L67.4061 122.195C67.7953 122.054 67.996 121.623 67.8543 121.234C67.7127 120.845 67.2823 120.644 66.893 120.786L61.2549 122.838L59.2028 117.2C59.0611 116.81 58.6307 116.61 58.2415 116.751C57.8522 116.893 57.6516 117.324 57.7932 117.713L60.1019 124.056ZM93.5137 51.8839L60.1269 123.482L61.4864 124.116L94.8732 52.5178L93.5137 51.8839Z" fill="black"/>
</svg>
