<svg width="155" height="165" viewBox="0 0 155 165" fill="none" xmlns="http://www.w3.org/2000/svg">
<circle cx="77.5" cy="87.5" r="76.75" stroke="white" stroke-width="1.5"/>
<circle cx="77.5" cy="87.5" r="51.75" fill="white" stroke="white" stroke-width="1.5"/>
<path d="M80.9773 18.2727V27H79.9545L75.1989 20.1477H75.1136V27H74.0568V18.2727H75.0795L79.8523 25.142H79.9375V18.2727H80.9773Z" fill="white"/>
<path d="M77.5 0L83.9952 11.25H71.0048L77.5 0Z" fill="white"/>
<path d="M59.4752 123.747C59.6101 124.138 60.0369 124.346 60.4286 124.211L66.8108 122.014C67.2025 121.879 67.4106 121.452 67.2758 121.061C67.1409 120.669 66.7141 120.461 66.3225 120.596L60.6493 122.549L58.6959 116.876C58.5611 116.484 58.1343 116.276 57.7426 116.411C57.351 116.546 57.1428 116.973 57.2777 117.364L59.4752 123.747ZM94.1416 52.1688L59.5103 123.174L60.8585 123.831L95.4898 52.8264L94.1416 52.1688Z" fill="black"/>
</svg>
