<svg width="155" height="165" viewBox="0 0 155 165" fill="none" xmlns="http://www.w3.org/2000/svg">
<circle cx="77.5" cy="87.5" r="76.75" stroke="white" stroke-width="1.5"/>
<circle cx="77.5" cy="87.5" r="51.75" fill="white" stroke="white" stroke-width="1.5"/>
<path d="M80.9773 18.2727V27H79.9545L75.1989 20.1477H75.1136V27H74.0568V18.2727H75.0795L79.8523 25.142H79.9375V18.2727H80.9773Z" fill="white"/>
<path d="M77.5 0L83.9952 11.25H71.0048L77.5 0Z" fill="white"/>
<path d="M58.8541 123.427C58.9821 123.82 59.4052 124.036 59.7992 123.908L66.2188 121.822C66.6128 121.694 66.8283 121.271 66.7003 120.877C66.5723 120.483 66.1492 120.268 65.7553 120.396L60.049 122.25L58.1948 116.543C58.0669 116.149 57.6437 115.934 57.2498 116.062C56.8559 116.19 56.6403 116.613 56.7683 117.007L58.8541 123.427ZM94.7644 52.4647L58.8992 122.854L60.2357 123.535L96.1009 53.1457L94.7644 52.4647Z" fill="black"/>
</svg>
