<svg width="155" height="165" viewBox="0 0 155 165" fill="none" xmlns="http://www.w3.org/2000/svg">
<circle cx="77.5" cy="87.5" r="76.75" stroke="white" stroke-width="1.5"/>
<circle cx="77.5" cy="87.5" r="51.75" fill="white" stroke="white" stroke-width="1.5"/>
<path d="M80.9773 18.2727V27H79.9545L75.1989 20.1477H75.1136V27H74.0568V18.2727H75.0795L79.8523 25.142H79.9375V18.2727H80.9773Z" fill="white"/>
<path d="M77.5 0L83.9952 11.25H71.0048L77.5 0Z" fill="white"/>
<path d="M58.2387 123.096C58.3598 123.492 58.7791 123.715 59.1752 123.594L65.6303 121.62C66.0264 121.499 66.2493 121.08 66.1282 120.684C66.0071 120.288 65.5878 120.065 65.1917 120.186L59.4539 121.94L57.6996 116.202C57.5785 115.806 57.1592 115.583 56.7631 115.704C56.367 115.825 56.1441 116.245 56.2652 116.641L58.2387 123.096ZM95.382 52.7715L58.2937 122.524L59.6181 123.229L96.7064 53.4757L95.382 52.7715Z" fill="black"/>
</svg>
