<svg width="155" height="165" viewBox="0 0 155 165" fill="none" xmlns="http://www.w3.org/2000/svg">
<circle cx="77.5" cy="87.5" r="76.75" stroke="white" stroke-width="1.5"/>
<circle cx="77.5" cy="87.5" r="51.75" fill="white" stroke="white" stroke-width="1.5"/>
<path d="M80.9773 18.2727V27H79.9545L75.1989 20.1477H75.1136V27H74.0568V18.2727H75.0795L79.8523 25.142H79.9375V18.2727H80.9773Z" fill="white"/>
<path d="M77.5 0L83.9952 11.25H71.0048L77.5 0Z" fill="white"/>
<path d="M57.6291 122.754C57.7433 123.152 58.1586 123.383 58.5568 123.268L65.0453 121.408C65.4435 121.294 65.6737 120.878 65.5595 120.48C65.4454 120.082 65.03 119.852 64.6319 119.966L58.8643 121.62L57.2105 115.852C57.0963 115.454 56.681 115.224 56.2828 115.338C55.8846 115.452 55.6544 115.868 55.7686 116.266L57.6291 122.754ZM95.9941 53.0889L57.6941 122.184L59.006 122.911L97.306 53.8161L95.9941 53.0889Z" fill="black"/>
</svg>
