<svg width="155" height="165" viewBox="0 0 155 165" fill="none" xmlns="http://www.w3.org/2000/svg">
<circle cx="77.5" cy="87.5" r="76.75" stroke="white" stroke-width="1.5"/>
<circle cx="77.5" cy="87.5" r="51.75" fill="white" stroke="white" stroke-width="1.5"/>
<path d="M80.9773 18.2727V27H79.9545L75.1989 20.1477H75.1136V27H74.0568V18.2727H75.0795L79.8523 25.142H79.9375V18.2727H80.9773Z" fill="white"/>
<path d="M77.5 0L83.9952 11.25H71.0048L77.5 0Z" fill="white"/>
<path d="M92.3407 50.8185C92.1722 50.4401 91.7289 50.27 91.3505 50.4384L85.1841 53.1839C84.8057 53.3524 84.6355 53.7957 84.8039 54.1741C84.9724 54.5525 85.4158 54.7227 85.7942 54.5542L91.2754 52.1138L93.7159 57.5951C93.8843 57.9735 94.3277 58.1437 94.7061 57.9752C95.0845 57.8067 95.2546 57.3634 95.0862 56.985L92.3407 50.8185ZM64.0447 125.145L92.3557 51.3924L90.9554 50.8548L62.6443 124.608L64.0447 125.145Z" fill="black"/>
</svg>
