<svg width="155" height="165" viewBox="0 0 155 165" fill="none" xmlns="http://www.w3.org/2000/svg">
<circle cx="77.5" cy="87.5" r="76.75" stroke="white" stroke-width="1.5"/>
<circle cx="77.5" cy="87.5" r="51.75" fill="white" stroke="white" stroke-width="1.5"/>
<path d="M80.9773 18.2727V27H79.9545L75.1989 20.1477H75.1136V27H74.0568V18.2727H75.0795L79.8523 25.142H79.9375V18.2727H80.9773Z" fill="white"/>
<path d="M77.5 0L83.9952 11.25H71.0048L77.5 0Z" fill="white"/>
<path d="M57.0256 122.402C57.1328 122.802 57.5441 123.04 57.9442 122.932L64.4642 121.185C64.8643 121.078 65.1017 120.667 64.9945 120.267C64.8873 119.867 64.476 119.629 64.0759 119.737L58.2804 121.289L56.7275 115.494C56.6203 115.094 56.209 114.856 55.8089 114.964C55.4088 115.071 55.1714 115.482 55.2786 115.882L57.0256 122.402ZM96.6005 53.417L57.1005 121.833L58.3996 122.583L97.8996 54.167L96.6005 53.417Z" fill="black"/>
</svg>
