<svg width="155" height="165" viewBox="0 0 155 165" fill="none" xmlns="http://www.w3.org/2000/svg">
<circle cx="77.5" cy="87.5" r="76.75" stroke="white" stroke-width="1.5"/>
<circle cx="77.5" cy="87.5" r="51.75" fill="white" stroke="white" stroke-width="1.5"/>
<path d="M80.9773 18.2727V27H79.9545L75.1989 20.1477H75.1136V27H74.0568V18.2727H75.0795L79.8523 25.142H79.9375V18.2727H80.9773Z" fill="white"/>
<path d="M77.5 0L83.9952 11.25H71.0048L77.5 0Z" fill="white"/>
<path d="M56.4283 122.04C56.5285 122.441 56.9356 122.686 57.3375 122.586L63.887 120.953C64.2889 120.853 64.5335 120.446 64.4333 120.044C64.3331 119.642 63.926 119.397 63.5241 119.497L57.7023 120.949L56.2508 115.127C56.1506 114.725 55.7435 114.481 55.3416 114.581C54.9397 114.681 54.6951 115.088 54.7953 115.49L56.4283 122.04ZM97.2012 53.7556L56.5132 121.472L57.7989 122.244L98.4869 54.5282L97.2012 53.7556Z" fill="black"/>
</svg>
