<svg width="155" height="165" viewBox="0 0 155 165" fill="none" xmlns="http://www.w3.org/2000/svg">
<circle cx="77.5" cy="87.5" r="76.75" stroke="white" stroke-width="1.5"/>
<circle cx="77.5" cy="87.5" r="51.75" fill="white" stroke="white" stroke-width="1.5"/>
<path d="M80.9773 18.2727V27H79.9545L75.1989 20.1477H75.1136V27H74.0568V18.2727H75.0795L79.8523 25.142H79.9375V18.2727H80.9773Z" fill="white"/>
<path d="M77.5 0L83.9952 11.25H71.0048L77.5 0Z" fill="white"/>
<path d="M55.8375 121.667C55.9306 122.07 56.3334 122.322 56.737 122.229L63.3139 120.71C63.7175 120.617 63.9692 120.214 63.876 119.811C63.7828 119.407 63.3801 119.156 62.9765 119.249L57.1303 120.598L55.7806 114.752C55.6874 114.349 55.2847 114.097 54.8811 114.19C54.4775 114.283 54.2259 114.686 54.319 115.09L55.8375 121.667ZM97.7958 54.1046L55.9322 121.1L57.2043 121.895L99.0679 54.8995L97.7958 54.1046Z" fill="black"/>
</svg>
