<svg width="155" height="165" viewBox="0 0 155 165" fill="none" xmlns="http://www.w3.org/2000/svg">
<circle cx="77.5" cy="87.5" r="76.75" stroke="white" stroke-width="1.5"/>
<circle cx="77.5" cy="87.5" r="51.75" fill="white" stroke="white" stroke-width="1.5"/>
<path d="M80.9773 18.2727V27H79.9545L75.1989 20.1477H75.1136V27H74.0568V18.2727H75.0795L79.8523 25.142H79.9375V18.2727H80.9773Z" fill="white"/>
<path d="M77.5 0L83.9952 11.25H71.0048L77.5 0Z" fill="white"/>
<path d="M55.2532 121.283C55.3393 121.689 55.7376 121.947 56.1427 121.861L62.7452 120.458C63.1504 120.372 63.409 119.973 63.3229 119.568C63.2368 119.163 62.8385 118.904 62.4334 118.99L56.5645 120.238L55.317 114.369C55.2309 113.964 54.8326 113.705 54.4275 113.791C54.0223 113.877 53.7637 114.276 53.8498 114.681L55.2532 121.283ZM98.3843 54.464L55.3578 120.719L56.6158 121.536L99.6423 55.281L98.3843 54.464Z" fill="black"/>
</svg>
