<svg width="155" height="165" viewBox="0 0 155 165" fill="none" xmlns="http://www.w3.org/2000/svg">
<circle cx="77.5" cy="87.5" r="76.75" stroke="white" stroke-width="1.5"/>
<circle cx="77.5" cy="87.5" r="51.75" fill="white" stroke="white" stroke-width="1.5"/>
<path d="M80.9773 18.2727V27H79.9545L75.1989 20.1477H75.1136V27H74.0568V18.2727H75.0795L79.8523 25.142H79.9375V18.2727H80.9773Z" fill="white"/>
<path d="M77.5 0L83.9952 11.25H71.0048L77.5 0Z" fill="white"/>
<path d="M54.6757 120.89C54.7547 121.297 55.1484 121.562 55.555 121.483L62.181 120.195C62.5876 120.116 62.8532 119.722 62.7741 119.316C62.6951 118.909 62.3014 118.644 61.8948 118.723L56.005 119.868L54.8602 113.978C54.7811 113.571 54.3875 113.306 53.9809 113.385C53.5743 113.464 53.3087 113.857 53.3877 114.264L54.6757 120.89ZM98.9664 54.8336L54.7901 120.328L56.0337 121.166L100.21 55.6724L98.9664 54.8336Z" fill="black"/>
</svg>
