<svg width="155" height="165" viewBox="0 0 155 165" fill="none" xmlns="http://www.w3.org/2000/svg">
<circle cx="77.5" cy="87.5" r="76.75" stroke="white" stroke-width="1.5"/>
<circle cx="77.5" cy="87.5" r="51.75" fill="white" stroke="white" stroke-width="1.5"/>
<path d="M80.9773 18.2727V27H79.9545L75.1989 20.1477H75.1136V27H74.0568V18.2727H75.0795L79.8523 25.142H79.9375V18.2727H80.9773Z" fill="white"/>
<path d="M77.5 0L83.9952 11.25H71.0048L77.5 0Z" fill="white"/>
<path d="M54.1052 120.487C54.1771 120.895 54.5661 121.167 54.974 121.095L61.6215 119.923C62.0294 119.851 62.3018 119.462 62.2298 119.054C62.1579 118.646 61.7689 118.374 61.361 118.446L55.4521 119.488L54.4103 113.579C54.3383 113.171 53.9493 112.899 53.5414 112.97C53.1335 113.042 52.8611 113.431 52.933 113.839L54.1052 120.487ZM99.5419 55.2133L54.2294 119.926L55.4581 120.787L100.771 56.0737L99.5419 55.2133Z" fill="black"/>
</svg>
