<svg width="155" height="165" viewBox="0 0 155 165" fill="none" xmlns="http://www.w3.org/2000/svg">
<circle cx="77.5" cy="87.5" r="76.75" stroke="white" stroke-width="1.5"/>
<circle cx="77.5" cy="87.5" r="51.75" fill="white" stroke="white" stroke-width="1.5"/>
<path d="M80.9773 18.2727V27H79.9545L75.1989 20.1477H75.1136V27H74.0568V18.2727H75.0795L79.8523 25.142H79.9375V18.2727H80.9773Z" fill="white"/>
<path d="M77.5 0L83.9952 11.25H71.0048L77.5 0Z" fill="white"/>
<path d="M53.5418 120.073C53.6066 120.483 53.9907 120.762 54.3999 120.697L61.0668 119.641C61.4759 119.576 61.755 119.192 61.6902 118.783C61.6254 118.374 61.2412 118.095 60.8321 118.159L54.906 119.098L53.9674 113.172C53.9026 112.763 53.5184 112.484 53.1093 112.548C52.7002 112.613 52.421 112.997 52.4858 113.407L53.5418 120.073ZM100.111 55.603L53.6758 119.515L54.8893 120.397L101.324 56.4847L100.111 55.603Z" fill="black"/>
</svg>
