<svg width="155" height="165" viewBox="0 0 155 165" fill="none" xmlns="http://www.w3.org/2000/svg">
<circle cx="77.5" cy="87.5" r="76.75" stroke="white" stroke-width="1.5"/>
<circle cx="77.5" cy="87.5" r="51.75" fill="white" stroke="white" stroke-width="1.5"/>
<path d="M80.9773 18.2727V27H79.9545L75.1989 20.1477H75.1136V27H74.0568V18.2727H75.0795L79.8523 25.142H79.9375V18.2727H80.9773Z" fill="white"/>
<path d="M77.5 0L83.9952 11.25H71.0048L77.5 0Z" fill="white"/>
<path d="M52.9857 119.65C53.0433 120.061 53.4226 120.346 53.8327 120.289L60.517 119.349C60.9272 119.292 61.213 118.912 61.1554 118.502C61.0977 118.092 60.7185 117.806 60.3083 117.864L54.3667 118.699L53.5316 112.757C53.474 112.347 53.0947 112.061 52.6846 112.119C52.2744 112.177 51.9886 112.556 52.0462 112.966L52.9857 119.65ZM100.673 56.0025L53.1294 119.095L54.3273 119.997L101.871 56.9052L100.673 56.0025Z" fill="black"/>
</svg>
