<svg width="155" height="165" viewBox="0 0 155 165" fill="none" xmlns="http://www.w3.org/2000/svg">
<circle cx="77.5" cy="87.5" r="76.75" stroke="white" stroke-width="1.5"/>
<circle cx="77.5" cy="87.5" r="51.75" fill="white" stroke="white" stroke-width="1.5"/>
<path d="M80.9773 18.2727V27H79.9545L75.1989 20.1477H75.1136V27H74.0568V18.2727H75.0795L79.8523 25.142H79.9375V18.2727H80.9773Z" fill="white"/>
<path d="M77.5 0L83.9952 11.25H71.0048L77.5 0Z" fill="white"/>
<path d="M52.437 119.218C52.4875 119.629 52.8617 119.921 53.2728 119.871L59.9725 119.048C60.3836 118.998 60.676 118.624 60.6255 118.212C60.575 117.801 60.2008 117.509 59.7897 117.559L53.8344 118.291L53.1032 112.335C53.0527 111.924 52.6785 111.632 52.2674 111.682C51.8563 111.733 51.5639 112.107 51.6144 112.518L52.437 119.218ZM101.228 56.4118L52.5904 118.665L53.7724 119.588L102.41 57.3353L101.228 56.4118Z" fill="black"/>
</svg>
