<svg width="155" height="165" viewBox="0 0 155 165" fill="none" xmlns="http://www.w3.org/2000/svg">
<circle cx="77.5" cy="87.5" r="76.75" stroke="white" stroke-width="1.5"/>
<circle cx="77.5" cy="87.5" r="51.75" fill="white" stroke="white" stroke-width="1.5"/>
<path d="M80.9773 18.2727V27H79.9545L75.1989 20.1477H75.1136V27H74.0568V18.2727H75.0795L79.8523 25.142H79.9375V18.2727H80.9773Z" fill="white"/>
<path d="M77.5 0L83.9952 11.25H71.0048L77.5 0Z" fill="white"/>
<path d="M51.896 118.776C51.9393 119.188 52.3083 119.486 52.7203 119.443L59.4333 118.738C59.8453 118.694 60.1441 118.325 60.1008 117.913C60.0575 117.501 59.6885 117.202 59.2765 117.246L53.3094 117.873L52.6822 111.906C52.6389 111.494 52.2699 111.195 51.8579 111.238C51.446 111.282 51.1471 111.651 51.1904 112.063L51.896 118.776ZM101.775 56.8307L52.059 118.225L53.2248 119.169L102.941 57.7747L101.775 56.8307Z" fill="black"/>
</svg>
