<svg width="155" height="165" viewBox="0 0 155 165" fill="none" xmlns="http://www.w3.org/2000/svg">
<circle cx="77.5" cy="87.5" r="76.75" stroke="white" stroke-width="1.5"/>
<circle cx="77.5" cy="87.5" r="51.75" fill="white" stroke="white" stroke-width="1.5"/>
<path d="M80.9773 18.2727V27H79.9545L75.1989 20.1477H75.1136V27H74.0568V18.2727H75.0795L79.8523 25.142H79.9375V18.2727H80.9773Z" fill="white"/>
<path d="M77.5 0L83.9952 11.25H71.0048L77.5 0Z" fill="white"/>
<path d="M92.9873 51.0832C92.8255 50.7019 92.3852 50.524 92.0039 50.6859L85.7905 53.3233C85.4092 53.4852 85.2313 53.9255 85.3932 54.3067C85.555 54.688 85.9953 54.8659 86.3766 54.7041L91.8996 52.3597L94.244 57.8827C94.4059 58.264 94.8462 58.4419 95.2275 58.2801C95.6087 58.1182 95.7866 57.6779 95.6248 57.2966L92.9873 51.0832ZM63.3984 124.905L92.9924 51.6572L91.6016 51.0953L62.0077 124.343L63.3984 124.905Z" fill="black"/>
</svg>
