<svg width="155" height="165" viewBox="0 0 155 165" fill="none" xmlns="http://www.w3.org/2000/svg">
<circle cx="77.5" cy="87.5" r="76.75" stroke="white" stroke-width="1.5"/>
<circle cx="77.5" cy="87.5" r="51.75" fill="white" stroke="white" stroke-width="1.5"/>
<path d="M80.9773 18.2727V27H79.9545L75.1989 20.1477H75.1136V27H74.0568V18.2727H75.0795L79.8523 25.142H79.9375V18.2727H80.9773Z" fill="white"/>
<path d="M77.5 0L83.9952 11.25H71.0048L77.5 0Z" fill="white"/>
<path d="M51.3628 118.324C51.3989 118.737 51.7627 119.042 52.1753 119.006L58.8996 118.418C59.3123 118.381 59.6175 118.018 59.5814 117.605C59.5453 117.192 59.1815 116.887 58.7689 116.923L52.7917 117.446L52.2688 111.469C52.2327 111.056 51.8689 110.751 51.4563 110.787C51.0436 110.823 50.7384 111.187 50.7745 111.6L51.3628 118.324ZM102.316 57.2591L51.5354 117.777L52.6845 118.741L103.465 58.2233L102.316 57.2591Z" fill="black"/>
</svg>
