<svg width="155" height="165" viewBox="0 0 155 165" fill="none" xmlns="http://www.w3.org/2000/svg">
<circle cx="77.5" cy="87.5" r="76.75" stroke="white" stroke-width="1.5"/>
<circle cx="77.5" cy="87.5" r="51.75" fill="white" stroke="white" stroke-width="1.5"/>
<path d="M80.9773 18.2727V27H79.9545L75.1989 20.1477H75.1136V27H74.0568V18.2727H75.0795L79.8523 25.142H79.9375V18.2727H80.9773Z" fill="white"/>
<path d="M77.5 0L83.9952 11.25H71.0048L77.5 0Z" fill="white"/>
<path d="M50.8375 117.863C50.8664 118.277 51.2248 118.588 51.638 118.559L58.3716 118.088C58.7848 118.059 59.0963 117.701 59.0674 117.288C59.0386 116.875 58.6802 116.563 58.267 116.592L52.2816 117.011L51.863 111.025C51.8341 110.612 51.4757 110.3 51.0625 110.329C50.6493 110.358 50.3378 110.717 50.3667 111.13L50.8375 117.863ZM102.848 57.6969L51.0197 117.319L52.1517 118.303L103.98 58.681L102.848 57.6969Z" fill="black"/>
</svg>
