<svg width="155" height="165" viewBox="0 0 155 165" fill="none" xmlns="http://www.w3.org/2000/svg">
<circle cx="77.5" cy="87.5" r="76.75" stroke="white" stroke-width="1.5"/>
<circle cx="77.5" cy="87.5" r="51.75" fill="white" stroke="white" stroke-width="1.5"/>
<path d="M80.9773 18.2727V27H79.9545L75.1989 20.1477H75.1136V27H74.0568V18.2727H75.0795L79.8523 25.142H79.9375V18.2727H80.9773Z" fill="white"/>
<path d="M77.5 0L83.9952 11.25H71.0048L77.5 0Z" fill="white"/>
<path d="M50.3204 117.393C50.3421 117.807 50.695 118.125 51.1086 118.103L57.8494 117.75C58.263 117.728 58.5808 117.375 58.5591 116.962C58.5374 116.548 58.1845 116.23 57.7709 116.252L51.7791 116.566L51.4651 110.574C51.4434 110.161 51.0905 109.843 50.6769 109.864C50.2632 109.886 49.9455 110.239 49.9672 110.653L50.3204 117.393ZM103.373 58.1439L50.512 116.852L51.6268 117.856L104.488 59.1476L103.373 58.1439Z" fill="black"/>
</svg>
