<svg width="155" height="165" viewBox="0 0 155 165" fill="none" xmlns="http://www.w3.org/2000/svg">
<circle cx="77.5" cy="87.5" r="76.75" stroke="white" stroke-width="1.5"/>
<circle cx="77.5" cy="87.5" r="51.75" fill="white" stroke="white" stroke-width="1.5"/>
<path d="M80.9773 18.2727V27H79.9545L75.1989 20.1477H75.1136V27H74.0568V18.2727H75.0795L79.8523 25.142H79.9375V18.2727H80.9773Z" fill="white"/>
<path d="M77.5 0L83.9952 11.25H71.0048L77.5 0Z" fill="white"/>
<path d="M49.8116 116.915C49.826 117.329 50.1733 117.652 50.5873 117.638L57.3332 117.402C57.7471 117.388 58.071 117.041 58.0565 116.627C58.0421 116.213 57.6948 115.889 57.2808 115.903L51.2845 116.113L51.0751 110.116C51.0606 109.702 50.7133 109.379 50.2994 109.393C49.8854 109.407 49.5615 109.755 49.576 110.169L49.8116 116.915ZM103.89 58.6L50.0126 116.377L51.1096 117.4L104.987 59.623L103.89 58.6Z" fill="black"/>
</svg>
