<svg width="155" height="165" viewBox="0 0 155 165" fill="none" xmlns="http://www.w3.org/2000/svg">
<circle cx="77.5" cy="87.5" r="76.75" stroke="white" stroke-width="1.5"/>
<circle cx="77.5" cy="87.5" r="51.75" fill="white" stroke="white" stroke-width="1.5"/>
<path d="M80.9773 18.2727V27H79.9545L75.1989 20.1477H75.1136V27H74.0568V18.2727H75.0795L79.8523 25.142H79.9375V18.2727H80.9773Z" fill="white"/>
<path d="M77.5 0L83.9952 11.25H71.0048L77.5 0Z" fill="white"/>
<path d="M49.3112 116.427C49.3184 116.841 49.66 117.171 50.0741 117.164L56.8231 117.046C57.2373 117.039 57.5671 116.697 57.5599 116.283C57.5527 115.869 57.2111 115.539 56.7969 115.546L50.7978 115.651L50.6931 109.652C50.6859 109.238 50.3443 108.908 49.9302 108.915C49.516 108.922 49.1861 109.264 49.1934 109.678L49.3112 116.427ZM104.4 59.0651L49.5215 115.893L50.6005 116.935L105.479 60.1071L104.4 59.0651Z" fill="black"/>
</svg>
