<svg width="155" height="165" viewBox="0 0 155 165" fill="none" xmlns="http://www.w3.org/2000/svg">
<circle cx="77.5" cy="87.5" r="76.75" stroke="white" stroke-width="1.5"/>
<circle cx="77.5" cy="87.5" r="51.75" fill="white" stroke="white" stroke-width="1.5"/>
<path d="M80.9773 18.2727V27H79.9545L75.1989 20.1477H75.1136V27H74.0568V18.2727H75.0795L79.8523 25.142H79.9375V18.2727H80.9773Z" fill="white"/>
<path d="M77.5 0L83.9952 11.25H71.0048L77.5 0Z" fill="white"/>
<path d="M48.8193 115.931C48.8193 116.345 49.1551 116.681 49.5693 116.681L56.3193 116.681C56.7335 116.681 57.0693 116.345 57.0693 115.931C57.0693 115.516 56.7335 115.181 56.3193 115.181H50.3193L50.3193 109.181C50.3193 108.766 49.9835 108.431 49.5693 108.431C49.1551 108.431 48.8193 108.766 48.8193 109.181L48.8193 115.931ZM104.9 59.5389L49.039 115.4L50.0997 116.461L105.961 60.5996L104.9 59.5389Z" fill="black"/>
</svg>
