<svg width="155" height="165" viewBox="0 0 155 165" fill="none" xmlns="http://www.w3.org/2000/svg">
<circle cx="77.5" cy="87.5" r="76.75" stroke="white" stroke-width="1.5"/>
<circle cx="77.5" cy="87.5" r="51.75" fill="white" stroke="white" stroke-width="1.5"/>
<path d="M80.9773 18.2727V27H79.9545L75.1989 20.1477H75.1136V27H74.0568V18.2727H75.0795L79.8523 25.142H79.9375V18.2727H80.9773Z" fill="white"/>
<path d="M77.5 0L83.9952 11.25H71.0048L77.5 0Z" fill="white"/>
<path d="M48.3362 115.426C48.329 115.84 48.6589 116.182 49.073 116.189L55.822 116.307C56.2362 116.314 56.5778 115.984 56.585 115.57C56.5922 115.156 56.2623 114.814 55.8482 114.807L49.8491 114.702L49.9538 108.703C49.9611 108.289 49.6312 107.947 49.217 107.94C48.8029 107.933 48.4613 108.263 48.4541 108.677L48.3362 115.426ZM105.393 60.0215L48.5651 114.899L49.6071 115.978L106.435 61.1005L105.393 60.0215Z" fill="black"/>
</svg>
