<svg width="155" height="165" viewBox="0 0 155 165" fill="none" xmlns="http://www.w3.org/2000/svg">
<circle cx="77.5" cy="87.5" r="76.75" stroke="white" stroke-width="1.5"/>
<circle cx="77.5" cy="87.5" r="51.75" fill="white" stroke="white" stroke-width="1.5"/>
<path d="M80.9773 18.2727V27H79.9545L75.1989 20.1477H75.1136V27H74.0568V18.2727H75.0795L79.8523 25.142H79.9375V18.2727H80.9773Z" fill="white"/>
<path d="M77.5 0L83.9952 11.25H71.0048L77.5 0Z" fill="white"/>
<path d="M47.862 114.913C47.8476 115.327 48.1714 115.674 48.5854 115.688L55.3313 115.924C55.7453 115.938 56.0926 115.615 56.107 115.201C56.1215 114.787 55.7976 114.439 55.3836 114.425L49.3873 114.216L49.5967 108.219C49.6112 107.805 49.2873 107.458 48.8733 107.443C48.4594 107.429 48.1121 107.753 48.0976 108.167L47.862 114.913ZM105.877 60.5125L48.1001 114.39L49.1231 115.487L106.9 61.6096L105.877 60.5125Z" fill="black"/>
</svg>
