<svg width="155" height="165" viewBox="0 0 155 165" fill="none" xmlns="http://www.w3.org/2000/svg">
<circle cx="77.5" cy="87.5" r="76.75" stroke="white" stroke-width="1.5"/>
<circle cx="77.5" cy="87.5" r="51.75" fill="white" stroke="white" stroke-width="1.5"/>
<path d="M80.9773 18.2727V27H79.9545L75.1989 20.1477H75.1136V27H74.0568V18.2727H75.0795L79.8523 25.142H79.9375V18.2727H80.9773Z" fill="white"/>
<path d="M77.5 0L83.9952 11.25H71.0048L77.5 0Z" fill="white"/>
<path d="M47.3969 114.391C47.3752 114.805 47.6929 115.158 48.1066 115.18L54.8473 115.533C55.261 115.555 55.6139 115.237 55.6356 114.823C55.6572 114.41 55.3395 114.057 54.9258 114.035L48.9341 113.721L49.2481 107.729C49.2698 107.315 48.952 106.963 48.5384 106.941C48.1247 106.919 47.7718 107.237 47.7501 107.651L47.3969 114.391ZM106.352 61.012L47.644 113.873L48.6477 114.988L107.356 62.1267L106.352 61.012Z" fill="black"/>
</svg>
