<svg width="155" height="165" viewBox="0 0 155 165" fill="none" xmlns="http://www.w3.org/2000/svg">
<circle cx="77.5" cy="87.5" r="76.75" stroke="white" stroke-width="1.5"/>
<circle cx="77.5" cy="87.5" r="51.75" fill="white" stroke="white" stroke-width="1.5"/>
<path d="M80.9773 18.2727V27H79.9545L75.1989 20.1477H75.1136V27H74.0568V18.2727H75.0795L79.8523 25.142H79.9375V18.2727H80.9773Z" fill="white"/>
<path d="M77.5 0L83.9952 11.25H71.0048L77.5 0Z" fill="white"/>
<path d="M46.9409 113.862C46.912 114.275 47.2235 114.634 47.6367 114.662L54.3703 115.133C54.7835 115.162 55.1419 114.851 55.1708 114.437C55.1997 114.024 54.8881 113.666 54.4749 113.637L48.4895 113.218L48.9081 107.233C48.937 106.82 48.6254 106.461 48.2122 106.433C47.799 106.404 47.4406 106.715 47.4117 107.128L46.9409 113.862ZM106.819 61.5196L47.197 113.348L48.1811 114.48L107.803 62.6517L106.819 61.5196Z" fill="black"/>
</svg>
