<svg width="155" height="165" viewBox="0 0 155 165" fill="none" xmlns="http://www.w3.org/2000/svg">
<circle cx="77.5" cy="87.5" r="76.75" stroke="white" stroke-width="1.5"/>
<circle cx="77.5" cy="87.5" r="51.75" fill="white" stroke="white" stroke-width="1.5"/>
<path d="M80.9773 18.2727V27H79.9545L75.1989 20.1477H75.1136V27H74.0568V18.2727H75.0795L79.8523 25.142H79.9375V18.2727H80.9773Z" fill="white"/>
<path d="M77.5 0L83.9952 11.25H71.0048L77.5 0Z" fill="white"/>
<path d="M93.6293 51.3591C93.4741 50.9751 93.037 50.7895 92.6529 50.9447L86.3944 53.4733C86.0104 53.6285 85.8248 54.0656 85.98 54.4496C86.1352 54.8337 86.5723 55.0192 86.9564 54.8641L92.5195 52.6164L94.7671 58.1795C94.9223 58.5636 95.3594 58.7491 95.7434 58.594C96.1275 58.4388 96.313 58.0017 96.1579 57.6176L93.6293 51.3591ZM62.7565 124.653L93.6243 51.9331L92.2435 51.347L61.3757 124.067L62.7565 124.653Z" fill="black"/>
</svg>
