<svg width="155" height="165" viewBox="0 0 155 165" fill="none" xmlns="http://www.w3.org/2000/svg">
<circle cx="77.5" cy="87.5" r="76.75" stroke="white" stroke-width="1.5"/>
<circle cx="77.5" cy="87.5" r="51.75" fill="white" stroke="white" stroke-width="1.5"/>
<path d="M80.9773 18.2727V27H79.9545L75.1989 20.1477H75.1136V27H74.0568V18.2727H75.0795L79.8523 25.142H79.9375V18.2727H80.9773Z" fill="white"/>
<path d="M77.5 0L83.9952 11.25H71.0048L77.5 0Z" fill="white"/>
<path d="M46.4942 113.325C46.4581 113.737 46.7633 114.101 47.1759 114.137L53.9003 114.726C54.3129 114.762 54.6767 114.456 54.7128 114.044C54.7489 113.631 54.4436 113.267 54.031 113.231L48.0538 112.708L48.5768 106.731C48.6129 106.319 48.3076 105.955 47.895 105.919C47.4823 105.883 47.1186 106.188 47.0825 106.6L46.4942 113.325ZM107.277 62.0353L46.7592 112.816L47.7234 113.965L108.241 63.1844L107.277 62.0353Z" fill="black"/>
</svg>
