<svg width="155" height="165" viewBox="0 0 155 165" fill="none" xmlns="http://www.w3.org/2000/svg">
<circle cx="77.5" cy="87.5" r="76.75" stroke="white" stroke-width="1.5"/>
<circle cx="77.5" cy="87.5" r="51.75" fill="white" stroke="white" stroke-width="1.5"/>
<path d="M80.9773 18.2727V27H79.9545L75.1989 20.1477H75.1136V27H74.0568V18.2727H75.0795L79.8523 25.142H79.9375V18.2727H80.9773Z" fill="white"/>
<path d="M77.5 0L83.9952 11.25H71.0048L77.5 0Z" fill="white"/>
<path d="M46.0569 112.78C46.0136 113.192 46.3125 113.561 46.7244 113.604L53.4374 114.31C53.8494 114.353 54.2184 114.054 54.2617 113.642C54.305 113.23 54.0062 112.861 53.5942 112.818L47.6271 112.191L48.2543 106.224C48.2976 105.812 47.9987 105.443 47.5868 105.399C47.1748 105.356 46.8058 105.655 46.7625 106.067L46.0569 112.78ZM107.725 62.559L46.3308 112.275L47.2748 113.441L108.669 63.7247L107.725 62.559Z" fill="black"/>
</svg>
