<svg width="155" height="165" viewBox="0 0 155 165" fill="none" xmlns="http://www.w3.org/2000/svg">
<circle cx="77.5" cy="87.5" r="76.75" stroke="white" stroke-width="1.5"/>
<circle cx="77.5" cy="87.5" r="51.75" fill="white" stroke="white" stroke-width="1.5"/>
<path d="M80.9773 18.2727V27H79.9545L75.1989 20.1477H75.1136V27H74.0568V18.2727H75.0795L79.8523 25.142H79.9375V18.2727H80.9773Z" fill="white"/>
<path d="M77.5 0L83.9952 11.25H71.0048L77.5 0Z" fill="white"/>
<path d="M45.6292 112.227C45.5787 112.638 45.8711 113.013 46.2822 113.063L52.9819 113.886C53.393 113.936 53.7673 113.644 53.8177 113.233C53.8682 112.822 53.5759 112.447 53.1647 112.397L47.2094 111.666L47.9407 105.71C47.9911 105.299 47.6988 104.925 47.2877 104.875C46.8765 104.824 46.5023 105.116 46.4518 105.528L45.6292 112.227ZM108.165 63.0904L45.9119 111.728L46.8354 112.91L109.088 64.2724L108.165 63.0904Z" fill="black"/>
</svg>
