<svg width="155" height="165" viewBox="0 0 155 165" fill="none" xmlns="http://www.w3.org/2000/svg">
<circle cx="77.5" cy="87.5" r="76.75" stroke="white" stroke-width="1.5"/>
<circle cx="77.5" cy="87.5" r="51.75" fill="white" stroke="white" stroke-width="1.5"/>
<path d="M80.9773 18.2727V27H79.9545L75.1989 20.1477H75.1136V27H74.0568V18.2727H75.0795L79.8523 25.142H79.9375V18.2727H80.9773Z" fill="white"/>
<path d="M77.5 0L83.9952 11.25H71.0048L77.5 0Z" fill="white"/>
<path d="M45.2113 111.667C45.1536 112.077 45.4394 112.457 45.8496 112.514L52.5339 113.454C52.9441 113.511 53.3233 113.226 53.381 112.815C53.4386 112.405 53.1528 112.026 52.7426 111.968L46.801 111.133L47.6361 105.192C47.6937 104.782 47.4079 104.402 46.9978 104.345C46.5876 104.287 46.2083 104.573 46.1507 104.983L45.2113 111.667ZM108.595 63.6293L45.5026 111.173L46.4053 112.371L109.498 64.8273L108.595 63.6293Z" fill="black"/>
</svg>
