<svg width="155" height="165" viewBox="0 0 155 165" fill="none" xmlns="http://www.w3.org/2000/svg">
<circle cx="77.5" cy="87.5" r="76.75" stroke="white" stroke-width="1.5"/>
<circle cx="77.5" cy="87.5" r="51.75" fill="white" stroke="white" stroke-width="1.5"/>
<path d="M80.9773 18.2727V27H79.9545L75.1989 20.1477H75.1136V27H74.0568V18.2727H75.0795L79.8523 25.142H79.9375V18.2727H80.9773Z" fill="white"/>
<path d="M77.5 0L83.9952 11.25H71.0048L77.5 0Z" fill="white"/>
<path d="M44.8031 111.1C44.7383 111.509 45.0174 111.893 45.4266 111.958L52.0935 113.014C52.5026 113.079 52.8868 112.8 52.9516 112.391C53.0163 111.982 52.7372 111.597 52.3281 111.533L46.402 110.594L47.3406 104.668C47.4054 104.259 47.1263 103.875 46.7171 103.81C46.308 103.745 45.9239 104.024 45.8591 104.433L44.8031 111.1ZM109.015 64.1757L45.103 110.611L45.9847 111.824L109.897 65.3892L109.015 64.1757Z" fill="black"/>
</svg>
