<svg width="155" height="165" viewBox="0 0 155 165" fill="none" xmlns="http://www.w3.org/2000/svg">
<circle cx="77.5" cy="87.5" r="76.75" stroke="white" stroke-width="1.5"/>
<circle cx="77.5" cy="87.5" r="51.75" fill="white" stroke="white" stroke-width="1.5"/>
<path d="M80.9773 18.2727V27H79.9545L75.1989 20.1477H75.1136V27H74.0568V18.2727H75.0795L79.8523 25.142H79.9375V18.2727H80.9773Z" fill="white"/>
<path d="M77.5 0L83.9952 11.25H71.0048L77.5 0Z" fill="white"/>
<path d="M44.405 110.526C44.333 110.934 44.6054 111.323 45.0133 111.395L51.6608 112.567C52.0687 112.639 52.4577 112.367 52.5296 111.959C52.6015 111.551 52.3292 111.162 51.9212 111.09L46.0124 110.048L47.0543 104.139C47.1262 103.731 46.8538 103.342 46.4459 103.27C46.038 103.198 45.649 103.471 45.5771 103.879L44.405 110.526ZM109.426 64.7294L44.7134 110.042L45.5737 111.271L110.287 65.9581L109.426 64.7294Z" fill="black"/>
</svg>
