<svg width="155" height="165" viewBox="0 0 155 165" fill="none" xmlns="http://www.w3.org/2000/svg">
<circle cx="77.5" cy="87.5" r="76.75" stroke="white" stroke-width="1.5"/>
<circle cx="77.5" cy="87.5" r="51.75" fill="white" stroke="white" stroke-width="1.5"/>
<path d="M80.9773 18.2727V27H79.9545L75.1989 20.1477H75.1136V27H74.0568V18.2727H75.0795L79.8523 25.142H79.9375V18.2727H80.9773Z" fill="white"/>
<path d="M77.5 0L83.9952 11.25H71.0048L77.5 0Z" fill="white"/>
<path d="M44.0169 109.945C43.9378 110.352 44.2034 110.745 44.61 110.824L51.236 112.112C51.6426 112.191 52.0362 111.926 52.1153 111.519C52.1943 111.113 51.9288 110.719 51.5222 110.64L45.6324 109.495L46.7773 103.605C46.8563 103.199 46.5907 102.805 46.1841 102.726C45.7775 102.647 45.3839 102.912 45.3048 103.319L44.0169 109.945ZM109.828 65.2901L44.3337 109.466L45.1725 110.71L110.666 66.5337L109.828 65.2901Z" fill="black"/>
</svg>
