<svg width="155" height="165" viewBox="0 0 155 165" fill="none" xmlns="http://www.w3.org/2000/svg">
<circle cx="77.5" cy="87.5" r="76.75" stroke="white" stroke-width="1.5"/>
<circle cx="77.5" cy="87.5" r="51.75" fill="white" stroke="white" stroke-width="1.5"/>
<path d="M80.9773 18.2727V27H79.9545L75.1989 20.1477H75.1136V27H74.0568V18.2727H75.0795L79.8523 25.142H79.9375V18.2727H80.9773Z" fill="white"/>
<path d="M77.5 0L83.9952 11.25H71.0048L77.5 0Z" fill="white"/>
<path d="M43.639 109.357C43.5528 109.762 43.8115 110.161 44.2166 110.247L50.8191 111.65C51.2243 111.736 51.6226 111.478 51.7087 111.073C51.7948 110.667 51.5362 110.269 51.131 110.183L45.2621 108.936L46.5096 103.067C46.5957 102.662 46.3371 102.263 45.9319 102.177C45.5267 102.091 45.1285 102.35 45.0424 102.755L43.639 109.357ZM110.219 65.8578L43.9641 108.884L44.7811 110.142L111.036 67.1158L110.219 65.8578Z" fill="black"/>
</svg>
