<svg width="155" height="165" viewBox="0 0 155 165" fill="none" xmlns="http://www.w3.org/2000/svg">
<circle cx="77.5" cy="87.5" r="76.75" stroke="white" stroke-width="1.5"/>
<circle cx="77.5" cy="87.5" r="51.75" fill="white" stroke="white" stroke-width="1.5"/>
<path d="M80.9773 18.2727V27H79.9545L75.1989 20.1477H75.1136V27H74.0568V18.2727H75.0795L79.8523 25.142H79.9375V18.2727H80.9773Z" fill="white"/>
<path d="M77.5 0L83.9952 11.25H71.0048L77.5 0Z" fill="white"/>
<path d="M43.2714 108.763C43.1782 109.167 43.4299 109.569 43.8334 109.663L50.4104 111.181C50.814 111.274 51.2168 111.023 51.3099 110.619C51.4031 110.215 51.1515 109.813 50.7479 109.719L44.9017 108.37L46.2514 102.524C46.3445 102.12 46.0929 101.717 45.6893 101.624C45.2857 101.531 44.883 101.782 44.7898 102.186L43.2714 108.763ZM110.601 66.4321L43.6047 108.296L44.3996 109.568L111.395 67.7042L110.601 66.4321Z" fill="black"/>
</svg>
