<svg width="155" height="165" viewBox="0 0 155 165" fill="none" xmlns="http://www.w3.org/2000/svg">
<circle cx="77.5" cy="87.5" r="76.75" stroke="white" stroke-width="1.5"/>
<circle cx="77.5" cy="87.5" r="51.75" fill="white" stroke="white" stroke-width="1.5"/>
<path d="M80.9773 18.2727V27H79.9545L75.1989 20.1477H75.1136V27H74.0568V18.2727H75.0795L79.8523 25.142H79.9375V18.2727H80.9773Z" fill="white"/>
<path d="M77.5 0L83.9952 11.25H71.0048L77.5 0Z" fill="white"/>
<path d="M42.9142 108.163C42.814 108.564 43.0586 108.972 43.4605 109.072L50.01 110.705C50.4119 110.805 50.819 110.56 50.9192 110.158C51.0194 109.756 50.7748 109.349 50.3729 109.249L44.5511 107.798L46.0026 101.976C46.1029 101.574 45.8583 101.167 45.4564 101.067C45.0545 100.967 44.6474 101.211 44.5472 101.613L42.9142 108.163ZM110.972 67.0131L43.2557 107.701L44.0282 108.987L111.744 68.2989L110.972 67.0131Z" fill="black"/>
</svg>
