<svg width="155" height="165" viewBox="0 0 155 165" fill="none" xmlns="http://www.w3.org/2000/svg">
<circle cx="77.5" cy="87.5" r="76.75" stroke="white" stroke-width="1.5"/>
<circle cx="77.5" cy="87.5" r="51.75" fill="white" stroke="white" stroke-width="1.5"/>
<path d="M80.9773 18.2727V27H79.9545L75.1989 20.1477H75.1136V27H74.0568V18.2727H75.0795L79.8523 25.142H79.9375V18.2727H80.9773Z" fill="white"/>
<path d="M77.5 0L83.9952 11.25H71.0048L77.5 0Z" fill="white"/>
<path d="M94.2663 51.6462C94.1178 51.2595 93.684 51.0664 93.2973 51.2148L86.9957 53.6338C86.609 53.7822 86.4158 54.216 86.5643 54.6027C86.7127 54.9894 87.1465 55.1826 87.5332 55.0341L93.1347 52.8839L95.2849 58.4854C95.4333 58.8721 95.8672 59.0653 96.2539 58.9168C96.6406 58.7684 96.8337 58.3346 96.6853 57.9479L94.2663 51.6462ZM62.1191 124.39L94.2513 52.22L92.8809 51.6099L60.7488 123.78L62.1191 124.39Z" fill="black"/>
</svg>
