<svg width="155" height="165" viewBox="0 0 155 165" fill="none" xmlns="http://www.w3.org/2000/svg">
<circle cx="77.5" cy="87.5" r="76.75" stroke="white" stroke-width="1.5"/>
<circle cx="77.5" cy="87.5" r="51.75" fill="white" stroke="white" stroke-width="1.5"/>
<path d="M80.9773 18.2727V27H79.9545L75.1989 20.1477H75.1136V27H74.0568V18.2727H75.0795L79.8523 25.142H79.9375V18.2727H80.9773Z" fill="white"/>
<path d="M77.5 0L83.9952 11.25H71.0048L77.5 0Z" fill="white"/>
<path d="M42.5676 107.556C42.4604 107.956 42.6978 108.367 43.0979 108.474L49.6179 110.221C50.018 110.329 50.4293 110.091 50.5365 109.691C50.6437 109.291 50.4063 108.88 50.0062 108.773L44.2106 107.22L45.7635 101.424C45.8707 101.024 45.6333 100.613 45.2332 100.506C44.8331 100.398 44.4218 100.636 44.3146 101.036L42.5676 107.556ZM111.333 67.6005L42.9171 107.1L43.6671 108.4L112.083 68.8995L111.333 67.6005Z" fill="black"/>
</svg>
