<svg width="155" height="165" viewBox="0 0 155 165" fill="none" xmlns="http://www.w3.org/2000/svg">
<circle cx="77.5" cy="87.5" r="76.75" stroke="white" stroke-width="1.5"/>
<circle cx="77.5" cy="87.5" r="51.75" fill="white" stroke="white" stroke-width="1.5"/>
<path d="M80.9773 18.2727V27H79.9545L75.1989 20.1477H75.1136V27H74.0568V18.2727H75.0795L79.8523 25.142H79.9375V18.2727H80.9773Z" fill="white"/>
<path d="M77.5 0L83.9952 11.25H71.0048L77.5 0Z" fill="white"/>
<path d="M42.2316 106.943C42.1175 107.341 42.3477 107.757 42.7459 107.871L49.2344 109.731C49.6325 109.846 50.0479 109.615 50.162 109.217C50.2762 108.819 50.046 108.404 49.6478 108.29L43.8803 106.636L45.5341 100.868C45.6483 100.47 45.418 100.055 45.0199 99.9405C44.6217 99.8263 44.2064 100.057 44.0922 100.455L42.2316 106.943ZM111.684 68.194L42.589 106.494L43.3162 107.806L112.411 69.506L111.684 68.194Z" fill="black"/>
</svg>
