<svg width="155" height="165" viewBox="0 0 155 165" fill="none" xmlns="http://www.w3.org/2000/svg">
<circle cx="77.5" cy="87.5" r="76.75" stroke="white" stroke-width="1.5"/>
<circle cx="77.5" cy="87.5" r="51.75" fill="white" stroke="white" stroke-width="1.5"/>
<path d="M80.9773 18.2727V27H79.9545L75.1989 20.1477H75.1136V27H74.0568V18.2727H75.0795L79.8523 25.142H79.9375V18.2727H80.9773Z" fill="white"/>
<path d="M77.5 0L83.9952 11.25H71.0048L77.5 0Z" fill="white"/>
<path d="M41.9064 106.325C41.7853 106.721 42.0082 107.14 42.4043 107.261L48.8594 109.235C49.2555 109.356 49.6748 109.133 49.7959 108.737C49.917 108.341 49.6941 107.921 49.298 107.8L43.5601 106.046L45.3144 100.308C45.4355 99.9122 45.2125 99.4929 44.8164 99.3718C44.4203 99.2507 44.001 99.4737 43.8799 99.8698L41.9064 106.325ZM112.024 68.7937L42.2715 105.882L42.9757 107.206L112.729 70.1181L112.024 68.7937Z" fill="black"/>
</svg>
