<svg width="155" height="165" viewBox="0 0 155 165" fill="none" xmlns="http://www.w3.org/2000/svg">
<circle cx="77.5" cy="87.5" r="76.75" stroke="white" stroke-width="1.5"/>
<circle cx="77.5" cy="87.5" r="51.75" fill="white" stroke="white" stroke-width="1.5"/>
<path d="M80.9773 18.2727V27H79.9545L75.1989 20.1477H75.1136V27H74.0568V18.2727H75.0795L79.8523 25.142H79.9375V18.2727H80.9773Z" fill="white"/>
<path d="M77.5 0L83.9952 11.25H71.0048L77.5 0Z" fill="white"/>
<path d="M41.592 105.701C41.464 106.095 41.6796 106.518 42.0735 106.646L48.4932 108.732C48.8871 108.86 49.3102 108.644 49.4382 108.25C49.5662 107.856 49.3506 107.433 48.9567 107.305L43.2504 105.451L45.1045 99.7447C45.2325 99.3508 45.0169 98.9277 44.6229 98.7997C44.229 98.6717 43.8059 98.8873 43.6779 99.2812L41.592 105.701ZM112.354 69.3991L41.9648 105.264L42.6458 106.601L113.035 70.7356L112.354 69.3991Z" fill="black"/>
</svg>
