<svg width="155" height="165" viewBox="0 0 155 165" fill="none" xmlns="http://www.w3.org/2000/svg">
<circle cx="77.5" cy="87.5" r="76.75" stroke="white" stroke-width="1.5"/>
<circle cx="77.5" cy="87.5" r="51.75" fill="white" stroke="white" stroke-width="1.5"/>
<path d="M80.9773 18.2727V27H79.9545L75.1989 20.1477H75.1136V27H74.0568V18.2727H75.0795L79.8523 25.142H79.9375V18.2727H80.9773Z" fill="white"/>
<path d="M77.5 0L83.9952 11.25H71.0048L77.5 0Z" fill="white"/>
<path d="M41.2886 105.071C41.1537 105.463 41.3619 105.89 41.7535 106.025L48.1358 108.222C48.5274 108.357 48.9542 108.149 49.0891 107.757C49.2239 107.366 49.0158 106.939 48.6241 106.804L42.951 104.851L44.9044 99.1776C45.0393 98.7859 44.8311 98.3591 44.4395 98.2243C44.0478 98.0894 43.621 98.2976 43.4861 98.6892L41.2886 105.071ZM112.674 70.0102L41.6689 104.642L42.3265 105.99L113.331 71.3584L112.674 70.0102Z" fill="black"/>
</svg>
