<svg width="155" height="165" viewBox="0 0 155 165" fill="none" xmlns="http://www.w3.org/2000/svg">
<circle cx="77.5" cy="87.5" r="76.75" stroke="white" stroke-width="1.5"/>
<circle cx="77.5" cy="87.5" r="51.75" fill="white" stroke="white" stroke-width="1.5"/>
<path d="M80.9773 18.2727V27H79.9545L75.1989 20.1477H75.1136V27H74.0568V18.2727H75.0795L79.8523 25.142H79.9375V18.2727H80.9773Z" fill="white"/>
<path d="M77.5 0L83.9952 11.25H71.0048L77.5 0Z" fill="white"/>
<path d="M40.9961 104.437C40.8545 104.826 41.0552 105.257 41.4444 105.398L47.7873 107.707C48.1765 107.848 48.6069 107.648 48.7486 107.259C48.8903 106.869 48.6896 106.439 48.3003 106.297L42.6622 104.245L44.7143 98.607C44.856 98.2178 44.6553 97.7874 44.2661 97.6457C43.8768 97.504 43.4464 97.7047 43.3048 98.094L40.9961 104.437ZM112.982 70.6268L41.3839 104.014L42.0179 105.373L113.616 71.9863L112.982 70.6268Z" fill="black"/>
</svg>
