<svg width="155" height="165" viewBox="0 0 155 165" fill="none" xmlns="http://www.w3.org/2000/svg">
<circle cx="77.5" cy="87.5" r="76.75" stroke="white" stroke-width="1.5"/>
<circle cx="77.5" cy="87.5" r="51.75" fill="white" stroke="white" stroke-width="1.5"/>
<path d="M80.9773 18.2727V27H79.9545L75.1989 20.1477H75.1136V27H74.0568V18.2727H75.0795L79.8523 25.142H79.9375V18.2727H80.9773Z" fill="white"/>
<path d="M77.5 0L83.9952 11.25H71.0048L77.5 0Z" fill="white"/>
<path d="M40.7148 103.797C40.5664 104.184 40.7595 104.618 41.1462 104.766L47.4479 107.185C47.8346 107.334 48.2684 107.141 48.4169 106.754C48.5653 106.367 48.3722 105.933 47.9855 105.785L42.384 103.635L44.5342 98.0332C44.6826 97.6465 44.4895 97.2127 44.1028 97.0642C43.7161 96.9158 43.2823 97.1089 43.1338 97.4956L40.7148 103.797ZM113.28 71.2487L41.11 103.381L41.7201 104.751L113.89 72.6191L113.28 71.2487Z" fill="black"/>
</svg>
