<svg width="155" height="165" viewBox="0 0 155 165" fill="none" xmlns="http://www.w3.org/2000/svg">
<circle cx="77.5" cy="87.5" r="76.75" stroke="white" stroke-width="1.5"/>
<circle cx="77.5" cy="87.5" r="51.75" fill="white" stroke="white" stroke-width="1.5"/>
<path d="M80.9773 18.2727V27H79.9545L75.1989 20.1477H75.1136V27H74.0568V18.2727H75.0795L79.8523 25.142H79.9375V18.2727H80.9773Z" fill="white"/>
<path d="M77.5 0L83.9952 11.25H71.0048L77.5 0Z" fill="white"/>
<path d="M40.4447 103.153C40.2896 103.537 40.4751 103.974 40.8592 104.129L47.1177 106.658C47.5017 106.813 47.9388 106.627 48.094 106.243C48.2492 105.859 48.0636 105.422 47.6796 105.267L42.1165 103.019L44.3641 97.4563C44.5193 97.0723 44.3337 96.6352 43.9497 96.48C43.5656 96.3248 43.1285 96.5104 42.9733 96.8944L40.4447 103.153ZM113.567 71.8757L40.8471 102.743L41.4332 104.124L114.153 73.2565L113.567 71.8757Z" fill="black"/>
</svg>
