<svg width="155" height="165" viewBox="0 0 155 165" fill="none" xmlns="http://www.w3.org/2000/svg">
<circle cx="77.5" cy="87.5" r="76.75" stroke="white" stroke-width="1.5"/>
<circle cx="77.5" cy="87.5" r="51.75" fill="white" stroke="white" stroke-width="1.5"/>
<path d="M80.9773 18.2727V27H79.9545L75.1989 20.1477H75.1136V27H74.0568V18.2727H75.0795L79.8523 25.142H79.9375V18.2727H80.9773Z" fill="white"/>
<path d="M77.5 0L83.9952 11.25H71.0048L77.5 0Z" fill="white"/>
<path d="M40.1859 102.504C40.0241 102.885 40.202 103.325 40.5832 103.487L46.7967 106.125C47.1779 106.287 47.6182 106.109 47.7801 105.727C47.9419 105.346 47.764 104.906 47.3827 104.744L41.8597 102.4L44.2041 96.8766C44.366 96.4953 44.1881 96.055 43.8068 95.8932C43.4255 95.7313 42.9852 95.9092 42.8234 96.2905L40.1859 102.504ZM113.843 72.5076L40.5953 102.102L41.1572 103.492L114.405 73.8984L113.843 72.5076Z" fill="black"/>
</svg>
