<svg width="155" height="165" viewBox="0 0 155 165" fill="none" xmlns="http://www.w3.org/2000/svg">
<circle cx="77.5" cy="87.5" r="76.75" stroke="white" stroke-width="1.5"/>
<circle cx="77.5" cy="87.5" r="51.75" fill="white" stroke="white" stroke-width="1.5"/>
<path d="M80.9773 18.2727V27H79.9545L75.1989 20.1477H75.1136V27H74.0568V18.2727H75.0795L79.8523 25.142H79.9375V18.2727H80.9773Z" fill="white"/>
<path d="M77.5 0L83.9952 11.25H71.0048L77.5 0Z" fill="white"/>
<path d="M39.9385 101.85C39.77 102.229 39.9402 102.672 40.3186 102.841L46.485 105.586C46.8634 105.755 47.3067 105.584 47.4752 105.206C47.6437 104.828 47.4735 104.384 47.0951 104.216L41.6138 101.775L44.0543 96.2941C44.2227 95.9157 44.0526 95.4724 43.6742 95.3039C43.2957 95.1355 42.8524 95.3056 42.6839 95.684L39.9385 101.85ZM114.108 73.1443L40.3548 101.455L40.8924 102.856L114.645 74.5446L114.108 73.1443Z" fill="black"/>
</svg>
