<svg width="155" height="165" viewBox="0 0 155 165" fill="none" xmlns="http://www.w3.org/2000/svg">
<circle cx="77.5" cy="87.5" r="76.75" stroke="white" stroke-width="1.5"/>
<circle cx="77.5" cy="87.5" r="51.75" fill="white" stroke="white" stroke-width="1.5"/>
<path d="M80.9773 18.2727V27H79.9545L75.1989 20.1477H75.1136V27H74.0568V18.2727H75.0795L79.8523 25.142H79.9375V18.2727H80.9773Z" fill="white"/>
<path d="M77.5 0L83.9952 11.25H71.0048L77.5 0Z" fill="white"/>
<path d="M94.8982 51.9444C94.7565 51.5551 94.3261 51.3544 93.9369 51.4961L87.594 53.8047C87.2048 53.9464 87.0041 54.3768 87.1457 54.766C87.2874 55.1553 87.7178 55.3559 88.107 55.2143L93.7452 53.1622L95.7973 58.8003C95.939 59.1895 96.3693 59.3902 96.7586 59.2486C97.1478 59.1069 97.3485 58.6765 97.2068 58.2873L94.8982 51.9444ZM61.4863 124.116L94.8732 52.5178L93.5137 51.8839L60.1269 123.482L61.4863 124.116Z" fill="black"/>
</svg>
