<svg width="155" height="165" viewBox="0 0 155 165" fill="none" xmlns="http://www.w3.org/2000/svg">
<circle cx="77.5" cy="87.5" r="76.75" stroke="white" stroke-width="1.5"/>
<circle cx="77.5" cy="87.5" r="51.75" fill="white" stroke="white" stroke-width="1.5"/>
<path d="M80.9773 18.2727V27H79.9545L75.1989 20.1477H75.1136V27H74.0568V18.2727H75.0795L79.8523 25.142H79.9375V18.2727H80.9773Z" fill="white"/>
<path d="M77.5 0L83.9952 11.25H71.0048L77.5 0Z" fill="white"/>
<path d="M39.7025 101.193C39.5274 101.568 39.6898 102.014 40.0652 102.19L46.1828 105.042C46.5582 105.217 47.0044 105.055 47.1795 104.679C47.3546 104.304 47.1921 103.858 46.8167 103.683L41.3789 101.147L43.9146 95.7092C44.0897 95.3338 43.9272 94.8875 43.5518 94.7125C43.1764 94.5374 42.7302 94.6998 42.5551 95.0752L39.7025 101.193ZM114.361 73.7854L40.1257 100.805L40.6387 102.215L114.874 75.195L114.361 73.7854Z" fill="black"/>
</svg>
