<svg width="155" height="165" viewBox="0 0 155 165" fill="none" xmlns="http://www.w3.org/2000/svg">
<circle cx="77.5" cy="87.5" r="76.75" stroke="white" stroke-width="1.5"/>
<circle cx="77.5" cy="87.5" r="51.75" fill="white" stroke="white" stroke-width="1.5"/>
<path d="M80.9773 18.2727V27H79.9545L75.1989 20.1477H75.1136V27H74.0568V18.2727H75.0795L79.8523 25.142H79.9375V18.2727H80.9773Z" fill="white"/>
<path d="M77.5 0L83.9952 11.25H71.0048L77.5 0Z" fill="white"/>
<path d="M39.478 100.531C39.2964 100.903 39.451 101.352 39.8233 101.534L45.8901 104.493C46.2624 104.675 46.7114 104.52 46.893 104.148C47.0746 103.775 46.92 103.326 46.5477 103.145L41.1549 100.515L43.7852 95.1219C43.9667 94.7496 43.8121 94.3006 43.4399 94.119C43.0676 93.9374 42.6186 94.092 42.437 94.4643L39.478 100.531ZM114.604 74.4309L39.9079 100.151L40.3962 101.569L115.092 75.8492L114.604 74.4309Z" fill="black"/>
</svg>
