<svg width="155" height="165" viewBox="0 0 155 165" fill="none" xmlns="http://www.w3.org/2000/svg">
<circle cx="77.5" cy="87.5" r="76.75" stroke="white" stroke-width="1.5"/>
<circle cx="77.5" cy="87.5" r="51.75" fill="white" stroke="white" stroke-width="1.5"/>
<path d="M80.9773 18.2727V27H79.9545L75.1989 20.1477H75.1136V27H74.0568V18.2727H75.0795L79.8523 25.142H79.9375V18.2727H80.9773Z" fill="white"/>
<path d="M77.5 0L83.9952 11.25H71.0048L77.5 0Z" fill="white"/>
<path d="M39.2651 99.8657C39.077 100.235 39.2238 100.686 39.5928 100.874L45.6071 103.939C45.9762 104.127 46.4278 103.98 46.6159 103.611C46.8039 103.242 46.6572 102.79 46.2881 102.602L40.9421 99.8784L43.666 94.5324C43.8541 94.1633 43.7073 93.7117 43.3383 93.5236C42.9692 93.3356 42.5176 93.4823 42.3295 93.8514L39.2651 99.8657ZM114.835 75.0805L39.7016 99.4929L40.1651 100.919L115.299 76.5071L114.835 75.0805Z" fill="black"/>
</svg>
