<svg width="155" height="165" viewBox="0 0 155 165" fill="none" xmlns="http://www.w3.org/2000/svg">
<circle cx="77.5" cy="87.5" r="76.75" stroke="white" stroke-width="1.5"/>
<circle cx="77.5" cy="87.5" r="51.75" fill="white" stroke="white" stroke-width="1.5"/>
<path d="M80.9773 18.2727V27H79.9545L75.1989 20.1477H75.1136V27H74.0568V18.2727H75.0795L79.8523 25.142H79.9375V18.2727H80.9773Z" fill="white"/>
<path d="M77.5 0L83.9952 11.25H71.0048L77.5 0Z" fill="white"/>
<path d="M39.0638 99.1966C38.8693 99.5623 39.0082 100.016 39.3739 100.211L45.3338 103.38C45.6995 103.574 46.1537 103.435 46.3481 103.07C46.5426 102.704 46.4037 102.25 46.038 102.055L40.7403 99.2386L43.5572 93.9409C43.7516 93.5752 43.6128 93.121 43.2471 92.9266C42.8813 92.7321 42.4272 92.8709 42.2327 93.2367L39.0638 99.1966ZM115.055 75.7341L39.5067 98.8314L39.9453 100.266L115.493 77.1685L115.055 75.7341Z" fill="black"/>
</svg>
