<svg width="155" height="165" viewBox="0 0 155 165" fill="none" xmlns="http://www.w3.org/2000/svg">
<circle cx="77.5" cy="87.5" r="76.75" stroke="white" stroke-width="1.5"/>
<circle cx="77.5" cy="87.5" r="51.75" fill="white" stroke="white" stroke-width="1.5"/>
<path d="M80.9773 18.2727V27H79.9545L75.1989 20.1477H75.1136V27H74.0568V18.2727H75.0795L79.8523 25.142H79.9375V18.2727H80.9773Z" fill="white"/>
<path d="M77.5 0L83.9952 11.25H71.0048L77.5 0Z" fill="white"/>
<path d="M38.8743 98.5241C38.6734 98.8863 38.8043 99.3428 39.1666 99.5436L45.0703 102.816C45.4326 103.017 45.8891 102.886 46.0899 102.524C46.2907 102.161 46.1598 101.705 45.7975 101.504L40.5498 98.5953L43.4586 93.3476C43.6595 92.9853 43.5286 92.5288 43.1663 92.328C42.804 92.1272 42.3475 92.2581 42.1467 92.6204L38.8743 98.5241ZM115.263 76.3914L39.3235 98.1667L39.7369 99.6086L115.677 77.8333L115.263 76.3914Z" fill="black"/>
</svg>
