<svg width="155" height="165" viewBox="0 0 155 165" fill="none" xmlns="http://www.w3.org/2000/svg">
<circle cx="77.5" cy="87.5" r="76.75" stroke="white" stroke-width="1.5"/>
<circle cx="77.5" cy="87.5" r="51.75" fill="white" stroke="white" stroke-width="1.5"/>
<path d="M80.9773 18.2727V27H79.9545L75.1989 20.1477H75.1136V27H74.0568V18.2727H75.0795L79.8523 25.142H79.9375V18.2727H80.9773Z" fill="white"/>
<path d="M77.5 0L83.9952 11.25H71.0048L77.5 0Z" fill="white"/>
<path d="M38.6965 97.8483C38.4894 98.2071 38.6123 98.6658 38.971 98.8729L44.8167 102.248C45.1754 102.455 45.6341 102.332 45.8412 101.973C46.0483 101.615 45.9254 101.156 45.5667 100.949L40.3705 97.9488L43.3705 92.7527C43.5776 92.394 43.4547 91.9353 43.096 91.7282C42.7373 91.521 42.2786 91.644 42.0715 92.0027L38.6965 97.8483ZM115.46 77.0522L39.1519 97.4989L39.5401 98.9478L115.848 78.5011L115.46 77.0522Z" fill="black"/>
</svg>
