<svg width="155" height="165" viewBox="0 0 155 165" fill="none" xmlns="http://www.w3.org/2000/svg">
<circle cx="77.5" cy="87.5" r="76.75" stroke="white" stroke-width="1.5"/>
<circle cx="77.5" cy="87.5" r="51.75" fill="white" stroke="white" stroke-width="1.5"/>
<path d="M80.9773 18.2727V27H79.9545L75.1989 20.1477H75.1136V27H74.0568V18.2727H75.0795L79.8523 25.142H79.9375V18.2727H80.9773Z" fill="white"/>
<path d="M77.5 0L83.9952 11.25H71.0048L77.5 0Z" fill="white"/>
<path d="M38.5305 97.1696C38.3172 97.5247 38.432 97.9854 38.7871 98.1988L44.573 101.675C44.928 101.889 45.3888 101.774 45.6021 101.419C45.8155 101.064 45.7006 100.603 45.3455 100.39L40.2025 97.2993L43.2928 92.1563C43.5061 91.8013 43.3912 91.3405 43.0362 91.1272C42.6811 90.9138 42.2203 91.0287 42.007 91.3837L38.5305 97.1696ZM115.645 77.7164L38.9919 96.8282L39.3548 98.2836L116.008 79.1718L115.645 77.7164Z" fill="black"/>
</svg>
