<svg width="155" height="165" viewBox="0 0 155 165" fill="none" xmlns="http://www.w3.org/2000/svg">
<circle cx="77.5" cy="87.5" r="76.75" stroke="white" stroke-width="1.5"/>
<circle cx="77.5" cy="87.5" r="51.75" fill="white" stroke="white" stroke-width="1.5"/>
<path d="M80.9773 18.2727V27H79.9545L75.1989 20.1477H75.1136V27H74.0568V18.2727H75.0795L79.8523 25.142H79.9375V18.2727H80.9773Z" fill="white"/>
<path d="M77.5 0L83.9952 11.25H71.0048L77.5 0Z" fill="white"/>
<path d="M38.3764 96.4881C38.1569 96.8394 38.2637 97.3021 38.615 97.5216L44.3393 101.099C44.6906 101.318 45.1533 101.211 45.3728 100.86C45.5923 100.509 45.4855 100.046 45.1342 99.8265L40.0459 96.647L43.2254 91.5587C43.4449 91.2074 43.3381 90.7447 42.9868 90.5252C42.6356 90.3057 42.1729 90.4125 41.9534 90.7638L38.3764 96.4881ZM115.819 78.3836L38.8437 96.1548L39.1811 97.6163L116.156 79.8452L115.819 78.3836Z" fill="black"/>
</svg>
