<svg width="155" height="165" viewBox="0 0 155 165" fill="none" xmlns="http://www.w3.org/2000/svg">
<circle cx="77.5" cy="87.5" r="76.75" stroke="white" stroke-width="1.5"/>
<circle cx="77.5" cy="87.5" r="51.75" fill="white" stroke="white" stroke-width="1.5"/>
<path d="M80.9773 18.2727V27H79.9545L75.1989 20.1477H75.1136V27H74.0568V18.2727H75.0795L79.8523 25.142H79.9375V18.2727H80.9773Z" fill="white"/>
<path d="M77.5 0L83.9952 11.25H71.0048L77.5 0Z" fill="white"/>
<path d="M38.2342 95.804C38.0086 96.1514 38.1074 96.6159 38.4547 96.8415L44.1158 100.518C44.4632 100.743 44.9277 100.645 45.1533 100.297C45.3788 99.9499 45.2801 99.4854 44.9327 99.2598L39.9007 95.992L43.1685 90.96C43.3941 90.6126 43.2954 90.1481 42.948 89.9225C42.6006 89.6969 42.1361 89.7956 41.9105 90.143L38.2342 95.804ZM115.981 79.0539L38.7073 95.4789L39.0192 96.9461L116.293 80.5211L115.981 79.0539Z" fill="black"/>
</svg>
