<svg width="155" height="165" viewBox="0 0 155 165" fill="none" xmlns="http://www.w3.org/2000/svg">
<circle cx="77.5" cy="87.5" r="76.75" stroke="white" stroke-width="1.5"/>
<circle cx="77.5" cy="87.5" r="51.75" fill="white" stroke="white" stroke-width="1.5"/>
<path d="M80.9773 18.2727V27H79.9545L75.1989 20.1477H75.1136V27H74.0568V18.2727H75.0795L79.8523 25.142H79.9375V18.2727H80.9773Z" fill="white"/>
<path d="M77.5 0L83.9952 11.25H71.0048L77.5 0Z" fill="white"/>
<path d="M38.104 95.1176C37.8724 95.461 37.963 95.9271 38.3064 96.1587L43.9024 99.9333C44.2458 100.165 44.7119 100.074 44.9436 99.7309C45.1752 99.3875 45.0846 98.9214 44.7412 98.6897L39.7669 95.3346L43.1221 90.3603C43.3537 90.0169 43.2631 89.5508 42.9197 89.3192C42.5763 89.0875 42.1102 89.1782 41.8786 89.5216L38.104 95.1176ZM116.131 79.7268L38.5827 94.8007L38.8689 96.2732L116.417 81.1993L116.131 79.7268Z" fill="black"/>
</svg>
