<svg width="155" height="165" viewBox="0 0 155 165" fill="none" xmlns="http://www.w3.org/2000/svg">
<circle cx="77.5" cy="87.5" r="76.75" stroke="white" stroke-width="1.5"/>
<circle cx="77.5" cy="87.5" r="51.75" fill="white" stroke="white" stroke-width="1.5"/>
<path d="M80.9773 18.2727V27H79.9545L75.1989 20.1477H75.1136V27H74.0568V18.2727H75.0795L79.8523 25.142H79.9375V18.2727H80.9773Z" fill="white"/>
<path d="M77.5 0L83.9952 11.25H71.0048L77.5 0Z" fill="white"/>
<path d="M95.5248 52.2535C95.39 51.8618 94.9631 51.6537 94.5715 51.7885L88.1892 53.9861C87.7976 54.121 87.5894 54.5478 87.7243 54.9394C87.8591 55.3311 88.2859 55.5392 88.6776 55.4044L94.3507 53.451L96.3041 59.1241C96.439 59.5157 96.8658 59.7239 97.2574 59.5891C97.6491 59.4542 97.8572 59.0274 97.7224 58.6357L95.5248 52.2535ZM60.8584 123.831L95.4898 52.8264L94.1416 52.1689L59.5103 123.174L60.8584 123.831Z" fill="black"/>
</svg>
