<svg width="155" height="165" viewBox="0 0 155 165" fill="none" xmlns="http://www.w3.org/2000/svg">
<circle cx="77.5" cy="87.5" r="76.75" stroke="white" stroke-width="1.5"/>
<circle cx="77.5" cy="87.5" r="51.75" fill="white" stroke="white" stroke-width="1.5"/>
<path d="M80.9773 18.2727V27H79.9545L75.1989 20.1477H75.1136V27H74.0568V18.2727H75.0795L79.8523 25.142H79.9375V18.2727H80.9773Z" fill="white"/>
<path d="M77.5 0L83.9952 11.25H71.0048L77.5 0Z" fill="white"/>
<path d="M37.9858 94.4289C37.7482 94.7682 37.8307 95.2359 38.17 95.4735L43.6992 99.3451C44.0385 99.5827 44.5062 99.5002 44.7438 99.1609C44.9814 98.8216 44.8989 98.354 44.5596 98.1164L39.6447 94.6749L43.0862 89.76C43.3237 89.4207 43.2413 88.953 42.902 88.7155C42.5627 88.4779 42.095 88.5603 41.8574 88.8996L37.9858 94.4289ZM116.27 80.4023L38.4699 94.1205L38.7304 95.5977L116.53 81.8795L116.27 80.4023Z" fill="black"/>
</svg>
