<svg width="155" height="165" viewBox="0 0 155 165" fill="none" xmlns="http://www.w3.org/2000/svg">
<circle cx="77.5" cy="87.5" r="76.75" stroke="white" stroke-width="1.5"/>
<circle cx="77.5" cy="87.5" r="51.75" fill="white" stroke="white" stroke-width="1.5"/>
<path d="M80.9773 18.2727V27H79.9545L75.1989 20.1477H75.1136V27H74.0568V18.2727H75.0795L79.8523 25.142H79.9375V18.2727H80.9773Z" fill="white"/>
<path d="M77.5 0L83.9952 11.25H71.0048L77.5 0Z" fill="white"/>
<path d="M37.8796 93.7383C37.6361 94.0734 37.7104 94.5425 38.0455 94.7859L43.5064 98.7535C43.8415 98.9969 44.3105 98.9227 44.554 98.5876C44.7975 98.2524 44.7232 97.7834 44.3881 97.5399L39.534 94.0132L43.0607 89.1591C43.3041 88.824 43.2299 88.355 42.8948 88.1115C42.5596 87.8681 42.0906 87.9424 41.8472 88.2775L37.8796 93.7383ZM116.396 81.0801L38.369 93.4384L38.6037 94.9199L116.631 82.5616L116.396 81.0801Z" fill="black"/>
</svg>
