<svg width="155" height="165" viewBox="0 0 155 165" fill="none" xmlns="http://www.w3.org/2000/svg">
<circle cx="77.5" cy="87.5" r="76.75" stroke="white" stroke-width="1.5"/>
<circle cx="77.5" cy="87.5" r="51.75" fill="white" stroke="white" stroke-width="1.5"/>
<path d="M80.9773 18.2727V27H79.9545L75.1989 20.1477H75.1136V27H74.0568V18.2727H75.0795L79.8523 25.142H79.9375V18.2727H80.9773Z" fill="white"/>
<path d="M77.5 0L83.9952 11.25H71.0048L77.5 0Z" fill="white"/>
<path d="M37.7855 93.046C37.5362 93.3768 37.6023 93.847 37.9331 94.0963L43.3239 98.1586C43.6547 98.4078 44.1249 98.3418 44.3742 98.011C44.6235 97.6801 44.5574 97.2099 44.2266 96.9606L39.4348 93.3497L43.0457 88.5579C43.295 88.2271 43.2289 87.7569 42.8981 87.5076C42.5673 87.2583 42.097 87.3244 41.8477 87.6552L37.7855 93.046ZM116.511 81.76L38.2801 92.7546L38.4888 94.24L116.72 83.2454L116.511 81.76Z" fill="black"/>
</svg>
