<svg width="155" height="165" viewBox="0 0 155 165" fill="none" xmlns="http://www.w3.org/2000/svg">
<circle cx="77.5" cy="87.5" r="76.75" stroke="white" stroke-width="1.5"/>
<circle cx="77.5" cy="87.5" r="51.75" fill="white" stroke="white" stroke-width="1.5"/>
<path d="M80.9773 18.2727V27H79.9545L75.1989 20.1477H75.1136V27H74.0568V18.2727H75.0795L79.8523 25.142H79.9375V18.2727H80.9773Z" fill="white"/>
<path d="M77.5 0L83.9952 11.25H71.0048L77.5 0Z" fill="white"/>
<path d="M37.7035 92.3521C37.4485 92.6785 37.5063 93.1498 37.8327 93.4049L43.1518 97.5606C43.4782 97.8156 43.9495 97.7577 44.2046 97.4313C44.4596 97.1049 44.4017 96.6336 44.0753 96.3785L39.3472 92.6846L43.0412 87.9565C43.2962 87.6301 43.2383 87.1588 42.9119 86.9038C42.5855 86.6487 42.1142 86.7066 41.8592 87.033L37.7035 92.3521ZM116.614 82.4418L38.2031 92.0694L38.3859 93.5583L116.797 83.9306L116.614 82.4418Z" fill="black"/>
</svg>
