<svg width="155" height="165" viewBox="0 0 155 165" fill="none" xmlns="http://www.w3.org/2000/svg">
<circle cx="77.5" cy="87.5" r="76.75" stroke="white" stroke-width="1.5"/>
<circle cx="77.5" cy="87.5" r="51.75" fill="white" stroke="white" stroke-width="1.5"/>
<path d="M80.9773 18.2727V27H79.9545L75.1989 20.1477H75.1136V27H74.0568V18.2727H75.0795L79.8523 25.142H79.9375V18.2727H80.9773Z" fill="white"/>
<path d="M77.5 0L83.9952 11.25H71.0048L77.5 0Z" fill="white"/>
<path d="M37.6336 91.6569C37.3729 91.9788 37.4225 92.4511 37.7444 92.7117L42.9902 96.9597C43.3121 97.2203 43.7844 97.1707 44.045 96.8488C44.3057 96.5269 44.2561 96.0546 43.9342 95.7939L39.2713 92.018L43.0472 87.3551C43.3079 87.0332 43.2582 86.561 42.9363 86.3003C42.6144 86.0396 42.1422 86.0893 41.8815 86.4112L37.6336 91.6569ZM116.705 83.1252L38.138 91.383L38.2948 92.8748L116.862 84.617L116.705 83.1252Z" fill="black"/>
</svg>
