<svg width="155" height="165" viewBox="0 0 155 165" fill="none" xmlns="http://www.w3.org/2000/svg">
<circle cx="77.5" cy="87.5" r="76.75" stroke="white" stroke-width="1.5"/>
<circle cx="77.5" cy="87.5" r="51.75" fill="white" stroke="white" stroke-width="1.5"/>
<path d="M80.9773 18.2727V27H79.9545L75.1989 20.1477H75.1136V27H74.0568V18.2727H75.0795L79.8523 25.142H79.9375V18.2727H80.9773Z" fill="white"/>
<path d="M77.5 0L83.9952 11.25H71.0048L77.5 0Z" fill="white"/>
<path d="M37.5758 90.9606C37.3096 91.2779 37.351 91.7509 37.6683 92.0172L42.8391 96.356C43.1564 96.6223 43.6294 96.5809 43.8957 96.2636C44.1619 95.9463 44.1206 95.4732 43.8033 95.2069L39.207 91.3502L43.0637 86.754C43.33 86.4366 43.2886 85.9636 42.9713 85.6973C42.654 85.4311 42.1809 85.4725 41.9146 85.7898L37.5758 90.9606ZM116.784 83.8102L38.085 90.6955L38.2157 92.1898L116.915 85.3045L116.784 83.8102Z" fill="black"/>
</svg>
