<svg width="155" height="165" viewBox="0 0 155 165" fill="none" xmlns="http://www.w3.org/2000/svg">
<circle cx="77.5" cy="87.5" r="76.75" stroke="white" stroke-width="1.5"/>
<circle cx="77.5" cy="87.5" r="51.75" fill="white" stroke="white" stroke-width="1.5"/>
<path d="M80.9773 18.2727V27H79.9545L75.1989 20.1477H75.1136V27H74.0568V18.2727H75.0795L79.8523 25.142H79.9375V18.2727H80.9773Z" fill="white"/>
<path d="M77.5 0L83.9952 11.25H71.0048L77.5 0Z" fill="white"/>
<path d="M37.5302 90.2633C37.2585 90.576 37.2916 91.0497 37.6042 91.3214L42.6985 95.7498C43.0111 96.0216 43.4848 95.9884 43.7566 95.6758C44.0283 95.3632 43.9952 94.8895 43.6826 94.6178L39.1544 90.6814L43.0907 86.1531C43.3625 85.8405 43.3293 85.3668 43.0167 85.0951C42.7041 84.8233 42.2304 84.8564 41.9586 85.1691L37.5302 90.2633ZM116.852 84.4965L38.044 90.0072L38.1486 91.5036L116.956 85.9928L116.852 84.4965Z" fill="black"/>
</svg>
