<svg width="155" height="165" viewBox="0 0 155 165" fill="none" xmlns="http://www.w3.org/2000/svg">
<circle cx="77.5" cy="87.5" r="76.75" stroke="white" stroke-width="1.5"/>
<circle cx="77.5" cy="87.5" r="51.75" fill="white" stroke="white" stroke-width="1.5"/>
<path d="M80.9773 18.2727V27H79.9545L75.1989 20.1477H75.1136V27H74.0568V18.2727H75.0795L79.8523 25.142H79.9375V18.2727H80.9773Z" fill="white"/>
<path d="M77.5 0L83.9952 11.25H71.0048L77.5 0Z" fill="white"/>
<path d="M37.4968 89.5654C37.2197 89.8733 37.2445 90.3475 37.5523 90.6246L42.5686 95.1413C42.8764 95.4184 43.3506 95.3936 43.6278 95.0858C43.9049 94.7779 43.8801 94.3037 43.5723 94.0266L39.1134 90.0118L43.1282 85.5529C43.4053 85.2451 43.3805 84.7709 43.0727 84.4937C42.7648 84.2165 42.2906 84.2414 42.0135 84.5492L37.4968 89.5654ZM116.907 85.1838L38.0149 89.3183L38.0934 90.8163L116.985 86.6817L116.907 85.1838Z" fill="black"/>
</svg>
