<svg width="155" height="165" viewBox="0 0 155 165" fill="none" xmlns="http://www.w3.org/2000/svg">
<circle cx="77.5" cy="87.5" r="76.75" stroke="white" stroke-width="1.5"/>
<circle cx="77.5" cy="87.5" r="51.75" fill="white" stroke="white" stroke-width="1.5"/>
<path d="M80.9773 18.2727V27H79.9545L75.1989 20.1477H75.1136V27H74.0568V18.2727H75.0795L79.8523 25.142H79.9375V18.2727H80.9773Z" fill="white"/>
<path d="M77.5 0L83.9952 11.25H71.0048L77.5 0Z" fill="white"/>
<path d="M37.4756 88.867C37.1931 89.17 37.2097 89.6446 37.5126 89.9271L42.4492 94.5305C42.7522 94.813 43.2268 94.7965 43.5093 94.4935C43.7918 94.1906 43.7752 93.716 43.4722 93.4335L39.0841 89.3415L43.1761 84.9534C43.4586 84.6505 43.442 84.1759 43.1391 83.8934C42.8362 83.6109 42.3616 83.6275 42.0791 83.9304L37.4756 88.867ZM116.95 85.8719L37.9979 88.629L38.0503 90.1281L117.002 87.371L116.95 85.8719Z" fill="black"/>
</svg>
