<svg width="155" height="165" viewBox="0 0 155 165" fill="none" xmlns="http://www.w3.org/2000/svg">
<circle cx="77.5" cy="87.5" r="76.75" stroke="white" stroke-width="1.5"/>
<circle cx="77.5" cy="87.5" r="51.75" fill="white" stroke="white" stroke-width="1.5"/>
<path d="M80.9773 18.2727V27H79.9545L75.1989 20.1477H75.1136V27H74.0568V18.2727H75.0795L79.8523 25.142H79.9375V18.2727H80.9773Z" fill="white"/>
<path d="M77.5 0L83.9952 11.25H71.0048L77.5 0Z" fill="white"/>
<path d="M37.4666 88.1684C37.1788 88.4664 37.1871 88.9412 37.4851 89.2289L42.3406 93.9178C42.6386 94.2056 43.1134 94.1973 43.4011 93.8993C43.6888 93.6014 43.6806 93.1266 43.3826 92.8388L39.0666 88.6709L43.2345 84.3548C43.5222 84.0569 43.514 83.5821 43.216 83.2943C42.918 83.0066 42.4432 83.0149 42.1555 83.3128L37.4666 88.1684ZM116.981 86.5608L37.993 87.9395L38.0192 89.4393L117.007 88.0605L116.981 86.5608Z" fill="black"/>
</svg>
