<svg width="155" height="165" viewBox="0 0 155 165" fill="none" xmlns="http://www.w3.org/2000/svg">
<circle cx="77.5" cy="87.5" r="76.75" stroke="white" stroke-width="1.5"/>
<circle cx="77.5" cy="87.5" r="51.75" fill="white" stroke="white" stroke-width="1.5"/>
<path d="M80.9773 18.2727V27H79.9545L75.1989 20.1477H75.1136V27H74.0568V18.2727H75.0795L79.8523 25.142H79.9375V18.2727H80.9773Z" fill="white"/>
<path d="M77.5 0L83.9952 11.25H71.0048L77.5 0Z" fill="white"/>
<path d="M96.1459 52.5735C96.0179 52.1796 95.5948 51.964 95.2009 52.092L88.7812 54.1778C88.3873 54.3058 88.1717 54.729 88.2997 55.1229C88.4277 55.5168 88.8508 55.7324 89.2448 55.6044L94.9511 53.7503L96.8052 59.4567C96.9332 59.8506 97.3563 60.0662 97.7503 59.9382C98.1442 59.8102 98.3598 59.3871 98.2318 58.9931L96.1459 52.5735ZM60.2356 123.535L96.1009 53.1458L94.7644 52.4648L58.8991 122.854L60.2356 123.535Z" fill="black"/>
</svg>
