<svg width="155" height="165" viewBox="0 0 155 165" fill="none" xmlns="http://www.w3.org/2000/svg">
<circle cx="77.5" cy="87.5" r="76.75" stroke="white" stroke-width="1.5"/>
<circle cx="77.5" cy="87.5" r="51.75" fill="white" stroke="white" stroke-width="1.5"/>
<path d="M80.9773 18.2727V27H79.9545L75.1989 20.1477H75.1136V27H74.0568V18.2727H75.0795L79.8523 25.142H79.9375V18.2727H80.9773Z" fill="white"/>
<path d="M77.5 0L83.9952 11.25H71.0048L77.5 0Z" fill="white"/>
<path d="M37.4697 87.4697C37.1768 87.7626 37.1768 88.2375 37.4697 88.5303L42.2427 93.3033C42.5356 93.5962 43.0105 93.5962 43.3034 93.3033C43.5962 93.0104 43.5962 92.5355 43.3034 92.2427L39.0607 88L43.3034 83.7574C43.5962 83.4645 43.5962 82.9896 43.3034 82.6967C43.0105 82.4038 42.5356 82.4038 42.2427 82.6967L37.4697 87.4697ZM117 87.25L38.0001 87.25V88.75L117 88.75V87.25Z" fill="black"/>
</svg>
