<svg width="155" height="165" viewBox="0 0 155 165" fill="none" xmlns="http://www.w3.org/2000/svg">
<circle cx="77.5" cy="87.5" r="76.75" stroke="white" stroke-width="1.5"/>
<circle cx="77.5" cy="87.5" r="51.75" fill="white" stroke="white" stroke-width="1.5"/>
<path d="M80.9773 18.2727V27H79.9545L75.1989 20.1477H75.1136V27H74.0568V18.2727H75.0795L79.8523 25.142H79.9375V18.2727H80.9773Z" fill="white"/>
<path d="M77.5 0L83.9952 11.25H71.0048L77.5 0Z" fill="white"/>
<path d="M37.4851 86.7711C37.1871 87.0589 37.1788 87.5337 37.4666 87.8316L42.1555 92.6872C42.4432 92.9851 42.918 92.9934 43.216 92.7057C43.514 92.418 43.5222 91.9432 43.2345 91.6452L39.0666 87.3292L43.3826 83.1612C43.6806 82.8735 43.6888 82.3987 43.4011 82.1007C43.1134 81.8027 42.6386 81.7945 42.3406 82.0822L37.4851 86.7711ZM117.007 87.9395L38.0192 86.5608L37.993 88.0605L116.981 89.4393L117.007 87.9395Z" fill="black"/>
</svg>
