<svg width="155" height="165" viewBox="0 0 155 165" fill="none" xmlns="http://www.w3.org/2000/svg">
<circle cx="77.5" cy="87.5" r="76.75" stroke="white" stroke-width="1.5"/>
<circle cx="77.5" cy="87.5" r="51.75" fill="white" stroke="white" stroke-width="1.5"/>
<path d="M80.9773 18.2727V27H79.9545L75.1989 20.1477H75.1136V27H74.0568V18.2727H75.0795L79.8523 25.142H79.9375V18.2727H80.9773Z" fill="white"/>
<path d="M77.5 0L83.9952 11.25H71.0048L77.5 0Z" fill="white"/>
<path d="M37.5126 86.073C37.2097 86.3555 37.1931 86.83 37.4756 87.133L42.0791 92.0696C42.3616 92.3726 42.8362 92.3891 43.1391 92.1066C43.442 91.8241 43.4586 91.3496 43.1761 91.0466L39.0841 86.6585L43.4722 82.5665C43.7752 82.284 43.7918 81.8094 43.5093 81.5065C43.2268 81.2036 42.7522 81.187 42.4492 81.4695L37.5126 86.073ZM117.002 88.629L38.0503 85.8719L37.9979 87.371L116.95 90.1281L117.002 88.629Z" fill="black"/>
</svg>
