<svg width="155" height="165" viewBox="0 0 155 165" fill="none" xmlns="http://www.w3.org/2000/svg">
<circle cx="77.5" cy="87.5" r="76.75" stroke="white" stroke-width="1.5"/>
<circle cx="77.5" cy="87.5" r="51.75" fill="white" stroke="white" stroke-width="1.5"/>
<path d="M80.9773 18.2727V27H79.9545L75.1989 20.1477H75.1136V27H74.0568V18.2727H75.0795L79.8523 25.142H79.9375V18.2727H80.9773Z" fill="white"/>
<path d="M77.5 0L83.9952 11.25H71.0048L77.5 0Z" fill="white"/>
<path d="M37.5523 85.3754C37.2445 85.6526 37.2197 86.1268 37.4968 86.4346L42.0135 91.4508C42.2906 91.7586 42.7648 91.7835 43.0727 91.5063C43.3805 91.2292 43.4053 90.755 43.1282 90.4471L39.1134 85.9883L43.5723 81.9735C43.8801 81.6963 43.9049 81.2221 43.6278 80.9143C43.3506 80.6065 42.8764 80.5816 42.5686 80.8588L37.5523 85.3754ZM116.985 89.3183L38.0934 85.1838L38.0149 86.6817L116.907 90.8163L116.985 89.3183Z" fill="black"/>
</svg>
