<svg width="155" height="165" viewBox="0 0 155 165" fill="none" xmlns="http://www.w3.org/2000/svg">
<circle cx="77.5" cy="87.5" r="76.75" stroke="white" stroke-width="1.5"/>
<circle cx="77.5" cy="87.5" r="51.75" fill="white" stroke="white" stroke-width="1.5"/>
<path d="M80.9773 18.2727V27H79.9545L75.1989 20.1477H75.1136V27H74.0568V18.2727H75.0795L79.8523 25.142H79.9375V18.2727H80.9773Z" fill="white"/>
<path d="M77.5 0L83.9952 11.25H71.0048L77.5 0Z" fill="white"/>
<path d="M37.6042 84.6786C37.2916 84.9504 37.2585 85.4241 37.5302 85.7367L41.9586 90.831C42.2304 91.1436 42.7041 91.1767 43.0167 90.905C43.3293 90.6332 43.3625 90.1595 43.0907 89.8469L39.1544 85.3186L43.6826 81.3823C43.9952 81.1105 44.0283 80.6368 43.7566 80.3242C43.4848 80.0116 43.0111 79.9785 42.6985 80.2502L37.6042 84.6786ZM116.956 90.0072L38.1486 84.4965L38.044 85.9928L116.852 91.5036L116.956 90.0072Z" fill="black"/>
</svg>
