<svg width="155" height="165" viewBox="0 0 155 165" fill="none" xmlns="http://www.w3.org/2000/svg">
<circle cx="77.5" cy="87.5" r="76.75" stroke="white" stroke-width="1.5"/>
<circle cx="77.5" cy="87.5" r="51.75" fill="white" stroke="white" stroke-width="1.5"/>
<path d="M80.9773 18.2727V27H79.9545L75.1989 20.1477H75.1136V27H74.0568V18.2727H75.0795L79.8523 25.142H79.9375V18.2727H80.9773Z" fill="white"/>
<path d="M77.5 0L83.9952 11.25H71.0048L77.5 0Z" fill="white"/>
<path d="M37.6683 83.9828C37.351 84.2491 37.3096 84.7222 37.5758 85.0395L41.9146 90.2103C42.1809 90.5276 42.654 90.569 42.9713 90.3027C43.2886 90.0365 43.33 89.5634 43.0637 89.2461L39.207 84.6498L43.8033 80.7931C44.1206 80.5268 44.1619 80.0538 43.8957 79.7365C43.6294 79.4192 43.1564 79.3778 42.8391 79.644L37.6683 83.9828ZM116.915 90.6955L38.2157 83.8102L38.085 85.3045L116.784 92.1898L116.915 90.6955Z" fill="black"/>
</svg>
