<svg width="155" height="165" viewBox="0 0 155 165" fill="none" xmlns="http://www.w3.org/2000/svg">
<circle cx="77.5" cy="87.5" r="76.75" stroke="white" stroke-width="1.5"/>
<circle cx="77.5" cy="87.5" r="51.75" fill="white" stroke="white" stroke-width="1.5"/>
<path d="M80.9773 18.2727V27H79.9545L75.1989 20.1477H75.1136V27H74.0568V18.2727H75.0795L79.8523 25.142H79.9375V18.2727H80.9773Z" fill="white"/>
<path d="M77.5 0L83.9952 11.25H71.0048L77.5 0Z" fill="white"/>
<path d="M37.7444 83.2883C37.4225 83.549 37.3729 84.0212 37.6336 84.3431L41.8815 89.5889C42.1422 89.9108 42.6144 89.9604 42.9363 89.6997C43.2582 89.4391 43.3079 88.9668 43.0472 88.6449L39.2713 83.982L43.9342 80.2061C44.2561 79.9454 44.3057 79.4732 44.045 79.1512C43.7844 78.8293 43.3121 78.7797 42.9902 79.0404L37.7444 83.2883ZM116.862 91.383L38.2948 83.1253L38.138 84.617L116.705 92.8748L116.862 91.383Z" fill="black"/>
</svg>
