<svg width="155" height="165" viewBox="0 0 155 165" fill="none" xmlns="http://www.w3.org/2000/svg">
<circle cx="77.5" cy="87.5" r="76.75" stroke="white" stroke-width="1.5"/>
<circle cx="77.5" cy="87.5" r="51.75" fill="white" stroke="white" stroke-width="1.5"/>
<path d="M80.9773 18.2727V27H79.9545L75.1989 20.1477H75.1136V27H74.0568V18.2727H75.0795L79.8523 25.142H79.9375V18.2727H80.9773Z" fill="white"/>
<path d="M77.5 0L83.9952 11.25H71.0048L77.5 0Z" fill="white"/>
<path d="M37.8327 82.5952C37.5063 82.8502 37.4485 83.3215 37.7035 83.6479L41.8592 88.967C42.1142 89.2934 42.5855 89.3513 42.9119 89.0963C43.2383 88.8413 43.2962 88.3699 43.0412 88.0435L39.3472 83.3154L44.0753 79.6215C44.4017 79.3665 44.4596 78.8951 44.2046 78.5687C43.9495 78.2423 43.4782 78.1844 43.1518 78.4395L37.8327 82.5952ZM116.797 92.0695L38.3859 82.4418L38.2031 83.9306L116.614 93.5583L116.797 92.0695Z" fill="black"/>
</svg>
