<svg width="155" height="165" viewBox="0 0 155 165" fill="none" xmlns="http://www.w3.org/2000/svg">
<circle cx="77.5" cy="87.5" r="76.75" stroke="white" stroke-width="1.5"/>
<circle cx="77.5" cy="87.5" r="51.75" fill="white" stroke="white" stroke-width="1.5"/>
<path d="M80.9773 18.2727V27H79.9545L75.1989 20.1477H75.1136V27H74.0568V18.2727H75.0795L79.8523 25.142H79.9375V18.2727H80.9773Z" fill="white"/>
<path d="M77.5 0L83.9952 11.25H71.0048L77.5 0Z" fill="white"/>
<path d="M37.9331 81.9037C37.6023 82.153 37.5362 82.6232 37.7855 82.954L41.8477 88.3448C42.097 88.6756 42.5673 88.7417 42.8981 88.4925C43.2289 88.2432 43.295 87.7729 43.0457 87.4421L39.4348 82.6503L44.2266 79.0394C44.5574 78.7901 44.6235 78.3199 44.3742 77.9891C44.1249 77.6583 43.6547 77.5922 43.3239 77.8415L37.9331 81.9037ZM116.72 92.7547L38.4888 81.76L38.2801 83.2454L116.511 94.2401L116.72 92.7547Z" fill="black"/>
</svg>
