<svg width="155" height="165" viewBox="0 0 155 165" fill="none" xmlns="http://www.w3.org/2000/svg">
<circle cx="77.5" cy="87.5" r="76.75" stroke="white" stroke-width="1.5"/>
<circle cx="77.5" cy="87.5" r="51.75" fill="white" stroke="white" stroke-width="1.5"/>
<path d="M80.9773 18.2727V27H79.9545L75.1989 20.1477H75.1136V27H74.0568V18.2727H75.0795L79.8523 25.142H79.9375V18.2727H80.9773Z" fill="white"/>
<path d="M77.5 0L83.9952 11.25H71.0048L77.5 0Z" fill="white"/>
<path d="M38.0455 81.2141C37.7104 81.4576 37.6361 81.9266 37.8796 82.2617L41.8472 87.7226C42.0906 88.0577 42.5596 88.132 42.8948 87.8885C43.2299 87.645 43.3041 87.176 43.0607 86.8409L39.534 81.9868L44.3881 78.4601C44.7232 78.2166 44.7975 77.7476 44.554 77.4125C44.3105 77.0774 43.8415 77.0031 43.5064 77.2465L38.0455 81.2141ZM116.631 93.4384L38.6037 81.0801L38.369 82.5616L116.396 94.92L116.631 93.4384Z" fill="black"/>
</svg>
