<svg width="155" height="165" viewBox="0 0 155 165" fill="none" xmlns="http://www.w3.org/2000/svg">
<circle cx="77.5" cy="87.5" r="76.75" stroke="white" stroke-width="1.5"/>
<circle cx="77.5" cy="87.5" r="51.75" fill="white" stroke="white" stroke-width="1.5"/>
<path d="M80.9773 18.2727V27H79.9545L75.1989 20.1477H75.1136V27H74.0568V18.2727H75.0795L79.8523 25.142H79.9375V18.2727H80.9773Z" fill="white"/>
<path d="M77.5 0L83.9952 11.25H71.0048L77.5 0Z" fill="white"/>
<path d="M96.7614 52.9043C96.6403 52.5082 96.221 52.2853 95.8249 52.4064L89.3698 54.3799C88.9737 54.501 88.7507 54.9203 88.8718 55.3164C88.993 55.7125 89.4122 55.9354 89.8084 55.8143L95.5462 54.0601L97.3004 59.7979C97.4215 60.194 97.8408 60.417 98.2369 60.2959C98.633 60.1748 98.856 59.7555 98.7349 59.3594L96.7614 52.9043ZM59.6181 123.229L96.7063 53.4757L95.3819 52.7715L58.2937 122.524L59.6181 123.229Z" fill="black"/>
</svg>
