<svg width="155" height="165" viewBox="0 0 155 165" fill="none" xmlns="http://www.w3.org/2000/svg">
<circle cx="77.5" cy="87.5" r="76.75" stroke="white" stroke-width="1.5"/>
<circle cx="77.5" cy="87.5" r="51.75" fill="white" stroke="white" stroke-width="1.5"/>
<path d="M80.9773 18.2727V27H79.9545L75.1989 20.1477H75.1136V27H74.0568V18.2727H75.0795L79.8523 25.142H79.9375V18.2727H80.9773Z" fill="white"/>
<path d="M77.5 0L83.9952 11.25H71.0048L77.5 0Z" fill="white"/>
<path d="M38.17 80.5266C37.8307 80.7641 37.7482 81.2318 37.9858 81.5711L41.8574 87.1004C42.095 87.4397 42.5627 87.5221 42.902 87.2846C43.2413 87.047 43.3237 86.5793 43.0861 86.24L39.6447 81.3251L44.5596 77.8836C44.8989 77.6461 44.9814 77.1784 44.7438 76.8391C44.5062 76.4998 44.0385 76.4173 43.6992 76.6549L38.17 80.5266ZM116.53 94.1205L38.7304 80.4023L38.4699 81.8795L116.27 95.5977L116.53 94.1205Z" fill="black"/>
</svg>
