<svg width="155" height="165" viewBox="0 0 155 165" fill="none" xmlns="http://www.w3.org/2000/svg">
<circle cx="77.5" cy="87.5" r="76.75" stroke="white" stroke-width="1.5"/>
<circle cx="77.5" cy="87.5" r="51.75" fill="white" stroke="white" stroke-width="1.5"/>
<path d="M80.9773 18.2727V27H79.9545L75.1989 20.1477H75.1136V27H74.0568V18.2727H75.0795L79.8523 25.142H79.9375V18.2727H80.9773Z" fill="white"/>
<path d="M77.5 0L83.9952 11.25H71.0048L77.5 0Z" fill="white"/>
<path d="M38.3064 79.8413C37.963 80.0729 37.8724 80.5391 38.104 80.8825L41.8786 86.4785C42.1102 86.8219 42.5763 86.9125 42.9197 86.6808C43.2631 86.4492 43.3537 85.9831 43.1221 85.6397L39.7669 80.6654L44.7412 77.3103C45.0846 77.0787 45.1752 76.6125 44.9436 76.2691C44.7119 75.9257 44.2458 75.8351 43.9024 76.0667L38.3064 79.8413ZM116.417 94.8008L38.8689 79.7268L38.5827 81.1993L116.131 96.2732L116.417 94.8008Z" fill="black"/>
</svg>
