<svg width="155" height="165" viewBox="0 0 155 165" fill="none" xmlns="http://www.w3.org/2000/svg">
<circle cx="77.5" cy="87.5" r="76.75" stroke="white" stroke-width="1.5"/>
<circle cx="77.5" cy="87.5" r="51.75" fill="white" stroke="white" stroke-width="1.5"/>
<path d="M80.9773 18.2727V27H79.9545L75.1989 20.1477H75.1136V27H74.0568V18.2727H75.0795L79.8523 25.142H79.9375V18.2727H80.9773Z" fill="white"/>
<path d="M77.5 0L83.9952 11.25H71.0048L77.5 0Z" fill="white"/>
<path d="M38.4547 79.1585C38.1074 79.3841 38.0086 79.8486 38.2342 80.196L41.9105 85.857C42.1361 86.2044 42.6006 86.3031 42.948 86.0775C43.2954 85.8519 43.3941 85.3874 43.1685 85.0401L39.9007 80.008L44.9327 76.7402C45.2801 76.5146 45.3788 76.0501 45.1533 75.7027C44.9277 75.3553 44.4632 75.2566 44.1158 75.4822L38.4547 79.1585ZM116.293 95.4789L39.0192 79.0539L38.7073 80.5211L115.981 96.9461L116.293 95.4789Z" fill="black"/>
</svg>
