<svg width="155" height="165" viewBox="0 0 155 165" fill="none" xmlns="http://www.w3.org/2000/svg">
<circle cx="77.5" cy="87.5" r="76.75" stroke="white" stroke-width="1.5"/>
<circle cx="77.5" cy="87.5" r="51.75" fill="white" stroke="white" stroke-width="1.5"/>
<path d="M80.9773 18.2727V27H79.9545L75.1989 20.1477H75.1136V27H74.0568V18.2727H75.0795L79.8523 25.142H79.9375V18.2727H80.9773Z" fill="white"/>
<path d="M77.5 0L83.9952 11.25H71.0048L77.5 0Z" fill="white"/>
<path d="M38.615 78.4784C38.2637 78.6979 38.1569 79.1606 38.3764 79.5119L41.9534 85.2362C42.1729 85.5875 42.6356 85.6943 42.9868 85.4748C43.3381 85.2553 43.4449 84.7926 43.2254 84.4413L40.0459 79.3531L45.1342 76.1735C45.4855 75.954 45.5923 75.4913 45.3728 75.1401C45.1533 74.7888 44.6906 74.682 44.3393 74.9015L38.615 78.4784ZM116.156 96.1548L39.1811 78.3837L38.8437 79.8452L115.819 97.6164L116.156 96.1548Z" fill="black"/>
</svg>
