<svg width="155" height="165" viewBox="0 0 155 165" fill="none" xmlns="http://www.w3.org/2000/svg">
<circle cx="77.5" cy="87.5" r="76.75" stroke="white" stroke-width="1.5"/>
<circle cx="77.5" cy="87.5" r="51.75" fill="white" stroke="white" stroke-width="1.5"/>
<path d="M80.9773 18.2727V27H79.9545L75.1989 20.1477H75.1136V27H74.0568V18.2727H75.0795L79.8523 25.142H79.9375V18.2727H80.9773Z" fill="white"/>
<path d="M77.5 0L83.9952 11.25H71.0048L77.5 0Z" fill="white"/>
<path d="M38.7871 77.8012C38.432 78.0146 38.3172 78.4753 38.5305 78.8304L42.007 84.6163C42.2203 84.9713 42.6811 85.0862 43.0362 84.8729C43.3912 84.6595 43.5061 84.1988 43.2928 83.8437L40.2025 78.7007L45.3455 75.6105C45.7006 75.3971 45.8155 74.9364 45.6021 74.5813C45.3888 74.2263 44.928 74.1114 44.573 74.3247L38.7871 77.8012ZM116.008 96.8282L39.3548 77.7164L38.9919 79.1718L115.645 98.2837L116.008 96.8282Z" fill="black"/>
</svg>
