<svg width="155" height="165" viewBox="0 0 155 165" fill="none" xmlns="http://www.w3.org/2000/svg">
<circle cx="77.5" cy="87.5" r="76.75" stroke="white" stroke-width="1.5"/>
<circle cx="77.5" cy="87.5" r="51.75" fill="white" stroke="white" stroke-width="1.5"/>
<path d="M80.9773 18.2727V27H79.9545L75.1989 20.1477H75.1136V27H74.0568V18.2727H75.0795L79.8523 25.142H79.9375V18.2727H80.9773Z" fill="white"/>
<path d="M77.5 0L83.9952 11.25H71.0048L77.5 0Z" fill="white"/>
<path d="M38.971 77.1272C38.6123 77.3343 38.4894 77.793 38.6965 78.1517L42.0715 83.9973C42.2786 84.3561 42.7373 84.479 43.096 84.2719C43.4547 84.0648 43.5776 83.6061 43.3705 83.2473L40.3705 78.0512L45.5667 75.0512C45.9254 74.8441 46.0483 74.3854 45.8412 74.0267C45.6341 73.668 45.1754 73.545 44.8167 73.7522L38.971 77.1272ZM115.848 97.4989L39.5401 77.0522L39.1519 78.5011L115.46 98.9478L115.848 97.4989Z" fill="black"/>
</svg>
