<svg width="155" height="165" viewBox="0 0 155 165" fill="none" xmlns="http://www.w3.org/2000/svg">
<circle cx="77.5" cy="87.5" r="76.75" stroke="white" stroke-width="1.5"/>
<circle cx="77.5" cy="87.5" r="51.75" fill="white" stroke="white" stroke-width="1.5"/>
<path d="M80.9773 18.2727V27H79.9545L75.1989 20.1477H75.1136V27H74.0568V18.2727H75.0795L79.8523 25.142H79.9375V18.2727H80.9773Z" fill="white"/>
<path d="M77.5 0L83.9952 11.25H71.0048L77.5 0Z" fill="white"/>
<path d="M39.1666 76.4564C38.8043 76.6572 38.6734 77.1137 38.8743 77.476L42.1467 83.3796C42.3475 83.7419 42.804 83.8728 43.1663 83.672C43.5286 83.4712 43.6595 83.0147 43.4586 82.6524L40.5498 77.4047L45.7975 74.4958C46.1598 74.295 46.2907 73.8386 46.0899 73.4763C45.8891 73.114 45.4326 72.9831 45.0703 73.1839L39.1666 76.4564ZM115.677 98.1667L39.7369 76.3914L39.3235 77.8333L115.263 99.6086L115.677 98.1667Z" fill="black"/>
</svg>
