<svg width="155" height="165" viewBox="0 0 155 165" fill="none" xmlns="http://www.w3.org/2000/svg">
<circle cx="77.5" cy="87.5" r="76.75" stroke="white" stroke-width="1.5"/>
<circle cx="77.5" cy="87.5" r="51.75" fill="white" stroke="white" stroke-width="1.5"/>
<path d="M80.9773 18.2727V27H79.9545L75.1989 20.1477H75.1136V27H74.0568V18.2727H75.0795L79.8523 25.142H79.9375V18.2727H80.9773Z" fill="white"/>
<path d="M77.5 0L83.9952 11.25H71.0048L77.5 0Z" fill="white"/>
<path d="M39.3739 75.7891C39.0082 75.9836 38.8693 76.4377 39.0638 76.8034L42.2327 82.7633C42.4272 83.1291 42.8813 83.2679 43.2471 83.0734C43.6128 82.879 43.7516 82.4249 43.5572 82.0591L40.7403 76.7614L46.038 73.9446C46.4037 73.7502 46.5426 73.296 46.3481 72.9303C46.1537 72.5646 45.6995 72.4257 45.3338 72.6202L39.3739 75.7891ZM115.493 98.8315L39.9453 75.7341L39.5067 77.1686L115.055 100.266L115.493 98.8315Z" fill="black"/>
</svg>
