<svg width="155" height="165" viewBox="0 0 155 165" fill="none" xmlns="http://www.w3.org/2000/svg">
<circle cx="77.5" cy="87.5" r="76.75" stroke="white" stroke-width="1.5"/>
<circle cx="77.5" cy="87.5" r="51.75" fill="white" stroke="white" stroke-width="1.5"/>
<path d="M80.9773 18.2727V27H79.9545L75.1989 20.1477H75.1136V27H74.0568V18.2727H75.0795L79.8523 25.142H79.9375V18.2727H80.9773Z" fill="white"/>
<path d="M77.5 0L83.9952 11.25H71.0048L77.5 0Z" fill="white"/>
<path d="M39.5928 75.1256C39.2238 75.3136 39.077 75.7653 39.2651 76.1343L42.3295 82.1486C42.5176 82.5177 42.9692 82.6644 43.3383 82.4764C43.7073 82.2884 43.8541 81.8367 43.666 81.4677L40.9421 76.1216L46.2881 73.3977C46.6572 73.2096 46.8039 72.758 46.6159 72.3889C46.4278 72.0199 45.9762 71.8731 45.6071 72.0612L39.5928 75.1256ZM115.299 99.4929L40.1651 75.0806L39.7016 76.5071L114.835 100.919L115.299 99.4929Z" fill="black"/>
</svg>
