<svg width="155" height="165" viewBox="0 0 155 165" fill="none" xmlns="http://www.w3.org/2000/svg">
<circle cx="77.5" cy="87.5" r="76.75" stroke="white" stroke-width="1.5"/>
<circle cx="77.5" cy="87.5" r="51.75" fill="white" stroke="white" stroke-width="1.5"/>
<path d="M80.9773 18.2727V27H79.9545L75.1989 20.1477H75.1136V27H74.0568V18.2727H75.0795L79.8523 25.142H79.9375V18.2727H80.9773Z" fill="white"/>
<path d="M77.5 0L83.9952 11.25H71.0048L77.5 0Z" fill="white"/>
<path d="M39.8233 74.466C39.451 74.6476 39.2964 75.0966 39.478 75.4689L42.437 81.5357C42.6186 81.908 43.0676 82.0626 43.4399 81.881C43.8121 81.6995 43.9667 81.2505 43.7852 80.8782L41.1549 75.4854L46.5477 72.8552C46.92 72.6736 47.0746 72.2246 46.893 71.8523C46.7114 71.48 46.2624 71.3254 45.8902 71.507L39.8233 74.466ZM115.092 100.151L40.3962 74.4309L39.9079 75.8492L114.604 101.569L115.092 100.151Z" fill="black"/>
</svg>
