<svg width="155" height="165" viewBox="0 0 155 165" fill="none" xmlns="http://www.w3.org/2000/svg">
<circle cx="77.5" cy="87.5" r="76.75" stroke="white" stroke-width="1.5"/>
<circle cx="77.5" cy="87.5" r="51.75" fill="white" stroke="white" stroke-width="1.5"/>
<path d="M80.9773 18.2727V27H79.9545L75.1989 20.1477H75.1136V27H74.0568V18.2727H75.0795L79.8523 25.142H79.9375V18.2727H80.9773Z" fill="white"/>
<path d="M77.5 0L83.9952 11.25H71.0048L77.5 0Z" fill="white"/>
<path d="M97.3709 53.2458C97.2568 52.8477 96.8414 52.6174 96.4433 52.7316L89.9547 54.5922C89.5566 54.7063 89.3263 55.1217 89.4405 55.5198C89.5547 55.918 89.97 56.1482 90.3682 56.034L96.1358 54.3802L97.7896 60.1478C97.9038 60.546 98.3191 60.7762 98.7173 60.662C99.1154 60.5478 99.3457 60.1325 99.2315 59.7343L97.3709 53.2458ZM59.006 122.911L97.3059 53.8162L95.994 53.0889L57.6941 122.184L59.006 122.911Z" fill="black"/>
</svg>
