<svg width="155" height="165" viewBox="0 0 155 165" fill="none" xmlns="http://www.w3.org/2000/svg">
<circle cx="77.5" cy="87.5" r="76.75" stroke="white" stroke-width="1.5"/>
<circle cx="77.5" cy="87.5" r="51.75" fill="white" stroke="white" stroke-width="1.5"/>
<path d="M80.9773 18.2727V27H79.9545L75.1989 20.1477H75.1136V27H74.0568V18.2727H75.0795L79.8523 25.142H79.9375V18.2727H80.9773Z" fill="white"/>
<path d="M77.5 0L83.9952 11.25H71.0048L77.5 0Z" fill="white"/>
<path d="M40.0652 73.8105C39.6898 73.9856 39.5274 74.4318 39.7025 74.8072L42.5551 80.9248C42.7302 81.3002 43.1764 81.4626 43.5518 81.2875C43.9272 81.1125 44.0897 80.6662 43.9146 80.2908L41.3789 74.853L46.8167 72.3173C47.1921 72.1422 47.3546 71.696 47.1795 71.3206C47.0044 70.9452 46.5582 70.7828 46.1828 70.9578L40.0652 73.8105ZM114.874 100.805L40.6387 73.7855L40.1257 75.195L114.361 102.215L114.874 100.805Z" fill="black"/>
</svg>
