<svg width="155" height="165" viewBox="0 0 155 165" fill="none" xmlns="http://www.w3.org/2000/svg">
<circle cx="77.5" cy="87.5" r="76.75" stroke="white" stroke-width="1.5"/>
<circle cx="77.5" cy="87.5" r="51.75" fill="white" stroke="white" stroke-width="1.5"/>
<path d="M80.9773 18.2727V27H79.9545L75.1989 20.1477H75.1136V27H74.0568V18.2727H75.0795L79.8523 25.142H79.9375V18.2727H80.9773Z" fill="white"/>
<path d="M77.5 0L83.9952 11.25H71.0048L77.5 0Z" fill="white"/>
<path d="M40.3186 73.1593C39.9402 73.3278 39.77 73.7711 39.9385 74.1495L42.6839 80.316C42.8524 80.6944 43.2957 80.8646 43.6741 80.6961C44.0525 80.5276 44.2227 80.0843 44.0543 79.7059L41.6138 74.2246L47.0951 71.7842C47.4735 71.6157 47.6437 71.1724 47.4752 70.794C47.3067 70.4156 46.8634 70.2454 46.485 70.4139L40.3186 73.1593ZM114.645 101.455L40.8924 73.1443L40.3548 74.5447L114.108 102.856L114.645 101.455Z" fill="black"/>
</svg>
