<svg width="155" height="165" viewBox="0 0 155 165" fill="none" xmlns="http://www.w3.org/2000/svg">
<circle cx="77.5" cy="87.5" r="76.75" stroke="white" stroke-width="1.5"/>
<circle cx="77.5" cy="87.5" r="51.75" fill="white" stroke="white" stroke-width="1.5"/>
<path d="M80.9773 18.2727V27H79.9545L75.1989 20.1477H75.1136V27H74.0568V18.2727H75.0795L79.8523 25.142H79.9375V18.2727H80.9773Z" fill="white"/>
<path d="M77.5 0L83.9952 11.25H71.0048L77.5 0Z" fill="white"/>
<path d="M40.5832 72.5127C40.202 72.6745 40.0241 73.1148 40.1859 73.4961L42.8233 79.7095C42.9852 80.0908 43.4255 80.2687 43.8068 80.1068C44.1881 79.945 44.3659 79.5047 44.2041 79.1234L41.8597 73.6004L47.3827 71.256C47.764 71.0942 47.9419 70.6539 47.7801 70.2726C47.6182 69.8913 47.1779 69.7134 46.7966 69.8752L40.5832 72.5127ZM114.405 102.102L41.1572 72.5077L40.5953 73.8984L113.843 103.492L114.405 102.102Z" fill="black"/>
</svg>
