<svg width="155" height="165" viewBox="0 0 155 165" fill="none" xmlns="http://www.w3.org/2000/svg">
<circle cx="77.5" cy="87.5" r="76.75" stroke="white" stroke-width="1.5"/>
<circle cx="77.5" cy="87.5" r="51.75" fill="white" stroke="white" stroke-width="1.5"/>
<path d="M80.9773 18.2727V27H79.9545L75.1989 20.1477H75.1136V27H74.0568V18.2727H75.0795L79.8523 25.142H79.9375V18.2727H80.9773Z" fill="white"/>
<path d="M77.5 0L83.9952 11.25H71.0048L77.5 0Z" fill="white"/>
<path d="M40.8592 71.8708C40.4751 72.0259 40.2896 72.463 40.4447 72.8471L42.9733 79.1056C43.1285 79.4896 43.5656 79.6752 43.9497 79.52C44.3337 79.3649 44.5193 78.9277 44.3641 78.5437L42.1164 72.9806L47.6796 70.7329C48.0636 70.5778 48.2492 70.1406 48.094 69.7566C47.9388 69.3725 47.5017 69.187 47.1176 69.3422L40.8592 71.8708ZM114.153 102.744L41.4332 71.8758L40.8471 73.2565L113.567 104.124L114.153 102.744Z" fill="black"/>
</svg>
