<svg width="155" height="165" viewBox="0 0 155 165" fill="none" xmlns="http://www.w3.org/2000/svg">
<circle cx="77.5" cy="87.5" r="76.75" stroke="white" stroke-width="1.5"/>
<circle cx="77.5" cy="87.5" r="51.75" fill="white" stroke="white" stroke-width="1.5"/>
<path d="M80.9773 18.2727V27H79.9545L75.1989 20.1477H75.1136V27H74.0568V18.2727H75.0795L79.8523 25.142H79.9375V18.2727H80.9773Z" fill="white"/>
<path d="M77.5 0L83.9952 11.25H71.0048L77.5 0Z" fill="white"/>
<path d="M41.1462 71.2337C40.7595 71.3822 40.5664 71.816 40.7148 72.2027L43.1338 78.5044C43.2822 78.8911 43.7161 79.0842 44.1028 78.9358C44.4895 78.7873 44.6826 78.3535 44.5342 77.9668L42.384 72.3653L47.9854 70.2151C48.3721 70.0667 48.5653 69.6329 48.4169 69.2462C48.2684 68.8595 47.8346 68.6663 47.4479 68.8148L41.1462 71.2337ZM113.89 103.381L41.7201 71.2488L41.1099 72.6191L113.28 104.751L113.89 103.381Z" fill="black"/>
</svg>
