<svg width="155" height="165" viewBox="0 0 155 165" fill="none" xmlns="http://www.w3.org/2000/svg">
<circle cx="77.5" cy="87.5" r="76.75" stroke="white" stroke-width="1.5"/>
<circle cx="77.5" cy="87.5" r="51.75" fill="white" stroke="white" stroke-width="1.5"/>
<path d="M80.9773 18.2727V27H79.9545L75.1989 20.1477H75.1136V27H74.0568V18.2727H75.0795L79.8523 25.142H79.9375V18.2727H80.9773Z" fill="white"/>
<path d="M77.5 0L83.9952 11.25H71.0048L77.5 0Z" fill="white"/>
<path d="M41.4444 70.6018C41.0551 70.7435 40.8545 71.1739 40.9961 71.5631L43.3048 77.906C43.4464 78.2953 43.8768 78.496 44.266 78.3543C44.6553 78.2126 44.856 77.7822 44.7143 77.393L42.6622 71.7549L48.3003 69.7027C48.6896 69.5611 48.8903 69.1307 48.7486 68.7415C48.6069 68.3522 48.1765 68.1515 47.7873 68.2932L41.4444 70.6018ZM113.616 104.014L42.0179 70.6269L41.3839 71.9863L112.982 105.373L113.616 104.014Z" fill="black"/>
</svg>
