<svg width="155" height="165" viewBox="0 0 155 165" fill="none" xmlns="http://www.w3.org/2000/svg">
<circle cx="77.5" cy="87.5" r="76.75" stroke="white" stroke-width="1.5"/>
<circle cx="77.5" cy="87.5" r="51.75" fill="white" stroke="white" stroke-width="1.5"/>
<path d="M80.9773 18.2727V27H79.9545L75.1989 20.1477H75.1136V27H74.0568V18.2727H75.0795L79.8523 25.142H79.9375V18.2727H80.9773Z" fill="white"/>
<path d="M77.5 0L83.9952 11.25H71.0048L77.5 0Z" fill="white"/>
<path d="M41.7535 69.9752C41.3619 70.1101 41.1537 70.5369 41.2885 70.9285L43.4861 77.3108C43.621 77.7024 44.0478 77.9106 44.4394 77.7758C44.8311 77.6409 45.0393 77.2141 44.9044 76.8224L42.951 71.1493L48.6241 69.1959C49.0158 69.0611 49.2239 68.6342 49.0891 68.2426C48.9542 67.851 48.5274 67.6428 48.1358 67.7776L41.7535 69.9752ZM113.331 104.642L42.3265 70.0103L41.6689 71.3585L112.674 105.99L113.331 104.642Z" fill="black"/>
</svg>
