<svg width="155" height="165" viewBox="0 0 155 165" fill="none" xmlns="http://www.w3.org/2000/svg">
<circle cx="77.5" cy="87.5" r="76.75" stroke="white" stroke-width="1.5"/>
<circle cx="77.5" cy="87.5" r="51.75" fill="white" stroke="white" stroke-width="1.5"/>
<path d="M80.9773 18.2727V27H79.9545L75.1989 20.1477H75.1136V27H74.0568V18.2727H75.0795L79.8523 25.142H79.9375V18.2727H80.9773Z" fill="white"/>
<path d="M77.5 0L83.9952 11.25H71.0048L77.5 0Z" fill="white"/>
<path d="M42.0735 69.3541C41.6796 69.4821 41.464 69.9052 41.592 70.2992L43.6779 76.7188C43.8059 77.1127 44.229 77.3283 44.6229 77.2003C45.0169 77.0723 45.2324 76.6492 45.1044 76.2553L43.2503 70.5489L48.9567 68.6948C49.3506 68.5668 49.5662 68.1437 49.4382 67.7498C49.3102 67.3558 48.8871 67.1402 48.4932 67.2682L42.0735 69.3541ZM113.035 105.264L42.6458 69.3991L41.9648 70.7357L112.354 106.601L113.035 105.264Z" fill="black"/>
</svg>
