<svg width="155" height="165" viewBox="0 0 155 165" fill="none" xmlns="http://www.w3.org/2000/svg">
<circle cx="77.5" cy="87.5" r="76.75" stroke="white" stroke-width="1.5"/>
<circle cx="77.5" cy="87.5" r="51.75" fill="white" stroke="white" stroke-width="1.5"/>
<path d="M80.9773 18.2727V27H79.9545L75.1989 20.1477H75.1136V27H74.0568V18.2727H75.0795L79.8523 25.142H79.9375V18.2727H80.9773Z" fill="white"/>
<path d="M77.5 0L83.9952 11.25H71.0048L77.5 0Z" fill="white"/>
<path d="M42.4043 68.7387C42.0082 68.8598 41.7853 69.2791 41.9064 69.6752L43.8799 76.1302C44.001 76.5263 44.4203 76.7493 44.8164 76.6282C45.2125 76.5071 45.4355 76.0878 45.3144 75.6917L43.5601 69.9538L49.298 68.1996C49.6941 68.0785 49.917 67.6592 49.7959 67.2631C49.6748 66.867 49.2555 66.6441 48.8594 66.7652L42.4043 68.7387ZM112.729 105.882L42.9757 68.7937L42.2715 70.1181L112.024 107.206L112.729 105.882Z" fill="black"/>
</svg>
