<svg width="155" height="165" viewBox="0 0 155 165" fill="none" xmlns="http://www.w3.org/2000/svg">
<circle cx="77.5" cy="87.5" r="76.75" stroke="white" stroke-width="1.5"/>
<circle cx="77.5" cy="87.5" r="51.75" fill="white" stroke="white" stroke-width="1.5"/>
<path d="M80.9773 18.2727V27H79.9545L75.1989 20.1477H75.1136V27H74.0568V18.2727H75.0795L79.8523 25.142H79.9375V18.2727H80.9773Z" fill="white"/>
<path d="M77.5 0L83.9952 11.25H71.0048L77.5 0Z" fill="white"/>
<path d="M42.7458 68.1291C42.3477 68.2433 42.1175 68.6586 42.2316 69.0568L44.0922 75.5453C44.2063 75.9435 44.6217 76.1737 45.0199 76.0595C45.418 75.9453 45.6482 75.53 45.5341 75.1318L43.8802 69.3643L49.6478 67.7104C50.046 67.5963 50.2762 67.1809 50.162 66.7828C50.0479 66.3846 49.6325 66.1544 49.2344 66.2685L42.7458 68.1291ZM112.411 106.494L43.3162 68.1941L42.589 69.506L111.684 107.806L112.411 106.494Z" fill="black"/>
</svg>
