<svg width="155" height="165" viewBox="0 0 155 165" fill="none" xmlns="http://www.w3.org/2000/svg">
<circle cx="77.5" cy="87.5" r="76.75" stroke="white" stroke-width="1.5"/>
<circle cx="77.5" cy="87.5" r="51.75" fill="white" stroke="white" stroke-width="1.5"/>
<path d="M80.9773 18.2727V27H79.9545L75.1989 20.1477H75.1136V27H74.0568V18.2727H75.0795L79.8523 25.142H79.9375V18.2727H80.9773Z" fill="white"/>
<path d="M77.5 0L83.9952 11.25H71.0048L77.5 0Z" fill="white"/>
<path d="M80.1246 48.0523C79.8475 47.7445 79.3733 47.7196 79.0654 47.9968L74.0492 52.5134C73.7414 52.7906 73.7165 53.2648 73.9937 53.5726C74.2709 53.8805 74.7451 53.9053 75.0529 53.6282L79.5118 49.6134L83.5266 54.0722C83.8037 54.3801 84.2779 54.4049 84.5858 54.1277C84.8936 53.8506 84.9184 53.3764 84.6413 53.0685L80.1246 48.0523ZM76.1817 127.485L80.3163 48.5934L78.8183 48.5149L74.6838 127.407L76.1817 127.485Z" fill="black"/>
</svg>
