<svg width="155" height="165" viewBox="0 0 155 165" fill="none" xmlns="http://www.w3.org/2000/svg">
<circle cx="77.5" cy="87.5" r="76.75" stroke="white" stroke-width="1.5"/>
<circle cx="77.5" cy="87.5" r="51.75" fill="white" stroke="white" stroke-width="1.5"/>
<path d="M80.9773 18.2727V27H79.9545L75.1989 20.1477H75.1136V27H74.0568V18.2727H75.0795L79.8523 25.142H79.9375V18.2727H80.9773Z" fill="white"/>
<path d="M77.5 0L83.9952 11.25H71.0048L77.5 0Z" fill="white"/>
<path d="M97.9744 53.5979C97.8672 53.1978 97.456 52.9604 97.0559 53.0676L90.5359 54.8146C90.1358 54.9218 89.8984 55.3331 90.0056 55.7332C90.1128 56.1333 90.524 56.3707 90.9241 56.2635L96.7197 54.7106L98.2726 60.5061C98.3798 60.9062 98.791 61.1437 99.1911 61.0365C99.5912 60.9293 99.8287 60.518 99.7215 60.1179L97.9744 53.5979ZM58.3995 122.583L97.8995 54.167L96.6005 53.417L57.1005 121.833L58.3995 122.583Z" fill="black"/>
</svg>
