<svg width="155" height="165" viewBox="0 0 155 165" fill="none" xmlns="http://www.w3.org/2000/svg">
<circle cx="77.5" cy="87.5" r="76.75" stroke="white" stroke-width="1.5"/>
<circle cx="77.5" cy="87.5" r="51.75" fill="white" stroke="white" stroke-width="1.5"/>
<path d="M80.9773 18.2727V27H79.9545L75.1989 20.1477H75.1136V27H74.0568V18.2727H75.0795L79.8523 25.142H79.9375V18.2727H80.9773Z" fill="white"/>
<path d="M77.5 0L83.9952 11.25H71.0048L77.5 0Z" fill="white"/>
<path d="M43.0979 67.5256C42.6978 67.6328 42.4604 68.044 42.5676 68.4441L44.3146 74.9641C44.4218 75.3642 44.8331 75.6017 45.2332 75.4945C45.6333 75.3873 45.8707 74.976 45.7635 74.5759L44.2106 68.7804L50.0062 67.2274C50.4063 67.1202 50.6437 66.709 50.5365 66.3089C50.4293 65.9088 50.018 65.6713 49.6179 65.7786L43.0979 67.5256ZM112.083 107.101L43.667 67.6005L42.917 68.8995L111.333 108.4L112.083 107.101Z" fill="black"/>
</svg>
