<svg width="155" height="165" viewBox="0 0 155 165" fill="none" xmlns="http://www.w3.org/2000/svg">
<circle cx="77.5" cy="87.5" r="76.75" stroke="white" stroke-width="1.5"/>
<circle cx="77.5" cy="87.5" r="51.75" fill="white" stroke="white" stroke-width="1.5"/>
<path d="M80.9773 18.2727V27H79.9545L75.1989 20.1477H75.1136V27H74.0568V18.2727H75.0795L79.8523 25.142H79.9375V18.2727H80.9773Z" fill="white"/>
<path d="M77.5 0L83.9952 11.25H71.0048L77.5 0Z" fill="white"/>
<path d="M43.4605 66.9283C43.0586 67.0285 42.814 67.4356 42.9142 67.8375L44.5472 74.387C44.6474 74.7889 45.0544 75.0334 45.4564 74.9332C45.8583 74.833 46.1028 74.426 46.0026 74.0241L44.5511 68.2023L50.3729 66.7508C50.7748 66.6506 51.0194 66.2435 50.9192 65.8416C50.819 65.4397 50.4119 65.1951 50.01 65.2953L43.4605 66.9283ZM111.744 107.701L44.0282 67.0131L43.2557 68.2989L110.972 108.987L111.744 107.701Z" fill="black"/>
</svg>
