<svg width="155" height="165" viewBox="0 0 155 165" fill="none" xmlns="http://www.w3.org/2000/svg">
<circle cx="77.5" cy="87.5" r="76.75" stroke="white" stroke-width="1.5"/>
<circle cx="77.5" cy="87.5" r="51.75" fill="white" stroke="white" stroke-width="1.5"/>
<path d="M80.9773 18.2727V27H79.9545L75.1989 20.1477H75.1136V27H74.0568V18.2727H75.0795L79.8523 25.142H79.9375V18.2727H80.9773Z" fill="white"/>
<path d="M77.5 0L83.9952 11.25H71.0048L77.5 0Z" fill="white"/>
<path d="M43.8334 66.3374C43.4298 66.4306 43.1782 66.8333 43.2714 67.2369L44.7898 73.8139C44.883 74.2175 45.2857 74.4692 45.6893 74.376C46.0929 74.2828 46.3445 73.8801 46.2514 73.4765L44.9016 67.6303L50.7479 66.2806C51.1515 66.1874 51.4031 65.7847 51.3099 65.3811C51.2168 64.9775 50.814 64.7258 50.4104 64.819L43.8334 66.3374ZM111.395 108.296L44.3996 66.4322L43.6047 67.7043L110.601 109.568L111.395 108.296Z" fill="black"/>
</svg>
