<svg width="155" height="165" viewBox="0 0 155 165" fill="none" xmlns="http://www.w3.org/2000/svg">
<circle cx="77.5" cy="87.5" r="76.75" stroke="white" stroke-width="1.5"/>
<circle cx="77.5" cy="87.5" r="51.75" fill="white" stroke="white" stroke-width="1.5"/>
<path d="M80.9773 18.2727V27H79.9545L75.1989 20.1477H75.1136V27H74.0568V18.2727H75.0795L79.8523 25.142H79.9375V18.2727H80.9773Z" fill="white"/>
<path d="M77.5 0L83.9952 11.25H71.0048L77.5 0Z" fill="white"/>
<path d="M44.2166 65.7532C43.8115 65.8393 43.5528 66.2376 43.639 66.6427L45.0424 73.2452C45.1285 73.6504 45.5267 73.909 45.9319 73.8229C46.3371 73.7368 46.5957 73.3385 46.5096 72.9333L45.2621 67.0645L51.131 65.817C51.5362 65.7309 51.7948 65.3326 51.7087 64.9274C51.6226 64.5223 51.2243 64.2636 50.8191 64.3498L44.2166 65.7532ZM111.036 108.884L44.781 65.8578L43.9641 67.1158L110.219 110.142L111.036 108.884Z" fill="black"/>
</svg>
