<svg width="155" height="165" viewBox="0 0 155 165" fill="none" xmlns="http://www.w3.org/2000/svg">
<circle cx="77.5" cy="87.5" r="76.75" stroke="white" stroke-width="1.5"/>
<circle cx="77.5" cy="87.5" r="51.75" fill="white" stroke="white" stroke-width="1.5"/>
<path d="M80.9773 18.2727V27H79.9545L75.1989 20.1477H75.1136V27H74.0568V18.2727H75.0795L79.8523 25.142H79.9375V18.2727H80.9773Z" fill="white"/>
<path d="M77.5 0L83.9952 11.25H71.0048L77.5 0Z" fill="white"/>
<path d="M44.61 65.1757C44.2034 65.2547 43.9378 65.6484 44.0169 66.055L45.3048 72.681C45.3838 73.0876 45.7775 73.3531 46.1841 73.2741C46.5907 73.1951 46.8563 72.8014 46.7773 72.3948L45.6324 66.505L51.5222 65.3602C51.9288 65.2811 52.1943 64.8874 52.1153 64.4808C52.0362 64.0742 51.6425 63.8087 51.2359 63.8877L44.61 65.1757ZM110.666 109.466L45.1725 65.2901L44.3337 66.5337L109.828 110.71L110.666 109.466Z" fill="black"/>
</svg>
