<svg width="155" height="165" viewBox="0 0 155 165" fill="none" xmlns="http://www.w3.org/2000/svg">
<circle cx="77.5" cy="87.5" r="76.75" stroke="white" stroke-width="1.5"/>
<circle cx="77.5" cy="87.5" r="51.75" fill="white" stroke="white" stroke-width="1.5"/>
<path d="M80.9773 18.2727V27H79.9545L75.1989 20.1477H75.1136V27H74.0568V18.2727H75.0795L79.8523 25.142H79.9375V18.2727H80.9773Z" fill="white"/>
<path d="M77.5 0L83.9952 11.25H71.0048L77.5 0Z" fill="white"/>
<path d="M45.0133 64.6051C44.6054 64.6771 44.333 65.0661 44.4049 65.474L45.5771 72.1214C45.649 72.5294 46.038 72.8017 46.4459 72.7298C46.8538 72.6579 47.1262 72.2689 47.0543 71.861L46.0124 65.9521L51.9212 64.9102C52.3292 64.8383 52.6015 64.4493 52.5296 64.0414C52.4577 63.6335 52.0687 63.3611 51.6608 63.433L45.0133 64.6051ZM110.287 110.042L45.5737 64.7294L44.7134 65.9581L109.426 111.271L110.287 110.042Z" fill="black"/>
</svg>
