<svg width="155" height="165" viewBox="0 0 155 165" fill="none" xmlns="http://www.w3.org/2000/svg">
<circle cx="77.5" cy="87.5" r="76.75" stroke="white" stroke-width="1.5"/>
<circle cx="77.5" cy="87.5" r="51.75" fill="white" stroke="white" stroke-width="1.5"/>
<path d="M80.9773 18.2727V27H79.9545L75.1989 20.1477H75.1136V27H74.0568V18.2727H75.0795L79.8523 25.142H79.9375V18.2727H80.9773Z" fill="white"/>
<path d="M77.5 0L83.9952 11.25H71.0048L77.5 0Z" fill="white"/>
<path d="M45.4266 64.0417C45.0174 64.1065 44.7383 64.4907 44.8031 64.8998L45.859 71.5667C45.9238 71.9758 46.308 72.255 46.7171 72.1902C47.1263 72.1254 47.4054 71.7412 47.3406 71.3321L46.402 65.4059L52.3281 64.4673C52.7372 64.4025 53.0163 64.0184 52.9515 63.6092C52.8867 63.2001 52.5026 62.921 52.0935 62.9858L45.4266 64.0417ZM109.897 110.611L45.9847 64.1757L45.103 65.3893L109.015 111.824L109.897 110.611Z" fill="black"/>
</svg>
