<svg width="155" height="165" viewBox="0 0 155 165" fill="none" xmlns="http://www.w3.org/2000/svg">
<circle cx="77.5" cy="87.5" r="76.75" stroke="white" stroke-width="1.5"/>
<circle cx="77.5" cy="87.5" r="51.75" fill="white" stroke="white" stroke-width="1.5"/>
<path d="M80.9773 18.2727V27H79.9545L75.1989 20.1477H75.1136V27H74.0568V18.2727H75.0795L79.8523 25.142H79.9375V18.2727H80.9773Z" fill="white"/>
<path d="M77.5 0L83.9952 11.25H71.0048L77.5 0Z" fill="white"/>
<path d="M45.8496 63.4856C45.4394 63.5433 45.1536 63.9225 45.2113 64.3327L46.1507 71.017C46.2083 71.4272 46.5876 71.713 46.9978 71.6553C47.4079 71.5977 47.6937 71.2184 47.6361 70.8083L46.801 64.8667L52.7426 64.0316C53.1528 63.974 53.4386 63.5947 53.381 63.1845C53.3233 62.7744 52.9441 62.4886 52.5339 62.5462L45.8496 63.4856ZM109.498 111.173L46.4053 63.6294L45.5026 64.8273L108.595 112.371L109.498 111.173Z" fill="black"/>
</svg>
