<svg width="155" height="165" viewBox="0 0 155 165" fill="none" xmlns="http://www.w3.org/2000/svg">
<circle cx="77.5" cy="87.5" r="76.75" stroke="white" stroke-width="1.5"/>
<circle cx="77.5" cy="87.5" r="51.75" fill="white" stroke="white" stroke-width="1.5"/>
<path d="M80.9773 18.2727V27H79.9545L75.1989 20.1477H75.1136V27H74.0568V18.2727H75.0795L79.8523 25.142H79.9375V18.2727H80.9773Z" fill="white"/>
<path d="M77.5 0L83.9952 11.25H71.0048L77.5 0Z" fill="white"/>
<path d="M46.2822 62.937C45.8711 62.9875 45.5787 63.3617 45.6292 63.7728L46.4518 70.4725C46.5023 70.8836 46.8765 71.176 47.2877 71.1255C47.6988 71.075 47.9911 70.7008 47.9407 70.2897L47.2094 64.3344L53.1647 63.6032C53.5758 63.5527 53.8682 63.1785 53.8177 62.7674C53.7672 62.3563 53.393 62.0639 52.9819 62.1144L46.2822 62.937ZM109.088 111.728L46.8354 63.0904L45.9119 64.2724L108.165 112.91L109.088 111.728Z" fill="black"/>
</svg>
