<svg width="155" height="165" viewBox="0 0 155 165" fill="none" xmlns="http://www.w3.org/2000/svg">
<circle cx="77.5" cy="87.5" r="76.75" stroke="white" stroke-width="1.5"/>
<circle cx="77.5" cy="87.5" r="51.75" fill="white" stroke="white" stroke-width="1.5"/>
<path d="M80.9773 18.2727V27H79.9545L75.1989 20.1477H75.1136V27H74.0568V18.2727H75.0795L79.8523 25.142H79.9375V18.2727H80.9773Z" fill="white"/>
<path d="M77.5 0L83.9952 11.25H71.0048L77.5 0Z" fill="white"/>
<path d="M46.7244 62.396C46.3124 62.4393 46.0136 62.8083 46.0569 63.2203L46.7625 69.9333C46.8058 70.3452 47.1748 70.6441 47.5868 70.6008C47.9987 70.5575 48.2975 70.1884 48.2542 69.7765L47.6271 63.8094L53.5942 63.1822C54.0062 63.1389 54.305 62.7699 54.2617 62.3579C54.2184 61.946 53.8494 61.6471 53.4374 61.6904L46.7244 62.396ZM108.669 112.275L47.2748 62.559L46.3308 63.7247L107.725 113.441L108.669 112.275Z" fill="black"/>
</svg>
