<svg width="155" height="165" viewBox="0 0 155 165" fill="none" xmlns="http://www.w3.org/2000/svg">
<circle cx="77.5" cy="87.5" r="76.75" stroke="white" stroke-width="1.5"/>
<circle cx="77.5" cy="87.5" r="51.75" fill="white" stroke="white" stroke-width="1.5"/>
<path d="M80.9773 18.2727V27H79.9545L75.1989 20.1477H75.1136V27H74.0568V18.2727H75.0795L79.8523 25.142H79.9375V18.2727H80.9773Z" fill="white"/>
<path d="M77.5 0L83.9952 11.25H71.0048L77.5 0Z" fill="white"/>
<path d="M98.5717 53.9605C98.4715 53.5586 98.0645 53.314 97.6626 53.4142L91.1131 55.0472C90.7112 55.1474 90.4666 55.5544 90.5668 55.9563C90.667 56.3582 91.074 56.6028 91.476 56.5026L97.2977 55.0511L98.7493 60.8729C98.8495 61.2748 99.2565 61.5193 99.6584 61.4191C100.06 61.3189 100.305 60.9119 100.205 60.51L98.5717 53.9605ZM57.7989 122.244L98.4869 54.5282L97.2011 53.7556L56.5131 121.472L57.7989 122.244Z" fill="black"/>
</svg>
