<svg width="155" height="165" viewBox="0 0 155 165" fill="none" xmlns="http://www.w3.org/2000/svg">
<circle cx="77.5" cy="87.5" r="76.75" stroke="white" stroke-width="1.5"/>
<circle cx="77.5" cy="87.5" r="51.75" fill="white" stroke="white" stroke-width="1.5"/>
<path d="M80.9773 18.2727V27H79.9545L75.1989 20.1477H75.1136V27H74.0568V18.2727H75.0795L79.8523 25.142H79.9375V18.2727H80.9773Z" fill="white"/>
<path d="M77.5 0L83.9952 11.25H71.0048L77.5 0Z" fill="white"/>
<path d="M47.1759 61.8628C46.7633 61.8989 46.4581 62.2626 46.4942 62.6753L47.0825 69.3996C47.1186 69.8122 47.4823 70.1175 47.895 70.0814C48.3076 70.0453 48.6128 69.6815 48.5767 69.2689L48.0538 63.2917L54.031 62.7688C54.4436 62.7327 54.7489 62.3689 54.7128 61.9562C54.6767 61.5436 54.3129 61.2384 53.9002 61.2745L47.1759 61.8628ZM108.241 112.816L47.7234 62.0354L46.7592 63.1844L107.277 113.965L108.241 112.816Z" fill="black"/>
</svg>
