<svg width="155" height="165" viewBox="0 0 155 165" fill="none" xmlns="http://www.w3.org/2000/svg">
<circle cx="77.5" cy="87.5" r="76.75" stroke="white" stroke-width="1.5"/>
<circle cx="77.5" cy="87.5" r="51.75" fill="white" stroke="white" stroke-width="1.5"/>
<path d="M80.9773 18.2727V27H79.9545L75.1989 20.1477H75.1136V27H74.0568V18.2727H75.0795L79.8523 25.142H79.9375V18.2727H80.9773Z" fill="white"/>
<path d="M77.5 0L83.9952 11.25H71.0048L77.5 0Z" fill="white"/>
<path d="M47.6367 61.3375C47.2235 61.3664 46.912 61.7248 46.9409 62.138L47.4117 68.8716C47.4406 69.2848 47.799 69.5963 48.2122 69.5674C48.6254 69.5385 48.9369 69.1801 48.9081 68.7669L48.4895 62.7815L54.4749 62.363C54.8881 62.3341 55.1996 61.9757 55.1708 61.5625C55.1419 61.1493 54.7835 60.8378 54.3703 60.8667L47.6367 61.3375ZM107.803 113.348L48.1811 61.5197L47.197 62.6517L106.819 114.48L107.803 113.348Z" fill="black"/>
</svg>
