<svg width="155" height="165" viewBox="0 0 155 165" fill="none" xmlns="http://www.w3.org/2000/svg">
<circle cx="77.5" cy="87.5" r="76.75" stroke="white" stroke-width="1.5"/>
<circle cx="77.5" cy="87.5" r="51.75" fill="white" stroke="white" stroke-width="1.5"/>
<path d="M80.9773 18.2727V27H79.9545L75.1989 20.1477H75.1136V27H74.0568V18.2727H75.0795L79.8523 25.142H79.9375V18.2727H80.9773Z" fill="white"/>
<path d="M77.5 0L83.9952 11.25H71.0048L77.5 0Z" fill="white"/>
<path d="M48.1066 60.8204C47.6929 60.8421 47.3752 61.195 47.3969 61.6086L47.7501 68.3494C47.7718 68.763 48.1247 69.0808 48.5383 69.0591C48.952 69.0374 49.2697 68.6845 49.2481 68.2709L48.9341 62.2791L54.9258 61.9651C55.3395 61.9434 55.6572 61.5905 55.6355 61.1768C55.6139 60.7632 55.261 60.4455 54.8473 60.4671L48.1066 60.8204ZM107.356 113.873L48.6477 61.012L47.644 62.1267L106.352 114.988L107.356 113.873Z" fill="black"/>
</svg>
