<svg width="155" height="165" viewBox="0 0 155 165" fill="none" xmlns="http://www.w3.org/2000/svg">
<circle cx="77.5" cy="87.5" r="76.75" stroke="white" stroke-width="1.5"/>
<circle cx="77.5" cy="87.5" r="51.75" fill="white" stroke="white" stroke-width="1.5"/>
<path d="M80.9773 18.2727V27H79.9545L75.1989 20.1477H75.1136V27H74.0568V18.2727H75.0795L79.8523 25.142H79.9375V18.2727H80.9773Z" fill="white"/>
<path d="M77.5 0L83.9952 11.25H71.0048L77.5 0Z" fill="white"/>
<path d="M48.5854 60.3116C48.1714 60.326 47.8476 60.6733 47.862 61.0873L48.0976 67.8332C48.1121 68.2471 48.4594 68.571 48.8733 68.5565C49.2873 68.5421 49.6111 68.1948 49.5967 67.7808L49.3873 61.7845L55.3836 61.5751C55.7976 61.5606 56.1215 61.2133 56.107 60.7993C56.0925 60.3854 55.7452 60.0615 55.3313 60.076L48.5854 60.3116ZM106.9 114.39L49.1231 60.5126L48.1001 61.6096L105.877 115.487L106.9 114.39Z" fill="black"/>
</svg>
