<svg width="155" height="165" viewBox="0 0 155 165" fill="none" xmlns="http://www.w3.org/2000/svg">
<circle cx="77.5" cy="87.5" r="76.75" stroke="white" stroke-width="1.5"/>
<circle cx="77.5" cy="87.5" r="51.75" fill="white" stroke="white" stroke-width="1.5"/>
<path d="M80.9773 18.2727V27H79.9545L75.1989 20.1477H75.1136V27H74.0568V18.2727H75.0795L79.8523 25.142H79.9375V18.2727H80.9773Z" fill="white"/>
<path d="M77.5 0L83.9952 11.25H71.0048L77.5 0Z" fill="white"/>
<path d="M49.073 59.8111C48.6589 59.8184 48.329 60.16 48.3362 60.5741L48.454 67.3231C48.4613 67.7372 48.8029 68.0671 49.217 68.0599C49.6312 68.0526 49.961 67.7111 49.9538 67.2969L49.8491 61.2978L55.8482 61.1931C56.2623 61.1859 56.5922 60.8443 56.585 60.4301C56.5778 60.016 56.2362 59.6861 55.822 59.6933L49.073 59.8111ZM106.435 114.9L49.6071 60.0215L48.5651 61.1005L105.393 115.979L106.435 114.9Z" fill="black"/>
</svg>
