<svg width="155" height="165" viewBox="0 0 155 165" fill="none" xmlns="http://www.w3.org/2000/svg">
<circle cx="77.5" cy="87.5" r="76.75" stroke="white" stroke-width="1.5"/>
<circle cx="77.5" cy="87.5" r="51.75" fill="white" stroke="white" stroke-width="1.5"/>
<path d="M80.9773 18.2727V27H79.9545L75.1989 20.1477H75.1136V27H74.0568V18.2727H75.0795L79.8523 25.142H79.9375V18.2727H80.9773Z" fill="white"/>
<path d="M77.5 0L83.9952 11.25H71.0048L77.5 0Z" fill="white"/>
<path d="M49.5693 59.3193C49.1551 59.3193 48.8193 59.6551 48.8193 60.0693L48.8193 66.8193C48.8193 67.2335 49.1551 67.5693 49.5693 67.5693C49.9835 67.5693 50.3193 67.2335 50.3193 66.8193L50.3193 60.8193L56.3193 60.8193C56.7335 60.8193 57.0693 60.4835 57.0693 60.0693C57.0693 59.6551 56.7335 59.3193 56.3193 59.3193L49.5693 59.3193ZM105.961 115.4L50.0997 59.539L49.039 60.5996L104.9 116.461L105.961 115.4Z" fill="black"/>
</svg>
