<svg width="155" height="165" viewBox="0 0 155 165" fill="none" xmlns="http://www.w3.org/2000/svg">
<circle cx="77.5" cy="87.5" r="76.75" stroke="white" stroke-width="1.5"/>
<circle cx="77.5" cy="87.5" r="51.75" fill="white" stroke="white" stroke-width="1.5"/>
<path d="M80.9773 18.2727V27H79.9545L75.1989 20.1477H75.1136V27H74.0568V18.2727H75.0795L79.8523 25.142H79.9375V18.2727H80.9773Z" fill="white"/>
<path d="M77.5 0L83.9952 11.25H71.0048L77.5 0Z" fill="white"/>
<path d="M50.0741 58.8362C49.66 58.829 49.3184 59.1589 49.3112 59.573L49.1933 66.322C49.1861 66.7361 49.516 67.0777 49.9301 67.085C50.3443 67.0922 50.6859 66.7623 50.6931 66.3482L50.7978 60.3491L56.7969 60.4538C57.2111 60.461 57.5527 60.1312 57.5599 59.717C57.5671 59.3029 57.2372 58.9613 56.8231 58.954L50.0741 58.8362ZM105.479 115.893L50.6005 59.0651L49.5215 60.1071L104.4 116.935L105.479 115.893Z" fill="black"/>
</svg>
