<svg width="155" height="165" viewBox="0 0 155 165" fill="none" xmlns="http://www.w3.org/2000/svg">
<circle cx="77.5" cy="87.5" r="76.75" stroke="white" stroke-width="1.5"/>
<circle cx="77.5" cy="87.5" r="51.75" fill="white" stroke="white" stroke-width="1.5"/>
<path d="M80.9773 18.2727V27H79.9545L75.1989 20.1477H75.1136V27H74.0568V18.2727H75.0795L79.8523 25.142H79.9375V18.2727H80.9773Z" fill="white"/>
<path d="M77.5 0L83.9952 11.25H71.0048L77.5 0Z" fill="white"/>
<path d="M50.5873 58.362C50.1733 58.3476 49.826 58.6714 49.8116 59.0854L49.576 65.8313C49.5615 66.2452 49.8854 66.5925 50.2994 66.607C50.7133 66.6214 51.0606 66.2976 51.0751 65.8836L51.2845 59.8873L57.2808 60.0967C57.6948 60.1111 58.0421 59.7873 58.0565 59.3733C58.071 58.9593 57.7471 58.612 57.3332 58.5976L50.5873 58.362ZM104.987 116.377L51.1096 58.6001L50.0126 59.6231L103.89 117.4L104.987 116.377Z" fill="black"/>
</svg>
