<svg width="155" height="165" viewBox="0 0 155 165" fill="none" xmlns="http://www.w3.org/2000/svg">
<circle cx="77.5" cy="87.5" r="76.75" stroke="white" stroke-width="1.5"/>
<circle cx="77.5" cy="87.5" r="51.75" fill="white" stroke="white" stroke-width="1.5"/>
<path d="M80.9773 18.2727V27H79.9545L75.1989 20.1477H75.1136V27H74.0568V18.2727H75.0795L79.8523 25.142H79.9375V18.2727H80.9773Z" fill="white"/>
<path d="M77.5 0L83.9952 11.25H71.0048L77.5 0Z" fill="white"/>
<path d="M51.1086 57.8968C50.695 57.8752 50.3421 58.1929 50.3204 58.6066L49.9671 65.3473C49.9455 65.761 50.2632 66.1139 50.6769 66.1355C51.0905 66.1572 51.4434 65.8395 51.4651 65.4258L51.7791 59.434L57.7709 59.7481C58.1845 59.7697 58.5374 59.452 58.5591 59.0383C58.5808 58.6247 58.263 58.2718 57.8494 58.2501L51.1086 57.8968ZM104.488 116.852L51.6267 58.144L50.512 59.1477L103.373 117.856L104.488 116.852Z" fill="black"/>
</svg>
