<svg width="155" height="165" viewBox="0 0 155 165" fill="none" xmlns="http://www.w3.org/2000/svg">
<circle cx="77.5" cy="87.5" r="76.75" stroke="white" stroke-width="1.5"/>
<circle cx="77.5" cy="87.5" r="51.75" fill="white" stroke="white" stroke-width="1.5"/>
<path d="M80.9773 18.2727V27H79.9545L75.1989 20.1477H75.1136V27H74.0568V18.2727H75.0795L79.8523 25.142H79.9375V18.2727H80.9773Z" fill="white"/>
<path d="M77.5 0L83.9952 11.25H71.0048L77.5 0Z" fill="white"/>
<path d="M51.638 57.4408C51.2248 57.4119 50.8664 57.7235 50.8375 58.1367L50.3667 64.8702C50.3378 65.2835 50.6493 65.6418 51.0625 65.6707C51.4757 65.6996 51.8341 65.3881 51.863 64.9749L52.2816 58.9895L58.2669 59.408C58.6802 59.4369 59.0385 59.1254 59.0674 58.7122C59.0963 58.299 58.7848 57.9406 58.3716 57.9117L51.638 57.4408ZM103.98 117.319L52.1517 57.697L51.0197 58.6811L102.848 118.303L103.98 117.319Z" fill="black"/>
</svg>
