<svg width="155" height="165" viewBox="0 0 155 165" fill="none" xmlns="http://www.w3.org/2000/svg">
<circle cx="77.5" cy="87.5" r="76.75" stroke="white" stroke-width="1.5"/>
<circle cx="77.5" cy="87.5" r="51.75" fill="white" stroke="white" stroke-width="1.5"/>
<path d="M80.9773 18.2727V27H79.9545L75.1989 20.1477H75.1136V27H74.0568V18.2727H75.0795L79.8523 25.142H79.9375V18.2727H80.9773Z" fill="white"/>
<path d="M77.5 0L83.9952 11.25H71.0048L77.5 0Z" fill="white"/>
<path d="M99.1626 54.3334C99.0694 53.9298 98.6667 53.6782 98.2631 53.7714L91.6861 55.2898C91.2825 55.383 91.0309 55.7857 91.124 56.1893C91.2172 56.5929 91.6199 56.8445 92.0235 56.7513L97.8697 55.4016L99.2195 61.2478C99.3126 61.6514 99.7153 61.9031 100.119 61.8099C100.523 61.7167 100.774 61.314 100.681 60.9104L99.1626 54.3334ZM57.2042 121.895L99.0678 54.8996L97.7958 54.1047L55.9322 121.1L57.2042 121.895Z" fill="black"/>
</svg>
