<svg width="155" height="165" viewBox="0 0 155 165" fill="none" xmlns="http://www.w3.org/2000/svg">
<circle cx="77.5" cy="87.5" r="76.75" stroke="white" stroke-width="1.5"/>
<circle cx="77.5" cy="87.5" r="51.75" fill="white" stroke="white" stroke-width="1.5"/>
<path d="M80.9773 18.2727V27H79.9545L75.1989 20.1477H75.1136V27H74.0568V18.2727H75.0795L79.8523 25.142H79.9375V18.2727H80.9773Z" fill="white"/>
<path d="M77.5 0L83.9952 11.25H71.0048L77.5 0Z" fill="white"/>
<path d="M52.1753 56.9941C51.7627 56.958 51.3989 57.2633 51.3628 57.6759L50.7745 64.4002C50.7384 64.8129 51.0436 65.1766 51.4563 65.2127C51.8689 65.2488 52.2327 64.9436 52.2688 64.531L52.7917 58.5538L58.7689 59.0767C59.1815 59.1128 59.5453 58.8076 59.5814 58.395C59.6175 57.9823 59.3122 57.6185 58.8996 57.5824L52.1753 56.9941ZM103.465 117.777L52.6845 57.2592L51.5354 58.2234L102.316 118.741L103.465 117.777Z" fill="black"/>
</svg>
