<svg width="155" height="165" viewBox="0 0 155 165" fill="none" xmlns="http://www.w3.org/2000/svg">
<circle cx="77.5" cy="87.5" r="76.75" stroke="white" stroke-width="1.5"/>
<circle cx="77.5" cy="87.5" r="51.75" fill="white" stroke="white" stroke-width="1.5"/>
<path d="M80.9773 18.2727V27H79.9545L75.1989 20.1477H75.1136V27H74.0568V18.2727H75.0795L79.8523 25.142H79.9375V18.2727H80.9773Z" fill="white"/>
<path d="M77.5 0L83.9952 11.25H71.0048L77.5 0Z" fill="white"/>
<path d="M52.7203 56.5569C52.3083 56.5136 51.9393 56.8124 51.896 57.2244L51.1904 63.9374C51.1471 64.3493 51.446 64.7184 51.8579 64.7617C52.2699 64.805 52.6389 64.5061 52.6822 64.0942L53.3094 58.1271L59.2765 58.7542C59.6885 58.7975 60.0575 58.4987 60.1008 58.0867C60.1441 57.6748 59.8452 57.3057 59.4333 57.2624L52.7203 56.5569ZM102.941 118.225L53.2247 56.8308L52.059 57.7748L101.775 119.169L102.941 118.225Z" fill="black"/>
</svg>
