<svg width="155" height="165" viewBox="0 0 155 165" fill="none" xmlns="http://www.w3.org/2000/svg">
<circle cx="77.5" cy="87.5" r="76.75" stroke="white" stroke-width="1.5"/>
<circle cx="77.5" cy="87.5" r="51.75" fill="white" stroke="white" stroke-width="1.5"/>
<path d="M80.9773 18.2727V27H79.9545L75.1989 20.1477H75.1136V27H74.0568V18.2727H75.0795L79.8523 25.142H79.9375V18.2727H80.9773Z" fill="white"/>
<path d="M77.5 0L83.9952 11.25H71.0048L77.5 0Z" fill="white"/>
<path d="M53.2728 56.1292C52.8617 56.0787 52.4875 56.3711 52.437 56.7822L51.6144 63.4819C51.5639 63.893 51.8563 64.2672 52.2674 64.3177C52.6785 64.3682 53.0527 64.0758 53.1032 63.6647L53.8344 57.7094L59.7897 58.4406C60.2008 58.4911 60.575 58.1988 60.6255 57.7876C60.676 57.3765 60.3836 57.0023 59.9725 56.9518L53.2728 56.1292ZM102.41 118.665L53.7724 56.4119L52.5904 57.3354L101.228 119.588L102.41 118.665Z" fill="black"/>
</svg>
