<svg width="155" height="165" viewBox="0 0 155 165" fill="none" xmlns="http://www.w3.org/2000/svg">
<circle cx="77.5" cy="87.5" r="76.75" stroke="white" stroke-width="1.5"/>
<circle cx="77.5" cy="87.5" r="51.75" fill="white" stroke="white" stroke-width="1.5"/>
<path d="M80.9773 18.2727V27H79.9545L75.1989 20.1477H75.1136V27H74.0568V18.2727H75.0795L79.8523 25.142H79.9375V18.2727H80.9773Z" fill="white"/>
<path d="M77.5 0L83.9952 11.25H71.0048L77.5 0Z" fill="white"/>
<path d="M53.8327 55.7112C53.4225 55.6536 53.0433 55.9394 52.9856 56.3496L52.0462 63.0339C51.9886 63.444 52.2744 63.8233 52.6846 63.8809C53.0947 63.9386 53.474 63.6528 53.5316 63.2426L54.3667 57.301L60.3083 58.1361C60.7185 58.1937 61.0977 57.9079 61.1554 57.4977C61.213 57.0876 60.9272 56.7083 60.517 56.6507L53.8327 55.7112ZM101.871 119.095L54.3273 56.0026L53.1294 56.9053L100.673 119.997L101.871 119.095Z" fill="black"/>
</svg>
