<svg width="155" height="165" viewBox="0 0 155 165" fill="none" xmlns="http://www.w3.org/2000/svg">
<circle cx="77.5" cy="87.5" r="76.75" stroke="white" stroke-width="1.5"/>
<circle cx="77.5" cy="87.5" r="51.75" fill="white" stroke="white" stroke-width="1.5"/>
<path d="M80.9773 18.2727V27H79.9545L75.1989 20.1477H75.1136V27H74.0568V18.2727H75.0795L79.8523 25.142H79.9375V18.2727H80.9773Z" fill="white"/>
<path d="M77.5 0L83.9952 11.25H71.0048L77.5 0Z" fill="white"/>
<path d="M54.3998 55.3031C53.9907 55.2383 53.6066 55.5174 53.5418 55.9265L52.4858 62.5934C52.421 63.0025 52.7002 63.3867 53.1093 63.4515C53.5184 63.5163 53.9026 63.2372 53.9674 62.8281L54.906 56.902L60.8321 57.8406C61.2412 57.9054 61.6254 57.6262 61.6902 57.2171C61.755 56.808 61.4759 56.4238 61.0667 56.359L54.3998 55.3031ZM101.324 119.515L54.8893 55.603L53.6758 56.4847L100.111 120.397L101.324 119.515Z" fill="black"/>
</svg>
