<svg width="155" height="165" viewBox="0 0 155 165" fill="none" xmlns="http://www.w3.org/2000/svg">
<circle cx="77.5" cy="87.5" r="76.75" stroke="white" stroke-width="1.5"/>
<circle cx="77.5" cy="87.5" r="51.75" fill="white" stroke="white" stroke-width="1.5"/>
<path d="M80.9773 18.2727V27H79.9545L75.1989 20.1477H75.1136V27H74.0568V18.2727H75.0795L79.8523 25.142H79.9375V18.2727H80.9773Z" fill="white"/>
<path d="M77.5 0L83.9952 11.25H71.0048L77.5 0Z" fill="white"/>
<path d="M54.974 54.9049C54.5661 54.833 54.1771 55.1054 54.1052 55.5133L52.933 62.1607C52.8611 62.5687 53.1335 62.9577 53.5414 63.0296C53.9493 63.1015 54.3383 62.8291 54.4102 62.4212L55.4521 56.5124L61.361 57.5543C61.7689 57.6262 62.1579 57.3538 62.2298 56.9459C62.3018 56.538 62.0294 56.149 61.6215 56.0771L54.974 54.9049ZM100.771 119.926L55.4581 55.2134L54.2294 56.0737L99.5419 120.787L100.771 119.926Z" fill="black"/>
</svg>
