<svg width="155" height="165" viewBox="0 0 155 165" fill="none" xmlns="http://www.w3.org/2000/svg">
<circle cx="77.5" cy="87.5" r="76.75" stroke="white" stroke-width="1.5"/>
<circle cx="77.5" cy="87.5" r="51.75" fill="white" stroke="white" stroke-width="1.5"/>
<path d="M80.9773 18.2727V27H79.9545L75.1989 20.1477H75.1136V27H74.0568V18.2727H75.0795L79.8523 25.142H79.9375V18.2727H80.9773Z" fill="white"/>
<path d="M77.5 0L83.9952 11.25H71.0048L77.5 0Z" fill="white"/>
<path d="M55.555 54.5168C55.1484 54.4378 54.7547 54.7033 54.6757 55.1099L53.3877 61.7359C53.3087 62.1425 53.5742 62.5362 53.9808 62.6153C54.3875 62.6943 54.7811 62.4287 54.8602 62.0221L56.005 56.1324L61.8948 57.2772C62.3014 57.3563 62.6951 57.0907 62.7741 56.6841C62.8532 56.2775 62.5876 55.8838 62.181 55.8048L55.555 54.5168ZM100.21 120.328L56.0337 54.8337L54.7901 55.6725L98.9664 121.166L100.21 120.328Z" fill="black"/>
</svg>
