<svg width="155" height="165" viewBox="0 0 155 165" fill="none" xmlns="http://www.w3.org/2000/svg">
<circle cx="77.5" cy="87.5" r="76.75" stroke="white" stroke-width="1.5"/>
<circle cx="77.5" cy="87.5" r="51.75" fill="white" stroke="white" stroke-width="1.5"/>
<path d="M80.9773 18.2727V27H79.9545L75.1989 20.1477H75.1136V27H74.0568V18.2727H75.0795L79.8523 25.142H79.9375V18.2727H80.9773Z" fill="white"/>
<path d="M77.5 0L83.9952 11.25H71.0048L77.5 0Z" fill="white"/>
<path d="M56.1427 54.1389C55.7376 54.0528 55.3393 54.3115 55.2532 54.7166L53.8498 61.3191C53.7637 61.7243 54.0223 62.1225 54.4275 62.2087C54.8326 62.2948 55.2309 62.0361 55.317 61.631L56.5645 55.7621L62.4334 57.0096C62.8385 57.0957 63.2368 56.837 63.3229 56.4319C63.409 56.0267 63.1504 55.6285 62.7452 55.5423L56.1427 54.1389ZM99.6423 120.719L56.6158 54.4641L55.3578 55.281L98.3843 121.536L99.6423 120.719Z" fill="black"/>
</svg>
