<svg width="155" height="165" viewBox="0 0 155 165" fill="none" xmlns="http://www.w3.org/2000/svg">
<circle cx="77.5" cy="87.5" r="76.75" stroke="white" stroke-width="1.5"/>
<circle cx="77.5" cy="87.5" r="51.75" fill="white" stroke="white" stroke-width="1.5"/>
<path d="M80.9773 18.2727V27H79.9545L75.1989 20.1477H75.1136V27H74.0568V18.2727H75.0795L79.8523 25.142H79.9375V18.2727H80.9773Z" fill="white"/>
<path d="M77.5 0L83.9952 11.25H71.0048L77.5 0Z" fill="white"/>
<path d="M56.7369 53.7714C56.3333 53.6782 55.9306 53.9298 55.8375 54.3334L54.319 60.9104C54.2259 61.314 54.4775 61.7167 54.8811 61.8099C55.2847 61.9031 55.6874 61.6514 55.7806 61.2478L57.1303 55.4016L62.9765 56.7513C63.3801 56.8445 63.7828 56.5929 63.876 56.1893C63.9692 55.7857 63.7175 55.383 63.3139 55.2898L56.7369 53.7714ZM99.0679 121.1L57.2043 54.1047L55.9322 54.8996L97.7958 121.895L99.0679 121.1Z" fill="black"/>
</svg>
