<svg width="155" height="165" viewBox="0 0 155 165" fill="none" xmlns="http://www.w3.org/2000/svg">
<circle cx="77.5" cy="87.5" r="76.75" stroke="white" stroke-width="1.5"/>
<circle cx="77.5" cy="87.5" r="51.75" fill="white" stroke="white" stroke-width="1.5"/>
<path d="M80.9773 18.2727V27H79.9545L75.1989 20.1477H75.1136V27H74.0568V18.2727H75.0795L79.8523 25.142H79.9375V18.2727H80.9773Z" fill="white"/>
<path d="M77.5 0L83.9952 11.25H71.0048L77.5 0Z" fill="white"/>
<path d="M57.3375 53.4142C56.9356 53.314 56.5285 53.5586 56.4283 53.9605L54.7953 60.51C54.6951 60.9119 54.9397 61.3189 55.3416 61.4191C55.7435 61.5194 56.1506 61.2748 56.2508 60.8729L57.7023 55.0511L63.5241 56.5026C63.926 56.6028 64.333 56.3583 64.4333 55.9563C64.5335 55.5544 64.2889 55.1474 63.887 55.0472L57.3375 53.4142ZM98.4869 121.472L57.7989 53.7556L56.5132 54.5282L97.2012 122.244L98.4869 121.472Z" fill="black"/>
</svg>
