<svg width="155" height="165" viewBox="0 0 155 165" fill="none" xmlns="http://www.w3.org/2000/svg">
<circle cx="77.5" cy="87.5" r="76.75" stroke="white" stroke-width="1.5"/>
<circle cx="77.5" cy="87.5" r="51.75" fill="white" stroke="white" stroke-width="1.5"/>
<path d="M80.9773 18.2727V27H79.9545L75.1989 20.1477H75.1136V27H74.0568V18.2727H75.0795L79.8523 25.142H79.9375V18.2727H80.9773Z" fill="white"/>
<path d="M77.5 0L83.9952 11.25H71.0048L77.5 0Z" fill="white"/>
<path d="M99.7469 54.7166C99.6607 54.3114 99.2625 54.0528 98.8573 54.1389L92.2548 55.5423C91.8497 55.6285 91.591 56.0267 91.6771 56.4319C91.7633 56.837 92.1615 57.0957 92.5667 57.0096L98.4356 55.7621L99.683 61.631C99.7692 62.0361 100.167 62.2948 100.573 62.2086C100.978 62.1225 101.236 61.7243 101.15 61.3191L99.7469 54.7166ZM56.6158 121.536L99.6422 55.281L98.3842 54.4641L55.3578 120.719L56.6158 121.536Z" fill="black"/>
</svg>
