<svg width="155" height="165" viewBox="0 0 155 165" fill="none" xmlns="http://www.w3.org/2000/svg">
<circle cx="77.5" cy="87.5" r="76.75" stroke="white" stroke-width="1.5"/>
<circle cx="77.5" cy="87.5" r="51.75" fill="white" stroke="white" stroke-width="1.5"/>
<path d="M80.9773 18.2727V27H79.9545L75.1989 20.1477H75.1136V27H74.0568V18.2727H75.0795L79.8523 25.142H79.9375V18.2727H80.9773Z" fill="white"/>
<path d="M77.5 0L83.9952 11.25H71.0048L77.5 0Z" fill="white"/>
<path d="M57.9442 53.0676C57.5441 52.9604 57.1328 53.1978 57.0256 53.5979L55.2786 60.1179C55.1714 60.518 55.4088 60.9293 55.8089 61.0365C56.209 61.1437 56.6203 60.9062 56.7275 60.5061L58.2804 54.7106L64.0759 56.2635C64.476 56.3707 64.8873 56.1333 64.9945 55.7332C65.1017 55.3331 64.8643 54.9218 64.4642 54.8146L57.9442 53.0676ZM97.8996 121.833L58.3996 53.417L57.1005 54.167L96.6005 122.583L97.8996 121.833Z" fill="black"/>
</svg>
