<svg width="155" height="165" viewBox="0 0 155 165" fill="none" xmlns="http://www.w3.org/2000/svg">
<circle cx="77.5" cy="87.5" r="76.75" stroke="white" stroke-width="1.5"/>
<circle cx="77.5" cy="87.5" r="51.75" fill="white" stroke="white" stroke-width="1.5"/>
<path d="M80.9773 18.2727V27H79.9545L75.1989 20.1477H75.1136V27H74.0568V18.2727H75.0795L79.8523 25.142H79.9375V18.2727H80.9773Z" fill="white"/>
<path d="M77.5 0L83.9952 11.25H71.0048L77.5 0Z" fill="white"/>
<path d="M58.5568 52.7316C58.1586 52.6174 57.7433 52.8477 57.6291 53.2458L55.7686 59.7343C55.6544 60.1325 55.8846 60.5478 56.2828 60.662C56.6809 60.7762 57.0963 60.546 57.2105 60.1478L58.8643 54.3802L64.6318 56.0341C65.03 56.1482 65.4453 55.918 65.5595 55.5198C65.6737 55.1217 65.4435 54.7063 65.0453 54.5922L58.5568 52.7316ZM97.306 122.184L59.006 53.089L57.6941 53.8162L95.9941 122.911L97.306 122.184Z" fill="black"/>
</svg>
