<svg width="155" height="165" viewBox="0 0 155 165" fill="none" xmlns="http://www.w3.org/2000/svg">
<circle cx="77.5" cy="87.5" r="76.75" stroke="white" stroke-width="1.5"/>
<circle cx="77.5" cy="87.5" r="51.75" fill="white" stroke="white" stroke-width="1.5"/>
<path d="M80.9773 18.2727V27H79.9545L75.1989 20.1477H75.1136V27H74.0568V18.2727H75.0795L79.8523 25.142H79.9375V18.2727H80.9773Z" fill="white"/>
<path d="M77.5 0L83.9952 11.25H71.0048L77.5 0Z" fill="white"/>
<path d="M59.1752 52.4064C58.7791 52.2853 58.3598 52.5082 58.2387 52.9043L56.2652 59.3594C56.1441 59.7555 56.367 60.1748 56.7631 60.2959C57.1592 60.417 57.5785 60.1941 57.6996 59.7979L59.4539 54.0601L65.1917 55.8143C65.5878 55.9354 66.0071 55.7125 66.1282 55.3164C66.2493 54.9203 66.0264 54.501 65.6303 54.3799L59.1752 52.4064ZM96.7064 122.524L59.6181 52.7715L58.2937 53.4757L95.382 123.229L96.7064 122.524Z" fill="black"/>
</svg>
