<svg width="155" height="165" viewBox="0 0 155 165" fill="none" xmlns="http://www.w3.org/2000/svg">
<circle cx="77.5" cy="87.5" r="76.75" stroke="white" stroke-width="1.5"/>
<circle cx="77.5" cy="87.5" r="51.75" fill="white" stroke="white" stroke-width="1.5"/>
<path d="M80.9773 18.2727V27H79.9545L75.1989 20.1477H75.1136V27H74.0568V18.2727H75.0795L79.8523 25.142H79.9375V18.2727H80.9773Z" fill="white"/>
<path d="M77.5 0L83.9952 11.25H71.0048L77.5 0Z" fill="white"/>
<path d="M59.7992 52.092C59.4052 51.964 58.9821 52.1796 58.8541 52.5735L56.7683 58.9931C56.6403 59.3871 56.8559 59.8102 57.2498 59.9382C57.6437 60.0662 58.0668 59.8506 58.1948 59.4567L60.0489 53.7503L65.7553 55.6044C66.1492 55.7324 66.5723 55.5168 66.7003 55.1229C66.8283 54.729 66.6128 54.3059 66.2188 54.1779L59.7992 52.092ZM96.1009 122.854L60.2357 52.4648L58.8992 53.1458L94.7644 123.535L96.1009 122.854Z" fill="black"/>
</svg>
