<svg width="155" height="165" viewBox="0 0 155 165" fill="none" xmlns="http://www.w3.org/2000/svg">
<circle cx="77.5" cy="87.5" r="76.75" stroke="white" stroke-width="1.5"/>
<circle cx="77.5" cy="87.5" r="51.75" fill="white" stroke="white" stroke-width="1.5"/>
<path d="M80.9773 18.2727V27H79.9545L75.1989 20.1477H75.1136V27H74.0568V18.2727H75.0795L79.8523 25.142H79.9375V18.2727H80.9773Z" fill="white"/>
<path d="M77.5 0L83.9952 11.25H71.0048L77.5 0Z" fill="white"/>
<path d="M60.4286 51.7885C60.0369 51.6537 59.6101 51.8619 59.4752 52.2535L57.2777 58.6357C57.1428 59.0274 57.351 59.4542 57.7426 59.5891C58.1343 59.7239 58.5611 59.5157 58.6959 59.1241L60.6493 53.451L66.3225 55.4044C66.7141 55.5393 67.1409 55.3311 67.2758 54.9394C67.4106 54.5478 67.2025 54.121 66.8108 53.9861L60.4286 51.7885ZM95.4898 123.174L60.8585 52.1689L59.5103 52.8265L94.1416 123.831L95.4898 123.174Z" fill="black"/>
</svg>
