<svg width="155" height="165" viewBox="0 0 155 165" fill="none" xmlns="http://www.w3.org/2000/svg">
<circle cx="77.5" cy="87.5" r="76.75" stroke="white" stroke-width="1.5"/>
<circle cx="77.5" cy="87.5" r="51.75" fill="white" stroke="white" stroke-width="1.5"/>
<path d="M80.9773 18.2727V27H79.9545L75.1989 20.1477H75.1136V27H74.0568V18.2727H75.0795L79.8523 25.142H79.9375V18.2727H80.9773Z" fill="white"/>
<path d="M77.5 0L83.9952 11.25H71.0048L77.5 0Z" fill="white"/>
<path d="M61.0631 51.4961C60.6739 51.3544 60.2435 51.5551 60.1019 51.9444L57.7932 58.2873C57.6515 58.6765 57.8522 59.1069 58.2415 59.2486C58.6307 59.3902 59.0611 59.1896 59.2028 58.8003L61.2549 53.1622L66.893 55.2143C67.2823 55.356 67.7126 55.1553 67.8543 54.766C67.996 54.3768 67.7953 53.9464 67.4061 53.8047L61.0631 51.4961ZM94.8732 123.482L61.4864 51.8839L60.1269 52.5178L93.5137 124.116L94.8732 123.482Z" fill="black"/>
</svg>
