<svg width="155" height="165" viewBox="0 0 155 165" fill="none" xmlns="http://www.w3.org/2000/svg">
<circle cx="77.5" cy="87.5" r="76.75" stroke="white" stroke-width="1.5"/>
<circle cx="77.5" cy="87.5" r="51.75" fill="white" stroke="white" stroke-width="1.5"/>
<path d="M80.9773 18.2727V27H79.9545L75.1989 20.1477H75.1136V27H74.0568V18.2727H75.0795L79.8523 25.142H79.9375V18.2727H80.9773Z" fill="white"/>
<path d="M77.5 0L83.9952 11.25H71.0048L77.5 0Z" fill="white"/>
<path d="M61.7027 51.2148C61.316 51.0664 60.8822 51.2595 60.7338 51.6462L58.3148 57.9479C58.1663 58.3346 58.3595 58.7684 58.7462 58.9168C59.1329 59.0653 59.5667 58.8721 59.7151 58.4854L61.8653 52.884L67.4668 55.0342C67.8535 55.1826 68.2874 54.9895 68.4358 54.6028C68.5842 54.216 68.3911 53.7822 68.0044 53.6338L61.7027 51.2148ZM94.2513 123.78L62.1191 51.6099L60.7488 52.22L92.881 124.39L94.2513 123.78Z" fill="black"/>
</svg>
