<svg width="155" height="165" viewBox="0 0 155 165" fill="none" xmlns="http://www.w3.org/2000/svg">
<circle cx="77.5" cy="87.5" r="76.75" stroke="white" stroke-width="1.5"/>
<circle cx="77.5" cy="87.5" r="51.75" fill="white" stroke="white" stroke-width="1.5"/>
<path d="M80.9773 18.2727V27H79.9545L75.1989 20.1477H75.1136V27H74.0568V18.2727H75.0795L79.8523 25.142H79.9375V18.2727H80.9773Z" fill="white"/>
<path d="M77.5 0L83.9952 11.25H71.0048L77.5 0Z" fill="white"/>
<path d="M62.3471 50.9447C61.9631 50.7895 61.5259 50.9751 61.3708 51.3591L58.8422 57.6176C58.687 58.0017 58.8726 58.4388 59.2566 58.594C59.6407 58.7491 60.0778 58.5636 60.233 58.1795L62.4806 52.6164L68.0437 54.8641C68.4277 55.0192 68.8649 54.8337 69.02 54.4496C69.1752 54.0656 68.9897 53.6285 68.6056 53.4733L62.3471 50.9447ZM93.6243 124.067L62.7565 51.347L61.3758 51.9331L92.2435 124.653L93.6243 124.067Z" fill="black"/>
</svg>
