<svg width="155" height="165" viewBox="0 0 155 165" fill="none" xmlns="http://www.w3.org/2000/svg">
<circle cx="77.5" cy="87.5" r="76.75" stroke="white" stroke-width="1.5"/>
<circle cx="77.5" cy="87.5" r="51.75" fill="white" stroke="white" stroke-width="1.5"/>
<path d="M80.9773 18.2727V27H79.9545L75.1989 20.1477H75.1136V27H74.0568V18.2727H75.0795L79.8523 25.142H79.9375V18.2727H80.9773Z" fill="white"/>
<path d="M77.5 0L83.9952 11.25H71.0048L77.5 0Z" fill="white"/>
<path d="M62.9961 50.6859C62.6148 50.524 62.1745 50.7019 62.0127 51.0832L59.3753 57.2966C59.2134 57.6779 59.3913 58.1182 59.7726 58.2801C60.1539 58.4419 60.5942 58.264 60.756 57.8827L63.1004 52.3597L68.6234 54.7041C69.0047 54.8659 69.445 54.688 69.6069 54.3068C69.7687 53.9255 69.5908 53.4852 69.2095 53.3233L62.9961 50.6859ZM92.9924 124.343L63.3985 51.0953L62.0077 51.6572L91.6016 124.905L92.9924 124.343Z" fill="black"/>
</svg>
