<svg width="155" height="165" viewBox="0 0 155 165" fill="none" xmlns="http://www.w3.org/2000/svg">
<circle cx="77.5" cy="87.5" r="76.75" stroke="white" stroke-width="1.5"/>
<circle cx="77.5" cy="87.5" r="51.75" fill="white" stroke="white" stroke-width="1.5"/>
<path d="M80.9773 18.2727V27H79.9545L75.1989 20.1477H75.1136V27H74.0568V18.2727H75.0795L79.8523 25.142H79.9375V18.2727H80.9773Z" fill="white"/>
<path d="M77.5 0L83.9952 11.25H71.0048L77.5 0Z" fill="white"/>
<path d="M63.6496 50.4384C63.2712 50.27 62.8278 50.4401 62.6593 50.8186L59.9139 56.985C59.7454 57.3634 59.9156 57.8067 60.294 57.9752C60.6724 58.1437 61.1157 57.9735 61.2842 57.5951L63.7246 52.1138L69.2059 54.5542C69.5843 54.7227 70.0276 54.5525 70.1961 54.1741C70.3646 53.7957 70.1944 53.3524 69.816 53.1839L63.6496 50.4384ZM92.3558 124.608L64.0447 50.8548L62.6443 51.3924L90.9554 125.145L92.3558 124.608Z" fill="black"/>
</svg>
