<svg width="155" height="165" viewBox="0 0 155 165" fill="none" xmlns="http://www.w3.org/2000/svg">
<circle cx="77.5" cy="87.5" r="76.75" stroke="white" stroke-width="1.5"/>
<circle cx="77.5" cy="87.5" r="51.75" fill="white" stroke="white" stroke-width="1.5"/>
<path d="M80.9773 18.2727V27H79.9545L75.1989 20.1477H75.1136V27H74.0568V18.2727H75.0795L79.8523 25.142H79.9375V18.2727H80.9773Z" fill="white"/>
<path d="M77.5 0L83.9952 11.25H71.0048L77.5 0Z" fill="white"/>
<path d="M100.324 55.1099C100.245 54.7033 99.8516 54.4378 99.445 54.5168L92.819 55.8048C92.4124 55.8838 92.1469 56.2775 92.2259 56.6841C92.305 57.0907 92.6986 57.3563 93.1052 57.2772L98.995 56.1324L100.14 62.0221C100.219 62.4287 100.613 62.6943 101.019 62.6153C101.426 62.5362 101.691 62.1425 101.612 61.7359L100.324 55.1099ZM56.0337 121.166L100.21 55.6724L98.9663 54.8337L54.7901 120.328L56.0337 121.166Z" fill="black"/>
</svg>
