<svg width="155" height="165" viewBox="0 0 155 165" fill="none" xmlns="http://www.w3.org/2000/svg">
<circle cx="77.5" cy="87.5" r="76.75" stroke="white" stroke-width="1.5"/>
<circle cx="77.5" cy="87.5" r="51.75" fill="white" stroke="white" stroke-width="1.5"/>
<path d="M80.9773 18.2727V27H79.9545L75.1989 20.1477H75.1136V27H74.0568V18.2727H75.0795L79.8523 25.142H79.9375V18.2727H80.9773Z" fill="white"/>
<path d="M77.5 0L83.9952 11.25H71.0048L77.5 0Z" fill="white"/>
<path d="M64.3072 50.2024C63.9318 50.0274 63.4856 50.1898 63.3105 50.5652L60.4578 56.6828C60.2828 57.0582 60.4452 57.5044 60.8206 57.6795C61.196 57.8545 61.6422 57.6921 61.8173 57.3167L64.353 51.8789L69.7909 54.4146C70.1663 54.5896 70.6125 54.4272 70.7876 54.0518C70.9626 53.6764 70.8002 53.2302 70.4248 53.0551L64.3072 50.2024ZM91.7146 124.861L64.695 50.6257L63.2855 51.1387L90.3051 125.374L91.7146 124.861Z" fill="black"/>
</svg>
