<svg width="155" height="165" viewBox="0 0 155 165" fill="none" xmlns="http://www.w3.org/2000/svg">
<circle cx="77.5" cy="87.5" r="76.75" stroke="white" stroke-width="1.5"/>
<circle cx="77.5" cy="87.5" r="51.75" fill="white" stroke="white" stroke-width="1.5"/>
<path d="M80.9773 18.2727V27H79.9545L75.1989 20.1477H75.1136V27H74.0568V18.2727H75.0795L79.8523 25.142H79.9375V18.2727H80.9773Z" fill="white"/>
<path d="M77.5 0L83.9952 11.25H71.0048L77.5 0Z" fill="white"/>
<path d="M64.9689 49.978C64.5966 49.7964 64.1476 49.951 63.966 50.3233L61.007 56.3901C60.8254 56.7624 60.98 57.2114 61.3523 57.393C61.7246 57.5746 62.1736 57.42 62.3552 57.0477L64.9854 51.6549L70.3782 54.2851C70.7505 54.4667 71.1995 54.3121 71.3811 53.9398C71.5626 53.5675 71.408 53.1185 71.0357 52.937L64.9689 49.978ZM91.0691 125.104L65.3492 50.4079L63.931 50.8962L89.6508 125.592L91.0691 125.104Z" fill="black"/>
</svg>
