<svg width="155" height="165" viewBox="0 0 155 165" fill="none" xmlns="http://www.w3.org/2000/svg">
<circle cx="77.5" cy="87.5" r="76.75" stroke="white" stroke-width="1.5"/>
<circle cx="77.5" cy="87.5" r="51.75" fill="white" stroke="white" stroke-width="1.5"/>
<path d="M80.9773 18.2727V27H79.9545L75.1989 20.1477H75.1136V27H74.0568V18.2727H75.0795L79.8523 25.142H79.9375V18.2727H80.9773Z" fill="white"/>
<path d="M77.5 0L83.9952 11.25H71.0048L77.5 0Z" fill="white"/>
<path d="M65.6344 49.765C65.2653 49.577 64.8137 49.7237 64.6256 50.0928L61.5612 56.1071C61.3731 56.4762 61.5199 56.9278 61.8889 57.1158C62.258 57.3039 62.7096 57.1572 62.8977 56.7881L65.6216 51.442L70.9677 54.166C71.3367 54.354 71.7884 54.2073 71.9764 53.8382C72.1645 53.4692 72.0177 53.0175 71.6487 52.8295L65.6344 49.765ZM90.4195 125.335L66.0072 50.2015L64.5806 50.6651L88.9929 125.799L90.4195 125.335Z" fill="black"/>
</svg>
