<svg width="155" height="165" viewBox="0 0 155 165" fill="none" xmlns="http://www.w3.org/2000/svg">
<circle cx="77.5" cy="87.5" r="76.75" stroke="white" stroke-width="1.5"/>
<circle cx="77.5" cy="87.5" r="51.75" fill="white" stroke="white" stroke-width="1.5"/>
<path d="M80.9773 18.2727V27H79.9545L75.1989 20.1477H75.1136V27H74.0568V18.2727H75.0795L79.8523 25.142H79.9375V18.2727H80.9773Z" fill="white"/>
<path d="M77.5 0L83.9952 11.25H71.0048L77.5 0Z" fill="white"/>
<path d="M66.3035 49.5638C65.9377 49.3693 65.4836 49.5082 65.2891 49.8739L62.1202 55.8338C61.9258 56.1995 62.0646 56.6536 62.4303 56.8481C62.7961 57.0426 63.2502 56.9037 63.4446 56.538L66.2615 51.2403L71.5591 54.0571C71.9249 54.2516 72.379 54.1128 72.5735 53.747C72.7679 53.3813 72.6291 52.9272 72.2634 52.7327L66.3035 49.5638ZM89.7659 125.555L66.6686 50.0067L65.2341 50.4453L88.3315 125.993L89.7659 125.555Z" fill="black"/>
</svg>
