<svg width="155" height="165" viewBox="0 0 155 165" fill="none" xmlns="http://www.w3.org/2000/svg">
<circle cx="77.5" cy="87.5" r="76.75" stroke="white" stroke-width="1.5"/>
<circle cx="77.5" cy="87.5" r="51.75" fill="white" stroke="white" stroke-width="1.5"/>
<path d="M80.9773 18.2727V27H79.9545L75.1989 20.1477H75.1136V27H74.0568V18.2727H75.0795L79.8523 25.142H79.9375V18.2727H80.9773Z" fill="white"/>
<path d="M77.5 0L83.9952 11.25H71.0048L77.5 0Z" fill="white"/>
<path d="M66.976 49.3742C66.6137 49.1734 66.1572 49.3043 65.9564 49.6666L62.6839 55.5703C62.4831 55.9325 62.614 56.389 62.9763 56.5898C63.3386 56.7907 63.795 56.6598 63.9959 56.2975L66.9047 51.0498L72.1524 53.9586C72.5147 54.1594 72.9712 54.0285 73.172 53.6663C73.3728 53.304 73.2419 52.8475 72.8797 52.6467L66.976 49.3742ZM89.1087 125.763L67.3333 49.8235L65.8914 50.2369L87.6668 126.177L89.1087 125.763Z" fill="black"/>
</svg>
