<svg width="155" height="165" viewBox="0 0 155 165" fill="none" xmlns="http://www.w3.org/2000/svg">
<circle cx="77.5" cy="87.5" r="76.75" stroke="white" stroke-width="1.5"/>
<circle cx="77.5" cy="87.5" r="51.75" fill="white" stroke="white" stroke-width="1.5"/>
<path d="M80.9773 18.2727V27H79.9545L75.1989 20.1477H75.1136V27H74.0568V18.2727H75.0795L79.8523 25.142H79.9375V18.2727H80.9773Z" fill="white"/>
<path d="M77.5 0L83.9952 11.25H71.0048L77.5 0Z" fill="white"/>
<path d="M67.6517 49.1964C67.293 48.9893 66.8343 49.1122 66.6272 49.471L63.2522 55.3166C63.0451 55.6754 63.168 56.134 63.5267 56.3412C63.8854 56.5483 64.3441 56.4254 64.5512 56.0666L67.5512 50.8705L72.7474 53.8705C73.1061 54.0776 73.5648 53.9547 73.7719 53.596C73.979 53.2372 73.8561 52.7786 73.4974 52.5714L67.6517 49.1964ZM88.4478 125.96L68.0011 49.6518L66.5522 50.0401L86.9989 126.348L88.4478 125.96Z" fill="black"/>
</svg>
