<svg width="155" height="165" viewBox="0 0 155 165" fill="none" xmlns="http://www.w3.org/2000/svg">
<circle cx="77.5" cy="87.5" r="76.75" stroke="white" stroke-width="1.5"/>
<circle cx="77.5" cy="87.5" r="51.75" fill="white" stroke="white" stroke-width="1.5"/>
<path d="M80.9773 18.2727V27H79.9545L75.1989 20.1477H75.1136V27H74.0568V18.2727H75.0795L79.8523 25.142H79.9375V18.2727H80.9773Z" fill="white"/>
<path d="M77.5 0L83.9952 11.25H71.0048L77.5 0Z" fill="white"/>
<path d="M68.3304 49.0305C67.9754 48.8171 67.5146 48.932 67.3012 49.2871L63.8247 55.0729C63.6114 55.428 63.7263 55.8888 64.0813 56.1021C64.4364 56.3154 64.8972 56.2006 65.1105 55.8455L68.2007 50.7025L73.3437 53.7927C73.6988 54.0061 74.1595 53.8912 74.3729 53.5361C74.5862 53.1811 74.4713 52.7203 74.1163 52.507L68.3304 49.0305ZM87.7837 126.145L68.6718 49.4919L67.2164 49.8548L86.3282 126.508L87.7837 126.145Z" fill="black"/>
</svg>
