<svg width="155" height="165" viewBox="0 0 155 165" fill="none" xmlns="http://www.w3.org/2000/svg">
<circle cx="77.5" cy="87.5" r="76.75" stroke="white" stroke-width="1.5"/>
<circle cx="77.5" cy="87.5" r="51.75" fill="white" stroke="white" stroke-width="1.5"/>
<path d="M80.9773 18.2727V27H79.9545L75.1989 20.1477H75.1136V27H74.0568V18.2727H75.0795L79.8523 25.142H79.9375V18.2727H80.9773Z" fill="white"/>
<path d="M77.5 0L83.9952 11.25H71.0048L77.5 0Z" fill="white"/>
<path d="M69.0119 48.8764C68.6606 48.6569 68.1979 48.7637 67.9784 49.115L64.4015 54.8393C64.182 55.1906 64.2888 55.6533 64.6401 55.8728C64.9914 56.0923 65.4541 55.9854 65.6736 55.6342L68.8531 50.5459L73.9414 53.7254C74.2926 53.9449 74.7553 53.8381 74.9748 53.4868C75.1943 53.1355 75.0875 52.6728 74.7362 52.4533L69.0119 48.8764ZM87.1164 126.319L69.3452 49.3437L67.8837 49.6811L85.6548 126.656L87.1164 126.319Z" fill="black"/>
</svg>
