<svg width="155" height="165" viewBox="0 0 155 165" fill="none" xmlns="http://www.w3.org/2000/svg">
<circle cx="77.5" cy="87.5" r="76.75" stroke="white" stroke-width="1.5"/>
<circle cx="77.5" cy="87.5" r="51.75" fill="white" stroke="white" stroke-width="1.5"/>
<path d="M80.9773 18.2727V27H79.9545L75.1989 20.1477H75.1136V27H74.0568V18.2727H75.0795L79.8523 25.142H79.9375V18.2727H80.9773Z" fill="white"/>
<path d="M77.5 0L83.9952 11.25H71.0048L77.5 0Z" fill="white"/>
<path d="M69.696 48.7342C69.3486 48.5086 68.8841 48.6073 68.6585 48.9547L64.9822 54.6157C64.7566 54.9631 64.8553 55.4276 65.2027 55.6532C65.5501 55.8788 66.0146 55.7801 66.2402 55.4327L69.508 50.4007L74.5401 53.6685C74.8875 53.8941 75.352 53.7954 75.5776 53.448C75.8032 53.1006 75.7044 52.6361 75.357 52.4105L69.696 48.7342ZM86.4462 126.481L70.0211 49.2073L68.5539 49.5191L84.9789 126.793L86.4462 126.481Z" fill="black"/>
</svg>
