<svg width="155" height="165" viewBox="0 0 155 165" fill="none" xmlns="http://www.w3.org/2000/svg">
<circle cx="77.5" cy="87.5" r="76.75" stroke="white" stroke-width="1.5"/>
<circle cx="77.5" cy="87.5" r="51.75" fill="white" stroke="white" stroke-width="1.5"/>
<path d="M80.9773 18.2727V27H79.9545L75.1989 20.1477H75.1136V27H74.0568V18.2727H75.0795L79.8523 25.142H79.9375V18.2727H80.9773Z" fill="white"/>
<path d="M77.5 0L83.9952 11.25H71.0048L77.5 0Z" fill="white"/>
<path d="M70.3825 48.604C70.0391 48.3724 69.5729 48.463 69.3413 48.8064L65.5667 54.4024C65.3351 54.7458 65.4257 55.2119 65.7691 55.4435C66.1125 55.6752 66.5787 55.5846 66.8103 55.2412L70.1655 50.2669L75.1397 53.6221C75.4831 53.8537 75.9492 53.7631 76.1809 53.4197C76.4125 53.0763 76.3219 52.6102 75.9785 52.3785L70.3825 48.604ZM85.7732 126.631L70.6993 49.0826L69.2269 49.3689L84.3008 126.917L85.7732 126.631Z" fill="black"/>
</svg>
