<svg width="155" height="165" viewBox="0 0 155 165" fill="none" xmlns="http://www.w3.org/2000/svg">
<circle cx="77.5" cy="87.5" r="76.75" stroke="white" stroke-width="1.5"/>
<circle cx="77.5" cy="87.5" r="51.75" fill="white" stroke="white" stroke-width="1.5"/>
<path d="M80.9773 18.2727V27H79.9545L75.1989 20.1477H75.1136V27H74.0568V18.2727H75.0795L79.8523 25.142H79.9375V18.2727H80.9773Z" fill="white"/>
<path d="M77.5 0L83.9952 11.25H71.0048L77.5 0Z" fill="white"/>
<path d="M100.895 55.5133C100.823 55.1054 100.434 54.833 100.026 54.9049L93.3786 56.077C92.9707 56.149 92.6983 56.538 92.7702 56.9459C92.8421 57.3538 93.2311 57.6262 93.6391 57.5543L99.5479 56.5124L100.59 62.4212C100.662 62.8291 101.051 63.1015 101.459 63.0296C101.867 62.9577 102.139 62.5687 102.067 62.1607L100.895 55.5133ZM55.4581 120.787L100.771 56.0737L99.5419 55.2133L54.2294 119.926L55.4581 120.787Z" fill="black"/>
</svg>
