<svg width="155" height="165" viewBox="0 0 155 165" fill="none" xmlns="http://www.w3.org/2000/svg">
<circle cx="77.5" cy="87.5" r="76.75" stroke="white" stroke-width="1.5"/>
<circle cx="77.5" cy="87.5" r="51.75" fill="white" stroke="white" stroke-width="1.5"/>
<path d="M80.9773 18.2727V27H79.9545L75.1989 20.1477H75.1136V27H74.0568V18.2727H75.0795L79.8523 25.142H79.9375V18.2727H80.9773Z" fill="white"/>
<path d="M77.5 0L83.9952 11.25H71.0048L77.5 0Z" fill="white"/>
<path d="M71.0711 48.4858C70.7318 48.2482 70.2641 48.3306 70.0266 48.6699L66.1549 54.1992C65.9173 54.5385 65.9998 55.0062 66.3391 55.2438C66.6784 55.4813 67.1461 55.3989 67.3836 55.0596L70.8251 50.1447L75.74 53.5861C76.0793 53.8237 76.547 53.7412 76.7846 53.4019C77.0221 53.0626 76.9397 52.595 76.6004 52.3574L71.0711 48.4858ZM85.0977 126.77L71.3795 48.9699L69.9023 49.2304L83.6205 127.03L85.0977 126.77Z" fill="black"/>
</svg>
