<svg width="155" height="165" viewBox="0 0 155 165" fill="none" xmlns="http://www.w3.org/2000/svg">
<circle cx="77.5" cy="87.5" r="76.75" stroke="white" stroke-width="1.5"/>
<circle cx="77.5" cy="87.5" r="51.75" fill="white" stroke="white" stroke-width="1.5"/>
<path d="M80.9773 18.2727V27H79.9545L75.1989 20.1477H75.1136V27H74.0568V18.2727H75.0795L79.8523 25.142H79.9375V18.2727H80.9773Z" fill="white"/>
<path d="M77.5 0L83.9952 11.25H71.0048L77.5 0Z" fill="white"/>
<path d="M71.7617 48.3796C71.4266 48.1361 70.9576 48.2104 70.7141 48.5455L66.7466 54.0064C66.5031 54.3415 66.5774 54.8105 66.9125 55.054C67.2476 55.2974 67.7166 55.2232 67.9601 54.888L71.4868 50.0339L76.3409 53.5607C76.676 53.8041 77.145 53.7298 77.3885 53.3947C77.632 53.0596 77.5577 52.5906 77.2226 52.3471L71.7617 48.3796ZM84.42 126.896L72.0616 48.869L70.5801 49.1037L82.9384 127.131L84.42 126.896Z" fill="black"/>
</svg>
