<svg width="155" height="165" viewBox="0 0 155 165" fill="none" xmlns="http://www.w3.org/2000/svg">
<circle cx="77.5" cy="87.5" r="76.75" stroke="white" stroke-width="1.5"/>
<circle cx="77.5" cy="87.5" r="51.75" fill="white" stroke="white" stroke-width="1.5"/>
<path d="M80.9773 18.2727V27H79.9545L75.1989 20.1477H75.1136V27H74.0568V18.2727H75.0795L79.8523 25.142H79.9375V18.2727H80.9773Z" fill="white"/>
<path d="M77.5 0L83.9952 11.25H71.0048L77.5 0Z" fill="white"/>
<path d="M72.4541 48.2855C72.1232 48.0362 71.653 48.1023 71.4037 48.4331L67.3415 53.8239C67.0922 54.1547 67.1583 54.6249 67.4891 54.8742C67.8199 55.1235 68.2901 55.0574 68.5394 54.7266L72.1503 49.9348L76.9421 53.5457C77.2729 53.7949 77.7432 53.7289 77.9925 53.3981C78.2417 53.0672 78.1756 52.597 77.8448 52.3477L72.4541 48.2855ZM83.7401 127.011L72.7454 48.7801L71.26 48.9888L82.2547 127.22L83.7401 127.011Z" fill="black"/>
</svg>
