<svg width="155" height="165" viewBox="0 0 155 165" fill="none" xmlns="http://www.w3.org/2000/svg">
<circle cx="77.5" cy="87.5" r="76.75" stroke="white" stroke-width="1.5"/>
<circle cx="77.5" cy="87.5" r="51.75" fill="white" stroke="white" stroke-width="1.5"/>
<path d="M80.9773 18.2727V27H79.9545L75.1989 20.1477H75.1136V27H74.0568V18.2727H75.0795L79.8523 25.142H79.9375V18.2727H80.9773Z" fill="white"/>
<path d="M77.5 0L83.9952 11.25H71.0048L77.5 0Z" fill="white"/>
<path d="M73.1479 48.2034C72.8215 47.9484 72.3502 48.0063 72.0952 48.3327L67.9395 53.6518C67.6844 53.9782 67.7423 54.4495 68.0687 54.7045C68.3951 54.9595 68.8665 54.9017 69.1215 54.5753L72.8154 49.8472L77.5435 53.5412C77.8699 53.7962 78.3413 53.7383 78.5963 53.4119C78.8513 53.0855 78.7934 52.6142 78.467 52.3592L73.1479 48.2034ZM83.0583 127.114L73.4306 48.703L71.9418 48.8859L81.5695 127.297L83.0583 127.114Z" fill="black"/>
</svg>
