<svg width="155" height="165" viewBox="0 0 155 165" fill="none" xmlns="http://www.w3.org/2000/svg">
<circle cx="77.5" cy="87.5" r="76.75" stroke="white" stroke-width="1.5"/>
<circle cx="77.5" cy="87.5" r="51.75" fill="white" stroke="white" stroke-width="1.5"/>
<path d="M80.9773 18.2727V27H79.9545L75.1989 20.1477H75.1136V27H74.0568V18.2727H75.0795L79.8523 25.142H79.9375V18.2727H80.9773Z" fill="white"/>
<path d="M77.5 0L83.9952 11.25H71.0048L77.5 0Z" fill="white"/>
<path d="M73.8431 48.1336C73.5212 47.8729 73.049 47.9225 72.7883 48.2444L68.5404 53.4902C68.2797 53.8121 68.3293 54.2843 68.6512 54.545C68.9732 54.8057 69.4454 54.756 69.7061 54.4341L73.482 49.7713L78.1449 53.5472C78.4668 53.8079 78.9391 53.7582 79.1997 53.4363C79.4604 53.1144 79.4108 52.6421 79.0889 52.3815L73.8431 48.1336ZM82.3748 127.205L74.117 48.638L72.6253 48.7948L80.883 127.362L82.3748 127.205Z" fill="black"/>
</svg>
