<svg width="155" height="165" viewBox="0 0 155 165" fill="none" xmlns="http://www.w3.org/2000/svg">
<circle cx="77.5" cy="87.5" r="76.75" stroke="white" stroke-width="1.5"/>
<circle cx="77.5" cy="87.5" r="51.75" fill="white" stroke="white" stroke-width="1.5"/>
<path d="M80.9773 18.2727V27H79.9545L75.1989 20.1477H75.1136V27H74.0568V18.2727H75.0795L79.8523 25.142H79.9375V18.2727H80.9773Z" fill="white"/>
<path d="M77.5 0L83.9952 11.25H71.0048L77.5 0Z" fill="white"/>
<path d="M74.5395 48.0758C74.2222 47.8096 73.7491 47.8509 73.4828 48.1682L69.144 53.339C68.8778 53.6564 68.9192 54.1294 69.2365 54.3957C69.5538 54.6619 70.0268 54.6205 70.2931 54.3032L74.1498 49.707L78.7461 53.5637C79.0634 53.8299 79.5365 53.7886 79.8027 53.4712C80.069 53.1539 80.0276 52.6809 79.7103 52.4146L74.5395 48.0758ZM81.6898 127.284L74.8045 48.585L73.3102 48.7157L80.1955 127.415L81.6898 127.284Z" fill="black"/>
</svg>
