<svg width="155" height="165" viewBox="0 0 155 165" fill="none" xmlns="http://www.w3.org/2000/svg">
<circle cx="77.5" cy="87.5" r="76.75" stroke="white" stroke-width="1.5"/>
<circle cx="77.5" cy="87.5" r="51.75" fill="white" stroke="white" stroke-width="1.5"/>
<path d="M80.9773 18.2727V27H79.9545L75.1989 20.1477H75.1136V27H74.0568V18.2727H75.0795L79.8523 25.142H79.9375V18.2727H80.9773Z" fill="white"/>
<path d="M77.5 0L83.9952 11.25H71.0048L77.5 0Z" fill="white"/>
<path d="M75.2367 48.0302C74.9241 47.7585 74.4504 47.7916 74.1786 48.1042L69.7502 53.1985C69.4785 53.5111 69.5116 53.9848 69.8242 54.2566C70.1368 54.5283 70.6105 54.4952 70.8823 54.1826L74.8186 49.6543L79.3469 53.5907C79.6595 53.8624 80.1332 53.8293 80.405 53.5167C80.6767 53.2041 80.6436 52.7304 80.331 52.4586L75.2367 48.0302ZM81.0036 127.351L75.4928 48.5439L73.9965 48.6486L79.5072 127.456L81.0036 127.351Z" fill="black"/>
</svg>
