<svg width="155" height="165" viewBox="0 0 155 165" fill="none" xmlns="http://www.w3.org/2000/svg">
<circle cx="77.5" cy="87.5" r="76.75" stroke="white" stroke-width="1.5"/>
<circle cx="77.5" cy="87.5" r="51.75" fill="white" stroke="white" stroke-width="1.5"/>
<path d="M80.9773 18.2727V27H79.9545L75.1989 20.1477H75.1136V27H74.0568V18.2727H75.0795L79.8523 25.142H79.9375V18.2727H80.9773Z" fill="white"/>
<path d="M77.5 0L83.9952 11.25H71.0048L77.5 0Z" fill="white"/>
<path d="M75.9346 47.9968C75.6268 47.7196 75.1526 47.7445 74.8754 48.0523L70.3588 53.0685C70.0816 53.3764 70.1065 53.8506 70.4143 54.1277C70.7221 54.4049 71.1963 54.3801 71.4735 54.0722L75.4883 49.6134L79.9471 53.6282C80.255 53.9053 80.7292 53.8805 81.0063 53.5726C81.2835 53.2648 81.2586 52.7906 80.9508 52.5134L75.9346 47.9968ZM80.3163 127.407L76.1817 48.5149L74.6838 48.5934L78.8183 127.485L80.3163 127.407Z" fill="black"/>
</svg>
