<svg width="155" height="165" viewBox="0 0 155 165" fill="none" xmlns="http://www.w3.org/2000/svg">
<circle cx="77.5" cy="87.5" r="76.75" stroke="white" stroke-width="1.5"/>
<circle cx="77.5" cy="87.5" r="51.75" fill="white" stroke="white" stroke-width="1.5"/>
<path d="M80.9773 18.2727V27H79.9545L75.1989 20.1477H75.1136V27H74.0568V18.2727H75.0795L79.8523 25.142H79.9375V18.2727H80.9773Z" fill="white"/>
<path d="M77.5 0L83.9952 11.25H71.0048L77.5 0Z" fill="white"/>
<path d="M76.633 47.9756C76.33 47.6931 75.8555 47.7097 75.573 48.0126L70.9695 52.9492C70.687 53.2522 70.7036 53.7267 71.0065 54.0092C71.3094 54.2917 71.784 54.2752 72.0665 53.9722L76.1585 49.5841L80.5466 53.6761C80.8496 53.9586 81.3241 53.942 81.6066 53.6391C81.8891 53.3361 81.8726 52.8616 81.5696 52.5791L76.633 47.9756ZM79.6281 127.45L76.871 48.4979L75.3719 48.5503L78.129 127.502L79.6281 127.45Z" fill="black"/>
</svg>
