<svg width="155" height="165" viewBox="0 0 155 165" fill="none" xmlns="http://www.w3.org/2000/svg">
<circle cx="77.5" cy="87.5" r="76.75" stroke="white" stroke-width="1.5"/>
<circle cx="77.5" cy="87.5" r="51.75" fill="white" stroke="white" stroke-width="1.5"/>
<path d="M80.9773 18.2727V27H79.9545L75.1989 20.1477H75.1136V27H74.0568V18.2727H75.0795L79.8523 25.142H79.9375V18.2727H80.9773Z" fill="white"/>
<path d="M77.5 0L83.9952 11.25H71.0048L77.5 0Z" fill="white"/>
<path d="M77.3316 47.9665C77.0337 47.6788 76.5589 47.6871 76.2711 47.985L71.5822 52.8406C71.2945 53.1385 71.3027 53.6134 71.6007 53.9011C71.8987 54.1888 72.3735 54.1805 72.6612 53.8826L76.8292 49.5665L81.1452 53.7345C81.4432 54.0222 81.918 54.0139 82.2057 53.716C82.4934 53.418 82.4851 52.9432 82.1872 52.6555L77.3316 47.9665ZM78.9393 127.481L77.5605 48.4929L76.0608 48.5191L77.4395 127.507L78.9393 127.481Z" fill="black"/>
</svg>
