<svg width="155" height="165" viewBox="0 0 155 165" fill="none" xmlns="http://www.w3.org/2000/svg">
<circle cx="77.5" cy="87.5" r="76.75" stroke="white" stroke-width="1.5"/>
<circle cx="77.5" cy="87.5" r="51.75" fill="white" stroke="white" stroke-width="1.5"/>
<path d="M80.9773 18.2727V27H79.9545L75.1989 20.1477H75.1136V27H74.0568V18.2727H75.0795L79.8523 25.142H79.9375V18.2727H80.9773Z" fill="white"/>
<path d="M77.5 0L83.9952 11.25H71.0048L77.5 0Z" fill="white"/>
<path d="M101.458 55.9265C101.393 55.5174 101.009 55.2383 100.6 55.3031L93.9333 56.359C93.5242 56.4238 93.2451 56.808 93.3099 57.2171C93.3747 57.6262 93.7588 57.9054 94.1679 57.8406L100.094 56.902L101.033 62.8281C101.097 63.2372 101.482 63.5163 101.891 63.4515C102.3 63.3867 102.579 63.0025 102.514 62.5934L101.458 55.9265ZM54.8892 120.397L101.324 56.4847L100.111 55.603L53.6757 119.515L54.8892 120.397Z" fill="black"/>
</svg>
