<svg width="155" height="165" viewBox="0 0 155 165" fill="none" xmlns="http://www.w3.org/2000/svg">
<circle cx="77.5" cy="87.5" r="76.75" stroke="white" stroke-width="1.5"/>
<circle cx="77.5" cy="87.5" r="51.75" fill="white" stroke="white" stroke-width="1.5"/>
<path d="M80.9773 18.2727V27H79.9545L75.1989 20.1477H75.1136V27H74.0568V18.2727H75.0795L79.8523 25.142H79.9375V18.2727H80.9773Z" fill="white"/>
<path d="M77.5 0L83.9952 11.25H71.0048L77.5 0Z" fill="white"/>
<path d="M78.0303 47.9697C77.7375 47.6768 77.2626 47.6768 76.9697 47.9697L72.1967 52.7427C71.9038 53.0356 71.9038 53.5104 72.1967 53.8033C72.4896 54.0962 72.9645 54.0962 73.2574 53.8033L77.5 49.5607L81.7427 53.8033C82.0355 54.0962 82.5104 54.0962 82.8033 53.8033C83.0962 53.5104 83.0962 53.0356 82.8033 52.7427L78.0303 47.9697ZM78.25 127.5V48.5H76.75V127.5H78.25Z" fill="black"/>
</svg>
