<svg width="155" height="165" viewBox="0 0 155 165" fill="none" xmlns="http://www.w3.org/2000/svg">
<circle cx="77.5" cy="87.5" r="76.75" stroke="white" stroke-width="1.5"/>
<circle cx="77.5" cy="87.5" r="51.75" fill="white" stroke="white" stroke-width="1.5"/>
<path d="M80.9773 18.2727V27H79.9545L75.1989 20.1477H75.1136V27H74.0568V18.2727H75.0795L79.8523 25.142H79.9375V18.2727H80.9773Z" fill="white"/>
<path d="M77.5 0L83.9952 11.25H71.0048L77.5 0Z" fill="white"/>
<path d="M102.014 56.3495C101.957 55.9394 101.577 55.6536 101.167 55.7112L94.483 56.6506C94.0728 56.7083 93.787 57.0875 93.8447 57.4977C93.9023 57.9079 94.2816 58.1937 94.6918 58.136L100.633 57.301L101.468 63.2426C101.526 63.6528 101.905 63.9386 102.315 63.8809C102.726 63.8233 103.011 63.444 102.954 63.0339L102.014 56.3495ZM54.3273 119.997L101.871 56.9053L100.673 56.0026L53.1293 119.095L54.3273 119.997Z" fill="black"/>
</svg>
