<svg width="155" height="165" viewBox="0 0 155 165" fill="none" xmlns="http://www.w3.org/2000/svg">
<circle cx="77.5" cy="87.5" r="76.75" stroke="white" stroke-width="1.5"/>
<circle cx="77.5" cy="87.5" r="51.75" fill="white" stroke="white" stroke-width="1.5"/>
<path d="M80.9773 18.2727V27H79.9545L75.1989 20.1477H75.1136V27H74.0568V18.2727H75.0795L79.8523 25.142H79.9375V18.2727H80.9773Z" fill="white"/>
<path d="M77.5 0L83.9952 11.25H71.0048L77.5 0Z" fill="white"/>
<path d="M102.563 56.7822C102.513 56.3711 102.138 56.0787 101.727 56.1292L95.0275 56.9518C94.6164 57.0023 94.324 57.3765 94.3745 57.7876C94.425 58.1988 94.7992 58.4911 95.2103 58.4406L101.166 57.7094L101.897 63.6647C101.947 64.0758 102.322 64.3682 102.733 64.3177C103.144 64.2672 103.436 63.893 103.386 63.4819L102.563 56.7822ZM53.7724 119.588L102.41 57.3354L101.228 56.4119L52.5904 118.665L53.7724 119.588Z" fill="black"/>
</svg>
