<svg width="155" height="165" viewBox="0 0 155 165" fill="none" xmlns="http://www.w3.org/2000/svg">
<circle cx="77.5" cy="87.5" r="76.75" stroke="white" stroke-width="1.5"/>
<circle cx="77.5" cy="87.5" r="51.75" fill="white" stroke="white" stroke-width="1.5"/>
<path d="M80.9773 18.2727V27H79.9545L75.1989 20.1477H75.1136V27H74.0568V18.2727H75.0795L79.8523 25.142H79.9375V18.2727H80.9773Z" fill="white"/>
<path d="M77.5 0L83.9952 11.25H71.0048L77.5 0Z" fill="white"/>
<path d="M103.104 57.2244C103.061 56.8124 102.692 56.5136 102.28 56.5569L95.5667 57.2624C95.1548 57.3057 94.8559 57.6748 94.8992 58.0867C94.9425 58.4987 95.3116 58.7975 95.7235 58.7542L101.691 58.1271L102.318 64.0942C102.361 64.5061 102.73 64.805 103.142 64.7617C103.554 64.7184 103.853 64.3493 103.81 63.9374L103.104 57.2244ZM53.2247 119.169L102.941 57.7748L101.775 56.8308L52.059 118.225L53.2247 119.169Z" fill="black"/>
</svg>
