<svg width="155" height="165" viewBox="0 0 155 165" fill="none" xmlns="http://www.w3.org/2000/svg">
<circle cx="77.5" cy="87.5" r="76.75" stroke="white" stroke-width="1.5"/>
<circle cx="77.5" cy="87.5" r="51.75" fill="white" stroke="white" stroke-width="1.5"/>
<path d="M80.9773 18.2727V27H79.9545L75.1989 20.1477H75.1136V27H74.0568V18.2727H75.0795L79.8523 25.142H79.9375V18.2727H80.9773Z" fill="white"/>
<path d="M77.5 0L83.9952 11.25H71.0048L77.5 0Z" fill="white"/>
<path d="M80.8214 48.1042C80.5497 47.7916 80.076 47.7585 79.7633 48.0302L74.6691 52.4586C74.3564 52.7304 74.3233 53.2041 74.5951 53.5167C74.8668 53.8293 75.3405 53.8624 75.6531 53.5907L80.1814 49.6543L84.1178 54.1826C84.3895 54.4952 84.8632 54.5283 85.1758 54.2566C85.4884 53.9848 85.5216 53.5111 85.2498 53.1985L80.8214 48.1042ZM75.4928 127.456L81.0036 48.6486L79.5072 48.5439L73.9965 127.351L75.4928 127.456Z" fill="black"/>
</svg>
