<svg width="155" height="165" viewBox="0 0 155 165" fill="none" xmlns="http://www.w3.org/2000/svg">
<circle cx="77.5" cy="87.5" r="76.75" stroke="white" stroke-width="1.5"/>
<circle cx="77.5" cy="87.5" r="51.75" fill="white" stroke="white" stroke-width="1.5"/>
<path d="M80.9773 18.2727V27H79.9545L75.1989 20.1477H75.1136V27H74.0568V18.2727H75.0795L79.8523 25.142H79.9375V18.2727H80.9773Z" fill="white"/>
<path d="M77.5 0L83.9952 11.25H71.0048L77.5 0Z" fill="white"/>
<path d="M103.637 57.6759C103.601 57.2633 103.237 56.958 102.825 56.9941L96.1004 57.5824C95.6878 57.6185 95.3825 57.9823 95.4186 58.3949C95.4547 58.8076 95.8185 59.1128 96.2312 59.0767L102.208 58.5538L102.731 64.531C102.767 64.9436 103.131 65.2488 103.544 65.2127C103.956 65.1766 104.262 64.8129 104.226 64.4002L103.637 57.6759ZM52.6844 118.741L103.465 58.2234L102.316 57.2592L51.5354 117.777L52.6844 118.741Z" fill="black"/>
</svg>
