<svg width="155" height="165" viewBox="0 0 155 165" fill="none" xmlns="http://www.w3.org/2000/svg">
<circle cx="77.5" cy="87.5" r="76.75" stroke="white" stroke-width="1.5"/>
<circle cx="77.5" cy="87.5" r="51.75" fill="white" stroke="white" stroke-width="1.5"/>
<path d="M80.9773 18.2727V27H79.9545L75.1989 20.1477H75.1136V27H74.0568V18.2727H75.0795L79.8523 25.142H79.9375V18.2727H80.9773Z" fill="white"/>
<path d="M77.5 0L83.9952 11.25H71.0048L77.5 0Z" fill="white"/>
<path d="M104.162 58.1367C104.134 57.7235 103.775 57.4119 103.362 57.4408L96.6285 57.9117C96.2152 57.9406 95.9037 58.299 95.9326 58.7122C95.9615 59.1254 96.3199 59.4369 96.7331 59.408L102.718 58.9895L103.137 64.9749C103.166 65.3881 103.524 65.6996 103.937 65.6707C104.351 65.6418 104.662 65.2834 104.633 64.8702L104.162 58.1367ZM52.1517 118.303L103.98 58.681L102.848 57.697L51.0196 117.319L52.1517 118.303Z" fill="black"/>
</svg>
