<svg width="155" height="165" viewBox="0 0 155 165" fill="none" xmlns="http://www.w3.org/2000/svg">
<circle cx="77.5" cy="87.5" r="76.75" stroke="white" stroke-width="1.5"/>
<circle cx="77.5" cy="87.5" r="51.75" fill="white" stroke="white" stroke-width="1.5"/>
<path d="M80.9773 18.2727V27H79.9545L75.1989 20.1477H75.1136V27H74.0568V18.2727H75.0795L79.8523 25.142H79.9375V18.2727H80.9773Z" fill="white"/>
<path d="M77.5 0L83.9952 11.25H71.0048L77.5 0Z" fill="white"/>
<path d="M104.68 58.6066C104.658 58.1929 104.305 57.8752 103.891 57.8968L97.1506 58.2501C96.737 58.2718 96.4193 58.6247 96.4409 59.0383C96.4626 59.452 96.8155 59.7697 97.2292 59.748L103.221 59.434L103.535 65.4258C103.557 65.8395 103.91 66.1572 104.323 66.1355C104.737 66.1138 105.055 65.7609 105.033 65.3473L104.68 58.6066ZM51.6267 117.856L104.488 59.1477L103.373 58.144L50.512 116.852L51.6267 117.856Z" fill="black"/>
</svg>
