<svg width="155" height="165" viewBox="0 0 155 165" fill="none" xmlns="http://www.w3.org/2000/svg">
<circle cx="77.5" cy="87.5" r="76.75" stroke="white" stroke-width="1.5"/>
<circle cx="77.5" cy="87.5" r="51.75" fill="white" stroke="white" stroke-width="1.5"/>
<path d="M80.9773 18.2727V27H79.9545L75.1989 20.1477H75.1136V27H74.0568V18.2727H75.0795L79.8523 25.142H79.9375V18.2727H80.9773Z" fill="white"/>
<path d="M77.5 0L83.9952 11.25H71.0048L77.5 0Z" fill="white"/>
<path d="M105.188 59.0854C105.174 58.6714 104.827 58.3476 104.413 58.362L97.6669 58.5976C97.2529 58.612 96.929 58.9593 96.9435 59.3733C96.958 59.7873 97.3053 60.1111 97.7192 60.0967L103.716 59.8873L103.925 65.8836C103.939 66.2976 104.287 66.6214 104.701 66.607C105.115 66.5925 105.438 66.2452 105.424 65.8313L105.188 59.0854ZM51.1096 117.4L104.987 59.623L103.89 58.6001L50.0126 116.377L51.1096 117.4Z" fill="black"/>
</svg>
