<svg width="155" height="165" viewBox="0 0 155 165" fill="none" xmlns="http://www.w3.org/2000/svg">
<circle cx="77.5" cy="87.5" r="76.75" stroke="white" stroke-width="1.5"/>
<circle cx="77.5" cy="87.5" r="51.75" fill="white" stroke="white" stroke-width="1.5"/>
<path d="M80.9773 18.2727V27H79.9545L75.1989 20.1477H75.1136V27H74.0568V18.2727H75.0795L79.8523 25.142H79.9375V18.2727H80.9773Z" fill="white"/>
<path d="M77.5 0L83.9952 11.25H71.0048L77.5 0Z" fill="white"/>
<path d="M105.689 59.573C105.682 59.1589 105.34 58.829 104.926 58.8362L98.1769 58.954C97.7628 58.9612 97.4329 59.3028 97.4401 59.717C97.4474 60.1311 97.789 60.461 98.2031 60.4538L104.202 60.3491L104.307 66.3482C104.314 66.7623 104.656 67.0922 105.07 67.085C105.484 67.0777 105.814 66.7361 105.807 66.322L105.689 59.573ZM50.6005 116.935L105.479 60.1071L104.399 59.0651L49.5215 115.893L50.6005 116.935Z" fill="black"/>
</svg>
