<svg width="155" height="165" viewBox="0 0 155 165" fill="none" xmlns="http://www.w3.org/2000/svg">
<circle cx="77.5" cy="87.5" r="76.75" stroke="white" stroke-width="1.5"/>
<circle cx="77.5" cy="87.5" r="51.75" fill="white" stroke="white" stroke-width="1.5"/>
<path d="M80.9773 18.2727V27H79.9545L75.1989 20.1477H75.1136V27H74.0568V18.2727H75.0795L79.8523 25.142H79.9375V18.2727H80.9773Z" fill="white"/>
<path d="M77.5 0L83.9952 11.25H71.0048L77.5 0Z" fill="white"/>
<path d="M106.181 60.0693C106.181 59.6551 105.845 59.3193 105.431 59.3193L98.6807 59.3193C98.2665 59.3193 97.9307 59.6551 97.9307 60.0693C97.9307 60.4835 98.2665 60.8193 98.6807 60.8193L104.681 60.8193V66.8193C104.681 67.2335 105.017 67.5693 105.431 67.5693C105.845 67.5693 106.181 67.2335 106.181 66.8193L106.181 60.0693ZM50.0996 116.461L105.961 60.5996L104.9 59.539L49.039 115.4L50.0996 116.461Z" fill="black"/>
</svg>
