<svg width="155" height="165" viewBox="0 0 155 165" fill="none" xmlns="http://www.w3.org/2000/svg">
<circle cx="77.5" cy="87.5" r="76.75" stroke="white" stroke-width="1.5"/>
<circle cx="77.5" cy="87.5" r="51.75" fill="white" stroke="white" stroke-width="1.5"/>
<path d="M80.9773 18.2727V27H79.9545L75.1989 20.1477H75.1136V27H74.0568V18.2727H75.0795L79.8523 25.142H79.9375V18.2727H80.9773Z" fill="white"/>
<path d="M77.5 0L83.9952 11.25H71.0048L77.5 0Z" fill="white"/>
<path d="M106.664 60.5741C106.671 60.16 106.341 59.8184 105.927 59.8111L99.178 59.6933C98.7639 59.6861 98.4223 60.016 98.4151 60.4301C98.4078 60.8443 98.7377 61.1859 99.1519 61.1931L105.151 61.2978L105.046 67.2969C105.039 67.711 105.369 68.0526 105.783 68.0599C106.197 68.0671 106.539 67.7372 106.546 67.3231L106.664 60.5741ZM49.6071 115.979L106.435 61.1005L105.393 60.0215L48.5651 114.9L49.6071 115.979Z" fill="black"/>
</svg>
