<svg width="155" height="165" viewBox="0 0 155 165" fill="none" xmlns="http://www.w3.org/2000/svg">
<circle cx="77.5" cy="87.5" r="76.75" stroke="white" stroke-width="1.5"/>
<circle cx="77.5" cy="87.5" r="51.75" fill="white" stroke="white" stroke-width="1.5"/>
<path d="M80.9773 18.2727V27H79.9545L75.1989 20.1477H75.1136V27H74.0568V18.2727H75.0795L79.8523 25.142H79.9375V18.2727H80.9773Z" fill="white"/>
<path d="M77.5 0L83.9952 11.25H71.0048L77.5 0Z" fill="white"/>
<path d="M107.138 61.0873C107.152 60.6733 106.829 60.326 106.415 60.3115L99.6688 60.076C99.2548 60.0615 98.9075 60.3854 98.893 60.7993C98.8786 61.2133 99.2024 61.5606 99.6164 61.5751L105.613 61.7845L105.403 67.7808C105.389 68.1948 105.713 68.5421 106.127 68.5565C106.541 68.571 106.888 68.2471 106.902 67.8331L107.138 61.0873ZM49.123 115.487L106.9 61.6096L105.877 60.5126L48.1 114.39L49.123 115.487Z" fill="black"/>
</svg>
