<svg width="155" height="165" viewBox="0 0 155 165" fill="none" xmlns="http://www.w3.org/2000/svg">
<circle cx="77.5" cy="87.5" r="76.75" stroke="white" stroke-width="1.5"/>
<circle cx="77.5" cy="87.5" r="51.75" fill="white" stroke="white" stroke-width="1.5"/>
<path d="M80.9773 18.2727V27H79.9545L75.1989 20.1477H75.1136V27H74.0568V18.2727H75.0795L79.8523 25.142H79.9375V18.2727H80.9773Z" fill="white"/>
<path d="M77.5 0L83.9952 11.25H71.0048L77.5 0Z" fill="white"/>
<path d="M107.603 61.6086C107.625 61.195 107.307 60.8421 106.893 60.8204L100.153 60.4671C99.7391 60.4454 99.3862 60.7632 99.3645 61.1768C99.3428 61.5905 99.6606 61.9434 100.074 61.9651L106.066 62.2791L105.752 68.2709C105.73 68.6845 106.048 69.0374 106.462 69.0591C106.875 69.0808 107.228 68.763 107.25 68.3494L107.603 61.6086ZM48.6476 114.988L107.356 62.1267L106.352 61.012L47.6439 113.873L48.6476 114.988Z" fill="black"/>
</svg>
