<svg width="155" height="165" viewBox="0 0 155 165" fill="none" xmlns="http://www.w3.org/2000/svg">
<circle cx="77.5" cy="87.5" r="76.75" stroke="white" stroke-width="1.5"/>
<circle cx="77.5" cy="87.5" r="51.75" fill="white" stroke="white" stroke-width="1.5"/>
<path d="M80.9773 18.2727V27H79.9545L75.1989 20.1477H75.1136V27H74.0568V18.2727H75.0795L79.8523 25.142H79.9375V18.2727H80.9773Z" fill="white"/>
<path d="M77.5 0L83.9952 11.25H71.0048L77.5 0Z" fill="white"/>
<path d="M108.059 62.138C108.088 61.7248 107.777 61.3664 107.363 61.3375L100.63 60.8667C100.217 60.8378 99.8582 61.1493 99.8293 61.5625C99.8004 61.9757 100.112 62.3341 100.525 62.363L106.511 62.7815L106.092 68.7669C106.063 69.1801 106.375 69.5385 106.788 69.5674C107.201 69.5963 107.559 69.2848 107.588 68.8716L108.059 62.138ZM48.181 114.48L107.803 62.6517L106.819 61.5197L47.1969 113.348L48.181 114.48Z" fill="black"/>
</svg>
