<svg width="155" height="165" viewBox="0 0 155 165" fill="none" xmlns="http://www.w3.org/2000/svg">
<circle cx="77.5" cy="87.5" r="76.75" stroke="white" stroke-width="1.5"/>
<circle cx="77.5" cy="87.5" r="51.75" fill="white" stroke="white" stroke-width="1.5"/>
<path d="M80.9773 18.2727V27H79.9545L75.1989 20.1477H75.1136V27H74.0568V18.2727H75.0795L79.8523 25.142H79.9375V18.2727H80.9773Z" fill="white"/>
<path d="M77.5 0L83.9952 11.25H71.0048L77.5 0Z" fill="white"/>
<path d="M81.5172 48.1682C81.2509 47.8509 80.7779 47.8096 80.4606 48.0758L75.2898 52.4146C74.9725 52.6809 74.9311 53.1539 75.1973 53.4712C75.4636 53.7886 75.9366 53.8299 76.254 53.5637L80.8502 49.707L84.7069 54.3032C84.9732 54.6205 85.4463 54.6619 85.7636 54.3957C86.0809 54.1294 86.1223 53.6564 85.856 53.339L81.5172 48.1682ZM74.8045 127.415L81.6898 48.7157L80.1955 48.585L73.3102 127.284L74.8045 127.415Z" fill="black"/>
</svg>
