<svg width="155" height="165" viewBox="0 0 155 165" fill="none" xmlns="http://www.w3.org/2000/svg">
<circle cx="77.5" cy="87.5" r="76.75" stroke="white" stroke-width="1.5"/>
<circle cx="77.5" cy="87.5" r="51.75" fill="white" stroke="white" stroke-width="1.5"/>
<path d="M80.9773 18.2727V27H79.9545L75.1989 20.1477H75.1136V27H74.0568V18.2727H75.0795L79.8523 25.142H79.9375V18.2727H80.9773Z" fill="white"/>
<path d="M77.5 0L83.9952 11.25H71.0048L77.5 0Z" fill="white"/>
<path d="M108.506 62.6753C108.542 62.2626 108.237 61.8989 107.824 61.8628L101.1 61.2745C100.687 61.2384 100.323 61.5436 100.287 61.9562C100.251 62.3689 100.556 62.7327 100.969 62.7688L106.946 63.2917L106.423 69.2689C106.387 69.6815 106.692 70.0453 107.105 70.0814C107.518 70.1175 107.881 69.8122 107.918 69.3996L108.506 62.6753ZM47.7233 113.965L108.241 63.1844L107.277 62.0354L46.7592 112.816L47.7233 113.965Z" fill="black"/>
</svg>
