<svg width="155" height="165" viewBox="0 0 155 165" fill="none" xmlns="http://www.w3.org/2000/svg">
<circle cx="77.5" cy="87.5" r="76.75" stroke="white" stroke-width="1.5"/>
<circle cx="77.5" cy="87.5" r="51.75" fill="white" stroke="white" stroke-width="1.5"/>
<path d="M80.9773 18.2727V27H79.9545L75.1989 20.1477H75.1136V27H74.0568V18.2727H75.0795L79.8523 25.142H79.9375V18.2727H80.9773Z" fill="white"/>
<path d="M77.5 0L83.9952 11.25H71.0048L77.5 0Z" fill="white"/>
<path d="M108.943 63.2203C108.986 62.8083 108.688 62.4393 108.276 62.396L101.563 61.6904C101.151 61.6471 100.782 61.946 100.738 62.3579C100.695 62.7698 100.994 63.1389 101.406 63.1822L107.373 63.8094L106.746 69.7765C106.703 70.1884 107.001 70.5575 107.413 70.6008C107.825 70.6441 108.194 70.3452 108.238 69.9333L108.943 63.2203ZM47.2747 113.441L108.669 63.7247L107.725 62.559L46.3307 112.275L47.2747 113.441Z" fill="black"/>
</svg>
