<svg width="155" height="165" viewBox="0 0 155 165" fill="none" xmlns="http://www.w3.org/2000/svg">
<circle cx="77.5" cy="87.5" r="76.75" stroke="white" stroke-width="1.5"/>
<circle cx="77.5" cy="87.5" r="51.75" fill="white" stroke="white" stroke-width="1.5"/>
<path d="M80.9773 18.2727V27H79.9545L75.1989 20.1477H75.1136V27H74.0568V18.2727H75.0795L79.8523 25.142H79.9375V18.2727H80.9773Z" fill="white"/>
<path d="M77.5 0L83.9952 11.25H71.0048L77.5 0Z" fill="white"/>
<path d="M109.371 63.7728C109.421 63.3617 109.129 62.9875 108.718 62.937L102.018 62.1144C101.607 62.0639 101.233 62.3562 101.182 62.7674C101.132 63.1785 101.424 63.5527 101.835 63.6032L107.791 64.3344L107.059 70.2897C107.009 70.7008 107.301 71.075 107.712 71.1255C108.124 71.176 108.498 70.8836 108.548 70.4725L109.371 63.7728ZM46.8353 112.91L109.088 64.2724L108.165 63.0904L45.9118 111.728L46.8353 112.91Z" fill="black"/>
</svg>
