<svg width="155" height="165" viewBox="0 0 155 165" fill="none" xmlns="http://www.w3.org/2000/svg">
<circle cx="77.5" cy="87.5" r="76.75" stroke="white" stroke-width="1.5"/>
<circle cx="77.5" cy="87.5" r="51.75" fill="white" stroke="white" stroke-width="1.5"/>
<path d="M80.9773 18.2727V27H79.9545L75.1989 20.1477H75.1136V27H74.0568V18.2727H75.0795L79.8523 25.142H79.9375V18.2727H80.9773Z" fill="white"/>
<path d="M77.5 0L83.9952 11.25H71.0048L77.5 0Z" fill="white"/>
<path d="M109.789 64.3327C109.846 63.9225 109.561 63.5433 109.15 63.4856L102.466 62.5462C102.056 62.4886 101.677 62.7743 101.619 63.1845C101.561 63.5947 101.847 63.974 102.257 64.0316L108.199 64.8666L107.364 70.8083C107.306 71.2184 107.592 71.5977 108.002 71.6553C108.412 71.713 108.792 71.4272 108.849 71.017L109.789 64.3327ZM46.4053 112.371L109.497 64.8273L108.595 63.6293L45.5025 111.173L46.4053 112.371Z" fill="black"/>
</svg>
