<svg width="155" height="165" viewBox="0 0 155 165" fill="none" xmlns="http://www.w3.org/2000/svg">
<circle cx="77.5" cy="87.5" r="76.75" stroke="white" stroke-width="1.5"/>
<circle cx="77.5" cy="87.5" r="51.75" fill="white" stroke="white" stroke-width="1.5"/>
<path d="M80.9773 18.2727V27H79.9545L75.1989 20.1477H75.1136V27H74.0568V18.2727H75.0795L79.8523 25.142H79.9375V18.2727H80.9773Z" fill="white"/>
<path d="M77.5 0L83.9952 11.25H71.0048L77.5 0Z" fill="white"/>
<path d="M110.197 64.8998C110.262 64.4907 109.983 64.1065 109.573 64.0417L102.907 62.9858C102.497 62.921 102.113 63.2001 102.049 63.6092C101.984 64.0184 102.263 64.4025 102.672 64.4673L108.598 65.4059L107.659 71.3321C107.595 71.7412 107.874 72.1254 108.283 72.1902C108.692 72.255 109.076 71.9758 109.141 71.5667L110.197 64.8998ZM45.9847 111.824L109.897 65.3893L109.015 64.1757L45.103 110.611L45.9847 111.824Z" fill="black"/>
</svg>
