<svg width="155" height="165" viewBox="0 0 155 165" fill="none" xmlns="http://www.w3.org/2000/svg">
<circle cx="77.5" cy="87.5" r="76.75" stroke="white" stroke-width="1.5"/>
<circle cx="77.5" cy="87.5" r="51.75" fill="white" stroke="white" stroke-width="1.5"/>
<path d="M80.9773 18.2727V27H79.9545L75.1989 20.1477H75.1136V27H74.0568V18.2727H75.0795L79.8523 25.142H79.9375V18.2727H80.9773Z" fill="white"/>
<path d="M77.5 0L83.9952 11.25H71.0048L77.5 0Z" fill="white"/>
<path d="M110.595 65.474C110.667 65.0661 110.395 64.6771 109.987 64.6051L103.339 63.433C102.931 63.3611 102.542 63.6335 102.47 64.0414C102.399 64.4493 102.671 64.8383 103.079 64.9102L108.988 65.9521L107.946 71.861C107.874 72.2689 108.146 72.6579 108.554 72.7298C108.962 72.8017 109.351 72.5294 109.423 72.1214L110.595 65.474ZM45.5737 111.271L110.287 65.9581L109.426 64.7294L44.7133 110.042L45.5737 111.271Z" fill="black"/>
</svg>
