<svg width="155" height="165" viewBox="0 0 155 165" fill="none" xmlns="http://www.w3.org/2000/svg">
<circle cx="77.5" cy="87.5" r="76.75" stroke="white" stroke-width="1.5"/>
<circle cx="77.5" cy="87.5" r="51.75" fill="white" stroke="white" stroke-width="1.5"/>
<path d="M80.9773 18.2727V27H79.9545L75.1989 20.1477H75.1136V27H74.0568V18.2727H75.0795L79.8523 25.142H79.9375V18.2727H80.9773Z" fill="white"/>
<path d="M77.5 0L83.9952 11.25H71.0048L77.5 0Z" fill="white"/>
<path d="M110.983 66.055C111.062 65.6484 110.797 65.2547 110.39 65.1757L103.764 63.8877C103.357 63.8087 102.964 64.0742 102.885 64.4808C102.806 64.8874 103.071 65.2811 103.478 65.3602L109.368 66.505L108.223 72.3948C108.144 72.8014 108.409 73.1951 108.816 73.2741C109.223 73.3531 109.616 73.0876 109.695 72.681L110.983 66.055ZM45.1724 110.71L110.666 66.5337L109.828 65.2901L44.3336 109.466L45.1724 110.71Z" fill="black"/>
</svg>
