<svg width="155" height="165" viewBox="0 0 155 165" fill="none" xmlns="http://www.w3.org/2000/svg">
<circle cx="77.5" cy="87.5" r="76.75" stroke="white" stroke-width="1.5"/>
<circle cx="77.5" cy="87.5" r="51.75" fill="white" stroke="white" stroke-width="1.5"/>
<path d="M80.9773 18.2727V27H79.9545L75.1989 20.1477H75.1136V27H74.0568V18.2727H75.0795L79.8523 25.142H79.9375V18.2727H80.9773Z" fill="white"/>
<path d="M77.5 0L83.9952 11.25H71.0048L77.5 0Z" fill="white"/>
<path d="M111.361 66.6427C111.447 66.2375 111.189 65.8393 110.783 65.7532L104.181 64.3498C103.776 64.2636 103.377 64.5223 103.291 64.9274C103.205 65.3326 103.464 65.7309 103.869 65.817L109.738 67.0644L108.49 72.9333C108.404 73.3385 108.663 73.7368 109.068 73.8229C109.473 73.909 109.872 73.6504 109.958 73.2452L111.361 66.6427ZM44.781 110.142L111.036 67.1158L110.219 65.8578L43.964 108.884L44.781 110.142Z" fill="black"/>
</svg>
