<svg width="155" height="165" viewBox="0 0 155 165" fill="none" xmlns="http://www.w3.org/2000/svg">
<circle cx="77.5" cy="87.5" r="76.75" stroke="white" stroke-width="1.5"/>
<circle cx="77.5" cy="87.5" r="51.75" fill="white" stroke="white" stroke-width="1.5"/>
<path d="M80.9773 18.2727V27H79.9545L75.1989 20.1477H75.1136V27H74.0568V18.2727H75.0795L79.8523 25.142H79.9375V18.2727H80.9773Z" fill="white"/>
<path d="M77.5 0L83.9952 11.25H71.0048L77.5 0Z" fill="white"/>
<path d="M111.729 67.2369C111.822 66.8333 111.57 66.4306 111.167 66.3374L104.59 64.819C104.186 64.7258 103.783 64.9775 103.69 65.3811C103.597 65.7847 103.849 66.1874 104.252 66.2806L110.098 67.6303L108.749 73.4765C108.656 73.8801 108.907 74.2828 109.311 74.376C109.714 74.4692 110.117 74.2175 110.21 73.8139L111.729 67.2369ZM44.3995 109.568L111.395 67.7042L110.6 66.4322L43.6047 108.296L44.3995 109.568Z" fill="black"/>
</svg>
