<svg width="155" height="165" viewBox="0 0 155 165" fill="none" xmlns="http://www.w3.org/2000/svg">
<circle cx="77.5" cy="87.5" r="76.75" stroke="white" stroke-width="1.5"/>
<circle cx="77.5" cy="87.5" r="51.75" fill="white" stroke="white" stroke-width="1.5"/>
<path d="M80.9773 18.2727V27H79.9545L75.1989 20.1477H75.1136V27H74.0568V18.2727H75.0795L79.8523 25.142H79.9375V18.2727H80.9773Z" fill="white"/>
<path d="M77.5 0L83.9952 11.25H71.0048L77.5 0Z" fill="white"/>
<path d="M112.086 67.8375C112.186 67.4355 111.941 67.0285 111.54 66.9283L104.99 65.2953C104.588 65.1951 104.181 65.4397 104.081 65.8416C103.981 66.2435 104.225 66.6506 104.627 66.7508L110.449 68.2023L108.997 74.0241C108.897 74.426 109.142 74.833 109.544 74.9332C109.946 75.0334 110.353 74.7889 110.453 74.387L112.086 67.8375ZM44.0282 108.987L111.744 68.2989L110.972 67.0131L43.2556 107.701L44.0282 108.987Z" fill="black"/>
</svg>
