<svg width="155" height="165" viewBox="0 0 155 165" fill="none" xmlns="http://www.w3.org/2000/svg">
<circle cx="77.5" cy="87.5" r="76.75" stroke="white" stroke-width="1.5"/>
<circle cx="77.5" cy="87.5" r="51.75" fill="white" stroke="white" stroke-width="1.5"/>
<path d="M80.9773 18.2727V27H79.9545L75.1989 20.1477H75.1136V27H74.0568V18.2727H75.0795L79.8523 25.142H79.9375V18.2727H80.9773Z" fill="white"/>
<path d="M77.5 0L83.9952 11.25H71.0048L77.5 0Z" fill="white"/>
<path d="M82.2117 48.2444C81.9511 47.9225 81.4788 47.8729 81.1569 48.1336L75.9112 52.3815C75.5893 52.6421 75.5396 53.1144 75.8003 53.4363C76.061 53.7582 76.5332 53.8079 76.8551 53.5472L81.518 49.7713L85.2939 54.4341C85.5546 54.756 86.0269 54.8057 86.3488 54.545C86.6707 54.2843 86.7203 53.8121 86.4597 53.4902L82.2117 48.2444ZM74.117 127.362L82.3748 48.7948L80.883 48.638L72.6252 127.205L74.117 127.362Z" fill="black"/>
</svg>
