<svg width="155" height="165" viewBox="0 0 155 165" fill="none" xmlns="http://www.w3.org/2000/svg">
<circle cx="77.5" cy="87.5" r="76.75" stroke="white" stroke-width="1.5"/>
<circle cx="77.5" cy="87.5" r="51.75" fill="white" stroke="white" stroke-width="1.5"/>
<path d="M80.9773 18.2727V27H79.9545L75.1989 20.1477H75.1136V27H74.0568V18.2727H75.0795L79.8523 25.142H79.9375V18.2727H80.9773Z" fill="white"/>
<path d="M77.5 0L83.9952 11.25H71.0048L77.5 0Z" fill="white"/>
<path d="M112.432 68.4441C112.54 68.044 112.302 67.6328 111.902 67.5256L105.382 65.7785C104.982 65.6713 104.571 65.9088 104.464 66.3089C104.356 66.709 104.594 67.1202 104.994 67.2274L110.789 68.7803L109.237 74.5759C109.129 74.976 109.367 75.3873 109.767 75.4945C110.167 75.6017 110.578 75.3642 110.685 74.9641L112.432 68.4441ZM43.667 108.4L112.083 68.8995L111.333 67.6005L42.917 107.1L43.667 108.4Z" fill="black"/>
</svg>
