<svg width="155" height="165" viewBox="0 0 155 165" fill="none" xmlns="http://www.w3.org/2000/svg">
<circle cx="77.5" cy="87.5" r="76.75" stroke="white" stroke-width="1.5"/>
<circle cx="77.5" cy="87.5" r="51.75" fill="white" stroke="white" stroke-width="1.5"/>
<path d="M80.9773 18.2727V27H79.9545L75.1989 20.1477H75.1136V27H74.0568V18.2727H75.0795L79.8523 25.142H79.9375V18.2727H80.9773Z" fill="white"/>
<path d="M77.5 0L83.9952 11.25H71.0048L77.5 0Z" fill="white"/>
<path d="M112.768 69.0568C112.883 68.6586 112.652 68.2433 112.254 68.1291L105.766 66.2685C105.368 66.1544 104.952 66.3846 104.838 66.7828C104.724 67.1809 104.954 67.5963 105.352 67.7104L111.12 69.3643L109.466 75.1318C109.352 75.53 109.582 75.9453 109.98 76.0595C110.378 76.1737 110.794 75.9434 110.908 75.5453L112.768 69.0568ZM43.3161 107.806L112.411 69.506L111.684 68.1941L42.5889 106.494L43.3161 107.806Z" fill="black"/>
</svg>
