<svg width="155" height="165" viewBox="0 0 155 165" fill="none" xmlns="http://www.w3.org/2000/svg">
<circle cx="77.5" cy="87.5" r="76.75" stroke="white" stroke-width="1.5"/>
<circle cx="77.5" cy="87.5" r="51.75" fill="white" stroke="white" stroke-width="1.5"/>
<path d="M80.9773 18.2727V27H79.9545L75.1989 20.1477H75.1136V27H74.0568V18.2727H75.0795L79.8523 25.142H79.9375V18.2727H80.9773Z" fill="white"/>
<path d="M77.5 0L83.9952 11.25H71.0048L77.5 0Z" fill="white"/>
<path d="M113.094 69.6752C113.215 69.2791 112.992 68.8598 112.596 68.7387L106.141 66.7652C105.745 66.6441 105.325 66.867 105.204 67.2631C105.083 67.6592 105.306 68.0785 105.702 68.1996L111.44 69.9538L109.686 75.6917C109.565 76.0878 109.788 76.5071 110.184 76.6282C110.58 76.7493 110.999 76.5263 111.12 76.1302L113.094 69.6752ZM42.9757 107.206L112.729 70.1181L112.024 68.7937L42.2715 105.882L42.9757 107.206Z" fill="black"/>
</svg>
