<svg width="155" height="165" viewBox="0 0 155 165" fill="none" xmlns="http://www.w3.org/2000/svg">
<circle cx="77.5" cy="87.5" r="76.75" stroke="white" stroke-width="1.5"/>
<circle cx="77.5" cy="87.5" r="51.75" fill="white" stroke="white" stroke-width="1.5"/>
<path d="M80.9773 18.2727V27H79.9545L75.1989 20.1477H75.1136V27H74.0568V18.2727H75.0795L79.8523 25.142H79.9375V18.2727H80.9773Z" fill="white"/>
<path d="M77.5 0L83.9952 11.25H71.0048L77.5 0Z" fill="white"/>
<path d="M113.408 70.2992C113.536 69.9052 113.32 69.4821 112.927 69.3541L106.507 67.2682C106.113 67.1402 105.69 67.3558 105.562 67.7498C105.434 68.1437 105.649 68.5668 106.043 68.6948L111.75 70.5489L109.896 76.2553C109.768 76.6492 109.983 77.0723 110.377 77.2003C110.771 77.3283 111.194 77.1127 111.322 76.7188L113.408 70.2992ZM42.6457 106.601L113.035 70.7356L112.354 69.3991L41.9647 105.264L42.6457 106.601Z" fill="black"/>
</svg>
