<svg width="155" height="165" viewBox="0 0 155 165" fill="none" xmlns="http://www.w3.org/2000/svg">
<circle cx="77.5" cy="87.5" r="76.75" stroke="white" stroke-width="1.5"/>
<circle cx="77.5" cy="87.5" r="51.75" fill="white" stroke="white" stroke-width="1.5"/>
<path d="M80.9773 18.2727V27H79.9545L75.1989 20.1477H75.1136V27H74.0568V18.2727H75.0795L79.8523 25.142H79.9375V18.2727H80.9773Z" fill="white"/>
<path d="M77.5 0L83.9952 11.25H71.0048L77.5 0Z" fill="white"/>
<path d="M113.711 70.9285C113.846 70.5369 113.638 70.1101 113.247 69.9752L106.864 67.7776C106.473 67.6428 106.046 67.8509 105.911 68.2426C105.776 68.6342 105.984 69.0611 106.376 69.1959L112.049 71.1493L110.096 76.8224C109.961 77.2141 110.169 77.6409 110.561 77.7757C110.952 77.9106 111.379 77.7024 111.514 77.3108L113.711 70.9285ZM42.3264 105.99L113.331 71.3585L112.674 70.0103L41.6689 104.642L42.3264 105.99Z" fill="black"/>
</svg>
