<svg width="155" height="165" viewBox="0 0 155 165" fill="none" xmlns="http://www.w3.org/2000/svg">
<circle cx="77.5" cy="87.5" r="76.75" stroke="white" stroke-width="1.5"/>
<circle cx="77.5" cy="87.5" r="51.75" fill="white" stroke="white" stroke-width="1.5"/>
<path d="M80.9773 18.2727V27H79.9545L75.1989 20.1477H75.1136V27H74.0568V18.2727H75.0795L79.8523 25.142H79.9375V18.2727H80.9773Z" fill="white"/>
<path d="M77.5 0L83.9952 11.25H71.0048L77.5 0Z" fill="white"/>
<path d="M114.004 71.5631C114.146 71.1739 113.945 70.7435 113.556 70.6018L107.213 68.2932C106.824 68.1515 106.393 68.3522 106.251 68.7414C106.11 69.1307 106.31 69.5611 106.7 69.7027L112.338 71.7548L110.286 77.393C110.144 77.7822 110.345 78.2126 110.734 78.3543C111.123 78.496 111.554 78.2953 111.695 77.906L114.004 71.5631ZM42.0178 105.373L113.616 71.9863L112.982 70.6269L41.3839 104.014L42.0178 105.373Z" fill="black"/>
</svg>
