<svg width="155" height="165" viewBox="0 0 155 165" fill="none" xmlns="http://www.w3.org/2000/svg">
<circle cx="77.5" cy="87.5" r="76.75" stroke="white" stroke-width="1.5"/>
<circle cx="77.5" cy="87.5" r="51.75" fill="white" stroke="white" stroke-width="1.5"/>
<path d="M80.9773 18.2727V27H79.9545L75.1989 20.1477H75.1136V27H74.0568V18.2727H75.0795L79.8523 25.142H79.9375V18.2727H80.9773Z" fill="white"/>
<path d="M77.5 0L83.9952 11.25H71.0048L77.5 0Z" fill="white"/>
<path d="M114.285 72.2027C114.434 71.816 114.241 71.3822 113.854 71.2337L107.552 68.8147C107.165 68.6663 106.732 68.8595 106.583 69.2462C106.435 69.6329 106.628 70.0667 107.015 70.2151L112.616 72.3653L110.466 77.9668C110.317 78.3535 110.511 78.7873 110.897 78.9358C111.284 79.0842 111.718 78.8911 111.866 78.5044L114.285 72.2027ZM41.72 104.751L113.89 72.6191L113.28 71.2488L41.1099 103.381L41.72 104.751Z" fill="black"/>
</svg>
