<svg width="155" height="165" viewBox="0 0 155 165" fill="none" xmlns="http://www.w3.org/2000/svg">
<circle cx="77.5" cy="87.5" r="76.75" stroke="white" stroke-width="1.5"/>
<circle cx="77.5" cy="87.5" r="51.75" fill="white" stroke="white" stroke-width="1.5"/>
<path d="M80.9773 18.2727V27H79.9545L75.1989 20.1477H75.1136V27H74.0568V18.2727H75.0795L79.8523 25.142H79.9375V18.2727H80.9773Z" fill="white"/>
<path d="M77.5 0L83.9952 11.25H71.0048L77.5 0Z" fill="white"/>
<path d="M114.555 72.8471C114.71 72.463 114.525 72.0259 114.141 71.8707L107.882 69.3422C107.498 69.187 107.061 69.3725 106.906 69.7566C106.751 70.1406 106.936 70.5778 107.32 70.7329L112.884 72.9806L110.636 78.5437C110.481 78.9277 110.666 79.3648 111.05 79.52C111.434 79.6752 111.872 79.4896 112.027 79.1056L114.555 72.8471ZM41.4331 104.124L114.153 73.2565L113.567 71.8758L40.847 102.744L41.4331 104.124Z" fill="black"/>
</svg>
