<svg width="155" height="165" viewBox="0 0 155 165" fill="none" xmlns="http://www.w3.org/2000/svg">
<circle cx="77.5" cy="87.5" r="76.75" stroke="white" stroke-width="1.5"/>
<circle cx="77.5" cy="87.5" r="51.75" fill="white" stroke="white" stroke-width="1.5"/>
<path d="M80.9773 18.2727V27H79.9545L75.1989 20.1477H75.1136V27H74.0568V18.2727H75.0795L79.8523 25.142H79.9375V18.2727H80.9773Z" fill="white"/>
<path d="M77.5 0L83.9952 11.25H71.0048L77.5 0Z" fill="white"/>
<path d="M114.814 73.4961C114.976 73.1148 114.798 72.6745 114.417 72.5127L108.203 69.8752C107.822 69.7134 107.382 69.8913 107.22 70.2726C107.058 70.6539 107.236 71.0942 107.617 71.256L113.14 73.6004L110.796 79.1234C110.634 79.5047 110.812 79.945 111.193 80.1068C111.575 80.2687 112.015 80.0908 112.177 79.7095L114.814 73.4961ZM41.1572 103.492L114.405 73.8984L113.843 72.5077L40.5953 102.102L41.1572 103.492Z" fill="black"/>
</svg>
