<svg width="155" height="165" viewBox="0 0 155 165" fill="none" xmlns="http://www.w3.org/2000/svg">
<circle cx="77.5" cy="87.5" r="76.75" stroke="white" stroke-width="1.5"/>
<circle cx="77.5" cy="87.5" r="51.75" fill="white" stroke="white" stroke-width="1.5"/>
<path d="M80.9773 18.2727V27H79.9545L75.1989 20.1477H75.1136V27H74.0568V18.2727H75.0795L79.8523 25.142H79.9375V18.2727H80.9773Z" fill="white"/>
<path d="M77.5 0L83.9952 11.25H71.0048L77.5 0Z" fill="white"/>
<path d="M115.062 74.1495C115.23 73.7711 115.06 73.3278 114.681 73.1593L108.515 70.4138C108.137 70.2454 107.693 70.4156 107.525 70.794C107.356 71.1724 107.527 71.6157 107.905 71.7842L113.386 74.2246L110.946 79.7059C110.777 80.0843 110.948 80.5276 111.326 80.6961C111.704 80.8645 112.148 80.6944 112.316 80.316L115.062 74.1495ZM40.8924 102.856L114.645 74.5447L114.108 73.1443L40.3548 101.455L40.8924 102.856Z" fill="black"/>
</svg>
