<svg width="155" height="165" viewBox="0 0 155 165" fill="none" xmlns="http://www.w3.org/2000/svg">
<circle cx="77.5" cy="87.5" r="76.75" stroke="white" stroke-width="1.5"/>
<circle cx="77.5" cy="87.5" r="51.75" fill="white" stroke="white" stroke-width="1.5"/>
<path d="M80.9773 18.2727V27H79.9545L75.1989 20.1477H75.1136V27H74.0568V18.2727H75.0795L79.8523 25.142H79.9375V18.2727H80.9773Z" fill="white"/>
<path d="M77.5 0L83.9952 11.25H71.0048L77.5 0Z" fill="white"/>
<path d="M82.9049 48.3327C82.6498 48.0063 82.1785 47.9484 81.8521 48.2034L76.533 52.3592C76.2066 52.6142 76.1487 53.0855 76.4038 53.4119C76.6588 53.7383 77.1301 53.7962 77.4565 53.5412L82.1846 49.8472L85.8785 54.5753C86.1336 54.9017 86.6049 54.9595 86.9313 54.7045C87.2577 54.4495 87.3156 53.9782 87.0606 53.6518L82.9049 48.3327ZM73.4306 127.297L83.0583 48.8859L81.5694 48.703L71.9418 127.114L73.4306 127.297Z" fill="black"/>
</svg>
