<svg width="155" height="165" viewBox="0 0 155 165" fill="none" xmlns="http://www.w3.org/2000/svg">
<circle cx="77.5" cy="87.5" r="76.75" stroke="white" stroke-width="1.5"/>
<circle cx="77.5" cy="87.5" r="51.75" fill="white" stroke="white" stroke-width="1.5"/>
<path d="M80.9773 18.2727V27H79.9545L75.1989 20.1477H75.1136V27H74.0568V18.2727H75.0795L79.8523 25.142H79.9375V18.2727H80.9773Z" fill="white"/>
<path d="M77.5 0L83.9952 11.25H71.0048L77.5 0Z" fill="white"/>
<path d="M115.298 74.8072C115.473 74.4318 115.31 73.9855 114.935 73.8105L108.817 70.9578C108.442 70.7828 107.996 70.9452 107.821 71.3206C107.645 71.696 107.808 72.1422 108.183 72.3173L113.621 74.853L111.085 80.2908C110.91 80.6662 111.073 81.1125 111.448 81.2875C111.824 81.4626 112.27 81.3002 112.445 80.9248L115.298 74.8072ZM40.6387 102.215L114.874 75.195L114.361 73.7855L40.1256 100.805L40.6387 102.215Z" fill="black"/>
</svg>
