<svg width="155" height="165" viewBox="0 0 155 165" fill="none" xmlns="http://www.w3.org/2000/svg">
<circle cx="77.5" cy="87.5" r="76.75" stroke="white" stroke-width="1.5"/>
<circle cx="77.5" cy="87.5" r="51.75" fill="white" stroke="white" stroke-width="1.5"/>
<path d="M80.9773 18.2727V27H79.9545L75.1989 20.1477H75.1136V27H74.0568V18.2727H75.0795L79.8523 25.142H79.9375V18.2727H80.9773Z" fill="white"/>
<path d="M77.5 0L83.9952 11.25H71.0048L77.5 0Z" fill="white"/>
<path d="M115.522 75.4689C115.704 75.0966 115.549 74.6476 115.177 74.466L109.11 71.507C108.738 71.3254 108.289 71.48 108.107 71.8523C107.925 72.2246 108.08 72.6736 108.452 72.8552L113.845 75.4854L111.215 80.8782C111.033 81.2504 111.188 81.6994 111.56 81.881C111.932 82.0626 112.381 81.908 112.563 81.5357L115.522 75.4689ZM40.3962 101.569L115.092 75.8492L114.604 74.4309L39.9078 100.151L40.3962 101.569Z" fill="black"/>
</svg>
