<svg width="155" height="165" viewBox="0 0 155 165" fill="none" xmlns="http://www.w3.org/2000/svg">
<circle cx="77.5" cy="87.5" r="76.75" stroke="white" stroke-width="1.5"/>
<circle cx="77.5" cy="87.5" r="51.75" fill="white" stroke="white" stroke-width="1.5"/>
<path d="M80.9773 18.2727V27H79.9545L75.1989 20.1477H75.1136V27H74.0568V18.2727H75.0795L79.8523 25.142H79.9375V18.2727H80.9773Z" fill="white"/>
<path d="M77.5 0L83.9952 11.25H71.0048L77.5 0Z" fill="white"/>
<path d="M115.735 76.1343C115.923 75.7653 115.776 75.3136 115.407 75.1256L109.393 72.0612C109.024 71.8731 108.572 72.0198 108.384 72.3889C108.196 72.758 108.343 73.2096 108.712 73.3977L114.058 76.1216L111.334 81.4676C111.146 81.8367 111.293 82.2883 111.662 82.4764C112.031 82.6644 112.483 82.5177 112.671 82.1486L115.735 76.1343ZM40.165 100.919L115.298 76.5071L114.835 75.0806L39.7015 99.4929L40.165 100.919Z" fill="black"/>
</svg>
