<svg width="155" height="165" viewBox="0 0 155 165" fill="none" xmlns="http://www.w3.org/2000/svg">
<circle cx="77.5" cy="87.5" r="76.75" stroke="white" stroke-width="1.5"/>
<circle cx="77.5" cy="87.5" r="51.75" fill="white" stroke="white" stroke-width="1.5"/>
<path d="M80.9773 18.2727V27H79.9545L75.1989 20.1477H75.1136V27H74.0568V18.2727H75.0795L79.8523 25.142H79.9375V18.2727H80.9773Z" fill="white"/>
<path d="M77.5 0L83.9952 11.25H71.0048L77.5 0Z" fill="white"/>
<path d="M115.936 76.8034C116.131 76.4377 115.992 75.9836 115.626 75.7891L109.666 72.6202C109.301 72.4257 108.846 72.5646 108.652 72.9303C108.457 73.296 108.596 73.7502 108.962 73.9446L114.26 76.7614L111.443 82.0591C111.248 82.4249 111.387 82.879 111.753 83.0734C112.119 83.2679 112.573 83.1291 112.767 82.7633L115.936 76.8034ZM39.9452 100.266L115.493 77.1686L115.055 75.7341L39.5067 98.8315L39.9452 100.266Z" fill="black"/>
</svg>
