<svg width="155" height="165" viewBox="0 0 155 165" fill="none" xmlns="http://www.w3.org/2000/svg">
<circle cx="77.5" cy="87.5" r="76.75" stroke="white" stroke-width="1.5"/>
<circle cx="77.5" cy="87.5" r="51.75" fill="white" stroke="white" stroke-width="1.5"/>
<path d="M80.9773 18.2727V27H79.9545L75.1989 20.1477H75.1136V27H74.0568V18.2727H75.0795L79.8523 25.142H79.9375V18.2727H80.9773Z" fill="white"/>
<path d="M77.5 0L83.9952 11.25H71.0048L77.5 0Z" fill="white"/>
<path d="M116.126 77.476C116.327 77.1137 116.196 76.6572 115.833 76.4564L109.93 73.1839C109.567 72.9831 109.111 73.114 108.91 73.4763C108.709 73.8386 108.84 74.295 109.203 74.4958L114.45 77.4047L111.541 82.6524C111.341 83.0147 111.471 83.4712 111.834 83.672C112.196 83.8728 112.653 83.7419 112.853 83.3796L116.126 77.476ZM39.7369 99.6086L115.677 77.8333L115.263 76.3914L39.3234 98.1667L39.7369 99.6086Z" fill="black"/>
</svg>
