<svg width="155" height="165" viewBox="0 0 155 165" fill="none" xmlns="http://www.w3.org/2000/svg">
<circle cx="77.5" cy="87.5" r="76.75" stroke="white" stroke-width="1.5"/>
<circle cx="77.5" cy="87.5" r="51.75" fill="white" stroke="white" stroke-width="1.5"/>
<path d="M80.9773 18.2727V27H79.9545L75.1989 20.1477H75.1136V27H74.0568V18.2727H75.0795L79.8523 25.142H79.9375V18.2727H80.9773Z" fill="white"/>
<path d="M77.5 0L83.9952 11.25H71.0048L77.5 0Z" fill="white"/>
<path d="M116.304 78.1517C116.511 77.7929 116.388 77.3343 116.029 77.1271L110.183 73.7521C109.825 73.545 109.366 73.6679 109.159 74.0267C108.952 74.3854 109.075 74.8441 109.433 75.0512L114.63 78.0512L111.63 83.2473C111.422 83.6061 111.545 84.0648 111.904 84.2719C112.263 84.479 112.721 84.3561 112.929 83.9973L116.304 78.1517ZM39.54 98.9478L115.848 78.5011L115.46 77.0522L39.1518 97.4989L39.54 98.9478Z" fill="black"/>
</svg>
