<svg width="155" height="165" viewBox="0 0 155 165" fill="none" xmlns="http://www.w3.org/2000/svg">
<circle cx="77.5" cy="87.5" r="76.75" stroke="white" stroke-width="1.5"/>
<circle cx="77.5" cy="87.5" r="51.75" fill="white" stroke="white" stroke-width="1.5"/>
<path d="M80.9773 18.2727V27H79.9545L75.1989 20.1477H75.1136V27H74.0568V18.2727H75.0795L79.8523 25.142H79.9375V18.2727H80.9773Z" fill="white"/>
<path d="M77.5 0L83.9952 11.25H71.0048L77.5 0Z" fill="white"/>
<path d="M116.624 79.5119C116.843 79.1606 116.736 78.6979 116.385 78.4784L110.661 74.9015C110.309 74.682 109.847 74.7888 109.627 75.1401C109.408 75.4913 109.515 75.954 109.866 76.1735L114.954 79.3531L111.775 84.4413C111.555 84.7926 111.662 85.2553 112.013 85.4748C112.364 85.6943 112.827 85.5875 113.047 85.2362L116.624 79.5119ZM39.1811 97.6164L116.156 79.8452L115.819 78.3837L38.8437 96.1548L39.1811 97.6164Z" fill="black"/>
</svg>
