<svg width="155" height="165" viewBox="0 0 155 165" fill="none" xmlns="http://www.w3.org/2000/svg">
<circle cx="77.5" cy="87.5" r="76.75" stroke="white" stroke-width="1.5"/>
<circle cx="77.5" cy="87.5" r="51.75" fill="white" stroke="white" stroke-width="1.5"/>
<path d="M80.9773 18.2727V27H79.9545L75.1989 20.1477H75.1136V27H74.0568V18.2727H75.0795L79.8523 25.142H79.9375V18.2727H80.9773Z" fill="white"/>
<path d="M77.5 0L83.9952 11.25H71.0048L77.5 0Z" fill="white"/>
<path d="M116.766 80.196C116.991 79.8486 116.893 79.3841 116.545 79.1585L110.884 75.4822C110.537 75.2566 110.072 75.3553 109.847 75.7027C109.621 76.0501 109.72 76.5146 110.067 76.7402L115.099 80.008L111.832 85.0401C111.606 85.3874 111.705 85.8519 112.052 86.0775C112.399 86.3031 112.864 86.2044 113.09 85.857L116.766 80.196ZM39.0191 96.9461L116.293 80.5211L115.981 79.0539L38.7072 95.4789L39.0191 96.9461Z" fill="black"/>
</svg>
