<svg width="155" height="165" viewBox="0 0 155 165" fill="none" xmlns="http://www.w3.org/2000/svg">
<circle cx="77.5" cy="87.5" r="76.75" stroke="white" stroke-width="1.5"/>
<circle cx="77.5" cy="87.5" r="51.75" fill="white" stroke="white" stroke-width="1.5"/>
<path d="M80.9773 18.2727V27H79.9545L75.1989 20.1477H75.1136V27H74.0568V18.2727H75.0795L79.8523 25.142H79.9375V18.2727H80.9773Z" fill="white"/>
<path d="M77.5 0L83.9952 11.25H71.0048L77.5 0Z" fill="white"/>
<path d="M116.896 80.8825C117.128 80.5391 117.037 80.0729 116.694 79.8413L111.098 76.0667C110.754 75.8351 110.288 75.9257 110.056 76.2691C109.825 76.6125 109.915 77.0787 110.259 77.3103L115.233 80.6654L111.878 85.6397C111.646 85.9831 111.737 86.4492 112.08 86.6808C112.424 86.9125 112.89 86.8219 113.122 86.4785L116.896 80.8825ZM38.8688 96.2732L116.417 81.1993L116.131 79.7268L38.5826 94.8008L38.8688 96.2732Z" fill="black"/>
</svg>
