<svg width="155" height="165" viewBox="0 0 155 165" fill="none" xmlns="http://www.w3.org/2000/svg">
<circle cx="77.5" cy="87.5" r="76.75" stroke="white" stroke-width="1.5"/>
<circle cx="77.5" cy="87.5" r="51.75" fill="white" stroke="white" stroke-width="1.5"/>
<path d="M80.9773 18.2727V27H79.9545L75.1989 20.1477H75.1136V27H74.0568V18.2727H75.0795L79.8523 25.142H79.9375V18.2727H80.9773Z" fill="white"/>
<path d="M77.5 0L83.9952 11.25H71.0048L77.5 0Z" fill="white"/>
<path d="M83.5963 48.4331C83.347 48.1023 82.8768 48.0362 82.546 48.2855L77.1552 52.3477C76.8244 52.597 76.7583 53.0672 77.0076 53.3981C77.2569 53.7289 77.7271 53.7949 78.0579 53.5457L82.8497 49.9348L86.4606 54.7266C86.7099 55.0574 87.1802 55.1235 87.511 54.8742C87.8418 54.6249 87.9079 54.1547 87.6586 53.8239L83.5963 48.4331ZM72.7454 127.22L83.74 48.9888L82.2546 48.7801L71.26 127.011L72.7454 127.22Z" fill="black"/>
</svg>
