<svg width="155" height="165" viewBox="0 0 155 165" fill="none" xmlns="http://www.w3.org/2000/svg">
<circle cx="77.5" cy="87.5" r="76.75" stroke="white" stroke-width="1.5"/>
<circle cx="77.5" cy="87.5" r="51.75" fill="white" stroke="white" stroke-width="1.5"/>
<path d="M80.9773 18.2727V27H79.9545L75.1989 20.1477H75.1136V27H74.0568V18.2727H75.0795L79.8523 25.142H79.9375V18.2727H80.9773Z" fill="white"/>
<path d="M77.5 0L83.9952 11.25H71.0048L77.5 0Z" fill="white"/>
<path d="M117.014 81.5711C117.252 81.2318 117.169 80.7641 116.83 80.5266L111.301 76.6549C110.962 76.4173 110.494 76.4998 110.256 76.8391C110.019 77.1784 110.101 77.6461 110.44 77.8836L115.355 81.3251L111.914 86.24C111.676 86.5793 111.759 87.047 112.098 87.2846C112.437 87.5221 112.905 87.4397 113.143 87.1004L117.014 81.5711ZM38.7303 95.5977L116.53 81.8795L116.27 80.4023L38.4699 94.1205L38.7303 95.5977Z" fill="black"/>
</svg>
