<svg width="155" height="165" viewBox="0 0 155 165" fill="none" xmlns="http://www.w3.org/2000/svg">
<circle cx="77.5" cy="87.5" r="76.75" stroke="white" stroke-width="1.5"/>
<circle cx="77.5" cy="87.5" r="51.75" fill="white" stroke="white" stroke-width="1.5"/>
<path d="M80.9773 18.2727V27H79.9545L75.1989 20.1477H75.1136V27H74.0568V18.2727H75.0795L79.8523 25.142H79.9375V18.2727H80.9773Z" fill="white"/>
<path d="M77.5 0L83.9952 11.25H71.0048L77.5 0Z" fill="white"/>
<path d="M117.12 82.2617C117.364 81.9266 117.29 81.4576 116.955 81.2141L111.494 77.2465C111.159 77.0031 110.69 77.0774 110.446 77.4125C110.203 77.7476 110.277 78.2166 110.612 78.4601L115.466 81.9868L111.939 86.8409C111.696 87.176 111.77 87.645 112.105 87.8885C112.44 88.132 112.909 88.0577 113.153 87.7226L117.12 82.2617ZM38.6036 94.92L116.631 82.5616L116.396 81.0801L38.369 93.4384L38.6036 94.92Z" fill="black"/>
</svg>
