<svg width="155" height="165" viewBox="0 0 155 165" fill="none" xmlns="http://www.w3.org/2000/svg">
<circle cx="77.5" cy="87.5" r="76.75" stroke="white" stroke-width="1.5"/>
<circle cx="77.5" cy="87.5" r="51.75" fill="white" stroke="white" stroke-width="1.5"/>
<path d="M80.9773 18.2727V27H79.9545L75.1989 20.1477H75.1136V27H74.0568V18.2727H75.0795L79.8523 25.142H79.9375V18.2727H80.9773Z" fill="white"/>
<path d="M77.5 0L83.9952 11.25H71.0048L77.5 0Z" fill="white"/>
<path d="M117.215 82.954C117.464 82.6232 117.398 82.153 117.067 81.9037L111.676 77.8415C111.345 77.5922 110.875 77.6583 110.626 77.9891C110.377 78.3199 110.443 78.7901 110.773 79.0394L115.565 82.6503L111.954 87.4421C111.705 87.7729 111.771 88.2432 112.102 88.4925C112.433 88.7417 112.903 88.6756 113.152 88.3448L117.215 82.954ZM38.4888 94.2401L116.72 83.2454L116.511 81.76L38.28 92.7547L38.4888 94.2401Z" fill="black"/>
</svg>
