<svg width="155" height="165" viewBox="0 0 155 165" fill="none" xmlns="http://www.w3.org/2000/svg">
<circle cx="77.5" cy="87.5" r="76.75" stroke="white" stroke-width="1.5"/>
<circle cx="77.5" cy="87.5" r="51.75" fill="white" stroke="white" stroke-width="1.5"/>
<path d="M80.9773 18.2727V27H79.9545L75.1989 20.1477H75.1136V27H74.0568V18.2727H75.0795L79.8523 25.142H79.9375V18.2727H80.9773Z" fill="white"/>
<path d="M77.5 0L83.9952 11.25H71.0048L77.5 0Z" fill="white"/>
<path d="M117.297 83.6479C117.552 83.3215 117.494 82.8502 117.167 82.5952L111.848 78.4395C111.522 78.1844 111.051 78.2423 110.795 78.5687C110.54 78.8951 110.598 79.3665 110.925 79.6215L115.653 83.3154L111.959 88.0435C111.704 88.3699 111.762 88.8412 112.088 89.0963C112.415 89.3513 112.886 89.2934 113.141 88.967L117.297 83.6479ZM38.3858 93.5583L116.797 83.9306L116.614 82.4418L38.203 92.0694L38.3858 93.5583Z" fill="black"/>
</svg>
