<svg width="155" height="165" viewBox="0 0 155 165" fill="none" xmlns="http://www.w3.org/2000/svg">
<circle cx="77.5" cy="87.5" r="76.75" stroke="white" stroke-width="1.5"/>
<circle cx="77.5" cy="87.5" r="51.75" fill="white" stroke="white" stroke-width="1.5"/>
<path d="M80.9773 18.2727V27H79.9545L75.1989 20.1477H75.1136V27H74.0568V18.2727H75.0795L79.8523 25.142H79.9375V18.2727H80.9773Z" fill="white"/>
<path d="M77.5 0L83.9952 11.25H71.0048L77.5 0Z" fill="white"/>
<path d="M117.366 84.3431C117.627 84.0212 117.578 83.549 117.256 83.2883L112.01 79.0404C111.688 78.7797 111.216 78.8293 110.955 79.1512C110.694 79.4731 110.744 79.9454 111.066 80.2061L115.729 83.982L111.953 88.6449C111.692 88.9668 111.742 89.4391 112.064 89.6997C112.386 89.9604 112.858 89.9108 113.119 89.5889L117.366 84.3431ZM38.2948 92.8748L116.862 84.617L116.705 83.1253L38.138 91.383L38.2948 92.8748Z" fill="black"/>
</svg>
