<svg width="155" height="165" viewBox="0 0 155 165" fill="none" xmlns="http://www.w3.org/2000/svg">
<circle cx="77.5" cy="87.5" r="76.75" stroke="white" stroke-width="1.5"/>
<circle cx="77.5" cy="87.5" r="51.75" fill="white" stroke="white" stroke-width="1.5"/>
<path d="M80.9773 18.2727V27H79.9545L75.1989 20.1477H75.1136V27H74.0568V18.2727H75.0795L79.8523 25.142H79.9375V18.2727H80.9773Z" fill="white"/>
<path d="M77.5 0L83.9952 11.25H71.0048L77.5 0Z" fill="white"/>
<path d="M117.47 85.7367C117.742 85.4241 117.708 84.9503 117.396 84.6786L112.302 80.2502C111.989 79.9785 111.515 80.0116 111.243 80.3242C110.972 80.6368 111.005 81.1105 111.317 81.3823L115.846 85.3186L111.909 89.8469C111.638 90.1595 111.671 90.6332 111.983 90.905C112.296 91.1767 112.77 91.1436 113.041 90.831L117.47 85.7367ZM38.1485 91.5036L116.956 85.9928L116.851 84.4965L38.0439 90.0072L38.1485 91.5036Z" fill="black"/>
</svg>
