<svg width="155" height="165" viewBox="0 0 155 165" fill="none" xmlns="http://www.w3.org/2000/svg">
<circle cx="77.5" cy="87.5" r="76.75" stroke="white" stroke-width="1.5"/>
<circle cx="77.5" cy="87.5" r="51.75" fill="white" stroke="white" stroke-width="1.5"/>
<path d="M80.9773 18.2727V27H79.9545L75.1989 20.1477H75.1136V27H74.0568V18.2727H75.0795L79.8523 25.142H79.9375V18.2727H80.9773Z" fill="white"/>
<path d="M77.5 0L83.9952 11.25H71.0048L77.5 0Z" fill="white"/>
<path d="M117.503 86.4346C117.78 86.1268 117.756 85.6525 117.448 85.3754L112.431 80.8588C112.124 80.5816 111.649 80.6064 111.372 80.9143C111.095 81.2221 111.12 81.6963 111.428 81.9735L115.887 85.9883L111.872 90.4471C111.595 90.7549 111.62 91.2292 111.927 91.5063C112.235 91.7835 112.709 91.7586 112.987 91.4508L117.503 86.4346ZM38.0934 90.8163L116.985 86.6817L116.907 85.1838L38.0149 89.3183L38.0934 90.8163Z" fill="black"/>
</svg>
