<svg width="155" height="165" viewBox="0 0 155 165" fill="none" xmlns="http://www.w3.org/2000/svg">
<circle cx="77.5" cy="87.5" r="76.75" stroke="white" stroke-width="1.5"/>
<circle cx="77.5" cy="87.5" r="51.75" fill="white" stroke="white" stroke-width="1.5"/>
<path d="M80.9773 18.2727V27H79.9545L75.1989 20.1477H75.1136V27H74.0568V18.2727H75.0795L79.8523 25.142H79.9375V18.2727H80.9773Z" fill="white"/>
<path d="M77.5 0L83.9952 11.25H71.0048L77.5 0Z" fill="white"/>
<path d="M117.524 87.133C117.807 86.83 117.79 86.3555 117.487 86.073L112.551 81.4695C112.248 81.187 111.773 81.2036 111.491 81.5065C111.208 81.8094 111.225 82.284 111.528 82.5665L115.916 86.6585L111.824 91.0466C111.541 91.3496 111.558 91.8241 111.861 92.1066C112.164 92.3891 112.638 92.3726 112.921 92.0696L117.524 87.133ZM38.0502 90.1281L117.002 87.371L116.95 85.8719L37.9979 88.629L38.0502 90.1281Z" fill="black"/>
</svg>
