<svg width="155" height="165" viewBox="0 0 155 165" fill="none" xmlns="http://www.w3.org/2000/svg">
<circle cx="77.5" cy="87.5" r="76.75" stroke="white" stroke-width="1.5"/>
<circle cx="77.5" cy="87.5" r="51.75" fill="white" stroke="white" stroke-width="1.5"/>
<path d="M80.9773 18.2727V27H79.9545L75.1989 20.1477H75.1136V27H74.0568V18.2727H75.0795L79.8523 25.142H79.9375V18.2727H80.9773Z" fill="white"/>
<path d="M77.5 0L83.9952 11.25H71.0048L77.5 0Z" fill="white"/>
<path d="M117.533 87.8316C117.821 87.5337 117.813 87.0589 117.515 86.7711L112.659 82.0822C112.361 81.7945 111.887 81.8027 111.599 82.1007C111.311 82.3987 111.319 82.8735 111.617 83.1612L115.933 87.3291L111.766 91.6452C111.478 91.9431 111.486 92.4179 111.784 92.7057C112.082 92.9934 112.557 92.9851 112.845 92.6872L117.533 87.8316ZM38.0191 89.4393L117.007 88.0605L116.981 86.5608L37.9929 87.9395L38.0191 89.4393Z" fill="black"/>
</svg>
