<svg width="155" height="165" viewBox="0 0 155 165" fill="none" xmlns="http://www.w3.org/2000/svg">
<circle cx="77.5" cy="87.5" r="76.75" stroke="white" stroke-width="1.5"/>
<circle cx="77.5" cy="87.5" r="51.75" fill="white" stroke="white" stroke-width="1.5"/>
<path d="M80.9773 18.2727V27H79.9545L75.1989 20.1477H75.1136V27H74.0568V18.2727H75.0795L79.8523 25.142H79.9375V18.2727H80.9773Z" fill="white"/>
<path d="M77.5 0L83.9952 11.25H71.0048L77.5 0Z" fill="white"/>
<path d="M84.2859 48.5455C84.0425 48.2104 83.5734 48.1361 83.2383 48.3796L77.7775 52.3471C77.4424 52.5906 77.3681 53.0596 77.6115 53.3947C77.855 53.7298 78.324 53.8041 78.6591 53.5607L83.5132 50.0339L87.04 54.888C87.2834 55.2232 87.7525 55.2974 88.0876 55.054C88.4227 54.8105 88.497 54.3415 88.2535 54.0064L84.2859 48.5455ZM72.0616 127.131L84.4199 49.1037L82.9384 48.869L70.5801 126.896L72.0616 127.131Z" fill="black"/>
</svg>
