<svg width="155" height="165" viewBox="0 0 155 165" fill="none" xmlns="http://www.w3.org/2000/svg">
<circle cx="77.5" cy="87.5" r="76.75" stroke="white" stroke-width="1.5"/>
<circle cx="77.5" cy="87.5" r="51.75" fill="white" stroke="white" stroke-width="1.5"/>
<path d="M80.9773 18.2727V27H79.9545L75.1989 20.1477H75.1136V27H74.0568V18.2727H75.0795L79.8523 25.142H79.9375V18.2727H80.9773Z" fill="white"/>
<path d="M77.5 0L83.9952 11.25H71.0048L77.5 0Z" fill="white"/>
<path d="M117.53 88.5303C117.823 88.2374 117.823 87.7626 117.53 87.4697L112.757 82.6967C112.464 82.4038 111.99 82.4038 111.697 82.6967C111.404 82.9896 111.404 83.4645 111.697 83.7574L115.939 88L111.697 92.2426C111.404 92.5355 111.404 93.0104 111.697 93.3033C111.99 93.5962 112.464 93.5962 112.757 93.3033L117.53 88.5303ZM38 88.75H117V87.25H38V88.75Z" fill="black"/>
</svg>
