<svg width="155" height="165" viewBox="0 0 155 165" fill="none" xmlns="http://www.w3.org/2000/svg">
<circle cx="77.5" cy="87.5" r="76.75" stroke="white" stroke-width="1.5"/>
<circle cx="77.5" cy="87.5" r="51.75" fill="white" stroke="white" stroke-width="1.5"/>
<path d="M80.9773 18.2727V27H79.9545L75.1989 20.1477H75.1136V27H74.0568V18.2727H75.0795L79.8523 25.142H79.9375V18.2727H80.9773Z" fill="white"/>
<path d="M77.5 0L83.9952 11.25H71.0048L77.5 0Z" fill="white"/>
<path d="M117.515 89.2289C117.813 88.9411 117.821 88.4663 117.533 88.1684L112.845 83.3128C112.557 83.0149 112.082 83.0066 111.784 83.2943C111.486 83.5821 111.478 84.0569 111.766 84.3548L115.933 88.6709L111.617 92.8388C111.319 93.1265 111.311 93.6013 111.599 93.8993C111.887 94.1973 112.361 94.2055 112.659 93.9178L117.515 89.2289ZM37.9929 88.0605L116.981 89.4392L117.007 87.9395L38.0191 86.5607L37.9929 88.0605Z" fill="black"/>
</svg>
