<svg width="155" height="165" viewBox="0 0 155 165" fill="none" xmlns="http://www.w3.org/2000/svg">
<circle cx="77.5" cy="87.5" r="76.75" stroke="white" stroke-width="1.5"/>
<circle cx="77.5" cy="87.5" r="51.75" fill="white" stroke="white" stroke-width="1.5"/>
<path d="M80.9773 18.2727V27H79.9545L75.1989 20.1477H75.1136V27H74.0568V18.2727H75.0795L79.8523 25.142H79.9375V18.2727H80.9773Z" fill="white"/>
<path d="M77.5 0L83.9952 11.25H71.0048L77.5 0Z" fill="white"/>
<path d="M117.487 89.927C117.79 89.6445 117.807 89.17 117.524 88.867L112.921 83.9304C112.638 83.6274 112.164 83.6109 111.861 83.8934C111.558 84.1759 111.541 84.6504 111.824 84.9534L115.916 89.3415L111.528 93.4335C111.225 93.716 111.208 94.1906 111.491 94.4935C111.773 94.7964 112.248 94.813 112.551 94.5305L117.487 89.927ZM37.9979 87.371L116.95 90.1281L117.002 88.629L38.0502 85.8719L37.9979 87.371Z" fill="black"/>
</svg>
