<svg width="155" height="165" viewBox="0 0 155 165" fill="none" xmlns="http://www.w3.org/2000/svg">
<circle cx="77.5" cy="87.5" r="76.75" stroke="white" stroke-width="1.5"/>
<circle cx="77.5" cy="87.5" r="51.75" fill="white" stroke="white" stroke-width="1.5"/>
<path d="M80.9773 18.2727V27H79.9545L75.1989 20.1477H75.1136V27H74.0568V18.2727H75.0795L79.8523 25.142H79.9375V18.2727H80.9773Z" fill="white"/>
<path d="M77.5 0L83.9952 11.25H71.0048L77.5 0Z" fill="white"/>
<path d="M117.448 90.6246C117.756 90.3475 117.78 89.8732 117.503 89.5654L112.987 84.5492C112.709 84.2414 112.235 84.2165 111.927 84.4937C111.62 84.7708 111.595 85.2451 111.872 85.5529L115.887 90.0117L111.428 94.0265C111.12 94.3037 111.095 94.7779 111.372 95.0857C111.649 95.3936 112.124 95.4184 112.431 95.1412L117.448 90.6246ZM38.0149 86.6817L116.907 90.8162L116.985 89.3183L38.0934 85.1837L38.0149 86.6817Z" fill="black"/>
</svg>
