<svg width="155" height="165" viewBox="0 0 155 165" fill="none" xmlns="http://www.w3.org/2000/svg">
<circle cx="77.5" cy="87.5" r="76.75" stroke="white" stroke-width="1.5"/>
<circle cx="77.5" cy="87.5" r="51.75" fill="white" stroke="white" stroke-width="1.5"/>
<path d="M80.9773 18.2727V27H79.9545L75.1989 20.1477H75.1136V27H74.0568V18.2727H75.0795L79.8523 25.142H79.9375V18.2727H80.9773Z" fill="white"/>
<path d="M77.5 0L83.9952 11.25H71.0048L77.5 0Z" fill="white"/>
<path d="M117.396 91.3214C117.708 91.0497 117.742 90.5759 117.47 90.2633L113.041 85.169C112.77 84.8564 112.296 84.8233 111.983 85.095C111.671 85.3668 111.638 85.8405 111.909 86.1531L115.846 90.6814L111.317 94.6177C111.005 94.8895 110.972 95.3632 111.243 95.6758C111.515 95.9884 111.989 96.0215 112.302 95.7498L117.396 91.3214ZM38.0439 85.9928L116.851 91.5035L116.956 90.0072L38.1485 84.4964L38.0439 85.9928Z" fill="black"/>
</svg>
