<svg width="155" height="165" viewBox="0 0 155 165" fill="none" xmlns="http://www.w3.org/2000/svg">
<circle cx="77.5" cy="87.5" r="76.75" stroke="white" stroke-width="1.5"/>
<circle cx="77.5" cy="87.5" r="51.75" fill="white" stroke="white" stroke-width="1.5"/>
<path d="M80.9773 18.2727V27H79.9545L75.1989 20.1477H75.1136V27H74.0568V18.2727H75.0795L79.8523 25.142H79.9375V18.2727H80.9773Z" fill="white"/>
<path d="M77.5 0L83.9952 11.25H71.0048L77.5 0Z" fill="white"/>
<path d="M117.332 92.0172C117.649 91.7509 117.69 91.2779 117.424 90.9605L113.085 85.7897C112.819 85.4724 112.346 85.4311 112.029 85.6973C111.711 85.9636 111.67 86.4366 111.936 86.7539L115.793 91.3502L111.197 95.2069C110.879 95.4732 110.838 95.9462 111.104 96.2635C111.371 96.5809 111.844 96.6222 112.161 96.356L117.332 92.0172ZM38.0849 85.3045L116.784 92.1898L116.915 90.6955L38.2157 83.8102L38.0849 85.3045Z" fill="black"/>
</svg>
