<svg width="155" height="165" viewBox="0 0 155 165" fill="none" xmlns="http://www.w3.org/2000/svg">
<circle cx="77.5" cy="87.5" r="76.75" stroke="white" stroke-width="1.5"/>
<circle cx="77.5" cy="87.5" r="51.75" fill="white" stroke="white" stroke-width="1.5"/>
<path d="M80.9773 18.2727V27H79.9545L75.1989 20.1477H75.1136V27H74.0568V18.2727H75.0795L79.8523 25.142H79.9375V18.2727H80.9773Z" fill="white"/>
<path d="M77.5 0L83.9952 11.25H71.0048L77.5 0Z" fill="white"/>
<path d="M117.256 92.7117C117.578 92.451 117.627 91.9788 117.366 91.6569L113.119 86.4111C112.858 86.0892 112.386 86.0396 112.064 86.3003C111.742 86.5609 111.692 87.0332 111.953 87.3551L115.729 92.018L111.066 95.7939C110.744 96.0546 110.694 96.5269 110.955 96.8488C111.216 97.1707 111.688 97.2203 112.01 96.9596L117.256 92.7117ZM38.138 84.617L116.705 92.8747L116.862 91.383L38.2948 83.1252L38.138 84.617Z" fill="black"/>
</svg>
