<svg width="155" height="165" viewBox="0 0 155 165" fill="none" xmlns="http://www.w3.org/2000/svg">
<circle cx="77.5" cy="87.5" r="76.75" stroke="white" stroke-width="1.5"/>
<circle cx="77.5" cy="87.5" r="51.75" fill="white" stroke="white" stroke-width="1.5"/>
<path d="M80.9773 18.2727V27H79.9545L75.1989 20.1477H75.1136V27H74.0568V18.2727H75.0795L79.8523 25.142H79.9375V18.2727H80.9773Z" fill="white"/>
<path d="M77.5 0L83.9952 11.25H71.0048L77.5 0Z" fill="white"/>
<path d="M117.167 93.4048C117.494 93.1498 117.552 92.6785 117.297 92.3521L113.141 87.033C112.886 86.7066 112.415 86.6487 112.088 86.9037C111.762 87.1588 111.704 87.6301 111.959 87.9565L115.653 92.6846L110.925 96.3785C110.598 96.6335 110.54 97.1049 110.795 97.4313C111.051 97.7577 111.522 97.8156 111.848 97.5605L117.167 93.4048ZM38.203 83.9306L116.614 93.5582L116.797 92.0694L38.3858 82.4417L38.203 83.9306Z" fill="black"/>
</svg>
