<svg width="155" height="165" viewBox="0 0 155 165" fill="none" xmlns="http://www.w3.org/2000/svg">
<circle cx="77.5" cy="87.5" r="76.75" stroke="white" stroke-width="1.5"/>
<circle cx="77.5" cy="87.5" r="51.75" fill="white" stroke="white" stroke-width="1.5"/>
<path d="M80.9773 18.2727V27H79.9545L75.1989 20.1477H75.1136V27H74.0568V18.2727H75.0795L79.8523 25.142H79.9375V18.2727H80.9773Z" fill="white"/>
<path d="M77.5 0L83.9952 11.25H71.0048L77.5 0Z" fill="white"/>
<path d="M117.067 94.0963C117.398 93.847 117.464 93.3768 117.215 93.046L113.152 87.6552C112.903 87.3244 112.433 87.2583 112.102 87.5076C111.771 87.7568 111.705 88.2271 111.954 88.5579L115.565 93.3497L110.773 96.9606C110.443 97.2099 110.377 97.6801 110.626 98.0109C110.875 98.3417 111.345 98.4078 111.676 98.1585L117.067 94.0963ZM38.28 83.2453L116.511 94.24L116.72 92.7546L38.4888 81.7599L38.28 83.2453Z" fill="black"/>
</svg>
