<svg width="155" height="165" viewBox="0 0 155 165" fill="none" xmlns="http://www.w3.org/2000/svg">
<circle cx="77.5" cy="87.5" r="76.75" stroke="white" stroke-width="1.5"/>
<circle cx="77.5" cy="87.5" r="51.75" fill="white" stroke="white" stroke-width="1.5"/>
<path d="M80.9773 18.2727V27H79.9545L75.1989 20.1477H75.1136V27H74.0568V18.2727H75.0795L79.8523 25.142H79.9375V18.2727H80.9773Z" fill="white"/>
<path d="M77.5 0L83.9952 11.25H71.0048L77.5 0Z" fill="white"/>
<path d="M116.955 94.7859C117.29 94.5424 117.364 94.0734 117.12 93.7383L113.153 88.2774C112.909 87.9423 112.44 87.8681 112.105 88.1115C111.77 88.355 111.696 88.824 111.939 89.1591L115.466 94.0132L110.612 97.5399C110.277 97.7834 110.203 98.2524 110.446 98.5875C110.69 98.9226 111.159 98.9969 111.494 98.7535L116.955 94.7859ZM38.369 82.5616L116.396 94.9199L116.631 93.4384L38.6036 81.0801L38.369 82.5616Z" fill="black"/>
</svg>
