<svg width="72" height="72" viewBox="0 0 72 72" fill="none" xmlns="http://www.w3.org/2000/svg">
<circle cx="3.96" cy="43.96" r="3.96" fill="white"/>
<circle cx="3.96" cy="35.96" r="3.96" fill="white"/>
<circle cx="3.96" cy="27.96" r="3.96" fill="white"/>
<circle cx="59.96" cy="59.96" r="3.96" fill="white"/>
<circle cx="59.96" cy="51.96" r="3.96" fill="white"/>
<circle cx="59.96" cy="19.96" r="3.96" fill="white"/>
<circle cx="59.96" cy="3.96" r="3.96" fill="white"/>
<circle cx="67.96" cy="51.96" r="3.96" fill="white"/>
<circle cx="67.96" cy="43.96" r="3.96" fill="white"/>
<circle cx="67.96" cy="11.96" r="3.96" fill="white"/>
<circle cx="43.96" cy="67.96" r="3.96" fill="white"/>
<circle cx="43.96" cy="59.96" r="3.96" fill="white"/>
<circle cx="43.96" cy="51.96" r="3.96" fill="white"/>
<circle cx="51.96" cy="59.96" r="3.96" fill="white"/>
<circle cx="51.96" cy="51.96" r="3.96" fill="white"/>
<circle cx="51.96" cy="11.96" r="3.96" fill="white"/>
<circle cx="28" cy="68" r="4" fill="white"/>
<circle cx="28" cy="60" r="4" fill="white"/>
<circle cx="28" cy="52" r="4" fill="white"/>
<circle cx="28" cy="44" r="4" fill="white"/>
<circle cx="28" cy="36" r="4" fill="white"/>
<circle cx="28" cy="4" r="4" fill="white"/>
<circle cx="36" cy="68" r="4" fill="white"/>
<circle cx="36" cy="60" r="4" fill="white"/>
<circle cx="36" cy="52" r="4" fill="white"/>
<circle cx="36" cy="44" r="4" fill="white"/>
<circle cx="11.96" cy="59.96" r="3.96" fill="white"/>
<circle cx="11.96" cy="51.96" r="3.96" fill="white"/>
<circle cx="11.96" cy="43.96" r="3.96" fill="white"/>
<circle cx="11.96" cy="35.96" r="3.96" fill="white"/>
<circle cx="11.96" cy="27.96" r="3.96" fill="white"/>
<circle cx="11.96" cy="19.96" r="3.96" fill="white"/>
<circle cx="11.96" cy="11.96" r="3.96" fill="white"/>
<circle cx="19.96" cy="59.96" r="3.96" fill="white"/>
<circle cx="19.96" cy="51.96" r="3.96" fill="white"/>
<circle cx="19.96" cy="43.96" r="3.96" fill="white"/>
<circle cx="19.96" cy="35.96" r="3.96" fill="white"/>
<circle cx="19.96" cy="27.96" r="3.96" fill="white"/>
<circle cx="19.96" cy="19.96" r="3.96" fill="white"/>
<circle cx="19.96" cy="11.96" r="3.96" fill="white"/>
<circle cx="19.96" cy="3.96" r="3.96" fill="white"/>
</svg>
