<svg width="200" height="119" viewBox="0 0 200 119" fill="none" xmlns="http://www.w3.org/2000/svg">
<path d="M24 77C24 -25.3118 174 -22.8641 174 75.5314" stroke="white" stroke-opacity="0.2"/>
<path d="M37 77C37 -3.77247 162 -1.84012 162 75.8406" stroke="white"/>
<line y1="76.5" x2="200" y2="76.5" stroke="white"/>
<path d="M99.3536 30.6464C99.1583 30.4512 98.8417 30.4512 98.6464 30.6464L95.4645 33.8284C95.2692 34.0237 95.2692 34.3403 95.4645 34.5355C95.6597 34.7308 95.9763 34.7308 96.1716 34.5355L99 31.7071L101.828 34.5355C102.024 34.7308 102.34 34.7308 102.536 34.5355C102.731 34.3403 102.731 34.0237 102.536 33.8284L99.3536 30.6464ZM99.5 66V31H98.5V66H99.5Z" fill="white"/>
<line x1="23.9967" y1="92.5" x2="173.997" y2="91.5" stroke="white" stroke-opacity="0.2"/>
<line x1="50" y1="105.5" x2="150" y2="105.5" stroke="white" stroke-opacity="0.2"/>
<line x1="75" y1="118.5" x2="125" y2="118.5" stroke="white" stroke-opacity="0.2"/>
</svg>
