<svg width="200" height="119" viewBox="0 0 200 119" fill="none" xmlns="http://www.w3.org/2000/svg">
<path d="M24 77C24 -25.3118 174 -22.8641 174 75.5314" stroke="white" stroke-opacity="0.2"/>
<path d="M37 77C37 -3.77247 162 -1.84012 162 75.8406" stroke="white"/>
<line y1="76.5" x2="200" y2="76.5" stroke="white"/>
<path d="M98.6464 66.3536C98.8417 66.5488 99.1583 66.5488 99.3536 66.3536L102.536 63.1716C102.731 62.9763 102.731 62.6597 102.536 62.4645C102.34 62.2692 102.024 62.2692 101.828 62.4645L99 65.2929L96.1716 62.4645C95.9763 62.2692 95.6597 62.2692 95.4645 62.4645C95.2692 62.6597 95.2692 62.9763 95.4645 63.1716L98.6464 66.3536ZM98.5 31V66H99.5V31H98.5Z" fill="white"/>
<line x1="23.9967" y1="92.5" x2="173.997" y2="91.5" stroke="white" stroke-opacity="0.2"/>
<line x1="50" y1="105.5" x2="150" y2="105.5" stroke="white" stroke-opacity="0.2"/>
<line x1="75" y1="118.5" x2="125" y2="118.5" stroke="white" stroke-opacity="0.2"/>
</svg>
